<svg width="105" height="35" viewBox="0 0 105 35" fill="none" xmlns="http://www.w3.org/2000/svg">
<rect width="105" height="35" rx="17.5" fill="#007CCE"/>
<path d="M58.9668 24H57.3125V16.125C57.3125 15.528 57.431 15.0244 57.668 14.6143C57.9095 14.2041 58.2536 13.8919 58.7002 13.6777C59.1514 13.4635 59.6868 13.3564 60.3066 13.3564C60.6712 13.3564 61.0221 13.3952 61.3594 13.4727C61.7012 13.5501 62.0544 13.6481 62.4189 13.7666L62.166 15.1064C61.9336 15.029 61.6761 14.9561 61.3936 14.8877C61.111 14.8148 60.7852 14.7783 60.416 14.7783C59.9193 14.7783 59.5524 14.8923 59.3154 15.1201C59.083 15.3434 58.9668 15.6784 58.9668 16.125V24ZM60.4502 16.6035V17.8066H56.1777V16.6035H60.4502ZM63.1982 16.6035V24H61.5508V16.6035H63.1982ZM66.9008 13.5V24H65.2465V13.5H66.9008ZM72.1961 16.6035V17.8066H68.0262V16.6035H72.1961ZM69.2293 14.792H70.8768V21.9561C70.8768 22.1839 70.9087 22.3594 70.9725 22.4824C71.0408 22.6009 71.1342 22.6807 71.2527 22.7217C71.3712 22.7627 71.5102 22.7832 71.6697 22.7832C71.7837 22.7832 71.893 22.7764 71.9979 22.7627C72.1027 22.749 72.187 22.7354 72.2508 22.7217L72.2576 23.9795C72.1209 24.0205 71.9614 24.057 71.7791 24.0889C71.6014 24.1208 71.3963 24.1367 71.1639 24.1367C70.7856 24.1367 70.4507 24.0706 70.159 23.9385C69.8673 23.8018 69.6395 23.5807 69.4754 23.2754C69.3113 22.9701 69.2293 22.5645 69.2293 22.0586V14.792ZM76.8283 24.1367C76.2814 24.1367 75.787 24.0479 75.3449 23.8701C74.9074 23.6878 74.5337 23.4349 74.2238 23.1113C73.9185 22.7878 73.6838 22.4072 73.5197 21.9697C73.3557 21.5322 73.2736 21.0605 73.2736 20.5547V20.2812C73.2736 19.7025 73.3579 19.1784 73.5266 18.709C73.6952 18.2396 73.9299 17.8385 74.2307 17.5059C74.5314 17.1686 74.8869 16.9111 75.2971 16.7334C75.7072 16.5557 76.1516 16.4668 76.6301 16.4668C77.1587 16.4668 77.6213 16.5557 78.0178 16.7334C78.4143 16.9111 78.7424 17.1618 79.0021 17.4854C79.2665 17.8044 79.4624 18.1849 79.59 18.627C79.7222 19.069 79.7883 19.5566 79.7883 20.0898V20.7939H74.0734V19.6113H78.1613V19.4814C78.1522 19.1852 78.093 18.9072 77.9836 18.6475C77.8788 18.3877 77.717 18.1781 77.4982 18.0186C77.2795 17.859 76.9878 17.7793 76.6232 17.7793C76.3498 17.7793 76.106 17.8385 75.8918 17.957C75.6822 18.071 75.5067 18.2373 75.3654 18.4561C75.2242 18.6748 75.1148 18.9391 75.0373 19.249C74.9644 19.5544 74.9279 19.8984 74.9279 20.2812V20.5547C74.9279 20.8783 74.9712 21.179 75.0578 21.457C75.149 21.7305 75.2811 21.9697 75.4543 22.1748C75.6275 22.3799 75.8371 22.5417 76.0832 22.6602C76.3293 22.7741 76.6096 22.8311 76.924 22.8311C77.3205 22.8311 77.6737 22.7513 77.9836 22.5918C78.2935 22.4323 78.5624 22.2067 78.7902 21.915L79.6584 22.7559C79.4989 22.9883 79.2915 23.2116 79.0363 23.4258C78.7811 23.6354 78.4689 23.8063 78.0998 23.9385C77.7352 24.0706 77.3114 24.1367 76.8283 24.1367ZM82.8277 18.0117V24H81.1803V16.6035H82.7525L82.8277 18.0117ZM85.0904 16.5557L85.0768 18.0869C84.9765 18.0687 84.8671 18.055 84.7486 18.0459C84.6347 18.0368 84.5208 18.0322 84.4068 18.0322C84.1243 18.0322 83.8759 18.0732 83.6617 18.1553C83.4475 18.2327 83.2675 18.3467 83.1217 18.4971C82.9804 18.6429 82.871 18.8206 82.7936 19.0303C82.7161 19.2399 82.6705 19.4746 82.6568 19.7344L82.2809 19.7617C82.2809 19.2969 82.3264 18.8662 82.4176 18.4697C82.5087 18.0732 82.6454 17.7246 82.8277 17.4238C83.0146 17.123 83.247 16.8883 83.525 16.7197C83.8076 16.5511 84.1334 16.4668 84.5025 16.4668C84.6028 16.4668 84.7099 16.4759 84.8238 16.4941C84.9423 16.5124 85.0312 16.5329 85.0904 16.5557Z" fill="white"/>
<path d="M32.8571 19.506C30.3701 17.646 28.5961 15.6 27.6271 14.45C27.3271 14.094 27.2291 13.833 27.1701 13.374C26.9681 11.802 26.8671 11.016 27.3281 10.508C27.7891 10 28.6041 10 30.2341 10H41.7661C43.3961 10 44.2111 10 44.6721 10.507C45.1331 11.015 45.0321 11.801 44.8301 13.373C44.7701 13.832 44.6721 14.093 44.3731 14.449C43.4031 15.601 41.6261 17.651 39.1331 19.514C39.0178 19.6037 38.9225 19.7165 38.8533 19.8451C38.7841 19.9737 38.7425 20.1154 38.7311 20.261C38.4841 22.992 38.2561 24.488 38.1141 25.244C37.8851 26.466 36.1541 27.201 35.2261 27.856C34.6741 28.246 34.0041 27.782 33.9331 27.178C33.6676 24.8765 33.4429 22.5705 33.2591 20.261C33.2488 20.114 33.2077 19.9708 33.1385 19.8407C33.0692 19.7106 32.9733 19.5966 32.8571 19.506Z" stroke="white" stroke-width="1.5" stroke-linecap="round" stroke-linejoin="round"/>
</svg>
