<svg width="23" height="23" viewBox="0 0 23 23" fill="none" xmlns="http://www.w3.org/2000/svg">
<g filter="url(#filter0_d_6059_31827)">
<path d="M17.75 4.25H12.75M5.25 4.25C5.25 3.375 5.25 2.9375 5.42 2.60313C5.56983 2.30897 5.80897 2.06983 6.10313 1.92C6.4375 1.75 6.875 1.75 7.75 1.75C8.625 1.75 9.0625 1.75 9.39688 1.92C9.69103 2.06983 9.93017 2.30897 10.08 2.60313C10.25 2.9375 10.25 3.375 10.25 4.25C10.25 5.125 10.25 5.5625 10.08 5.89688C9.93017 6.19103 9.69103 6.43017 9.39688 6.58C9.0625 6.75 8.625 6.75 7.75 6.75C6.875 6.75 6.4375 6.75 6.10313 6.58C5.80897 6.43017 5.56983 6.19103 5.42 5.89688C5.25 5.5625 5.25 5.125 5.25 4.25ZM5.25 11.75C5.25 10.875 5.25 10.4375 5.42 10.1031C5.56993 9.8092 5.80907 9.57029 6.10313 9.42062C6.4375 9.25 6.875 9.25 7.75 9.25C8.625 9.25 9.0625 9.25 9.39688 9.42062C9.69093 9.57029 9.93007 9.8092 10.08 10.1031C10.25 10.4375 10.25 10.875 10.25 11.75C10.25 12.625 10.25 13.0625 10.08 13.3969C9.93007 13.6908 9.69093 13.9297 9.39688 14.0794C9.0625 14.25 8.625 14.25 7.75 14.25C6.875 14.25 6.4375 14.25 6.10313 14.0794C5.80907 13.9297 5.56993 13.6908 5.42 13.3969C5.25 13.0625 5.25 12.625 5.25 11.75ZM12.75 11.75C12.75 10.875 12.75 10.4375 12.9206 10.1031C13.0704 9.8093 13.3093 9.5704 13.6031 9.42062C13.9375 9.25 14.375 9.25 15.25 9.25C16.125 9.25 16.5625 9.25 16.8969 9.42062C17.1907 9.5704 17.4296 9.8093 17.5794 10.1031C17.75 10.4375 17.75 10.875 17.75 11.75C17.75 12.625 17.75 13.0625 17.5794 13.3969C17.4296 13.6907 17.1907 13.9296 16.8969 14.0794C16.5625 14.25 16.125 14.25 15.25 14.25C14.375 14.25 13.9375 14.25 13.6031 14.0794C13.3093 13.9296 13.0704 13.6907 12.9206 13.3969C12.75 13.0625 12.75 12.625 12.75 11.75Z" stroke="#121212" stroke-opacity="0.5" stroke-width="1.5" stroke-linecap="round" stroke-linejoin="round"/>
</g>
<defs>
<filter id="filter0_d_6059_31827" x="0" y="0.5" width="23" height="23" filterUnits="userSpaceOnUse" color-interpolation-filters="sRGB">
<feFlood flood-opacity="0" result="BackgroundImageFix"/>
<feColorMatrix in="SourceAlpha" type="matrix" values="0 0 0 0 0 0 0 0 0 0 0 0 0 0 0 0 0 0 127 0" result="hardAlpha"/>
<feOffset dy="4"/>
<feGaussianBlur stdDeviation="2"/>
<feComposite in2="hardAlpha" operator="out"/>
<feColorMatrix type="matrix" values="0 0 0 0 0 0 0 0 0 0 0 0 0 0 0 0 0 0 0.25 0"/>
<feBlend mode="normal" in2="BackgroundImageFix" result="effect1_dropShadow_6059_31827"/>
<feBlend mode="normal" in="SourceGraphic" in2="effect1_dropShadow_6059_31827" result="shape"/>
</filter>
</defs>
</svg>
