<svg width="21" height="22" viewBox="0 0 21 22" fill="none" xmlns="http://www.w3.org/2000/svg">
<path d="M10.076 10.7277C10.7697 10.7277 11.4479 10.5125 12.0247 10.1091C12.6015 9.70583 13.0511 9.13257 13.3166 8.46187C13.5821 7.79118 13.6515 7.05316 13.5162 6.34115C13.3808 5.62914 13.0468 4.97512 12.5562 4.46179C12.0657 3.94846 11.4407 3.59888 10.7603 3.45725C10.0799 3.31562 9.37459 3.38831 8.73366 3.66612C8.09273 3.94393 7.54492 4.41439 7.1595 5.018C6.77408 5.62162 6.56836 6.33127 6.56836 7.05723C6.57121 8.02979 6.94167 8.96167 7.59886 9.64938C8.25605 10.3371 9.14657 10.7248 10.076 10.7277ZM10.076 5.0808C10.4495 5.0808 10.8147 5.19672 11.1253 5.41389C11.4359 5.63106 11.678 5.93974 11.8209 6.30088C11.9639 6.66203 12.0013 7.05942 11.9284 7.44281C11.8555 7.8262 11.6756 8.17837 11.4115 8.45478C11.1473 8.73119 10.8108 8.91942 10.4444 8.99568C10.0781 9.07194 9.6983 9.0328 9.35319 8.88321C9.00807 8.73362 8.71309 8.4803 8.50556 8.15528C8.29803 7.83025 8.18725 7.44813 8.18725 7.05723C8.19009 6.53396 8.38999 6.03297 8.74358 5.66296C9.09717 5.29295 9.57592 5.08377 10.076 5.0808Z" fill="#121212" fill-opacity="0.5"/>
<path d="M20.0835 19.425L18.6481 14.9074C18.5234 14.5132 18.2832 14.1701 17.9616 13.9269C17.64 13.6836 17.2533 13.5525 16.8565 13.5522H14.9354L15.8528 12.2647C16.8255 10.9306 17.356 9.30095 17.3638 7.6229V7.29537C17.3581 6.23965 17.1298 5.19826 16.6951 4.24555C16.2604 3.29283 15.63 2.4523 14.8491 1.78396C13.9897 1.04913 12.9862 0.521432 11.9099 0.238396C10.8336 -0.0446411 9.71094 -0.0760679 8.62172 0.146349C6.96679 0.479877 5.47648 1.41132 4.4112 2.77794C3.34592 4.14455 2.7734 5.85942 2.79369 7.6229C2.79202 9.31642 3.32299 10.9635 4.30466 12.3099L5.22204 13.5974H3.30095C2.90412 13.5977 2.51747 13.7288 2.19588 13.972C1.87429 14.2153 1.63408 14.5584 1.50937 14.9526L0.0739483 19.4702C-0.00605911 19.7587 -0.0213889 20.0627 0.029151 20.3585C0.0796909 20.6543 0.194739 20.9339 0.365349 21.1755C0.539992 21.4303 0.770057 21.638 1.03654 21.7813C1.30302 21.9247 1.59827 21.9996 1.8979 22H18.2919C18.5861 21.9943 18.8749 21.9168 19.1353 21.7737C19.3958 21.6306 19.6207 21.4257 19.7921 21.1755C19.9694 20.9286 20.0883 20.6412 20.139 20.3369C20.1896 20.0326 20.1706 19.7201 20.0835 19.425ZM8.92391 1.80655C9.77996 1.63327 10.662 1.65983 11.5071 1.88434C12.3522 2.10884 13.1396 2.52576 13.813 3.10534C14.4113 3.61553 14.8947 4.25761 15.2287 4.98579C15.5626 5.71397 15.7389 6.5103 15.7449 7.31796V7.6229C15.7426 8.9492 15.3256 10.2383 14.5577 11.2934L12.669 13.891L10.2946 17.2001C10.1543 17.4034 10.0032 17.4034 9.86287 17.2001L7.48849 13.891L5.59978 11.2482C4.8407 10.2054 4.42424 8.93371 4.41259 7.6229C4.39346 6.25373 4.83479 4.92107 5.65943 3.85789C6.48407 2.7947 7.63955 2.06861 8.92391 1.80655ZM18.5186 20.2156C18.4903 20.2497 18.4555 20.2774 18.4165 20.2969C18.3775 20.3163 18.3351 20.3271 18.2919 20.3285H1.86553C1.82234 20.3271 1.77992 20.3163 1.74091 20.2969C1.7019 20.2774 1.66716 20.2497 1.63888 20.2156C1.60705 20.1322 1.60705 20.0392 1.63888 19.9558L3.0743 15.4383C3.09391 15.3826 3.12914 15.3345 3.17538 15.3003C3.22161 15.266 3.27667 15.2472 3.33332 15.2463H6.46319L8.62172 18.2166C8.79764 18.462 9.02577 18.6612 9.28803 18.7985C9.55028 18.9357 9.83947 19.0071 10.1327 19.0071C10.4259 19.0071 10.7151 18.9357 10.9773 18.7985C11.2396 18.6612 11.4677 18.462 11.6437 18.2166L13.8022 15.2463H16.932C16.9887 15.2472 17.0438 15.266 17.09 15.3003C17.1362 15.3345 17.1715 15.3826 17.1911 15.4383L18.6265 19.9558C18.6268 20.0046 18.6173 20.0529 18.5988 20.0976C18.5802 20.1424 18.5529 20.1825 18.5186 20.2156Z" fill="#121212" fill-opacity="0.5"/>
</svg>
