<svg width="13" height="16" viewBox="0 0 13 16" fill="none" xmlns="http://www.w3.org/2000/svg">
<path d="M2.67854 9.0731H6.42854C6.72443 9.0731 6.96425 8.83346 6.96425 8.53739V7.73382C6.96425 6.92185 6.558 6.20596 5.94121 5.769C6.24086 5.4365 6.42854 5.00114 6.42854 4.51953C6.42854 3.48578 5.58729 2.64453 4.55354 2.64453C3.51979 2.64453 2.67854 3.48578 2.67854 4.51953C2.67854 5.00114 2.86622 5.4365 3.16586 5.769C2.54907 6.20596 2.14282 6.92185 2.14282 7.73382V8.53739C2.14282 8.83346 2.38264 9.0731 2.67854 9.0731ZM4.55354 3.71596C4.99657 3.71596 5.35711 4.0765 5.35711 4.51953C5.35711 4.96257 4.99657 5.3231 4.55354 5.3231C4.1105 5.3231 3.74997 4.96257 3.74997 4.51953C3.74997 4.0765 4.1105 3.71596 4.55354 3.71596ZM3.21425 7.73382C3.21425 6.99542 3.81514 6.39453 4.55354 6.39453C5.29193 6.39453 5.89282 6.99542 5.89282 7.73382V8.00167H3.21425V7.73382Z" fill="#121212" fill-opacity="0.5"/>
<path d="M11.7857 0.5H1.07143C0.480536 0.5 0 0.980536 0 1.57143V14.4286C0 15.0193 0.480536 15.5 1.07143 15.5H11.7857C12.3766 15.5 12.8571 15.0193 12.8571 14.4286V1.57143C12.8571 0.980536 12.3766 0.5 11.7857 0.5ZM1.07143 14.4286V1.57143H11.7857L11.7864 14.4286H1.07143Z" fill="#121212" fill-opacity="0.5"/>
<path d="M10.7143 10.6802C10.7143 10.9763 10.4744 11.216 10.1785 11.216H2.67854C2.38264 11.216 2.14282 10.9763 2.14282 10.6802C2.14282 10.3842 2.38264 10.1445 2.67854 10.1445H10.1785C10.4744 10.1445 10.7143 10.3842 10.7143 10.6802Z" fill="#121212" fill-opacity="0.5"/>
<path d="M10.7143 12.8209C10.7143 13.1169 10.4744 13.3566 10.1785 13.3566H2.67854C2.38264 13.3566 2.14282 13.1169 2.14282 12.8209C2.14282 12.5248 2.38264 12.2852 2.67854 12.2852H10.1785C10.4744 12.2852 10.7143 12.5248 10.7143 12.8209Z" fill="#121212" fill-opacity="0.5"/>
<path d="M10.7142 6.93025C10.7142 7.22614 10.4744 7.46596 10.1785 7.46596H8.57136C8.27547 7.46596 8.03564 7.22614 8.03564 6.93025C8.03564 6.63435 8.27547 6.39453 8.57136 6.39453H10.1785C10.4744 6.39453 10.7142 6.63435 10.7142 6.93025Z" fill="#121212" fill-opacity="0.5"/>
<path d="M10.7142 4.78571C10.7142 5.08161 10.4744 5.32143 10.1785 5.32143H8.57136C8.27547 5.32143 8.03564 5.08161 8.03564 4.78571C8.03564 4.48982 8.27547 4.25 8.57136 4.25H10.1785C10.4744 4.25 10.7142 4.48982 10.7142 4.78571Z" fill="#121212" fill-opacity="0.5"/>
</svg>
