<svg width="17" height="16" viewBox="0 0 17 16" fill="none" xmlns="http://www.w3.org/2000/svg">
<path d="M13.8888 9.45409C14.7657 8.94858 15.3711 7.88143 15.3711 6.65004C15.3711 4.93235 14.1928 3.53396 12.7436 3.53396C11.2952 3.53396 10.1162 4.93141 10.1162 6.65004C10.1162 7.88152 10.7216 8.94783 11.5978 9.45323C10.9741 9.65861 10.3991 10.0308 9.91301 10.5472C9.18561 9.27468 8.08281 8.32648 6.79591 7.92581C7.92125 7.30798 8.70431 5.95662 8.70431 4.39232C8.70431 2.24625 7.23187 0.5 5.42213 0.5C3.6124 0.5 2.13995 2.24619 2.13995 4.39232C2.13995 5.95744 2.92309 7.30796 4.04836 7.92581C1.72146 8.64843 0 11.1625 0 14.1445C0 14.4161 0.0134051 14.6785 0.0409207 14.945C0.0733758 15.2619 0.299854 15.5 0.568667 15.5H16.444C16.7128 15.5 16.9393 15.2611 16.9718 14.9442C16.9908 14.7539 17 14.5552 17 14.318C17 12.0026 15.6806 10.0469 13.888 9.45243L13.8888 9.45409ZM12.7444 4.79734C13.6072 4.79734 14.3093 5.62894 14.3093 6.65083C14.3093 7.67272 13.6073 8.50432 12.7444 8.50432C11.8815 8.50432 11.1795 7.67272 11.1795 6.65083C11.1795 5.62894 11.8815 4.79734 12.7444 4.79734ZM3.20345 4.39328C3.20345 2.94302 4.19896 1.7635 5.42306 1.7635C6.64715 1.7635 7.64266 2.94299 7.64266 4.39328C7.64266 5.84357 6.64715 7.02307 5.42306 7.02307C4.19896 7.02307 3.20345 5.84357 3.20345 4.39328ZM9.04805 14.2392H1.06494C1.06423 14.2082 1.06423 14.1772 1.06423 14.1462C1.06423 11.2977 3.01996 8.97972 5.42379 8.97972C7.14318 8.97972 8.63264 10.1659 9.34157 11.8827C9.34509 11.8911 9.34862 11.9003 9.35286 11.9087C9.62871 12.586 9.78323 13.3447 9.78323 14.1462C9.78323 14.1772 9.78323 14.2091 9.78253 14.2392L9.04805 14.2392ZM10.8429 14.2392C10.8429 14.2082 10.845 14.1772 10.845 14.1462C10.845 13.2819 10.6997 12.457 10.4373 11.7033C11.0391 10.9547 11.8638 10.5305 12.7464 10.5305C14.4835 10.5305 15.9009 12.187 15.9376 14.2391H10.8422L10.8429 14.2392Z" fill="#121212" fill-opacity="0.5"/>
</svg>
