<svg width="16" height="18" viewBox="0 0 16 18" fill="none" xmlns="http://www.w3.org/2000/svg">
<path d="M0.000100812 17.1412C0.000983299 17.6149 0.421852 17.9986 0.941541 17.9994H2.82352C3.24703 17.9978 3.6176 17.7388 3.72789 17.3664C3.76671 17.3712 3.80465 17.3753 3.84348 17.3769H9.68005C10.0992 17.3769 11.7579 17.2402 12.3243 16.8051L15.4071 14.4374H15.408C16.0697 13.9283 16.1932 13.042 15.6921 12.3986C15.1909 11.7552 14.2318 11.5694 13.4871 11.9707L10.2958 13.8229V13.8237C10.1917 13.884 10.0717 13.9154 9.94814 13.9154H8.76759L8.78082 13.4803L8.77994 13.4811C8.79141 13.0951 8.63083 12.7219 8.33524 12.4453C8.03966 12.1694 7.63467 12.0134 7.21116 12.0134H3.84339C3.81692 12.0134 3.79133 12.019 3.76486 12.0206V11.9941C3.76398 11.5212 3.34311 11.1367 2.82342 11.1367H0.941441C0.421751 11.1367 0.000880906 11.5212 0 11.9941L0.000100812 17.1412ZM3.84356 12.8707H7.21134C7.38074 12.8707 7.5431 12.9334 7.66132 13.0436C7.77955 13.1546 7.84396 13.3042 7.83955 13.4586L7.82631 13.9154H7.06399C6.8046 13.9154 6.59372 14.1076 6.59372 14.3441C6.59372 14.5813 6.8046 14.7735 7.06399 14.7735H9.9484C10.251 14.7735 10.5466 14.6947 10.8007 14.5475L13.9745 12.705C14.1844 12.594 14.4421 12.5876 14.6582 12.6865C14.8762 12.7862 15.0253 12.9785 15.0535 13.1988C15.0826 13.4192 14.9873 13.6379 14.8012 13.7811L11.7185 16.1488C11.0717 16.3893 10.3791 16.5155 9.68031 16.5188H3.84374C3.8005 16.5188 3.76521 16.4866 3.76521 16.4472V12.943C3.76521 12.9028 3.80033 12.8715 3.84356 12.8707ZM0.941541 11.9941H2.82352V16.448L2.8244 16.4513V17.1413H0.941543L0.941541 11.9941Z" fill="#999999" fill-opacity="0.5"/>
<path d="M14.9703 12.0045C14.9703 12.0045 14.9703 12.0045 14.9703 12.0045L14.708 12.5777M14.9703 12.0045L14.708 12.5777M14.9703 12.0045C14.5444 11.8096 14.0419 11.821 13.624 12.0419L13.6108 12.0489L13.5979 12.0564L13.5522 12.0829L13.4871 11.9707M14.9703 12.0045L9.51793 13.9154M14.708 12.5777C14.865 12.6374 15.0026 12.7339 15.1004 12.8595C15.1753 12.9557 15.2224 13.0634 15.2405 13.1741L3.8642 16.6269C3.85902 16.6265 3.85242 16.6258 3.84374 16.6249C3.83722 16.6242 3.82954 16.6233 3.82041 16.6222L3.5744 16.5916V16.4513V16.4472V16.3503L3.57352 16.347V12.943V12.7836L3.81035 12.7692C3.82169 12.7685 3.83223 12.7677 3.84163 12.7668C3.84228 12.7668 3.84293 12.7667 3.84356 12.7667C3.85424 12.7657 3.8634 12.7647 3.87054 12.7638L3.87455 12.7634H7.21116C7.21122 12.7634 7.21128 12.7634 7.21134 12.7634C7.42093 12.7634 7.61326 12.8306 7.75855 12.9393C7.75869 12.9394 7.75883 12.9395 7.75896 12.9396C7.78155 12.9565 7.80299 12.9744 7.82319 12.9932C7.97049 13.1313 8.03498 13.3004 8.03027 13.4588L8.03012 13.464L8.03011 13.4641L8.01654 13.9209L8.01349 14.0235H7.82631H7.06399C7.12002 14.0235 7.18314 14.0445 7.23718 14.0938C7.29238 14.1442 7.34372 14.232 7.34372 14.3441C7.34372 14.4573 7.29179 14.5453 7.23682 14.5954C7.18293 14.6445 7.11999 14.6654 7.06399 14.6654H7.82631H7.99442L7.99121 14.7735H7.06399C6.8046 14.7735 6.59372 14.5813 6.59372 14.3441C6.59372 14.1076 6.8046 13.9154 7.06399 13.9154H7.82631L7.83955 13.4586M14.708 12.5777C14.4651 12.4854 14.1759 12.4814 13.9164 12.5952C13.9149 12.5958 13.9134 12.5965 13.9118 12.5972C13.8917 12.6061 13.8717 12.6158 13.852 12.6262L11.0458 14.2548V14.256L10.7358 14.4356L10.8007 14.5475M10.8007 14.5475L10.7357 14.4356L10.6718 14.4727C10.4488 14.6018 10.1984 14.6654 9.9484 14.6654C9.94831 14.6654 9.94822 14.6654 9.94814 14.6654H8.76759H8.59429L8.47572 14.7735H9.9484C10.251 14.7735 10.5466 14.6947 10.8007 14.5475ZM10.8007 14.5475L13.9745 12.705C14.1844 12.594 14.4421 12.5876 14.6582 12.6865C14.8762 12.7862 15.0253 12.9785 15.0535 13.1988C15.0826 13.4192 14.9873 13.6379 14.8012 13.7811L11.7185 16.1488C11.0717 16.3893 10.3791 16.5155 9.68031 16.5188H3.84374C3.8005 16.5188 3.76521 16.4866 3.76521 16.4472V12.943C3.76521 12.9028 3.80033 12.8715 3.84356 12.8707H7.21134C7.38074 12.8707 7.5431 12.9334 7.66132 13.0436C7.7005 13.0804 7.73376 13.1214 7.76057 13.1654H7.82631V13.326C7.8363 13.3692 7.84083 13.4137 7.83955 13.4586M7.83955 13.4586L7.83957 13.4586L7.83955 13.4586ZM3.01521 16.3955V12.943C3.01521 12.8994 3.01827 12.8574 3.0241 12.817L3.01486 12.8176V12.0206L3.01521 16.3955ZM3.01521 16.3955L2.8244 16.4478V16.3913H2.82352V12.7441V11.9941H2.07352L3.01521 16.3955ZM3.57352 12.1681C3.63891 12.1452 3.70567 12.1305 3.77115 12.1242C3.79079 12.1223 3.8103 12.1212 3.82964 12.1208L3.84339 12.1206L3.84356 12.1206V12.1207H7.21116H7.21134C7.56212 12.1207 7.90958 12.2498 8.17266 12.4949L8.17463 12.4968C8.19461 12.5155 8.21398 12.5349 8.23274 12.5548L8.33516 12.4453L8.23289 12.5549C8.30275 12.6291 8.36396 12.7109 8.41506 12.7988L8.54107 12.6839C8.4824 12.5986 8.41356 12.5186 8.33524 12.4453C8.03966 12.1694 7.63467 12.0134 7.21116 12.0134L3.57352 12.1681ZM3.57352 12.1681V12.0206V11.9944L3.76325 11.9941L3.57352 12.1681ZM9.51793 13.9154L9.51724 13.9382L9.18929 13.9282L9.27619 14.0235H9.94814H9.9484C10.0952 14.0235 10.2361 13.991 10.3591 13.933C10.3592 13.9329 10.3594 13.9328 10.3595 13.9328L10.2962 13.8237L10.2958 13.8229M9.51793 13.9154H9.94814C10.0717 13.9154 10.1917 13.884 10.2958 13.8237M9.51793 13.9154L10.2958 13.8237M10.2958 13.8229H10.5551L13.5487 12.085L13.4871 11.9707M10.2958 13.8229V13.8237M10.2958 13.8229L13.4871 11.9707M13.4871 11.9707C14.2318 11.5694 15.1909 11.7552 15.6921 12.3986C16.1932 13.042 16.0697 13.9283 15.408 14.4374L10.2958 13.8237M2.8244 16.4513V16.448H2.83613H3.01521C3.01521 16.4491 3.01521 16.4502 3.01522 16.4513H2.8244ZM2.8244 16.4513V17.1413H2.0744L2.8244 16.4513ZM8.57614 13.2576L8.76759 13.4676V13.4799L8.58939 13.4745C8.59117 13.4009 8.5866 13.3285 8.57614 13.2576Z" stroke="#121212" stroke-opacity="0.5" stroke-width="1.5"/>
<mask id="path-3-inside-1_6057_31258" fill="white">
<path d="M5.66562 9.58104C5.7512 10.6989 6.77115 11.5659 8.00024 11.5659C9.22933 11.5659 10.2493 10.6989 10.3349 9.58104C10.536 9.40491 10.649 9.16121 10.6499 8.90628V7.51252C11.6998 6.8265 12.3792 5.76569 12.5204 4.59468C12.6606 3.42449 12.2477 2.25435 11.3857 1.37768C10.5228 0.501049 9.29197 0 8.00031 0C6.70865 0 5.47776 0.501049 4.61492 1.37768C3.7529 2.25431 3.33998 3.42449 3.48027 4.59468C3.62144 5.76567 4.30082 6.8265 5.35077 7.51252V8.90628C5.35165 9.16123 5.46446 9.40492 5.66562 9.58104ZM8.00024 10.7078C7.40204 10.707 6.86912 10.3636 6.66883 9.85046H9.33166C9.13137 10.3636 8.59845 10.707 8.00024 10.7078ZM4.39508 4.14039C4.39596 2.97905 5.07094 1.90383 6.16943 1.31354C7.26792 0.723264 8.6258 0.705537 9.74184 1.2677C10.8589 1.82908 11.5665 2.88586 11.6044 4.04719C11.6415 5.20932 11.0035 6.30228 9.92624 6.92324C9.79037 7.00205 9.70831 7.13878 9.70831 7.28515V8.90652C9.70831 8.95397 9.66596 8.99257 9.6139 8.99257H6.3864C6.33434 8.99257 6.29199 8.95397 6.29199 8.90652V8.34918H8.00016C8.12456 8.34918 8.24455 8.30414 8.3328 8.22371C8.42105 8.14329 8.47044 8.03391 8.47044 7.9205V5.7385L9.27336 5.00663H9.27424C9.456 4.83854 9.45511 4.56832 9.27159 4.40183C9.08895 4.23536 8.79249 4.23455 8.60897 4.40023L8.00017 4.95435L7.39138 4.39942V4.40023C7.20785 4.23455 6.9114 4.23536 6.72875 4.40184C6.54523 4.56831 6.54435 4.83854 6.72611 5.00663L7.5299 5.7385V7.49096H6.292V7.28507C6.292 7.1387 6.20995 7.00197 6.07407 6.92316C5.02676 6.32077 4.39244 5.26964 4.39508 4.14039Z"/>
</mask>
<path d="M5.66562 9.58104C5.7512 10.6989 6.77115 11.5659 8.00024 11.5659C9.22933 11.5659 10.2493 10.6989 10.3349 9.58104C10.536 9.40491 10.649 9.16121 10.6499 8.90628V7.51252C11.6998 6.8265 12.3792 5.76569 12.5204 4.59468C12.6606 3.42449 12.2477 2.25435 11.3857 1.37768C10.5228 0.501049 9.29197 0 8.00031 0C6.70865 0 5.47776 0.501049 4.61492 1.37768C3.7529 2.25431 3.33998 3.42449 3.48027 4.59468C3.62144 5.76567 4.30082 6.8265 5.35077 7.51252V8.90628C5.35165 9.16123 5.46446 9.40492 5.66562 9.58104ZM8.00024 10.7078C7.40204 10.707 6.86912 10.3636 6.66883 9.85046H9.33166C9.13137 10.3636 8.59845 10.707 8.00024 10.7078ZM4.39508 4.14039C4.39596 2.97905 5.07094 1.90383 6.16943 1.31354C7.26792 0.723264 8.6258 0.705537 9.74184 1.2677C10.8589 1.82908 11.5665 2.88586 11.6044 4.04719C11.6415 5.20932 11.0035 6.30228 9.92624 6.92324C9.79037 7.00205 9.70831 7.13878 9.70831 7.28515V8.90652C9.70831 8.95397 9.66596 8.99257 9.6139 8.99257H6.3864C6.33434 8.99257 6.29199 8.95397 6.29199 8.90652V8.34918H8.00016C8.12456 8.34918 8.24455 8.30414 8.3328 8.22371C8.42105 8.14329 8.47044 8.03391 8.47044 7.9205V5.7385L9.27336 5.00663H9.27424C9.456 4.83854 9.45511 4.56832 9.27159 4.40183C9.08895 4.23536 8.79249 4.23455 8.60897 4.40023L8.00017 4.95435L7.39138 4.39942V4.40023C7.20785 4.23455 6.9114 4.23536 6.72875 4.40184C6.54523 4.56831 6.54435 4.83854 6.72611 5.00663L7.5299 5.7385V7.49096H6.292V7.28507C6.292 7.1387 6.20995 7.00197 6.07407 6.92316C5.02676 6.32077 4.39244 5.26964 4.39508 4.14039Z" fill="#999999" fill-opacity="0.5"/>
<path d="M5.66562 9.58104L7.16124 9.46653L7.11449 8.85588L6.65369 8.45245L5.66562 9.58104ZM10.3349 9.58104L9.34677 8.45248L8.88601 8.85589L8.83925 9.46651L10.3349 9.58104ZM10.6499 8.90628L12.1499 8.91146V8.90628H10.6499ZM10.6499 7.51252L9.82939 6.2568L9.14985 6.7008V7.51252H10.6499ZM12.5204 4.59468L14.0096 4.77421L14.0097 4.77323L12.5204 4.59468ZM11.3857 1.37768L12.4553 0.325991L12.4547 0.32542L11.3857 1.37768ZM4.61492 1.37768L3.54588 0.325462L3.54539 0.325966L4.61492 1.37768ZM3.48027 4.59468L1.99093 4.77323L1.99105 4.77421L3.48027 4.59468ZM5.35077 7.51252H6.85077V6.7008L6.17124 6.2568L5.35077 7.51252ZM5.35077 8.90628H3.85076L3.85078 8.91147L5.35077 8.90628ZM8.00024 10.7078L7.99823 12.2078L8.00226 12.2078L8.00024 10.7078ZM6.66883 9.85046V8.35046H4.47313L5.27151 10.3959L6.66883 9.85046ZM9.33166 9.85046L10.729 10.3959L11.5274 8.35046H9.33166V9.85046ZM4.39508 4.14039L5.89508 4.1439L5.89508 4.14153L4.39508 4.14039ZM9.74184 1.2677L9.06704 2.60735L9.06827 2.60796L9.74184 1.2677ZM11.6044 4.04719L13.1037 3.99938L13.1036 3.9982L11.6044 4.04719ZM9.92624 6.92324L9.17717 5.62366L9.17361 5.62572L9.92624 6.92324ZM6.29199 8.34918V6.84918H4.79199V8.34918H6.29199ZM8.47044 5.7385L7.45996 4.62993L6.97044 5.07614V5.7385H8.47044ZM9.27336 5.00663V3.50663H8.6923L8.26288 3.89806L9.27336 5.00663ZM9.27424 5.00663V6.50663H9.86152L10.2927 6.10789L9.27424 5.00663ZM9.27159 4.40183L8.26111 5.51041L8.26377 5.51282L9.27159 4.40183ZM8.60897 4.40023L7.60382 3.2868L7.59929 3.29093L8.60897 4.40023ZM8.00017 4.95435L6.98969 6.06292L7.99944 6.98333L9.00986 6.06365L8.00017 4.95435ZM7.39138 4.39942L8.40186 3.29085L5.89138 1.0025V4.39942H7.39138ZM7.39138 4.40023L6.38623 5.51364L8.89138 7.77518V4.40023H7.39138ZM6.72875 4.40184L7.73658 5.51283L7.73923 5.51041L6.72875 4.40184ZM6.72611 5.00663L5.70764 6.10793L5.71623 6.11575L6.72611 5.00663ZM7.5299 5.7385H9.0299V5.07565L8.53978 4.62938L7.5299 5.7385ZM7.5299 7.49096V8.99096H9.0299V7.49096H7.5299ZM6.292 7.49096H4.792V8.99096H6.292V7.49096ZM6.07407 6.92316L6.82669 5.62563L6.82195 5.6229L6.07407 6.92316ZM4.16999 9.69554C4.32409 11.7083 6.10597 13.0659 8.00024 13.0659V10.0659C7.43634 10.0659 7.17831 9.68956 7.16124 9.46653L4.16999 9.69554ZM8.00024 13.0659C9.89454 13.0659 11.6764 11.7083 11.8305 9.69557L8.83925 9.46651C8.82217 9.68958 8.56413 10.0659 8.00024 10.0659V13.0659ZM11.323 10.7096C11.834 10.2622 12.1474 9.61533 12.1498 8.91146L9.14986 8.9011C9.15053 8.7071 9.23806 8.54766 9.34677 8.45248L11.323 10.7096ZM12.1499 8.90628V7.51252H9.14985V8.90628H12.1499ZM11.4703 8.76824C12.8651 7.85694 13.8117 6.41518 14.0096 4.77421L11.0311 4.41514C10.9466 5.1162 10.5345 5.79607 9.82939 6.2568L11.4703 8.76824ZM14.0097 4.77323C14.2069 3.12804 13.6207 1.5112 12.4553 0.325991L10.3161 2.42937C10.8748 2.9975 11.1144 3.72094 11.031 4.41613L14.0097 4.77323ZM12.4547 0.32542C11.2946 -0.853116 9.67166 -1.5 8.00031 -1.5V1.5C8.91228 1.5 9.75098 1.85521 10.3167 2.42994L12.4547 0.32542ZM8.00031 -1.5C6.329 -1.5 4.70594 -0.853138 3.54588 0.325462L5.68396 2.4299C6.24958 1.85524 7.08831 1.5 8.00031 1.5V-1.5ZM3.54539 0.325966C2.37994 1.51116 1.7937 3.12806 1.99093 4.77323L4.9696 4.41613C4.88626 3.72092 5.12585 2.99746 5.68445 2.42939L3.54539 0.325966ZM1.99105 4.77421C2.18888 6.41515 3.13555 7.85693 4.53031 8.76824L6.17124 6.2568C5.46609 5.79607 5.054 5.11618 4.96948 4.41514L1.99105 4.77421ZM3.85077 7.51252V8.90628H6.85077V7.51252H3.85077ZM3.85078 8.91147C3.85321 9.61483 4.16607 10.2618 4.67754 10.7096L6.65369 8.45245C6.76285 8.54801 6.85009 8.70763 6.85076 8.90109L3.85078 8.91147ZM8.00226 9.2078C7.98861 9.20778 7.98736 9.20362 7.99753 9.21017C8.00803 9.21694 8.04232 9.24396 8.06616 9.30505L5.27151 10.3959C5.72018 11.5454 6.85151 12.2063 7.99823 12.2078L8.00226 9.2078ZM6.66883 11.3505H9.33166V8.35046H6.66883V11.3505ZM7.93433 9.30504C7.95817 9.24396 7.99245 9.21694 8.00295 9.21018C8.01313 9.20362 8.01188 9.20778 7.99823 9.2078L8.00226 12.2078C9.14899 12.2063 10.2803 11.5454 10.729 10.3959L7.93433 9.30504ZM5.89508 4.14153C5.8955 3.58081 6.2226 2.98782 6.87944 2.63486L5.45941 -0.00777126C3.91927 0.81983 2.89642 2.3773 2.89508 4.13925L5.89508 4.14153ZM6.87944 2.63486C7.54627 2.27654 8.38728 2.26494 9.06704 2.60735L10.4166 -0.0719436C8.86432 -0.853868 6.98957 -0.830012 5.45941 -0.00777126L6.87944 2.63486ZM9.06827 2.60796C9.73965 2.94538 10.0868 3.53287 10.1052 4.09618L13.1036 3.9982C13.0461 2.23884 11.9781 0.712776 10.4154 -0.07256L9.06827 2.60796ZM10.1052 4.09499C10.1231 4.65769 9.81654 5.25513 9.17717 5.62366L10.6753 8.22281C12.1906 7.34943 13.1598 5.76095 13.1037 3.99938L10.1052 4.09499ZM9.17361 5.62572C8.61371 5.95049 8.20831 6.5608 8.20831 7.28515H11.2083C11.2083 7.71676 10.967 8.05361 10.6789 8.22075L9.17361 5.62572ZM8.20831 7.28515V8.90652H11.2083V7.28515H8.20831ZM8.20831 8.90652C8.20831 7.99776 8.97136 7.49257 9.6139 7.49257V10.4926C10.3606 10.4926 11.2083 9.91017 11.2083 8.90652H8.20831ZM9.6139 7.49257H6.3864V10.4926H9.6139V7.49257ZM6.3864 7.49257C7.02894 7.49257 7.79199 7.99776 7.79199 8.90652H4.79199C4.79199 9.91017 5.63974 10.4926 6.3864 10.4926V7.49257ZM7.79199 8.90652V8.34918H4.79199V8.90652H7.79199ZM6.29199 9.84918H8.00016V6.84918H6.29199V9.84918ZM8.00016 9.84918C8.47822 9.84918 8.96414 9.67782 9.34319 9.33237L7.32242 7.11505C7.52497 6.93046 7.77091 6.84918 8.00016 6.84918V9.84918ZM9.34319 9.33237C9.7274 8.98222 9.97044 8.47694 9.97044 7.9205H6.97044C6.97044 7.59087 7.1147 7.30436 7.32242 7.11505L9.34319 9.33237ZM9.97044 7.9205V5.7385H6.97044V7.9205H9.97044ZM9.48093 6.84707L10.2838 6.1152L8.26288 3.89806L7.45996 4.62993L9.48093 6.84707ZM9.27336 6.50663H9.27424V3.50663H9.27336V6.50663ZM10.2927 6.10789C11.1191 5.34367 11.1166 4.0503 10.2794 3.29085L8.26377 5.51282C7.79363 5.08634 7.79294 4.33342 8.2558 3.90537L10.2927 6.10789ZM10.2821 3.29327C9.52913 2.60695 8.3606 2.60364 7.60383 3.28681L9.61411 5.51364C9.22439 5.86547 8.64877 5.86377 8.26111 5.5104L10.2821 3.29327ZM7.59929 3.29093L6.99049 3.84506L9.00986 6.06365L9.61865 5.50952L7.59929 3.29093ZM9.01066 3.84578L8.40186 3.29085L6.38089 5.50799L6.98969 6.06292L9.01066 3.84578ZM5.89138 4.39942V4.40023H8.89138V4.39942H5.89138ZM8.39652 3.28681C7.63975 2.60363 6.47122 2.60695 5.71828 3.29326L7.73923 5.51041C7.35158 5.86376 6.77596 5.86547 6.38623 5.51364L8.39652 3.28681ZM5.72094 3.29084C4.88374 4.05029 4.88129 5.34367 5.70767 6.1079L7.74454 3.90536C8.20741 4.33342 8.20672 5.08634 7.73657 5.51283L5.72094 3.29084ZM5.71623 6.11575L6.52002 6.84762L8.53978 4.62938L7.73599 3.89751L5.71623 6.11575ZM6.0299 5.7385V7.49096H9.0299V5.7385H6.0299ZM7.5299 5.99096H6.292V8.99096H7.5299V5.99096ZM7.792 7.49096V7.28507H4.792V7.49096H7.792ZM7.792 7.28507C7.792 6.56071 7.38659 5.95041 6.82669 5.62564L5.32145 8.22068C5.0333 8.05354 4.792 7.71668 4.792 7.28507H7.792ZM6.82195 5.6229C6.20096 5.26572 5.8938 4.69044 5.89507 4.1439L2.89508 4.13688C2.89108 5.84884 3.85257 7.37583 5.32619 8.22342L6.82195 5.6229Z" fill="#121212" fill-opacity="0.5" mask="url(#path-3-inside-1_6057_31258)"/>
<path d="M13.6812 4.27239C13.6812 4.3866 13.7306 4.49516 13.8188 4.5756C13.907 4.65683 14.0261 4.70187 14.1514 4.70187H15.5287C15.789 4.70187 15.9999 4.50966 15.9999 4.27241C15.9999 4.03597 15.789 3.84375 15.5287 3.84375H14.1514C14.0261 3.84375 13.907 3.88879 13.8188 3.96921C13.7305 4.04964 13.6812 4.15899 13.6812 4.27239Z" fill="#121212" fill-opacity="0.5"/>
<path d="M14.255 1.3997L13.3136 2.26266C13.1301 2.43075 13.131 2.70178 13.3154 2.86907C13.4998 3.03635 13.7971 3.03554 13.9806 2.86746L14.9221 2.0045C15.1047 1.83721 15.1047 1.56538 14.9203 1.3981C14.7359 1.23162 14.4377 1.23162 14.255 1.3997Z" fill="#121212" fill-opacity="0.5"/>
<path d="M13.3136 6.28605L14.255 7.14901V7.14821C14.4377 7.31629 14.7359 7.3171 14.9203 7.14981C15.1047 6.98334 15.1047 6.7115 14.9221 6.54341L13.9806 5.68045V5.68126C13.7971 5.51317 13.4998 5.51237 13.3154 5.67965C13.131 5.84613 13.1301 6.11796 13.3136 6.28605Z" fill="#121212" fill-opacity="0.5"/>
<path d="M0 4.27239C0 4.3866 0.0494099 4.49516 0.138524 4.5756C0.226757 4.65683 0.345869 4.70187 0.471168 4.70187H1.84848C2.10875 4.70187 2.31874 4.50966 2.31874 4.27241C2.31874 4.03597 2.10875 3.84375 1.84848 3.84375H0.471168C0.345878 3.84375 0.226772 3.88879 0.138524 3.96921C0.0494099 4.04964 0 4.15899 0 4.27239Z" fill="#121212" fill-opacity="0.5"/>
<path d="M2.68761 2.26266L1.74617 1.39971C1.56353 1.23162 1.26531 1.23162 1.08091 1.3981C0.896503 1.56538 0.896503 1.83722 1.07914 2.0045L2.02058 2.86746C2.20411 3.03555 2.50145 3.03635 2.68585 2.86907C2.87025 2.70178 2.87114 2.43075 2.68761 2.26266Z" fill="#121212" fill-opacity="0.5"/>
<path d="M2.02058 5.68126L1.07914 6.54422V6.54341C0.896503 6.7115 0.896503 6.98333 1.08091 7.14981C1.26531 7.3171 1.56353 7.31629 1.74617 7.14821L2.68761 6.28525V6.28605C2.87113 6.11796 2.87025 5.84613 2.68585 5.67965C2.50144 5.51237 2.20411 5.51317 2.02058 5.68126Z" fill="#121212" fill-opacity="0.5"/>
<path d="M6.35267 14.3546C6.35267 14.9265 5.41211 14.9265 5.41211 14.3546C5.41211 13.7828 6.35267 13.7828 6.35267 14.3546Z" fill="#121212" fill-opacity="0.5"/>
</svg>
