<svg width="15" height="16" viewBox="0 0 15 16" fill="none" xmlns="http://www.w3.org/2000/svg">
<path fill-rule="evenodd" clip-rule="evenodd" d="M8.7246 0.5C8.04032 0.5 7.474 1.04344 7.474 1.70117V4.35254L6.34264 5.62868C6.28613 5.6928 6.24985 5.7711 6.23806 5.85437C6.22628 5.93764 6.23947 6.02241 6.27611 6.09871C6.31274 6.17502 6.37128 6.23968 6.44484 6.28509C6.51841 6.33051 6.60394 6.35478 6.69137 6.35507H8.7246H9.18898H13.7494C14.4337 6.35507 15 5.81421 15 5.15648V1.70117C15 1.04344 14.4337 0.5 13.7494 0.5H8.7246ZM8.7246 1.38235H13.7494C13.9413 1.38235 14.0811 1.51727 14.0811 1.70117V5.15648C14.0811 5.34039 13.9412 5.47271 13.7494 5.47271H9.18898H8.7246H7.68737L8.28084 4.80147C8.35246 4.72199 8.39221 4.62054 8.3929 4.5154V1.70117C8.3929 1.51726 8.53276 1.38235 8.7246 1.38235ZM9.96802 2.18629C9.84675 2.18675 9.7306 2.23331 9.64494 2.31581C9.55927 2.39832 9.51105 2.51005 9.51082 2.62661C9.51058 2.68454 9.52222 2.74196 9.54507 2.79557C9.56792 2.84918 9.60153 2.89794 9.64398 2.93907C9.68644 2.9802 9.73691 3.01289 9.79251 3.03527C9.8481 3.05765 9.90774 3.06928 9.96802 3.06951H12.584C12.6445 3.06974 12.7046 3.05844 12.7606 3.03626C12.8166 3.01408 12.8675 2.98147 12.9103 2.94029C12.9532 2.89912 12.9871 2.85021 13.0102 2.79637C13.0332 2.74253 13.045 2.68483 13.0448 2.62661C13.0446 2.5686 13.0326 2.51118 13.0094 2.45764C12.9862 2.4041 12.9522 2.35549 12.9094 2.3146C12.8666 2.2737 12.8158 2.24131 12.76 2.2193C12.7041 2.19728 12.6443 2.18607 12.584 2.18629H9.96802ZM3.00771 2.45083C1.77921 2.48136 0.788906 3.46785 0.788906 4.66188C0.788906 5.33569 1.10481 5.94289 1.60023 6.3499C0.647329 6.85103 0 7.82468 0 8.94095V10.2274C0.000486739 10.3444 0.0493049 10.4565 0.135717 10.5389C0.22213 10.6213 0.33906 10.6673 0.460791 10.6669H5.67206C5.7938 10.6673 5.91073 10.6213 5.99714 10.5389C6.08355 10.4565 6.13237 10.3444 6.13286 10.2274V8.94095C6.13286 7.82469 5.48463 6.85103 4.53174 6.3499C5.02731 5.94289 5.34305 5.33582 5.34305 4.66188C5.34305 3.4489 4.32149 2.45083 3.06598 2.45083C3.04636 2.45083 3.02721 2.45034 3.00771 2.45083ZM3.03102 3.33318C3.04265 3.3329 3.05422 3.33318 3.066 3.33318C3.81909 3.33318 4.42507 3.91979 4.42507 4.66188C4.42507 5.40397 3.81909 5.99058 3.066 5.99058C2.3129 5.99058 1.70782 5.40397 1.70782 4.66188C1.70782 3.93139 2.29434 3.35112 3.03102 3.33318ZM9.96803 3.78556C9.90775 3.78578 9.84811 3.79742 9.79251 3.8198C9.73692 3.84218 9.68645 3.87487 9.64399 3.91599C9.60154 3.95712 9.56793 4.00588 9.54508 4.0595C9.52223 4.11311 9.51059 4.17052 9.51083 4.22846C9.5113 4.34487 9.55962 4.45638 9.64526 4.5387C9.7309 4.62101 9.84692 4.66746 9.96803 4.66791H12.584C12.6443 4.66814 12.704 4.65695 12.7598 4.63499C12.8155 4.61302 12.8663 4.58072 12.9091 4.53991C12.9518 4.4991 12.9859 4.4506 13.0091 4.39716C13.0324 4.34372 13.0445 4.28639 13.0448 4.22846C13.045 4.17023 13.0332 4.11254 13.0102 4.0587C12.9871 4.00486 12.9532 3.95594 12.9103 3.91477C12.8675 3.8736 12.8166 3.84098 12.7606 3.81881C12.7046 3.79663 12.6445 3.78533 12.584 3.78556H9.96803ZM3.06599 6.87293C4.26317 6.87293 5.21397 7.78709 5.21397 8.94095V9.78452H0.918V8.94095C0.918 7.78709 1.8688 6.87293 3.06599 6.87293ZM9.99224 7.28309C8.73673 7.28309 7.71516 8.28202 7.71516 9.495C7.71516 10.1679 8.02948 10.7743 8.52379 11.1813C7.57186 11.6837 6.92536 12.6585 6.92536 13.7741V15.0571C6.9249 15.1741 6.9728 15.2865 7.05854 15.3696C7.14428 15.4526 7.26084 15.4995 7.38257 15.5H12.5974C12.7192 15.4995 12.8357 15.4526 12.9214 15.3696C13.0072 15.2865 13.0551 15.1741 13.0546 15.0571V13.7741C13.0546 12.6589 12.4101 11.6847 11.4598 11.1822C11.9544 10.7752 12.2684 10.1681 12.2684 9.495C12.2684 8.28202 11.2477 7.28309 9.99224 7.28309ZM9.95638 8.1663C9.968 8.16602 9.98048 8.1663 9.99224 8.1663C10.7453 8.1663 11.3504 8.75292 11.3504 9.495C11.3504 10.2109 10.7871 10.7817 10.0711 10.8211C10.0449 10.8205 10.0187 10.8203 9.99224 10.8203C9.96582 10.8203 9.93872 10.8205 9.91246 10.8211C9.19639 10.7816 8.62959 10.2108 8.62959 9.495C8.62959 8.76451 9.2196 8.18425 9.95638 8.1663ZM9.90617 11.7043C9.93459 11.7054 9.96356 11.706 9.99224 11.706C10.0209 11.706 10.049 11.7053 10.0774 11.7043C11.234 11.7468 12.1402 12.6478 12.1402 13.7741V14.6176H7.84335V13.7741C7.84335 12.6478 8.74955 11.7468 9.90617 11.7043Z" fill="#121212" fill-opacity="0.5"/>
</svg>
