<svg width="15" height="16" viewBox="0 0 15 16" fill="none" xmlns="http://www.w3.org/2000/svg">
<path d="M4.41856 12.6406C4.29638 12.6406 4.17694 12.6768 4.07535 12.7447C3.97376 12.8126 3.89458 12.9091 3.84781 13.022C3.80105 13.1348 3.78882 13.259 3.81265 13.3789C3.83648 13.4987 3.89531 13.6088 3.9817 13.6952C4.06809 13.7816 4.17816 13.8404 4.29799 13.8643C4.41782 13.8881 4.54203 13.8759 4.65491 13.8291C4.76779 13.7824 4.86428 13.7032 4.93216 13.6016C5.00005 13.5 5.03628 13.3806 5.03629 13.2584C5.0363 13.1773 5.02032 13.097 4.98928 13.022C4.95824 12.947 4.91274 12.8789 4.85538 12.8216C4.79801 12.7642 4.72991 12.7187 4.65496 12.6877C4.58001 12.6566 4.49968 12.6406 4.41856 12.6406Z" fill="#121212" fill-opacity="0.5"/>
<path d="M13.6143 4.06705C12.8543 3.31853 11.8651 2.84664 10.8051 2.72692C9.74514 2.6072 8.67562 2.84657 7.76779 3.40672C7.51575 2.49027 6.94213 1.69522 6.15189 1.16703C5.36165 0.63884 4.40763 0.412835 3.4644 0.530369C2.75157 0.618759 2.07632 0.899812 1.5113 1.34329C0.946282 1.78678 0.512873 2.37591 0.257696 3.04731C0.0025198 3.7187 -0.0647666 4.44697 0.0630752 5.15375C0.190917 5.86054 0.509049 6.51909 0.983249 7.05858L0.589609 7.35392C0.491137 7.42773 0.418385 7.53065 0.381661 7.6481C0.344937 7.76554 0.346102 7.89157 0.384992 8.00832C0.423882 8.12507 0.498524 8.22663 0.598345 8.2986C0.698165 8.37057 0.818103 8.40931 0.941167 8.40933H3.85325C4.45142 8.409 5.04237 8.2787 5.5852 8.02743C5.64853 8.53631 5.79454 9.03142 6.01746 9.49324L3.31738 11.1247C2.87822 11.3918 2.53832 11.795 2.3494 12.2731C2.16047 12.7511 2.13286 13.2777 2.27076 13.7729C2.40866 14.268 2.70452 14.7046 3.11334 15.0162C3.52216 15.3277 4.02156 15.4972 4.53559 15.4989C4.63083 15.4989 4.72599 15.4932 4.82056 15.4819C5.17629 15.4408 5.51785 15.3187 5.81898 15.1249C6.12011 14.9311 6.37279 14.6709 6.55758 14.3642L8.1886 11.6659C8.3772 11.7553 8.57152 11.8321 8.77027 11.8958C8.73658 12.1121 8.72427 12.3313 8.73352 12.55C8.79057 13.3581 9.15446 14.1137 9.75064 14.6621C10.3468 15.2105 11.1302 15.5102 11.9402 15.4997H14.1821C14.2967 15.4995 14.4082 15.4632 14.501 15.3961C14.5937 15.3289 14.6631 15.2343 14.6991 15.1256C14.7352 15.0169 14.7361 14.8997 14.7018 14.7904C14.6676 14.6811 14.5998 14.5854 14.5081 14.5168L14.2849 14.3511C14.5617 14.0134 14.7654 13.6219 14.8831 13.2014C15.0008 12.7809 15.03 12.3405 14.9689 11.9082C14.8723 11.2544 14.5676 10.6492 14.1001 10.1821C14.7565 9.27036 15.0679 8.1553 14.9789 7.03546C14.89 5.91562 14.4064 4.8637 13.6143 4.06705ZM1.63683 7.59121L1.8499 7.4314C1.89835 7.39494 1.9381 7.34818 1.96629 7.29449C1.99447 7.2408 2.01039 7.18152 2.01289 7.12093C2.01538 7.06035 2.0044 6.99996 1.98073 6.94414C1.95705 6.88831 1.92128 6.83843 1.876 6.79811C1.47857 6.44535 1.17736 5.99736 1.00067 5.49621C0.823985 4.99507 0.777617 4.45723 0.865926 3.93324C0.954235 3.40926 1.17432 2.91632 1.50551 2.50076C1.83669 2.0852 2.2681 1.76066 2.75919 1.55763C3.25028 1.3546 3.78493 1.27976 4.31289 1.34013C4.84086 1.4005 5.34481 1.5941 5.77739 1.90274C6.20997 2.21139 6.55697 2.62493 6.78578 3.10453C7.0146 3.58412 7.11772 4.11401 7.08545 4.64441C7.02338 5.45484 6.65436 6.21104 6.05369 6.75867C5.45302 7.30629 4.666 7.60407 3.85325 7.59121H1.63683ZM7.69056 10.9084L5.85766 13.9404C5.73645 14.1397 5.57158 14.3088 5.37548 14.435C5.17938 14.5612 4.95717 14.6412 4.72563 14.669C4.49409 14.6968 4.25925 14.6717 4.03884 14.5955C3.81843 14.5193 3.6182 14.3941 3.45325 14.2292C3.28831 14.0644 3.16296 13.8642 3.08666 13.6439C3.01036 13.4235 2.98511 13.1887 3.0128 12.9572C3.0405 12.7256 3.12042 12.5034 3.24654 12.3072C3.37266 12.1111 3.54168 11.9461 3.74085 11.8248L6.77386 9.99205C6.86645 9.93612 6.93312 9.84579 6.95927 9.74083C6.98542 9.63587 6.96894 9.52483 6.91342 9.43199C6.57588 8.86306 6.38902 8.21745 6.3705 7.55619C6.68175 7.31576 6.95595 7.03086 7.18428 6.71064C6.99869 7.46468 7.09882 8.26073 7.46538 8.94532C7.83193 9.62992 8.43895 10.1546 9.16943 10.4182C9.8999 10.6818 10.7021 10.6657 11.4214 10.3729C12.1407 10.0802 12.7261 9.53157 13.0649 8.8328C13.4037 8.13404 13.4717 7.33461 13.256 6.58863C13.0403 5.84266 12.556 5.20295 11.8965 4.79282C11.2371 4.3827 10.4492 4.23119 9.68464 4.36752C8.92011 4.50385 8.23312 4.91835 7.75609 5.53112C7.83586 5.25773 7.88498 4.97633 7.90257 4.69209C7.91017 4.56228 7.90897 4.4331 7.90391 4.3046C8.67171 3.71863 9.62933 3.43774 10.592 3.51613C11.5547 3.59451 12.4543 4.02661 13.1172 4.72906C13.78 5.43152 14.1593 6.35456 14.1817 7.32012C14.2042 8.28568 13.8682 9.22534 13.2387 9.95784C13.2356 9.96143 13.2311 9.96303 13.2282 9.96676L13.2251 9.97288C13.1638 10.0435 13.1035 10.1146 13.0364 10.1817C12.419 10.8 11.6123 11.1938 10.745 11.3004C9.87766 11.4069 8.99965 11.22 8.25094 10.7694C8.20503 10.7417 8.1541 10.7233 8.10108 10.7153C8.04806 10.7073 7.99397 10.7098 7.94192 10.7227C7.88988 10.7357 7.84088 10.7587 7.79775 10.7906C7.75462 10.8224 7.71819 10.8625 7.69056 10.9084ZM7.90948 7.45486C7.90948 6.9964 8.04544 6.54823 8.30016 6.16704C8.55489 5.78584 8.91693 5.48873 9.34052 5.31329C9.76411 5.13784 10.2302 5.09194 10.6799 5.18138C11.1296 5.27082 11.5426 5.49159 11.8668 5.81577C12.191 6.13995 12.4118 6.55298 12.5013 7.00263C12.5907 7.45229 12.5448 7.91836 12.3693 8.34192C12.1939 8.76548 11.8968 9.12751 11.5155 9.38222C11.1343 9.63692 10.6861 9.77287 10.2276 9.77287C9.61304 9.77219 9.0238 9.52775 8.58922 9.09318C8.15462 8.65862 7.91017 8.06942 7.90948 7.45486ZM13.397 14.0984C13.3564 14.1346 13.3235 14.1785 13.3 14.2276C13.2766 14.2766 13.2633 14.3299 13.2607 14.3842C13.2581 14.4385 13.2664 14.4928 13.285 14.5438C13.3037 14.5949 13.3323 14.6417 13.3693 14.6816H11.9402C11.3395 14.6922 10.7575 14.4729 10.3133 14.0685C9.86912 13.6642 9.59626 13.1053 9.55062 12.5063C9.54368 12.3682 9.54791 12.2297 9.56327 12.0923C10.2852 12.2013 11.0225 12.1414 11.7174 11.9172C12.4122 11.6931 13.0455 11.3108 13.5676 10.8004C13.7777 11.0258 13.9404 11.2911 14.0459 11.5806C14.1514 11.8701 14.1975 12.1779 14.1816 12.4856C14.1657 12.7933 14.088 13.0946 13.9532 13.3717C13.8184 13.6488 13.6293 13.8959 13.397 14.0984Z" fill="#121212" fill-opacity="0.5"/>
<path d="M6.11765 5.39813C6.04432 5.21478 5.93189 5.04962 5.78819 4.91416C5.6445 4.77871 5.47299 4.67621 5.28563 4.61382L5.18282 4.57973C5.33478 4.31752 5.41437 4.01966 5.41346 3.71661C5.43655 3.33157 5.3068 2.95296 5.05238 2.66301C4.79797 2.37306 4.43944 2.19517 4.05464 2.16797C3.66984 2.19517 3.31131 2.37306 3.05689 2.66301C2.80248 2.95296 2.67273 3.33157 2.69581 3.71661C2.69476 4.01962 2.77417 4.31747 2.92592 4.57974L2.82365 4.61383C2.6363 4.67617 2.4648 4.77861 2.3211 4.91402C2.1774 5.04943 2.06497 5.21455 1.99163 5.39787L1.87872 5.67937C1.84264 5.77024 1.82934 5.86856 1.83999 5.96575C1.85063 6.06295 1.88489 6.15606 1.93978 6.23698C1.99467 6.31789 2.06853 6.38415 2.1549 6.42997C2.24128 6.47579 2.33756 6.49979 2.43534 6.49987H5.67341C5.7713 6.4999 5.8677 6.47594 5.95418 6.43007C6.04066 6.38421 6.11458 6.31784 6.16946 6.23679C6.22434 6.15574 6.25851 6.06247 6.26898 5.96514C6.27945 5.86782 6.2659 5.76942 6.22951 5.67855L6.11765 5.39813ZM2.75973 5.68174C2.79045 5.61343 2.83499 5.55222 2.89055 5.50198C2.94611 5.45175 3.01147 5.41357 3.08253 5.38986L3.61999 5.2109C3.70539 5.18265 3.78164 5.13199 3.84076 5.0642C3.89989 4.99641 3.93972 4.91398 3.9561 4.82554C3.97249 4.73613 3.96457 4.64396 3.93318 4.55866C3.9018 4.47335 3.84808 4.39803 3.77765 4.34057C3.69109 4.2619 3.62268 4.16534 3.57715 4.0576C3.53162 3.94986 3.51007 3.83351 3.51398 3.71661C3.51398 3.3206 3.76167 2.98611 4.05464 2.98611C4.3476 2.98611 4.59529 3.3206 4.59529 3.71661C4.59904 3.83363 4.57731 3.95007 4.5316 4.05785C4.48589 4.16564 4.41729 4.26221 4.33056 4.34086C4.26025 4.39862 4.20671 4.47418 4.17552 4.55966C4.14432 4.64514 4.13661 4.73742 4.15318 4.82689C4.1697 4.91493 4.20948 4.99695 4.26839 5.06443C4.32731 5.13192 4.40322 5.1824 4.48823 5.21065L5.02675 5.38988C5.09783 5.41355 5.16321 5.45171 5.21877 5.50196C5.27434 5.5522 5.31887 5.61342 5.34955 5.68176L2.75973 5.68174Z" fill="#121212" fill-opacity="0.5"/>
</svg>
