<svg width="21" height="22" viewBox="0 0 21 22" fill="none" xmlns="http://www.w3.org/2000/svg">
<path d="M16.8004 18.1566C17.1914 18.0869 17.5709 17.9797 17.9249 17.8358C18.3591 17.6589 18.7457 17.4335 19.0996 17.1329C19.1543 17.0852 19.1967 17.0303 19.2232 16.9716C19.2488 16.9148 19.262 16.846 19.262 16.7691V16.2549C19.262 16.1248 19.2117 16.0057 19.1305 15.9223C19.0475 15.8361 18.9337 15.7839 18.8075 15.7839H12.5701C12.4448 15.7839 12.3301 15.8361 12.2497 15.9204C12.1676 16.0084 12.1165 16.1257 12.1165 16.2559V16.77C12.1165 16.8479 12.1297 16.9166 12.1553 16.9734C12.1818 17.0321 12.2233 17.0871 12.2789 17.1347C12.6275 17.4344 13.03 17.6644 13.4536 17.8376C13.8075 17.9815 14.1871 18.0887 14.5772 18.1584C14.6381 18.031 14.7184 17.9155 14.8137 17.8166C15.0397 17.582 15.3495 17.4372 15.6893 17.4372C16.03 17.4372 16.3389 17.582 16.5631 17.8147C16.6593 17.9146 16.7405 18.031 16.8014 18.1593L16.8004 18.1566ZM14.5029 19.0932C14.0246 19.0134 13.5594 18.8851 13.1243 18.7083C12.9478 18.6368 12.7756 18.5561 12.6097 18.4682V20.5934C12.6097 20.7226 12.6609 20.8408 12.7421 20.9251C12.8242 21.0095 12.9372 21.0626 13.0616 21.0626H18.3159C18.4403 21.0626 18.5542 21.0095 18.6354 20.9251C18.7166 20.8399 18.7678 20.7226 18.7678 20.5934V18.4682C18.6018 18.5561 18.4297 18.6368 18.2532 18.7083C17.8181 18.8851 17.3529 19.0134 16.8746 19.0932C16.8146 19.2975 16.7069 19.4817 16.5648 19.6293C16.3388 19.8639 16.029 20.0087 15.6892 20.0087C15.3494 20.0087 15.0396 19.8639 14.8154 19.6311C14.6724 19.4817 14.563 19.2984 14.5029 19.0932ZM15.6892 18.3728C15.5965 18.3728 15.5118 18.4123 15.4517 18.4746C15.3917 18.5378 15.3538 18.6249 15.3538 18.7211C15.3538 18.8173 15.3917 18.9053 15.4517 18.9676C15.5118 19.0299 15.5965 19.0693 15.6892 19.0693C15.7818 19.0693 15.8666 19.0299 15.9266 18.9676C15.9866 18.9053 16.0246 18.8173 16.0246 18.7211C16.0246 18.6249 15.9866 18.5369 15.9266 18.4746C15.8657 18.4123 15.7819 18.3728 15.6892 18.3728ZM7.04141 17.1457C6.79162 17.1457 6.58951 16.9359 6.58951 16.6765C6.58951 16.4171 6.79163 16.2073 7.04141 16.2073H10.1695C10.4192 16.2073 10.6214 16.4172 10.6214 16.6765C10.6214 16.9359 10.4192 17.1457 10.1695 17.1457H7.04141ZM1.13847 9.27625L1.88605 8.8281L1.70511 8.50369C1.64598 8.39738 1.54977 8.32498 1.44297 8.29566C1.33794 8.26633 1.22231 8.27733 1.12169 8.33415L1.11375 8.33873C1.01313 8.39921 0.943401 8.4991 0.915157 8.61092C0.88603 8.72272 0.897505 8.84461 0.956639 8.95L1.13847 9.27625ZM2.99196 8.94541V1.87595C2.99196 1.36183 3.19496 0.892615 3.52242 0.55262C3.85163 0.210796 4.30353 0 4.79956 0H13.6547C13.781 0 13.8948 0.0540702 13.9769 0.140216L17.2152 3.50262C17.3035 3.59427 17.3476 3.71432 17.3476 3.83438V13.5366C17.5391 13.6072 17.7113 13.7227 17.8516 13.8684C18.0943 14.1204 18.2461 14.4659 18.2514 14.8444H18.8083C19.1799 14.8444 19.5197 15.0029 19.766 15.2577C20.014 15.5152 20.1667 15.8681 20.1667 16.2539V16.768C20.1667 16.9797 20.1234 17.1813 20.0396 17.3664C19.9566 17.5497 19.8339 17.7138 19.6759 17.8503L19.6724 17.8531V20.5924C19.6724 20.9782 19.5197 21.3301 19.2743 21.5849C19.0272 21.8415 18.6883 22 18.3167 22H13.0625C12.6909 22 12.352 21.8415 12.1066 21.5867C11.8594 21.3301 11.7068 20.9782 11.7068 20.5924V19.817H4.79949C4.30435 19.817 3.85245 19.6063 3.525 19.2663C3.19579 18.9244 2.99278 18.4552 2.99278 17.9402V14.4825L0.178123 9.42013C-0.00546057 9.08929 -0.0425298 8.71173 0.0457306 8.36989C0.129578 8.04364 0.329049 7.74855 0.622964 7.55701C0.651208 7.53502 0.680335 7.51761 0.711224 7.50386C1.01926 7.33524 1.36435 7.30408 1.6768 7.39114C1.99543 7.48003 2.28404 7.6908 2.4685 8.00333C2.64326 8.31765 2.81721 8.63108 2.99196 8.94541ZM2.33707 9.63915L1.58949 10.0873L1.7766 10.4227L2.52418 9.97456L2.33707 9.63915ZM2.97519 10.7856L2.22762 11.2338L4.55603 15.4201C4.61516 15.5264 4.71137 15.5988 4.81818 15.6281C4.92497 15.6575 5.04324 15.6456 5.14474 15.5851C5.24801 15.5237 5.31685 15.4229 5.34598 15.312C5.37422 15.2011 5.36275 15.0783 5.30449 14.9729L2.97519 10.7856ZM6.1421 16.4418C6.26655 16.6654 6.1933 16.9522 5.97794 17.0815C5.76258 17.2107 5.48632 17.1346 5.36186 16.911L5.16592 16.5591C4.97086 16.5958 4.77227 16.5857 4.58428 16.5334C4.31949 16.4601 4.0759 16.3016 3.89584 16.0715V17.9401C3.89584 18.1986 3.99734 18.4341 4.15975 18.6027C4.32391 18.7732 4.54987 18.8786 4.79964 18.8786H11.7069V17.854L11.7034 17.8512C11.5454 17.7147 11.4227 17.5507 11.3397 17.3674C11.2559 17.1813 11.2126 16.9797 11.2126 16.7689V16.2548C11.2126 15.8663 11.3653 15.5134 11.6107 15.2586C11.8578 15.0039 12.1985 14.8453 12.5701 14.8453H13.127C13.1314 14.4659 13.2832 14.1213 13.5251 13.8712C13.7722 13.6145 14.1111 13.456 14.4827 13.456H16.443V4.30442H15.0123C14.5154 4.30442 14.0626 4.09272 13.7352 3.75363C13.406 3.4118 13.2021 2.94076 13.2021 2.4257V0.940156H4.79877C4.54987 0.940156 4.32304 1.04555 4.16065 1.21418C3.99648 1.38464 3.89497 1.61925 3.89497 1.87859V10.5729L6.08298 14.5073C6.26656 14.8382 6.30363 15.2157 6.21625 15.5576C6.16594 15.7528 6.07504 15.937 5.94706 16.0946L6.14211 16.4447L6.1421 16.4418ZM5.87996 12.6423C5.63017 12.6423 5.42806 12.4324 5.42806 12.1731C5.42806 11.9137 5.63018 11.7039 5.87996 11.7039H14.459C14.7088 11.7039 14.9109 11.9137 14.9109 12.1731C14.9109 12.4324 14.7088 12.6423 14.459 12.6423H5.87996ZM5.87996 10.342C5.63017 10.342 5.42806 10.1322 5.42806 9.87282C5.42806 9.61346 5.63018 9.4036 5.87996 9.4036H14.459C14.7088 9.4036 14.9109 9.61346 14.9109 9.87282C14.9109 10.1322 14.7088 10.342 14.459 10.342H5.87996ZM5.87996 8.04177C5.63017 8.04177 5.42806 7.8319 5.42806 7.57255C5.42806 7.3132 5.63018 7.10333 5.87996 7.10333H14.459C14.7088 7.10333 14.9109 7.3132 14.9109 7.57255C14.9109 7.8319 14.7088 8.04177 14.459 8.04177H5.87996ZM5.87996 5.7415C5.63017 5.7415 5.42806 5.53164 5.42806 5.27228C5.42806 5.01293 5.63018 4.80307 5.87996 4.80307H14.459C14.7088 4.80307 14.9109 5.01293 14.9109 5.27228C14.9109 5.53164 14.7088 5.7415 14.459 5.7415H5.87996ZM11.6089 2.50273C11.8587 2.50273 12.0608 2.7126 12.0608 2.97195C12.0608 3.23131 11.8587 3.44117 11.6089 3.44117H6.03067C5.78088 3.44117 5.57877 3.2313 5.57877 2.97195C5.57877 2.71259 5.78089 2.50273 6.03067 2.50273H11.6089ZM15.8048 3.36419L14.1066 1.60097V2.42301C14.1066 2.68237 14.209 2.91881 14.3723 3.08834C14.5365 3.25788 14.7633 3.36419 15.0131 3.36419H15.8048ZM16.8957 14.3927H14.4835C14.359 14.3927 14.2452 14.4458 14.1639 14.5301C14.0863 14.6108 14.0369 14.7217 14.0324 14.8435H17.3476C17.3432 14.7217 17.2928 14.6108 17.2161 14.5301C17.134 14.4458 17.0202 14.3927 16.8957 14.3927Z" fill="#121212" fill-opacity="0.5"/>
</svg>
