<svg width="16" height="22" viewBox="0 0 16 22" fill="none" xmlns="http://www.w3.org/2000/svg">
<path fill-rule="evenodd" clip-rule="evenodd" d="M8.00103 0C11.3969 0 14.1502 2.3522 14.1502 5.25359C14.1502 8.15494 11.397 10.5072 8.00103 10.5072C4.60506 10.5072 1.8519 8.15499 1.8519 5.25359C1.8519 2.35225 4.60506 0 8.00103 0ZM9.6667 15.1218L9.98584 15.9669L11.0274 15.965C12.2395 15.9632 13.0571 16.9716 12.6942 17.9232C12.5816 18.2173 12.3641 18.4816 12.0559 18.6721L11.2144 19.1931L11.5379 20.0382C11.9051 20.9991 11.069 21.9992 9.87219 21.9964C9.51041 21.9954 9.14866 21.8992 8.84261 21.7088L8.00103 21.184L7.15946 21.7088C6.2075 22.3027 4.83691 21.9413 4.46421 20.9636C4.35273 20.6694 4.34727 20.3464 4.46531 20.0373L4.78881 19.1922L3.94723 18.6711C2.97448 18.0698 2.99197 16.8362 3.94505 16.2453C4.23578 16.065 4.59317 15.9633 4.97571 15.9633L6.01732 15.9651L6.33646 15.12C6.70042 14.1564 8.06007 13.7595 9.03388 14.3683C9.32462 14.5504 9.55087 14.81 9.66779 15.12L9.6667 15.1218ZM8.67868 16.8353L8.18576 15.528C8.12892 15.3758 7.87426 15.3758 7.81743 15.528L7.32342 16.8353C7.22287 17.1024 6.92997 17.2966 6.58349 17.2966L4.97574 17.2938C4.78775 17.2938 4.70797 17.5002 4.86207 17.5954L6.16378 18.4003C6.43046 18.5656 6.55396 18.8635 6.44794 19.1446L5.94845 20.4509C5.88834 20.6078 6.09818 20.7301 6.24682 20.6377L7.53325 19.8356C7.79884 19.6628 8.17701 19.6507 8.46009 19.8272L9.75961 20.6377C9.91044 20.732 10.117 20.605 10.058 20.4509L9.56725 19.1698C9.44921 18.8971 9.55195 18.5796 9.84158 18.4003L11.1433 17.5954C11.2963 17.5001 11.2176 17.2938 11.0296 17.2938L9.45794 17.2966C9.11583 17.3106 8.79123 17.1285 8.68085 16.8353L8.67868 16.8353ZM0.000447218 21.3333C0.000447218 21.7012 0.350196 22 0.780833 22C1.21147 22 1.56122 21.7012 1.56122 21.3333V16.57C1.56122 14.4997 3.53948 12.8097 5.96245 12.8097H10.038C12.4611 12.8097 14.4392 14.4999 14.4392 16.57V21.3333C14.4392 21.7012 14.789 22 15.2196 22C15.6503 22 16 21.7012 16 21.3333V16.57C16 13.764 13.3222 11.4761 10.0378 11.4761H5.96223C2.67795 11.4761 0 13.7629 0 16.57L0.000447218 21.3333ZM11.2458 2.4811C9.45448 0.950629 6.54829 0.950629 4.75702 2.4811C2.96567 4.01156 2.96567 6.4945 4.75702 8.0249C6.54838 9.55536 9.45456 9.55536 11.2458 8.0249C13.0372 6.49443 13.0372 4.01149 11.2458 2.4811Z" fill="#121212" fill-opacity="0.5"/>
</svg>
