<svg width="18" height="18" viewBox="0 0 18 18" fill="none" xmlns="http://www.w3.org/2000/svg">
<g clip-path="url(#clip0_5459_45199)">
<path d="M3 17C2.86739 17 2.74021 16.9473 2.64645 16.8536C2.55268 16.7598 2.5 16.6326 2.5 16.5V1.5C2.5 1.36739 2.55268 1.24021 2.64645 1.14645C2.74021 1.05268 2.86739 1 3 1C3.13261 1 3.25979 1.05268 3.35355 1.14645C3.44732 1.24021 3.5 1.36739 3.5 1.5V16.5C3.5 16.6326 3.44732 16.7598 3.35355 16.8536C3.25979 16.9473 3.13261 17 3 17Z" fill="#757575"/>
<path d="M15.275 1.90984C15.199 1.86595 15.1128 1.84285 15.025 1.84285C14.9372 1.84285 14.851 1.86595 14.775 1.90984C13.8057 2.31729 12.7611 2.51496 11.71 2.48984C10.8044 2.42372 9.92236 2.17001 9.12 1.74484C8.34513 1.33446 7.4942 1.0877 6.62 1.01984C5.8934 1.01216 5.1726 1.14986 4.5 1.42484V2.53984C5.15142 2.18341 5.88245 1.99764 6.625 1.99984C7.36037 2.07253 8.07408 2.29004 8.725 2.63984C9.65484 3.12607 10.6775 3.40899 11.725 3.46984C12.6653 3.47273 13.6007 3.33453 14.5 3.05984V9.47484C13.6045 9.79227 12.6601 9.94967 11.71 9.93984C10.8044 9.87372 9.92236 9.62002 9.12 9.19484C8.34513 8.78446 7.4942 8.5377 6.62 8.46984C5.89204 8.4685 5.17119 8.61301 4.5 8.89484V9.99984C5.15142 9.64341 5.88245 9.45764 6.625 9.45984C7.36037 9.53253 8.07408 9.75004 8.725 10.0998C9.65484 10.5861 10.6775 10.869 11.725 10.9298C12.9272 10.9547 14.1208 10.7211 15.225 10.2448C15.3075 10.2033 15.3768 10.1397 15.4253 10.0612C15.4739 9.98262 15.4997 9.89217 15.5 9.79984V2.33484C15.5012 2.25079 15.4813 2.16779 15.4419 2.09351C15.4026 2.01923 15.3452 1.95605 15.275 1.90984Z" fill="#757575"/>
</g>
<defs>
<clipPath id="clip0_5459_45199">
<rect width="18" height="18" fill="white"/>
</clipPath>
</defs>
</svg>
