<svg width="18" height="18" viewBox="0 0 18 18" fill="none" xmlns="http://www.w3.org/2000/svg">
<path d="M10.8734 17.25C10.5609 17.25 10.2954 17.1408 10.0769 16.9223C9.85844 16.7038 9.74894 16.438 9.74844 16.125V10.875C9.74844 10.5625 9.85794 10.297 10.0769 10.0785C10.2959 9.86 10.5614 9.7505 10.8734 9.75H16.1234C16.4359 9.75 16.7017 9.8595 16.9207 10.0785C17.1397 10.2975 17.2489 10.563 17.2484 10.875V16.125C17.2484 16.4375 17.1392 16.7033 16.9207 16.9223C16.7022 17.1413 16.4364 17.2505 16.1234 17.25H10.8734ZM6.93594 16.5L6.63594 14.1C6.47344 14.0375 6.32044 13.9625 6.17694 13.875C6.03344 13.7875 5.89269 13.6938 5.75469 13.5938L3.52344 14.5313L1.46094 10.9688L3.39219 9.50625C3.37969 9.41875 3.37344 9.3345 3.37344 9.2535V8.74725C3.37344 8.66575 3.37969 8.58125 3.39219 8.49375L1.46094 7.03125L3.52344 3.46875L5.75469 4.40625C5.89219 4.30625 6.03594 4.2125 6.18594 4.125C6.33594 4.0375 6.48594 3.9625 6.63594 3.9L6.93594 1.5H11.0609L11.3609 3.9C11.5234 3.9625 11.6767 4.0375 11.8207 4.125C11.9647 4.2125 12.1052 4.30625 12.2422 4.40625L14.4734 3.46875L16.5359 7.03125L14.9422 8.25H11.5484C11.3734 7.7125 11.0609 7.26575 10.6109 6.90975C10.1609 6.55375 9.63594 6.3755 9.03594 6.375C8.31094 6.375 7.69219 6.63125 7.17969 7.14375C6.66719 7.65625 6.41094 8.275 6.41094 9C6.41094 9.6 6.57969 10.125 6.91719 10.575C7.25469 11.025 7.69844 11.3375 8.24844 11.5125V16.5H6.93594ZM11.2484 15.75H15.7484V15.1313C15.4359 14.8438 15.0859 14.625 14.6984 14.475C14.3109 14.325 13.9109 14.25 13.4984 14.25C13.0859 14.25 12.6859 14.325 12.2984 14.475C11.9109 14.625 11.5609 14.8438 11.2484 15.1313V15.75ZM13.4984 13.5C13.8109 13.5 14.0767 13.3908 14.2957 13.1723C14.5147 12.9538 14.6239 12.688 14.6234 12.375C14.6229 12.062 14.5137 11.7965 14.2957 11.5785C14.0777 11.3605 13.8119 11.251 13.4984 11.25C13.1849 11.249 12.9194 11.3585 12.7019 11.5785C12.4844 11.7985 12.3749 12.064 12.3734 12.375C12.3719 12.686 12.4814 12.9518 12.7019 13.1723C12.9224 13.3928 13.1879 13.502 13.4984 13.5Z" fill="#121212" fill-opacity="0.5"/>
</svg>
