<svg width="15" height="16" viewBox="0 0 15 16" fill="none" xmlns="http://www.w3.org/2000/svg">
<path d="M13.75 12.1278C13.75 12.2521 13.7006 12.3714 13.6127 12.4593C13.5248 12.5472 13.4056 12.5966 13.2812 12.5966H10.0938C9.98935 12.9859 9.75943 13.3298 9.43964 13.5752C9.11985 13.8205 8.72805 13.9535 8.325 13.9535C7.92195 13.9535 7.53015 13.8205 7.21036 13.5752C6.89057 13.3298 6.66065 12.9859 6.55625 12.5966H1.71875C1.59443 12.5966 1.4752 12.5472 1.38729 12.4593C1.29939 12.3714 1.25 12.2521 1.25 12.1278C1.25 12.0035 1.29939 11.8843 1.38729 11.7964C1.4752 11.7084 1.59443 11.6591 1.71875 11.6591H6.55625C6.66065 11.2698 6.89057 10.9258 7.21036 10.6805C7.53015 10.4351 7.92195 10.3021 8.325 10.3021C8.72805 10.3021 9.11985 10.4351 9.43964 10.6805C9.75943 10.9258 9.98935 11.2698 10.0938 11.6591H13.2812C13.4056 11.6591 13.5248 11.7084 13.6127 11.7964C13.7006 11.8843 13.75 12.0035 13.75 12.1278ZM13.75 3.87156C13.75 3.99588 13.7006 4.11511 13.6127 4.20301C13.5248 4.29092 13.4056 4.34031 13.2812 4.34031H11.75C11.6456 4.7296 11.4157 5.07358 11.0959 5.31891C10.7761 5.56424 10.3843 5.69722 9.98125 5.69722C9.5782 5.69722 9.1864 5.56424 8.86661 5.31891C8.54682 5.07358 8.3169 4.7296 8.2125 4.34031H1.71875C1.65719 4.34031 1.59624 4.32818 1.53937 4.30463C1.4825 4.28107 1.43082 4.24654 1.38729 4.20301C1.34377 4.15949 1.30924 4.10781 1.28568 4.05094C1.26212 3.99407 1.25 3.93311 1.25 3.87156C1.25 3.81 1.26212 3.74905 1.28568 3.69217C1.30924 3.6353 1.34377 3.58363 1.38729 3.5401C1.43082 3.49657 1.4825 3.46205 1.53937 3.43849C1.59624 3.41493 1.65719 3.40281 1.71875 3.40281H8.2125C8.3169 3.01351 8.54682 2.66953 8.86661 2.4242C9.1864 2.17887 9.5782 2.0459 9.98125 2.0459C10.3843 2.0459 10.7761 2.17887 11.0959 2.4242C11.4157 2.66953 11.6456 3.01351 11.75 3.40281H13.2812C13.343 3.40197 13.4044 3.41352 13.4616 3.43678C13.5189 3.46003 13.5709 3.49453 13.6146 3.53823C13.6583 3.58192 13.6928 3.63393 13.716 3.69118C13.7393 3.74844 13.7508 3.80977 13.75 3.87156ZM13.75 7.99656C13.7508 8.05835 13.7393 8.11968 13.716 8.17693C13.6928 8.23418 13.6583 8.28619 13.6146 8.32989C13.5709 8.37358 13.5189 8.40808 13.4616 8.43134C13.4044 8.4546 13.343 8.46615 13.2812 8.46531H5.96875C5.86435 8.8546 5.63443 9.19858 5.31464 9.44391C4.99485 9.68924 4.60305 9.82222 4.2 9.82222C3.79695 9.82222 3.40515 9.68924 3.08536 9.44391C2.76557 9.19858 2.53565 8.8546 2.43125 8.46531H1.71875C1.59443 8.46531 1.4752 8.41592 1.38729 8.32801C1.29939 8.24011 1.25 8.12088 1.25 7.99656C1.25 7.87224 1.29939 7.75301 1.38729 7.6651C1.4752 7.57719 1.59443 7.52781 1.71875 7.52781H2.43125C2.53565 7.13851 2.76557 6.79453 3.08536 6.5492C3.40515 6.30387 3.79695 6.1709 4.2 6.1709C4.60305 6.1709 4.99485 6.30387 5.31464 6.5492C5.63443 6.79453 5.86435 7.13851 5.96875 7.52781H13.2812C13.4056 7.52781 13.5248 7.57719 13.6127 7.6651C13.7006 7.75301 13.75 7.87224 13.75 7.99656Z" fill="#121212" fill-opacity="0.5"/>
</svg>
