<svg width="273" height="222" viewBox="0 0 273 222" fill="none" xmlns="http://www.w3.org/2000/svg">
<path d="M244.937 206.258H226.906V206.408H244.937V206.258Z" fill="#EBEBEB"/>
<path d="M180.325 207.891H175.594V208.041H180.325V207.891Z" fill="#EBEBEB"/>
<path d="M226.361 200.688H215.914V200.838H226.361V200.688Z" fill="#EBEBEB"/>
<path d="M52.076 201.695H28.5625V201.845H52.076V201.695Z" fill="#EBEBEB"/>
<path d="M60.3681 201.695H56.9219V201.845H60.3681V201.695Z" fill="#EBEBEB"/>
<path d="M122.579 204.227H71.5781V204.377H122.579V204.227Z" fill="#EBEBEB"/>
<path d="M129.03 169.813H23.9133C23.0889 169.813 22.2982 169.452 21.7152 168.809C21.1322 168.166 20.8047 167.294 20.8047 166.385V3.39867C20.8119 2.49454 21.1425 1.63013 21.7248 0.993604C22.307 0.357078 23.0936 -3.46628e-05 23.9133 2.52351e-09H129.03C129.854 2.52352e-09 130.645 0.361237 131.228 1.00424C131.811 1.64725 132.139 2.51935 132.139 3.42869V166.385C132.139 167.294 131.811 168.166 131.228 168.809C130.645 169.452 129.854 169.813 129.03 169.813ZM23.9133 0.120095C23.1254 0.121682 22.3702 0.467612 21.813 1.08212C21.2559 1.69663 20.9422 2.52963 20.9408 3.39867V166.385C20.9422 167.254 21.2559 168.087 21.813 168.701C22.3702 169.316 23.1254 169.662 23.9133 169.663H129.03C129.818 169.662 130.573 169.316 131.13 168.701C131.687 168.087 132.001 167.254 132.002 166.385V3.39867C132.001 2.52963 131.687 1.69663 131.13 1.08212C130.573 0.467612 129.818 0.121682 129.03 0.120095H23.9133Z" fill="#EBEBEB"/>
<path d="M246.791 169.813H141.663C140.839 169.812 140.049 169.45 139.467 168.807C138.884 168.165 138.556 167.294 138.555 166.385V3.39867C138.563 2.49503 138.894 1.63153 139.476 0.995338C140.058 0.359147 140.844 0.00153018 141.663 0H246.791C247.609 0.00312515 248.393 0.361634 248.972 0.997821C249.552 1.63401 249.881 2.49661 249.889 3.39867V166.385C249.889 167.292 249.563 168.162 248.982 168.805C248.401 169.448 247.613 169.81 246.791 169.813ZM141.663 0.120095C140.875 0.121682 140.12 0.467612 139.563 1.08212C139.006 1.69663 138.692 2.52963 138.691 3.39867V166.385C138.692 167.254 139.006 168.087 139.563 168.701C140.12 169.316 140.875 169.662 141.663 169.663H246.791C247.579 169.662 248.334 169.316 248.891 168.701C249.448 168.087 249.762 167.254 249.763 166.385V3.39867C249.762 2.52963 249.448 1.69663 248.891 1.08212C248.334 0.467612 247.579 0.121682 246.791 0.120095H141.663Z" fill="#EBEBEB"/>
<path d="M272.21 196.594H0V196.744H272.21V196.594Z" fill="#EBEBEB"/>
<path d="M224.714 35.0234H44.3203V196.707H224.714V35.0234Z" fill="#F5F5F5"/>
<path d="M65.6312 16.9844H38.0781V38.5113H65.6312V16.9844Z" fill="#F0F0F0"/>
<path d="M93.0218 16.9844H65.4688V38.5113H93.0218V16.9844Z" fill="#F5F5F5"/>
<path d="M120.412 16.9844H92.8594V38.5113H120.412V16.9844Z" fill="#F0F0F0"/>
<path d="M147.811 16.9844H120.258V38.5113H147.811V16.9844Z" fill="#F5F5F5"/>
<path d="M175.202 16.9844H147.648V38.5113H175.202V16.9844Z" fill="#F0F0F0"/>
<path d="M202.592 16.9844H175.039V38.5113H202.592V16.9844Z" fill="#F5F5F5"/>
<path d="M229.983 16.9844H202.43V38.5113H229.983V16.9844Z" fill="#F0F0F0"/>
<path d="M66.4642 53.3987C66.4642 58.6529 60.1108 62.9162 52.2712 62.9162C44.4315 62.9162 38.0781 58.6529 38.0781 53.3987V38.2969H65.6421L66.4642 53.3987Z" fill="#E6E6E6"/>
<path d="M93.8782 53.3987C93.8782 58.6529 87.5249 62.9162 79.6852 62.9162C71.8456 62.9162 65.4922 58.6529 65.4922 53.3987V38.2969H93.0562L93.8782 53.3987Z" fill="#F0F0F0"/>
<path d="M121.292 53.3987C121.292 58.6529 114.939 62.9162 107.099 62.9162C99.2596 62.9162 92.9062 58.6529 92.9062 53.3987V38.2969H120.47L121.292 53.3987Z" fill="#E6E6E6"/>
<path d="M148.709 53.3987C148.709 58.6529 142.356 62.9162 134.516 62.9162C126.677 62.9162 120.312 58.6529 120.312 53.3987V38.2969H147.871L148.709 53.3987Z" fill="#F0F0F0"/>
<path d="M176.126 53.3987C176.126 58.6529 169.767 62.9162 161.933 62.9162C154.099 62.9162 147.734 58.6529 147.734 53.3987V38.2969H175.298L176.126 53.3987Z" fill="#E6E6E6"/>
<path d="M203.548 53.3987C203.548 58.6529 197.189 62.9162 189.349 62.9162C181.51 62.9162 175.156 58.6529 175.156 53.3987V38.2969H202.72L203.548 53.3987Z" fill="#F0F0F0"/>
<path d="M230.956 53.3987C230.956 58.6529 224.603 62.9162 216.763 62.9162C208.924 62.9162 202.57 58.6529 202.57 53.3987V38.2969H230.134L230.956 53.3987Z" fill="#E6E6E6"/>
<path d="M215.684 69.8594H133.422V121.332H215.684V69.8594Z" fill="#FAFAFA"/>
<path d="M186.109 121.291H171.219L182.401 70.3594H197.291L186.109 121.291Z" fill="#F5F5F5"/>
<path d="M193.33 121.291H190.031L201.214 70.3594H204.513L193.33 121.291Z" fill="#F5F5F5"/>
<path d="M147.453 121.291H145.781L156.964 70.3594H158.635L147.453 121.291Z" fill="#F5F5F5"/>
<path d="M217.325 123.13H131.797V68.0547H217.325V123.13ZM135.063 119.527H214.059V71.6575H135.063V119.527Z" fill="#EBEBEB"/>
<path d="M102.885 66.7812H53.4297V196.249H102.885V66.7812Z" fill="#EBEBEB"/>
<path d="M100.791 69.1328H55.5391V196.259H100.791V69.1328Z" fill="#F5F5F5"/>
<path d="M77.0932 85.9062H58.9531V132.461H77.0932V85.9062Z" fill="#FAFAFA"/>
<path d="M97.601 85.9062H79.4609V132.461H97.601V85.9062Z" fill="#FAFAFA"/>
<path d="M97.5961 146.539H58.9531V193.094H97.5961V146.539Z" fill="#EBEBEB"/>
<path d="M68.3692 72.5078H88.197C90.6883 72.5094 93.0773 73.6008 94.8399 75.5427C96.6025 77.4845 97.5948 80.1182 97.5991 82.866V83.4664H58.9453V82.866C58.9475 81.5034 59.1929 80.1545 59.6677 78.8966C60.1424 77.6386 60.8372 76.496 61.7123 75.5342C62.5874 74.5724 63.6257 73.81 64.7679 73.2908C65.9101 72.7715 67.1338 72.5055 68.3692 72.5078Z" fill="#FAFAFA"/>
<path d="M62.2523 134.555H58.9531V144.036H62.2523V134.555Z" fill="#E6E6E6"/>
<path d="M62.2584 144.039H62.9062V134.558H62.2584V144.039Z" fill="#E0E0E0"/>
<path d="M59.7765 139.817C60.5463 139.817 61.1702 139.128 61.1702 138.279C61.1702 137.43 60.5463 136.742 59.7765 136.742C59.0068 136.742 58.3828 137.43 58.3828 138.279C58.3828 139.128 59.0068 139.817 59.7765 139.817Z" fill="#E0E0E0"/>
<path d="M60.9061 140.93H60.1875V142.851H60.9061V140.93Z" fill="#E0E0E0"/>
<path d="M60.4887 138.283C60.4876 138.706 60.3727 139.12 60.1585 139.472C59.9443 139.824 59.6404 140.097 59.2851 140.259C58.9299 140.42 58.5393 140.462 58.1626 140.378C57.786 140.295 57.4402 140.09 57.1689 139.79C56.8976 139.49 56.7131 139.108 56.6385 138.693C56.564 138.277 56.6028 137.846 56.75 137.455C56.8973 137.063 57.1464 136.729 57.4659 136.494C57.7854 136.258 58.161 136.133 58.5451 136.133C58.8008 136.133 59.054 136.188 59.2902 136.297C59.5263 136.405 59.7408 136.563 59.9214 136.763C60.1019 136.963 60.245 137.2 60.3423 137.46C60.4397 137.721 60.4894 138 60.4887 138.283Z" fill="#EBEBEB"/>
<path d="M191.474 161.453H188.344V186.373H191.474V161.453Z" fill="#E6E6E6"/>
<path d="M220.939 157.132L173.03 167.94L158.875 157.132V146.516H220.939V157.132Z" fill="#EBEBEB"/>
<path d="M188.165 180.984C188.166 182.645 187.87 184.289 187.294 185.823C186.719 187.358 185.875 188.752 184.811 189.926C183.746 191.1 182.483 192.032 181.092 192.668C179.701 193.303 178.211 193.63 176.705 193.63C176.514 193.617 176.323 193.647 176.144 193.719C175.964 193.79 175.799 193.902 175.66 194.046C175.521 194.19 175.41 194.364 175.334 194.558C175.258 194.751 175.219 194.96 175.219 195.171C175.219 195.381 175.258 195.59 175.334 195.783C175.41 195.977 175.521 196.151 175.66 196.295C175.799 196.44 175.964 196.551 176.144 196.622C176.323 196.694 176.514 196.724 176.705 196.711H203.12C203.476 196.686 203.809 196.513 204.053 196.227C204.297 195.941 204.432 195.563 204.432 195.171C204.432 194.778 204.297 194.4 204.053 194.114C203.809 193.828 203.476 193.655 203.12 193.63C201.613 193.633 200.121 193.307 198.728 192.673C197.335 192.038 196.069 191.107 195.003 189.933C193.936 188.758 193.09 187.363 192.513 185.828C191.936 184.292 191.639 182.647 191.639 180.984H188.165Z" fill="#E6E6E6"/>
<path d="M145.696 138.016C147.063 146.872 147.982 155.804 148.451 164.773L149.73 164.653C149.257 155.626 148.33 146.635 146.953 137.721C146.18 131.969 140.965 127.477 135.978 127.85C134.841 127.943 133.736 128.311 132.742 128.929C131.748 129.546 130.89 130.398 130.229 131.423C129.565 132.471 129.105 133.661 128.879 134.915C128.653 136.17 128.666 137.463 128.917 138.712C130.273 146.752 131.22 154.869 131.753 163.025L133.033 162.935C132.499 154.723 131.553 146.55 130.196 138.454C129.978 137.396 129.962 136.3 130.15 135.235C130.337 134.17 130.724 133.16 131.285 132.269C131.438 132.036 131.604 131.814 131.78 131.603C133.872 142.096 135.259 152.745 135.929 163.464L137.208 163.362C136.521 152.324 135.065 141.361 132.853 130.57C133.673 129.969 134.602 129.574 135.575 129.411C137.913 140.767 139.425 152.311 140.094 163.932L141.373 163.824C140.696 152.214 139.187 140.681 136.86 129.333C137.928 129.351 138.983 129.602 139.963 130.071C142.197 141.353 143.638 152.808 144.275 164.334L145.554 164.22C144.939 153.029 143.573 141.904 141.466 130.936C142.561 131.748 143.499 132.792 144.225 134.008C144.951 135.223 145.451 136.585 145.696 138.016Z" fill="#E0E0E0"/>
<path d="M161.151 163.75H131.703C131.705 162.834 132.035 161.957 132.622 161.31C133.208 160.663 134.004 160.298 134.834 160.297H158.031C158.859 160.302 159.652 160.667 160.236 161.314C160.821 161.961 161.149 162.836 161.151 163.75Z" fill="#F0F0F0"/>
<path d="M132.701 196.71H131.133L132.412 163.75H134.405L132.701 196.71Z" fill="#E0E0E0"/>
<path d="M143.156 196.71H141.594L142.448 163.75H144.441L143.156 196.71Z" fill="#E0E0E0"/>
<path d="M151.264 196.71H149.701L148.422 163.75H150.414L151.264 196.71Z" fill="#E0E0E0"/>
<path d="M161.725 196.71H160.163L158.453 163.75H160.446L161.725 196.71Z" fill="#E0E0E0"/>
<path d="M162.441 162.492H144.938V165.002H162.441V162.492Z" fill="#E6E6E6"/>
<path d="M144.934 162.492H130.414V165.002H144.934V162.492Z" fill="#EBEBEB"/>
<path d="M224.962 138.016C223.607 146.872 222.698 155.805 222.24 164.773L220.961 164.653C221.434 155.626 222.36 146.635 223.737 137.721C224.505 131.969 229.726 127.477 234.713 127.85C235.85 127.943 236.954 128.311 237.946 128.929C238.939 129.547 239.796 130.398 240.457 131.423C241.115 132.474 241.567 133.665 241.786 134.92C242.004 136.175 241.983 137.467 241.725 138.712C240.379 146.747 239.439 154.858 238.91 163.007L237.637 162.917C238.168 154.705 239.113 146.532 240.468 138.436C240.686 137.378 240.701 136.282 240.514 135.217C240.326 134.152 239.94 133.142 239.379 132.251C239.225 132.017 239.058 131.794 238.878 131.585C236.785 142.078 235.401 152.727 234.735 163.446L233.455 163.344C234.14 152.306 235.596 141.343 237.811 130.552C236.991 129.951 236.062 129.556 235.089 129.393C232.75 140.755 231.237 152.305 230.565 163.932L229.285 163.824C229.964 152.213 231.475 140.68 233.804 129.333C232.734 129.352 231.677 129.603 230.695 130.071C228.459 141.363 227.019 152.828 226.389 164.364L225.109 164.25C225.719 153.049 227.088 141.913 229.203 130.936C228.107 131.748 227.168 132.792 226.44 134.007C225.712 135.223 225.21 136.585 224.962 138.016Z" fill="#E0E0E0"/>
<path d="M209.5 163.75H238.953C238.953 162.834 238.623 161.956 238.036 161.308C237.449 160.661 236.653 160.297 235.823 160.297H212.63C211.8 160.297 211.004 160.661 210.417 161.308C209.83 161.956 209.5 162.834 209.5 163.75Z" fill="#F0F0F0"/>
<path d="M237.959 196.71H239.522L238.243 163.75H236.25L237.959 196.71Z" fill="#E0E0E0"/>
<path d="M227.498 196.71H229.061L228.211 163.75H226.219L227.498 196.71Z" fill="#E0E0E0"/>
<path d="M219.383 196.71H220.951L222.23 163.75H220.238L219.383 196.71Z" fill="#E0E0E0"/>
<path d="M208.922 196.71H210.49L212.194 163.75H210.201L208.922 196.71Z" fill="#E0E0E0"/>
<path d="M208.216 165H225.719V162.49H208.216V165Z" fill="#E6E6E6"/>
<path d="M225.715 165H240.234V162.49H225.715V165Z" fill="#EBEBEB"/>
<path d="M133.479 221.399C191.777 221.399 239.037 218.356 239.037 214.602C239.037 210.848 191.777 207.805 133.479 207.805C75.1816 207.805 27.9219 210.848 27.9219 214.602C27.9219 218.356 75.1816 221.399 133.479 221.399Z" fill="#F5F5F5"/>
<path d="M53.6882 11.5553H57.8748C56.8863 11.5422 55.906 11.7546 54.9955 12.1791C54.085 12.6036 53.2637 13.231 52.5834 14.022C51.903 14.813 51.3782 15.7505 51.0418 16.7757C50.7054 17.801 50.5647 18.8918 50.6285 19.9799L57.2922 160.238C57.4289 162.497 58.3315 164.616 59.8205 166.173C61.3095 167.731 63.2758 168.614 65.3279 168.645H61.1413C59.0869 168.622 57.1164 167.742 55.6258 166.183C54.1351 164.624 53.2348 162.5 53.1056 160.238L46.4528 19.9799C46.3883 18.8926 46.5281 17.8024 46.8635 16.7776C47.199 15.7528 47.7228 14.8155 48.4021 14.0245C49.0815 13.2335 49.9017 12.6058 50.8113 12.1809C51.721 11.756 52.7004 11.543 53.6882 11.5553Z" fill="#263238"/>
<path opacity="0.3" d="M53.6882 11.5553H57.8748C56.8863 11.5422 55.906 11.7546 54.9955 12.1791C54.085 12.6036 53.2637 13.231 52.5834 14.022C51.903 14.813 51.3782 15.7505 51.0418 16.7757C50.7054 17.801 50.5647 18.8918 50.6285 19.9799L57.2922 160.238C57.4289 162.497 58.3315 164.616 59.8205 166.173C61.3095 167.731 63.2758 168.614 65.3279 168.645H61.1413C59.0869 168.622 57.1164 167.742 55.6258 166.183C54.1351 164.624 53.2348 162.5 53.1056 160.238L46.4528 19.9799C46.3883 18.8926 46.5281 17.8024 46.8635 16.7776C47.199 15.7528 47.7228 14.8155 48.4021 14.0245C49.0815 13.2335 49.9017 12.6058 50.8113 12.1809C51.721 11.756 52.7004 11.543 53.6882 11.5553Z" fill="white"/>
<path d="M63.4867 168.654H114.782C115.768 168.665 116.746 168.452 117.654 168.028C118.562 167.604 119.381 166.978 120.06 166.189C120.739 165.4 121.263 164.466 121.6 163.443C121.937 162.421 122.079 161.333 122.017 160.248L115.354 19.9773C115.217 17.7188 114.314 15.5997 112.825 14.042C111.336 12.4842 109.37 11.6019 107.318 11.5707H56.0227C55.0366 11.5595 54.059 11.7727 53.1509 12.1968C52.2428 12.6209 51.4238 13.2469 50.7448 14.0358C50.0659 14.8246 49.5417 15.7594 49.2049 16.7816C48.8681 17.8039 48.726 18.8918 48.7874 19.9773L55.4511 160.236C55.5851 162.496 56.4866 164.618 57.9759 166.179C59.4651 167.739 61.4328 168.623 63.4867 168.654Z" fill="#263238"/>
<path d="M119.393 160.377L112.729 20.119C112.639 18.5446 112.012 17.0661 110.975 15.9793C109.939 14.8926 108.568 14.2779 107.138 14.2584H96.6849L96.821 17.1647C96.8438 17.5122 96.8006 17.8611 96.6944 18.1892C96.5882 18.5173 96.4212 18.8174 96.2041 19.0705C95.9869 19.3235 95.7244 19.5239 95.4332 19.659C95.142 19.794 94.8285 19.8607 94.5127 19.8548H69.747C69.0516 19.8561 68.3821 19.5638 67.876 19.0378C67.3698 18.5119 67.0653 17.7923 67.0249 17.0266L66.8943 14.2584H55.848C55.1947 14.2477 54.5465 14.3864 53.9442 14.6657C53.3419 14.945 52.7986 15.3589 52.3485 15.8813C51.8984 16.4037 51.5513 17.0232 51.329 17.7009C51.1068 18.3786 51.0142 19.0997 51.0571 19.8188L57.7099 160.095C57.8004 161.669 58.4267 163.148 59.4635 164.235C60.5003 165.321 61.8709 165.936 63.3011 165.956H114.602C115.257 165.968 115.907 165.83 116.512 165.551C117.116 165.271 117.661 164.855 118.111 164.331C118.562 163.806 118.909 163.183 119.129 162.503C119.35 161.822 119.44 161.098 119.393 160.377Z" fill="#007CCE"/>
<path opacity="0.1" d="M119.393 160.377L112.729 20.119C112.639 18.5446 112.012 17.0661 110.975 15.9793C109.939 14.8926 108.568 14.2779 107.138 14.2584H96.6849L96.821 17.1647C96.8438 17.5122 96.8006 17.8611 96.6944 18.1892C96.5882 18.5173 96.4212 18.8174 96.2041 19.0705C95.9869 19.3235 95.7244 19.5239 95.4332 19.659C95.142 19.794 94.8285 19.8607 94.5127 19.8548H69.747C69.0516 19.8561 68.3821 19.5638 67.876 19.0378C67.3698 18.5119 67.0653 17.7923 67.0249 17.0266L66.8943 14.2584H55.848C55.1947 14.2477 54.5465 14.3864 53.9442 14.6657C53.3419 14.945 52.7986 15.3589 52.3485 15.8813C51.8984 16.4037 51.5513 17.0232 51.329 17.7009C51.1068 18.3786 51.0142 19.0997 51.0571 19.8188L57.7099 160.095C57.8004 161.669 58.4267 163.148 59.4635 164.235C60.5003 165.321 61.8709 165.936 63.3011 165.956H114.602C115.257 165.968 115.907 165.83 116.512 165.551C117.116 165.271 117.661 164.855 118.111 164.331C118.562 163.806 118.909 163.183 119.129 162.503C119.35 161.822 119.44 161.098 119.393 160.377Z" fill="black"/>
<g opacity="0.8">
<path d="M104.949 118.74H68.56C66.7688 118.74 66.3823 115.672 68.1734 115.672H104.562C106.354 115.672 106.74 118.74 104.949 118.74Z" fill="white"/>
<path d="M99.8611 126.443H68.9271C67.136 126.443 66.7495 123.375 68.5406 123.375H99.4746C101.266 123.375 101.652 126.443 99.8611 126.443Z" fill="white"/>
<path d="M104.193 134.147H69.2953C67.5041 134.147 67.1176 131.078 68.9033 131.078H103.801C105.597 131.078 105.978 134.147 104.193 134.147Z" fill="white"/>
<path d="M94.0432 141.85H69.6859C67.8947 141.85 67.5082 138.781 69.2939 138.781H93.6404C95.4315 138.781 95.818 141.85 94.0323 141.85H94.0432Z" fill="white"/>
</g>
<g opacity="0.8">
<path d="M64.878 34.5547L63.7892 38.8661H62.8201L61.8184 35.9478L61.0725 38.8661H60.1035L58.6172 34.5547H59.5536L60.5825 37.557L61.3556 34.5547H62.194L63.2339 37.6111L64.0015 34.5547H64.878Z" fill="white"/>
<path d="M68.5942 38.0674L68.6323 38.8661H65.6053L65.3984 34.5547H68.3546L68.3927 35.3533H66.3348L66.3784 36.2901H68.1968L68.2349 37.0647H66.4165L66.4655 38.0674H68.5942Z" fill="white"/>
<path d="M73.4417 37.9413H71.6288L71.3239 38.8661H70.3984L71.9391 34.5547H72.832L74.781 38.8661H73.8337L73.4417 37.9413ZM73.1205 37.1848L72.4073 35.5335L71.8629 37.1848H73.1205Z" fill="white"/>
<path d="M77.6793 38.8668L76.8681 37.6659H76.0351L76.095 38.8668H75.1858L74.9844 34.5554H76.6775C76.9896 34.5469 77.2996 34.6124 77.5867 34.7476C77.8358 34.8579 78.0501 35.0465 78.203 35.2898C78.3559 35.5332 78.4407 35.8207 78.4469 36.1167C78.4717 36.4056 78.4126 36.6958 78.2781 36.9453C78.15 37.1802 77.9601 37.3666 77.7337 37.4797L78.681 38.8668H77.6793ZM77.2927 35.5642C77.1091 35.42 76.8861 35.3501 76.6612 35.3661H75.9262L75.997 36.8733H76.7592C76.9775 36.8914 77.1944 36.8209 77.3689 36.6751C77.4376 36.6047 77.4901 36.5175 77.5223 36.4204C77.5545 36.3233 77.5653 36.2192 77.554 36.1167C77.5528 36.0097 77.5296 35.9044 77.4863 35.8088C77.4429 35.7131 77.3804 35.6295 77.3036 35.5642H77.2927Z" fill="white"/>
<path d="M82.2895 38.0674L82.3276 38.8661H79.2952L79.0938 34.5547H82.05L82.0881 35.3533H80.0302L80.0737 36.2901H81.8921L81.9247 37.0647H80.1118L80.1608 38.0674H82.2895Z" fill="white"/>
<path d="M88.0082 34.5547L88.2151 38.8661H87.3113L87.2242 37.1007H85.4766L85.5583 38.8661H84.6546L84.4531 34.5547H85.3569L85.4385 36.254H87.2133L87.1317 34.5547H88.0082Z" fill="white"/>
<path d="M88.9375 34.5547H89.8303L90.0318 38.8661H89.1281L88.9375 34.5547Z" fill="white"/>
<path d="M93.4605 38.8668L92.6493 37.6659H91.8218L91.8762 38.8668H90.9725L90.7656 34.5554H92.4588C92.7708 34.5469 93.0809 34.6124 93.368 34.7476C93.615 34.8603 93.8283 35.0476 93.9831 35.288C94.1375 35.5317 94.2245 35.8195 94.2336 36.1167C94.2538 36.406 94.193 36.6953 94.0594 36.9453C93.9332 37.182 93.7427 37.369 93.5149 37.4797L94.4568 38.8668H93.4605ZM93.074 35.5642C92.8925 35.42 92.6711 35.35 92.4479 35.3661H91.7075L91.7837 36.8733H92.5187C92.737 36.8914 92.9538 36.8209 93.1284 36.6751C93.197 36.6047 93.2496 36.5175 93.2818 36.4204C93.3139 36.3233 93.3248 36.2192 93.3135 36.1167C93.3174 36.0124 93.2998 35.9085 93.2621 35.8129C93.2244 35.7172 93.1675 35.6322 93.0957 35.5642H93.074Z" fill="white"/>
<path d="M94.8672 34.5547H95.7709L95.9778 38.8661H95.0741L94.8672 34.5547Z" fill="white"/>
<path d="M100.285 34.5547L100.492 38.8661H99.7519L97.6776 36.248L97.8028 38.8661H96.9046L96.7031 34.5547H97.449L99.5178 37.1727L99.3926 34.5547H100.285Z" fill="white"/>
<path d="M103.985 36.6309H104.813L104.894 38.3783C104.68 38.5601 104.439 38.6984 104.181 38.7866C103.909 38.8769 103.627 38.9235 103.343 38.9247C102.965 38.9259 102.592 38.8292 102.254 38.6425C101.928 38.4579 101.653 38.1826 101.454 37.8439C101.252 37.5014 101.137 37.1052 101.121 36.697C101.097 36.2992 101.175 35.902 101.345 35.5501C101.512 35.2112 101.766 34.9336 102.074 34.7515C102.41 34.558 102.784 34.4609 103.163 34.4692C103.485 34.4638 103.805 34.527 104.105 34.6554C104.383 34.7797 104.632 34.9704 104.834 35.2138L104.29 35.8143C104.156 35.6604 103.996 35.538 103.818 35.4544C103.64 35.3708 103.449 35.3278 103.256 35.3279C103.026 35.3235 102.8 35.3835 102.597 35.5021C102.411 35.6113 102.261 35.7812 102.167 35.9884C102.066 36.2113 102.022 36.4607 102.042 36.709C102.049 36.962 102.117 37.2084 102.238 37.4236C102.352 37.6324 102.515 37.8027 102.711 37.916C102.916 38.0338 103.144 38.0937 103.375 38.0901C103.617 38.0962 103.855 38.032 104.067 37.9039L103.985 36.6309Z" fill="white"/>
<path d="M105.689 38.7502C105.637 38.7011 105.594 38.6405 105.564 38.5722C105.534 38.504 105.517 38.4296 105.515 38.3539C105.51 38.2823 105.52 38.2105 105.542 38.1432C105.565 38.0759 105.6 38.0146 105.646 37.9636C105.696 37.9102 105.756 37.8688 105.821 37.842C105.887 37.8151 105.957 37.8034 106.027 37.8074C106.098 37.8038 106.169 37.8157 106.237 37.8425C106.304 37.8693 106.366 37.9104 106.419 37.9636C106.47 38.0123 106.511 38.0721 106.54 38.1393C106.569 38.2064 106.585 38.2795 106.587 38.3539C106.592 38.4269 106.582 38.5001 106.559 38.5686C106.535 38.637 106.499 38.699 106.451 38.7502C106.403 38.804 106.345 38.8462 106.282 38.8741C106.218 38.902 106.15 38.915 106.081 38.9123C106.009 38.9152 105.938 38.9023 105.87 38.8745C105.803 38.8466 105.742 38.8044 105.689 38.7502ZM105.352 34.5469H106.391L106.353 37.3631H105.656L105.352 34.5469Z" fill="white"/>
</g>
<path opacity="0.8" d="M83.2077 46.6953L87.2582 50.5503L92.305 49.3434L94.1615 54.8197L99.2137 56.5851L98.3862 62.2115L102.088 66.4809L98.789 70.7442L100.156 76.3706L95.2721 78.136L93.9328 83.6123L88.7717 82.4054L85.086 86.2664L81.0355 82.4054L75.9942 83.6123L74.1322 78.136L69.08 76.3706L69.913 70.7442L66.2109 66.4809L69.5047 62.2115L68.1436 56.5851L73.0216 54.8197L74.3664 49.3434L79.522 50.5503L83.2077 46.6953Z" fill="white"/>
<path d="M85.2451 67.3419H83.1328L82.9531 63.5469H85.0655L85.2451 67.3419Z" fill="#263238"/>
<path opacity="0.2" d="M85.2451 67.3419H83.1328L82.9531 63.5469H85.0655L85.2451 67.3419Z" fill="white"/>
<path d="M74.8002 66.8159L74.4735 59.9766H73.2812L73.6188 67.1822C73.6377 67.5484 73.7325 67.905 73.8957 68.2245C74.059 68.544 74.2865 68.8181 74.5606 69.0257L76.7383 70.677L76.6675 69.1578L76.1776 68.9356C75.7896 68.7624 75.4541 68.4712 75.2103 68.096C74.9665 67.7207 74.8242 67.2768 74.8002 66.8159Z" fill="#263238"/>
<path opacity="0.2" d="M74.8002 66.8159L74.4735 59.9766H73.2812L73.6188 67.1822C73.6377 67.5484 73.7325 67.905 73.8957 68.2245C74.059 68.544 74.2865 68.8181 74.5606 69.0257L76.7383 70.677L76.6675 69.1578L76.1776 68.9356C75.7896 68.7624 75.4541 68.4712 75.2103 68.096C74.9665 67.7207 74.8242 67.2768 74.8002 66.8159Z" fill="white"/>
<path d="M93.5208 66.8159L93.1996 59.9766H94.3919L94.7349 67.1822C94.7544 67.5354 94.6945 67.8885 94.5606 68.2101C94.4267 68.5317 94.2229 68.8118 93.9672 69.0257L91.9692 70.677L91.8984 69.1578L92.3666 68.9356C92.7344 68.7577 93.043 68.4582 93.2498 68.0785C93.4565 67.6988 93.5512 67.2576 93.5208 66.8159Z" fill="#263238"/>
<path opacity="0.2" d="M93.5208 66.8159L93.1996 59.9766H94.3919L94.7349 67.1822C94.7544 67.5354 94.6945 67.8885 94.5606 68.2101C94.4267 68.5317 94.2229 68.8118 93.9672 69.0257L91.9692 70.677L91.8984 69.1578L92.3666 68.9356C92.7344 68.7577 93.043 68.4582 93.2498 68.0785C93.4565 67.6988 93.5512 67.2576 93.5208 66.8159Z" fill="white"/>
<path d="M96.7969 84.0704L85.8595 80.3175L85.473 72.4453H83.3606L83.7308 80.2935L73.1691 84.0704C73.084 84.1009 73.0106 84.1617 72.9604 84.2432C72.9101 84.3247 72.8858 84.4224 72.8914 84.5208C72.8947 84.5927 72.9121 84.663 72.9425 84.7268C72.9728 84.7906 73.0153 84.8464 73.067 84.8904C73.1188 84.9343 73.1785 84.9654 73.2422 84.9814C73.3059 84.9974 73.3719 84.998 73.4358 84.9832L84.1827 82.0348L84.4549 84.5568C84.4708 84.7124 84.5377 84.8562 84.6429 84.9613C84.7482 85.0663 84.8846 85.1253 85.0265 85.1273C85.1663 85.1275 85.3008 85.0683 85.4022 84.9621C85.5035 84.856 85.564 84.7108 85.5709 84.5568V82.0348L96.6009 84.9832C96.6631 85.0016 96.7283 85.0033 96.7912 84.9882C96.8541 84.9731 96.9128 84.9416 96.9624 84.8963C97.012 84.851 97.051 84.7933 97.0762 84.728C97.1014 84.6626 97.112 84.5916 97.1072 84.5208C97.1022 84.4201 97.07 84.3234 97.0147 84.2431C96.9594 84.1629 96.8835 84.1027 96.7969 84.0704Z" fill="#263238"/>
<path opacity="0.2" d="M96.7969 84.0704L85.8595 80.3175L85.473 72.4453H83.3606L83.7308 80.2935L73.1691 84.0704C73.084 84.1009 73.0106 84.1617 72.9604 84.2432C72.9101 84.3247 72.8858 84.4224 72.8914 84.5208C72.8947 84.5927 72.9121 84.663 72.9425 84.7268C72.9728 84.7906 73.0153 84.8464 73.067 84.8904C73.1188 84.9343 73.1785 84.9654 73.2422 84.9814C73.3059 84.9974 73.3719 84.998 73.4358 84.9832L84.1827 82.0348L84.4549 84.5568C84.4708 84.7124 84.5377 84.8562 84.6429 84.9613C84.7482 85.0663 84.8846 85.1253 85.0265 85.1273C85.1663 85.1275 85.3008 85.0683 85.4022 84.9621C85.5035 84.856 85.564 84.7108 85.5709 84.5568V82.0348L96.6009 84.9832C96.6631 85.0016 96.7283 85.0033 96.7912 84.9882C96.8541 84.9731 96.9128 84.9416 96.9624 84.8963C97.012 84.851 97.051 84.7933 97.0762 84.728C97.1014 84.6626 97.112 84.5916 97.1072 84.5208C97.1022 84.4201 97.07 84.3234 97.0147 84.2431C96.9594 84.1629 96.8835 84.1027 96.7969 84.0704Z" fill="white"/>
<path d="M73.867 86.0497C73.8745 86.179 73.8577 86.3085 73.8178 86.4304C73.7778 86.5522 73.7156 86.6636 73.6349 86.7577C73.5542 86.8518 73.4567 86.9265 73.3487 86.9772C73.2406 87.028 73.1242 87.0536 73.0068 87.0525C72.7621 87.0486 72.5277 86.9432 72.3502 86.7575C72.1726 86.5717 72.065 86.319 72.0486 86.0497C72.0411 85.9204 72.0579 85.7908 72.0978 85.669C72.1377 85.5472 72.2 85.4358 72.2807 85.3417C72.3614 85.2476 72.4589 85.1729 72.5669 85.1222C72.675 85.0714 72.7914 85.0458 72.9088 85.0469C73.1539 85.0494 73.389 85.1543 73.5668 85.3404C73.7446 85.5264 73.8518 85.7799 73.867 86.0497Z" fill="#263238"/>
<path d="M85.9838 86.0497C85.9913 86.179 85.9746 86.3085 85.9346 86.4303C85.8947 86.5522 85.8324 86.6636 85.7517 86.7577C85.671 86.8518 85.5736 86.9265 85.4655 86.9772C85.3575 87.0279 85.2411 87.0536 85.1236 87.0525C84.8789 87.0486 84.6445 86.9432 84.467 86.7574C84.2895 86.5717 84.1818 86.319 84.1655 86.0497C84.1588 85.9201 84.1762 85.7904 84.2168 85.6686C84.2573 85.5468 84.3201 85.4354 84.4013 85.3414C84.4824 85.2474 84.5802 85.1728 84.6885 85.1221C84.7968 85.0715 84.9134 85.0459 85.0311 85.0469C85.2756 85.0495 85.5101 85.1546 85.687 85.3408C85.8639 85.527 85.97 85.7804 85.9838 86.0497Z" fill="#263238"/>
<path d="M98.1013 86.0497C98.1089 86.1795 98.092 86.3096 98.0517 86.4318C98.0114 86.554 97.9487 86.6657 97.8674 86.7599C97.7861 86.8541 97.688 86.9287 97.5793 86.9791C97.4706 87.0294 97.3536 87.0544 97.2357 87.0525C96.9912 87.0499 96.7567 86.9448 96.5798 86.7586C96.4029 86.5724 96.2968 86.319 96.283 86.0497C96.2755 85.9204 96.2922 85.7908 96.3322 85.669C96.3721 85.5472 96.4344 85.4358 96.5151 85.3417C96.5958 85.2476 96.6932 85.1729 96.8013 85.1222C96.9094 85.0714 97.0257 85.0458 97.1432 85.0469C97.3879 85.0508 97.6223 85.1561 97.7998 85.3419C97.9773 85.5277 98.085 85.7804 98.1013 86.0497Z" fill="#263238"/>
<path d="M75.4513 59.4824C75.484 60.1489 74.5204 60.4972 73.3063 60.4972C72.0922 60.4972 71.096 60.1489 71.0633 59.4824C71.0306 58.8159 72.016 58.8519 73.241 58.8519C74.4659 58.8519 75.4241 58.8459 75.4513 59.4824Z" fill="#263238"/>
<path d="M92.1805 59.4824C92.2131 60.1489 93.2094 60.4972 94.4235 60.4972C95.6375 60.4972 96.6012 60.1489 96.5685 59.4824C96.5358 58.8159 95.5559 58.8519 94.3418 58.8519C93.1278 58.8519 92.1478 58.8459 92.1805 59.4824Z" fill="#263238"/>
<path d="M93.6342 68.5746C93.7703 71.4269 89.6381 72.916 84.4553 72.916C79.2724 72.916 74.9987 71.4269 74.8626 68.5746C74.7265 65.7224 78.9348 65.8845 84.1177 65.8845C89.3006 65.8845 93.4926 65.7224 93.6342 68.5746Z" fill="#263238"/>
<path d="M85.8648 64.3704C87.3402 63.89 90.5523 63.2776 90.9933 61.6563C91.8589 58.5098 89.7193 49.7729 87.5144 47.347C86.842 46.7763 86.0686 46.3672 85.2442 46.1461C83.8849 45.8159 82.4768 45.8159 81.1175 46.1461C80.3182 46.3586 79.5735 46.7693 78.9398 47.347C76.969 49.7489 75.6733 58.5098 76.822 61.6563C77.4154 63.2776 80.6874 63.89 82.2063 64.3704C83.4019 64.7472 84.6692 64.7472 85.8648 64.3704Z" fill="#263238"/>
<path opacity="0.8" d="M105.646 107.514H66.5571C65.5448 107.502 64.5741 107.068 63.8398 106.3C63.1056 105.531 62.6623 104.485 62.5991 103.37L62.3977 99.1669C62.367 98.6318 62.4367 98.0954 62.6025 97.5913C62.7683 97.0873 63.0266 96.6264 63.3614 96.2375C63.6961 95.8486 64.0999 95.54 64.5477 95.3312C64.9955 95.1223 65.4775 95.0177 65.9636 95.0237H105.075C106.087 95.0352 107.058 95.4688 107.792 96.2374C108.526 97.006 108.97 98.0526 109.033 99.1669L109.234 103.37C109.265 103.907 109.195 104.446 109.028 104.952C108.86 105.457 108.6 105.919 108.263 106.309C107.926 106.698 107.52 107.006 107.069 107.213C106.619 107.421 106.134 107.523 105.646 107.514Z" fill="white"/>
<path d="M69.1855 102.683H67.1712L66.8336 103.71H65.8047L67.5142 98.9062H68.505L70.6827 103.71H69.6265L69.1855 102.683ZM68.8317 101.843L68.0477 99.9751L67.4488 101.813L68.8317 101.843Z" fill="#007CCE"/>
<path d="M73.7971 99.0817C74.0749 99.2059 74.3137 99.417 74.4839 99.6891C74.6542 99.9612 74.7485 100.282 74.7553 100.613C74.7783 100.933 74.7138 101.253 74.5702 101.532C74.4244 101.8 74.2052 102.01 73.9441 102.132C73.6311 102.279 73.2933 102.35 72.9533 102.342H72.0767L72.1366 103.663H71.1349L70.9062 98.8595H72.7845C73.1323 98.8559 73.477 98.9315 73.7971 99.0817ZM73.5303 101.225C73.606 101.151 73.6643 101.058 73.7003 100.953C73.7363 100.848 73.749 100.736 73.7372 100.625C73.7351 100.509 73.7102 100.396 73.6641 100.292C73.618 100.188 73.5519 100.097 73.4705 100.024C73.2666 99.8689 73.0208 99.7948 72.7736 99.8142H71.957L72.0332 101.478H72.8553C73.0986 101.493 73.3386 101.409 73.5303 101.243V101.225Z" fill="#007CCE"/>
<path d="M78.2737 99.0817C78.5515 99.2059 78.7902 99.417 78.9605 99.6891C79.1308 99.9612 79.2251 100.282 79.2319 100.613C79.2549 100.933 79.1904 101.253 79.0468 101.532C78.901 101.8 78.6817 102.01 78.4207 102.132C78.1076 102.279 77.7699 102.35 77.4298 102.342H76.5533L76.6186 103.663H75.6115L75.3828 98.8595H77.2611C77.6089 98.8559 77.9536 98.9315 78.2737 99.0817ZM78.0069 101.225C78.0826 101.151 78.1409 101.058 78.1769 100.953C78.2129 100.848 78.2255 100.736 78.2138 100.625C78.2116 100.51 78.1872 100.397 78.1421 100.293C78.097 100.19 78.0324 100.098 77.9525 100.024C77.7472 99.8676 77.4992 99.7934 77.2502 99.8142H76.4335L76.5098 101.478H77.3318C77.5752 101.493 77.8152 101.409 78.0069 101.243V101.225Z" fill="#007CCE"/>
<path d="M79.8594 98.8906H80.8666L81.0517 102.782H83.2293L83.2729 103.682H80.088L79.8594 98.8906Z" fill="#007CCE"/>
<path d="M85.3989 101.983L85.4806 103.682H84.4734L84.3918 101.971L82.5625 98.8906H83.6513L84.9144 101.022L85.976 98.8906H86.9614L85.3989 101.983Z" fill="#007CCE"/>
<path d="M93.0945 98.8906L93.3232 103.694H92.4957L90.1928 100.788L90.3289 103.694H89.338L89.1094 98.8906H89.9423L92.2398 101.803L92.0982 98.8906H93.0945Z" fill="#007CCE"/>
<path d="M95.2316 103.441C94.8694 103.235 94.5619 102.928 94.3387 102.552C94.1154 102.174 93.9893 101.736 93.974 101.285C93.946 100.846 94.0309 100.407 94.219 100.018C94.4048 99.6409 94.6868 99.3319 95.0301 99.1295C95.3989 98.9079 95.8135 98.7962 96.2333 98.8052C96.6615 98.799 97.0843 98.9104 97.4637 99.1295C97.8258 99.3358 98.1334 99.6419 98.3566 100.018C98.5816 100.396 98.7095 100.834 98.7268 101.285C98.7555 101.725 98.6686 102.165 98.4763 102.552C98.2894 102.927 98.01 103.235 97.6706 103.441C97.3016 103.662 96.8871 103.773 96.4674 103.765C96.0376 103.771 95.6131 103.659 95.2316 103.441ZM97.1098 102.624C97.3086 102.495 97.4693 102.305 97.5726 102.078C97.6806 101.831 97.7276 101.558 97.7087 101.285C97.6964 101.006 97.6236 100.734 97.4964 100.493C97.3636 100.259 97.1753 100.07 96.9519 99.9461C96.7362 99.818 96.4947 99.7519 96.2496 99.7539C96.0097 99.7504 95.7731 99.8167 95.5637 99.9461C95.3649 100.075 95.2042 100.265 95.1009 100.493C94.9934 100.739 94.9464 101.012 94.9648 101.285C94.9711 101.565 95.0443 101.839 95.1771 102.078C95.3019 102.306 95.4783 102.494 95.6889 102.624C95.9059 102.754 96.1497 102.82 96.3966 102.816C96.6461 102.828 96.8935 102.762 97.1098 102.624Z" fill="#007CCE"/>
<path d="M105.792 98.8906L104.6 103.694H103.511L102.422 100.452L101.589 103.694H100.5L98.8672 98.8906H99.9125L101.05 102.259L101.916 98.8906H102.847L104.001 102.283L104.85 98.8906H105.792Z" fill="#007CCE"/>
<path opacity="0.2" d="M61.4062 165.571C62.0155 165.823 62.6608 165.954 63.3117 165.955H88.6272L113.948 45.8066L112.729 20.1184C112.638 18.5441 112.012 17.0655 110.975 15.9788C109.938 14.892 108.568 14.2774 107.138 14.2578H96.6847L96.8208 17.1641C96.8435 17.5116 96.8004 17.8605 96.6941 18.1886C96.5879 18.5167 96.4209 18.8169 96.2038 19.0699C95.9867 19.323 95.7241 19.5234 95.4329 19.6584C95.1418 19.7934 94.8283 19.8601 94.5124 19.8542H92.117L61.4062 165.571Z" fill="white"/>
<path opacity="0.2" d="M95.109 165.952L115.138 70.9089L114.458 56.5156L91.3906 165.952H95.109Z" fill="white"/>
<path d="M217.649 212.24L200.592 207.646V132.281H196.068V207.646L179.006 212.24C178.751 212.301 178.53 212.472 178.389 212.713C178.249 212.955 178.201 213.248 178.257 213.528C178.313 213.808 178.467 214.053 178.686 214.208C178.905 214.363 179.171 214.415 179.425 214.354L198.327 210.397L217.229 214.366C217.483 214.426 217.749 214.373 217.967 214.218C218.186 214.062 218.34 213.817 218.394 213.537C218.449 213.257 218.401 212.964 218.26 212.723C218.119 212.482 217.897 212.313 217.643 212.252L217.649 212.24Z" fill="#263238"/>
<g opacity="0.2">
<path d="M217.649 212.24L200.592 207.646V132.281H196.068V207.646L179.006 212.24C178.751 212.301 178.53 212.472 178.389 212.713C178.249 212.955 178.201 213.248 178.257 213.528C178.313 213.808 178.467 214.053 178.686 214.208C178.905 214.363 179.171 214.415 179.425 214.354L198.327 210.397L217.229 214.366C217.483 214.426 217.749 214.373 217.967 214.218C218.186 214.062 218.34 213.817 218.394 213.537C218.449 213.257 218.401 212.964 218.26 212.723C218.119 212.482 217.897 212.313 217.643 212.252L217.649 212.24Z" fill="white"/>
</g>
<path d="M207.113 135.998C207.113 135.998 200.537 137.025 198.326 137.025C196.116 137.025 189.545 135.998 189.545 135.998C189.13 135.949 188.747 135.733 188.468 135.392C188.188 135.051 188.033 134.608 188.031 134.148H208.621C208.62 134.607 208.465 135.049 208.187 135.39C207.909 135.731 207.527 135.948 207.113 135.998Z" fill="#263238"/>
<path opacity="0.3" d="M207.113 135.998C207.113 135.998 200.537 137.025 198.326 137.025C196.116 137.025 189.545 135.998 189.545 135.998C189.13 135.949 188.747 135.733 188.468 135.392C188.188 135.051 188.033 134.608 188.031 134.148H208.621C208.62 134.607 208.465 135.049 208.187 135.39C207.909 135.731 207.527 135.948 207.113 135.998Z" fill="white"/>
<path d="M220.89 134.26H175.758C175.281 134.26 174.824 134.051 174.487 133.68C174.15 133.308 173.961 132.804 173.961 132.278C173.961 131.753 174.15 131.249 174.487 130.877C174.824 130.506 175.281 130.297 175.758 130.297H220.89C221.126 130.297 221.359 130.348 221.577 130.448C221.795 130.547 221.993 130.693 222.16 130.877C222.327 131.061 222.459 131.28 222.55 131.52C222.64 131.761 222.687 132.018 222.687 132.278C222.687 132.539 222.64 132.796 222.55 133.037C222.459 133.277 222.327 133.496 222.16 133.68C221.993 133.864 221.795 134.01 221.577 134.109C221.359 134.209 221.126 134.26 220.89 134.26Z" fill="#007CCE"/>
<path opacity="0.4" d="M220.89 134.26H175.758C175.281 134.26 174.824 134.051 174.487 133.68C174.15 133.308 173.961 132.804 173.961 132.278C173.961 131.753 174.15 131.249 174.487 130.877C174.824 130.506 175.281 130.297 175.758 130.297H220.89C221.126 130.297 221.359 130.348 221.577 130.448C221.795 130.547 221.993 130.693 222.16 130.877C222.327 131.061 222.459 131.28 222.55 131.52C222.64 131.761 222.687 132.018 222.687 132.278C222.687 132.539 222.64 132.796 222.55 133.037C222.459 133.277 222.327 133.496 222.16 133.68C221.993 133.864 221.795 134.01 221.577 134.109C221.359 134.209 221.126 134.26 220.89 134.26Z" fill="white"/>
<path d="M201.809 130.079H195.091L194.547 111.656H202.354L201.809 130.079Z" fill="#007CCE"/>
<path opacity="0.7" d="M201.809 130.079H195.091L194.547 111.656H202.354L201.809 130.079Z" fill="white"/>
<path d="M203.083 112.31H193.828L194.373 110.562H202.539L203.083 112.31Z" fill="#007CCE"/>
<path d="M202.04 123.643L202.182 118.383H194.734L194.876 123.643H202.04Z" fill="#007CCE"/>
<path opacity="0.8" d="M199.995 121.02C199.995 121.356 199.905 121.684 199.736 121.964C199.567 122.243 199.326 122.461 199.044 122.59C198.763 122.718 198.453 122.752 198.154 122.686C197.855 122.621 197.581 122.459 197.365 122.221C197.15 121.984 197.003 121.681 196.944 121.351C196.884 121.022 196.915 120.68 197.031 120.369C197.148 120.059 197.345 119.793 197.599 119.607C197.852 119.42 198.15 119.32 198.455 119.32C198.863 119.32 199.255 119.499 199.544 119.818C199.833 120.137 199.995 120.569 199.995 121.02Z" fill="white"/>
<path d="M165.592 107.031L166.403 109.692C166.517 110.064 165.891 112.754 166.131 113.402L167.584 116.765C167.78 117.143 168.1 117.424 168.477 117.552C169.082 117.647 169.699 117.525 170.236 117.203L171.014 116.753C171.208 116.646 171.368 116.479 171.474 116.271C171.581 116.064 171.629 115.826 171.613 115.588C171.542 114.423 171.613 112.207 171.373 111.385C171.32 111.176 171.217 110.987 171.074 110.838L169.931 109.637C169.767 109.437 169.65 109.196 169.588 108.935L168.858 105.933C168.798 105.689 168.691 105.463 168.543 105.271C168.395 105.079 168.211 104.925 168.003 104.82C167.795 104.715 167.569 104.662 167.34 104.664C167.112 104.667 166.887 104.724 166.681 104.834L166.397 104.99C166.064 105.168 165.8 105.472 165.652 105.846C165.505 106.221 165.483 106.641 165.592 107.031Z" fill="#FF8B7B"/>
<path d="M117.348 96.2784L113.537 97.1431C113.475 97.2018 113.401 97.2429 113.321 97.2628C113.242 97.2827 113.159 97.2808 113.08 97.2572L108.18 95.75C108.074 95.7083 107.959 95.7083 107.853 95.75L103.77 97.6895C103.657 97.7428 103.567 97.8412 103.518 97.9649C103.468 98.0886 103.463 98.2284 103.503 98.3561C103.544 98.4855 103.629 98.5929 103.739 98.6565C103.849 98.72 103.977 98.735 104.097 98.6983L106.16 98.0558C106.259 98.0219 106.366 98.024 106.464 98.0618C106.562 98.0997 106.646 98.1712 106.705 98.266L108.523 101.166C108.563 101.229 108.615 101.282 108.675 101.321C108.735 101.36 108.802 101.385 108.871 101.394L110.946 101.641C111.01 101.659 111.077 101.659 111.142 101.641L114.898 100.326C114.953 100.307 115.004 100.279 115.051 100.242L118.633 99.7852C118.685 99.7403 118.728 99.6843 118.759 99.6206C118.791 99.5569 118.811 99.4868 118.818 99.4145C118.824 99.3422 118.817 99.2691 118.798 99.1997C118.778 99.1303 118.746 99.066 118.704 99.0106L118.034 96.3025C117.99 96.2511 117.938 96.2097 117.88 96.1807C117.822 96.1517 117.759 96.1356 117.695 96.1334C117.632 96.1312 117.568 96.1428 117.509 96.1677C117.449 96.1926 117.394 96.2302 117.348 96.2784Z" fill="#FF8B7B"/>
<path d="M133.502 95.7597C133.214 99.4165 115.58 100.948 115.58 100.948L114.758 96.228L127.873 91.8326C124.971 71.5846 131.374 70.75 131.374 70.75C131.374 70.75 134.439 83.7082 133.502 95.7597Z" fill="#007CCE"/>
<g opacity="0.6">
<path d="M133.502 95.7597C133.214 99.4165 115.58 100.948 115.58 100.948L114.758 96.228L127.873 91.8326C124.971 71.5846 131.374 70.75 131.374 70.75C131.374 70.75 134.439 83.7082 133.502 95.7597Z" fill="white"/>
</g>
<path d="M136.648 199.842L137.068 210.932L141.222 210.74L141.793 199.602L136.648 199.842Z" fill="#FF8B7B"/>
<path opacity="0.2" d="M136.858 205.516L141.502 205.3L141.791 199.602L136.641 199.842L136.858 205.516Z" fill="#263238"/>
<path d="M132.422 108.533L136.102 204.525L142.091 204.243C142.091 204.243 145.292 182.548 144.573 167.92C144.497 166.407 144.029 162.612 144.132 161.315C144.331 159.405 144.658 157.514 145.112 155.658C146.566 148.927 147.922 137.29 147.099 128.571C147.099 128.571 154.923 119.348 152.838 107.555L132.422 108.533Z" fill="#007CCE"/>
<path opacity="0.2" d="M147.768 127.687L145.781 122.883L144.268 123.657C144.268 123.657 144.104 131.037 146.745 144.926C147.369 139.505 147.483 134.028 147.082 128.581C147.082 128.581 147.349 128.269 147.768 127.687Z" fill="black"/>
<path d="M134.614 209.28C133.994 209.28 133.341 209.184 133.128 208.896C133.075 208.812 133.047 208.712 133.047 208.61C133.047 208.508 133.075 208.409 133.128 208.325C133.167 208.248 133.219 208.18 133.282 208.126C133.344 208.071 133.416 208.031 133.493 208.007C134.326 207.731 136.106 208.788 136.182 208.836C136.204 208.847 136.222 208.866 136.233 208.89C136.244 208.914 136.247 208.941 136.242 208.968C136.239 208.995 136.229 209.021 136.213 209.041C136.196 209.061 136.174 209.076 136.15 209.082C135.644 209.196 135.13 209.262 134.614 209.28ZM133.792 208.223C133.717 208.223 133.642 208.235 133.569 208.259C133.519 208.268 133.472 208.291 133.431 208.324C133.391 208.358 133.358 208.401 133.335 208.451C133.253 208.613 133.286 208.691 133.335 208.733C133.575 209.088 134.843 209.064 135.774 208.914C135.16 208.545 134.487 208.311 133.792 208.223Z" fill="#007CCE"/>
<path d="M136.134 209.073H136.107C135.503 208.791 134.267 207.626 134.365 206.996C134.365 206.846 134.468 206.659 134.795 206.617C134.913 206.601 135.033 206.61 135.148 206.645C135.263 206.68 135.371 206.74 135.465 206.822C136.118 207.386 136.281 208.881 136.292 208.947C136.295 208.971 136.291 208.995 136.282 209.016C136.272 209.038 136.257 209.056 136.238 209.067C136.222 209.078 136.205 209.085 136.187 209.086C136.169 209.087 136.15 209.082 136.134 209.073ZM134.86 206.864H134.79C134.577 206.894 134.566 206.984 134.555 207.02C134.555 207.398 135.345 208.317 135.976 208.707C135.906 208.08 135.661 207.492 135.274 207.026C135.159 206.918 135.011 206.862 134.86 206.87V206.864Z" fill="#007CCE"/>
<path d="M136.644 208.285L142.126 208.141C142.227 208.139 142.325 208.174 142.405 208.242C142.485 208.31 142.542 208.405 142.567 208.513L143.656 213.407C143.702 213.617 143.67 213.839 143.568 214.023C143.466 214.208 143.302 214.34 143.111 214.392H142.959C140.983 214.392 139.219 214.332 136.758 214.392C133.856 214.47 134.58 214.836 131.188 214.992C129.131 215.076 128.701 212.506 129.555 212.356C133.535 211.695 133.911 210.356 135.43 208.753C135.766 208.434 136.2 208.267 136.644 208.285Z" fill="#263238"/>
<path d="M166.742 199.319L169.639 209.953L173.624 208.632L171.68 197.68L166.742 199.319Z" fill="#FF8B7B"/>
<path opacity="0.2" d="M167.967 203.804L172.573 202.73L171.68 197.68L166.742 199.319L167.967 203.804Z" fill="#263238"/>
<path d="M140.613 112.504C145.997 134.943 167.093 203.079 167.093 203.079L172.897 201.608C172.897 201.608 169.962 177.925 165.748 164.529C165.073 162.397 164.115 160.65 163.641 159.052C163.059 157.023 163.282 155.498 162.683 150.646C161.992 145.049 160.979 137.712 159.814 131.965C159.504 130.422 159.297 129.101 159.15 127.816C158.976 126.309 158.927 125.192 158.802 121.691C158.622 116.887 156.956 110.318 155.214 106.133L139.578 106.859C139.578 106.859 140.275 111.087 140.613 112.504Z" fill="#007CCE"/>
<path d="M166.435 208.06C165.944 208.262 165.403 208.262 164.911 208.06C164.841 207.992 164.791 207.902 164.77 207.802C164.748 207.701 164.756 207.596 164.791 207.501C164.839 207.332 164.945 207.19 165.085 207.105C165.842 206.63 167.807 207.225 167.873 207.255C167.896 207.261 167.918 207.276 167.933 207.296C167.949 207.317 167.958 207.342 167.96 207.369C167.96 207.396 167.953 207.423 167.941 207.446C167.928 207.469 167.911 207.488 167.889 207.501C167.42 207.733 166.933 207.919 166.435 208.06ZM165.423 207.225C165.347 207.248 165.274 207.28 165.205 207.321C165.16 207.344 165.12 207.377 165.088 207.418C165.056 207.46 165.033 207.509 165.02 207.561C164.971 207.741 165.02 207.813 165.064 207.843C165.368 208.132 166.599 207.801 167.475 207.423C166.809 207.214 166.112 207.146 165.423 207.225Z" fill="#007CCE"/>
<path d="M167.868 207.499C167.852 207.505 167.834 207.505 167.819 207.499C167.171 207.379 165.733 206.538 165.695 205.902C165.695 205.751 165.733 205.547 166.044 205.427C166.155 205.382 166.274 205.362 166.393 205.368C166.511 205.374 166.628 205.407 166.735 205.463C167.486 205.854 167.949 207.265 167.971 207.331C167.978 207.353 167.979 207.378 167.974 207.401C167.969 207.424 167.959 207.446 167.944 207.463C167.923 207.484 167.896 207.496 167.868 207.499ZM166.18 205.649H166.109C165.908 205.727 165.913 205.823 165.913 205.86C165.968 206.232 166.942 206.928 167.639 207.157C167.441 206.565 167.084 206.054 166.615 205.691C166.481 205.614 166.326 205.595 166.18 205.637V205.649Z" fill="#007CCE"/>
<path d="M168.221 206.599L173.54 205.116C173.637 205.089 173.74 205.1 173.831 205.145C173.922 205.191 173.996 205.27 174.041 205.368L176.094 209.872C176.138 209.967 176.165 210.07 176.173 210.176C176.181 210.282 176.17 210.389 176.141 210.491C176.112 210.592 176.065 210.686 176.002 210.768C175.94 210.849 175.864 210.916 175.778 210.965C175.731 210.99 175.682 211.01 175.631 211.025C173.704 211.523 171.972 211.884 169.588 212.55C166.773 213.337 167.574 213.505 164.274 214.484C162.282 215.084 161.345 212.682 162.162 212.31C165.913 210.695 166.022 209.307 167.165 207.344C167.421 206.96 167.798 206.694 168.221 206.599Z" fill="#263238"/>
<g opacity="0.2">
<path d="M150.338 112.831L149.842 110.609C147.932 111.036 146.151 111.348 144.523 111.564L144.741 113.846C146.445 113.618 148.323 113.287 150.338 112.831Z" fill="black"/>
<path d="M137.332 111.982C135.874 111.959 134.42 111.835 132.977 111.609L133.162 113.957C134.606 114.16 136.061 114.27 137.517 114.287L137.332 111.982Z" fill="black"/>
<path d="M155.056 109.227C153.684 109.627 152.369 109.987 151.109 110.307L151.703 112.505C152.95 112.193 154.245 111.839 155.595 111.424L155.056 109.227Z" fill="black"/>
<path d="M142.908 111.75C141.242 111.918 139.745 111.99 138.422 111.996L138.645 114.296C139.19 114.296 139.734 114.296 140.278 114.254C141.171 114.212 142.124 114.14 143.137 114.032L142.908 111.75Z" fill="black"/>
</g>
<path d="M156.715 69.5401L148.674 69.9124C146.899 72.0741 139.081 71.972 139.446 70.3447L131.329 70.723C130.953 70.7289 130.589 70.8631 130.285 71.1073C129.982 71.3515 129.755 71.6935 129.635 72.0861C127.131 81.4775 132.096 107.07 132.096 107.07C129.124 112.096 139.293 110.919 150.062 109.369C160.831 107.82 155.838 104.44 155.838 104.44C155.136 92.2439 157.172 75.767 157.755 70.8131C157.777 70.6511 157.766 70.4859 157.723 70.3291C157.68 70.1724 157.606 70.028 157.507 69.9064C157.407 69.7847 157.285 69.6888 157.148 69.6255C157.011 69.5622 156.863 69.533 156.715 69.5401Z" fill="#007CCE"/>
<g opacity="0.7">
<path d="M156.715 69.5401L148.674 69.9124C146.899 72.0741 139.081 71.972 139.446 70.3447L131.329 70.723C130.953 70.7289 130.589 70.8631 130.285 71.1073C129.982 71.3515 129.755 71.6935 129.635 72.0861C127.131 81.4775 132.096 107.07 132.096 107.07C129.124 112.096 139.293 110.919 150.062 109.369C160.831 107.82 155.838 104.44 155.838 104.44C155.136 92.2439 157.172 75.767 157.755 70.8131C157.777 70.6511 157.766 70.4859 157.723 70.3291C157.68 70.1724 157.606 70.028 157.507 69.9064C157.407 69.7847 157.285 69.6888 157.148 69.6255C157.011 69.5622 156.863 69.533 156.715 69.5401Z" fill="white"/>
</g>
<path d="M141.037 47.5078C141.037 47.5078 136.186 47.9702 136.595 50.4201C137.003 52.87 141.07 50.6543 141.07 50.6543L141.037 47.5078Z" fill="#263238"/>
<path d="M147.695 59.7031C146.873 62.7055 146.122 67.5093 147.249 70.4636C147.521 71.1721 147.026 72.4511 146.46 72.9015C144.478 74.6189 142.186 76.2161 139.665 76.036C136.431 75.8018 136.186 73.1297 136.943 71.7126C137.15 71.3343 137.684 70.5116 138.076 70.3975C141.217 69.659 141.5 67.3171 141.157 64.687L147.695 59.7031Z" fill="#FF8B7B"/>
<path opacity="0.2" d="M145.035 61.7578L141.164 64.6821C141.237 65.3273 141.26 65.9781 141.235 66.6276C142.596 66.5676 144.441 65.5168 145.117 63.9495C145.547 62.9948 145.356 61.9139 145.035 61.7578Z" fill="black"/>
<path d="M149.342 54.8289C148.356 59.4466 147.986 62.1967 145.482 64.1843C141.709 67.1867 136.826 64.0342 136.548 59.2064C136.297 54.8229 137.952 48.0376 142.379 46.9688C143.894 46.5944 145.482 46.8989 146.794 47.8155C148.106 48.732 149.034 50.1856 149.374 51.8566C149.571 52.837 149.559 53.8541 149.342 54.8289Z" fill="#FF8B7B"/>
<path d="M142.892 54.4635C142.718 54.8178 142.402 55.016 142.19 54.8839C141.977 54.7518 141.945 54.3615 142.124 54.0012C142.304 53.6409 142.614 53.4488 142.827 53.5809C143.039 53.713 143.072 54.1093 142.892 54.4635Z" fill="#263238"/>
<path d="M138.983 53.2135C138.804 53.5738 138.488 53.766 138.276 53.6399C138.063 53.5138 138.031 53.1115 138.21 52.7512C138.39 52.3909 138.7 52.1988 138.913 52.3309C139.125 52.463 139.158 52.8413 138.983 53.2135Z" fill="#263238"/>
<path d="M144.779 53.7352C144.741 53.7213 144.707 53.696 144.681 53.6621C144.655 53.6281 144.638 53.587 144.632 53.5431C144.599 53.2438 144.502 52.9575 144.348 52.7079C144.195 52.4583 143.99 52.2527 143.75 52.1079C143.723 52.0955 143.699 52.0774 143.679 52.0546C143.659 52.0318 143.643 52.0048 143.632 51.9752C143.622 51.9456 143.617 51.914 143.617 51.8821C143.618 51.8502 143.624 51.8188 143.636 51.7897C143.647 51.7611 143.663 51.7353 143.684 51.7137C143.704 51.6921 143.728 51.6752 143.754 51.6641C143.781 51.6529 143.809 51.6476 143.837 51.6485C143.865 51.6495 143.893 51.6567 143.919 51.6696C144.224 51.8492 144.485 52.1063 144.682 52.4195C144.879 52.7328 145.006 53.0932 145.051 53.471C145.056 53.5022 145.055 53.534 145.048 53.5648C145.042 53.5955 145.03 53.6246 145.013 53.6502C144.997 53.6759 144.976 53.6976 144.951 53.7143C144.927 53.7309 144.9 53.7421 144.872 53.7472L144.779 53.7352Z" fill="#263238"/>
<path d="M138.164 50.7759C138.137 50.7657 138.111 50.7497 138.09 50.7288C138.068 50.7079 138.051 50.6825 138.038 50.654C138.025 50.6255 138.018 50.5946 138.016 50.563C138.014 50.5313 138.018 50.4996 138.028 50.4696C138.043 50.4216 138.072 50.3798 138.109 50.3495C138.383 50.1172 138.703 49.9601 139.043 49.8912C139.383 49.8222 139.733 49.8435 140.064 49.9532C140.118 49.9749 140.162 50.0193 140.186 50.0767C140.211 50.134 140.214 50.1997 140.194 50.2595C140.172 50.3174 140.13 50.3638 140.077 50.3894C140.025 50.415 139.966 50.4179 139.911 50.3976C139.65 50.3114 139.373 50.2947 139.104 50.349C138.836 50.4033 138.582 50.5269 138.365 50.7098C138.339 50.7378 138.307 50.7584 138.272 50.7699C138.237 50.7814 138.2 50.7834 138.164 50.7759Z" fill="#263238"/>
<path d="M139.708 53.9922C138.956 54.7905 138.108 55.4714 137.188 56.0158C137.321 56.2709 137.503 56.4911 137.721 56.6611C137.939 56.8312 138.188 56.947 138.451 57.0005L139.708 53.9922Z" fill="#DE5753"/>
<path d="M138.44 58.4658C138.44 58.4658 139.997 58.2317 144.271 58.5499C143.661 59.7929 142.638 60.7596 140.46 60.5855C138.282 60.4114 138.44 58.4658 138.44 58.4658Z" fill="#263238"/>
<path d="M141.546 59.6547C140.71 59.5393 139.861 59.6914 139.102 60.0931C139.495 60.3925 139.958 60.5613 140.435 60.5795C141.27 60.6943 142.117 60.5399 142.874 60.1351C142.484 59.8351 142.022 59.6681 141.546 59.6547Z" fill="#DE5753"/>
<path d="M138.648 58.4486C138.681 58.6145 138.756 58.7668 138.864 58.8879C138.972 59.009 139.108 59.0941 139.258 59.1332C140.528 59.2243 141.802 59.2102 143.069 59.0911C143.267 59.0938 143.462 59.0445 143.639 58.9474C143.816 58.8503 143.97 58.7082 144.087 58.5327C142.278 58.3666 140.461 58.3385 138.648 58.4486Z" fill="white"/>
<path d="M148.083 57.9961C147.485 56.3639 147.265 54.5936 147.441 52.8441C147.441 52.8441 145.84 50.6643 146.036 48.7969C146.036 48.7969 137.472 49.3973 137.407 45.2421C137.342 41.0868 142.682 45.2001 142.682 45.2001C142.682 45.2001 142.72 39.3875 146.493 44.3234C146.493 44.3234 150.99 45.08 151.643 49.2052C151.643 49.2052 153.5 48.899 153.141 52.5558C152.357 54.7771 151.198 56.8145 149.727 58.5606L148.083 57.9961Z" fill="#263238"/>
<path d="M150.722 59.572C149.998 60.4531 148.99 60.9857 147.913 61.0551C146.481 61.1212 146.084 59.626 146.754 58.323C147.353 57.122 148.817 55.6989 150.124 56.2454C151.43 56.7918 151.604 58.4731 150.722 59.572Z" fill="#FF8B7B"/>
<path d="M152.391 53.3165C152.391 53.3165 153.839 50.8125 154.367 51.6592C154.895 52.5058 152.391 53.3165 152.391 53.3165Z" fill="#263238"/>
<path d="M138.692 70.3653C138.431 71.5662 138.05 74.3404 139.618 75.8175C139.618 75.8175 145.187 72.599 147.153 69.6687C147.201 69.5931 147.262 69.5289 147.333 69.4799C147.404 69.4309 147.484 69.3982 147.567 69.3836C147.649 69.3691 147.734 69.373 147.815 69.3951C147.897 69.4173 147.973 69.4572 148.04 69.5126L148.519 69.9209C148.519 69.9209 148.955 73.0073 144.926 78.1594C144.885 78.2159 144.83 78.259 144.768 78.2841C144.706 78.3092 144.639 78.3152 144.574 78.3017C144.51 78.2881 144.449 78.2554 144.4 78.2071C144.351 78.1588 144.314 78.0967 144.295 78.0273C143.984 76.9464 142.95 75.2291 139.58 76.5681C139.58 76.5681 137.304 75.7395 136.161 77.1266C136.111 77.1889 136.044 77.2325 135.97 77.2513C135.897 77.2702 135.82 77.2633 135.75 77.2316C135.68 77.2 135.62 77.1451 135.58 77.0747C135.54 77.0042 135.52 76.9216 135.524 76.8384C135.606 74.5235 136.267 72.2789 137.435 70.3533L138.306 69.993C138.355 69.9714 138.409 69.9652 138.461 69.9751C138.513 69.985 138.562 70.0106 138.602 70.0491C138.642 70.0875 138.672 70.1374 138.688 70.1932C138.704 70.249 138.705 70.3085 138.692 70.3653Z" fill="#007CCE"/>
<path opacity="0.1" d="M133.961 107.109C133.961 107.109 141.997 108.249 148.448 106.094L133.961 107.109Z" fill="black"/>
<path opacity="0.1" d="M154.609 77.1875C154.609 77.1875 153.863 81.9913 156.019 88.7826C156.242 85.2579 156.536 81.8832 156.83 78.9529L154.609 77.1875Z" fill="black"/>
<path d="M157.641 70.0066C157.641 70.0066 152.469 73.8496 154.87 80.725C157.271 87.6004 165.666 108.689 165.666 108.689L169.934 107.488L164.751 88.315L157.641 69.9766" fill="#007CCE"/>
<path opacity="0.7" d="M157.641 70.0066C157.641 70.0066 152.469 73.8496 154.87 80.725C157.271 87.6004 165.666 108.689 165.666 108.689L169.934 107.488L164.751 88.315L157.641 69.9766" fill="white"/>
</svg>
