<svg width="273" height="221" viewBox="0 0 273 221" fill="none" xmlns="http://www.w3.org/2000/svg">
<path d="M232.668 199.036C179.555 228.322 93.4453 228.322 40.3324 199.036C-12.7805 169.749 -12.7744 122.273 40.3324 92.992C93.4392 63.711 179.561 63.711 232.668 92.992C285.774 122.273 285.781 169.755 232.668 199.036Z" fill="#FAFAFA"/>
<path d="M152.017 146.011C140.856 139.83 122.763 139.83 111.602 146.011C102.142 151.26 100.708 159.255 107.282 165.343C106.91 165.437 106.553 165.576 106.219 165.757L70.9803 185.294C69.4857 186.122 69.4857 187.469 70.9803 188.297L73.1918 189.522C74.0219 189.927 74.9445 190.125 75.8753 190.1C76.8061 190.075 77.7154 189.826 78.5201 189.376L111.328 168.749C111.463 168.665 111.589 168.569 111.705 168.463C122.872 174.592 140.868 174.575 152.011 168.411C163.153 162.247 163.208 152.199 152.017 146.011Z" fill="#E6E6E6"/>
<path d="M230.462 123.521L185.551 148.463C184.991 148.736 184.372 148.878 183.743 148.878C183.115 148.878 182.496 148.736 181.936 148.463L103.81 105.162C102.813 104.614 102.813 103.716 103.81 103.162L148.721 78.22C149.281 77.947 149.9 77.8047 150.528 77.8047C151.156 77.8047 151.776 77.947 152.336 78.22L230.462 121.52C231.458 122.069 231.458 122.967 230.462 123.521Z" fill="#E6E6E6"/>
<path d="M30.4755 170.696L18.4641 164.036C17.012 163.232 17.012 161.925 18.4641 161.12L102.046 114.799C102.861 114.402 103.763 114.195 104.677 114.195C105.591 114.195 106.492 114.402 107.308 114.799L119.325 121.459C120.777 122.264 120.777 123.57 119.325 124.375L35.737 170.696C34.9217 171.093 34.0204 171.3 33.1062 171.3C32.1921 171.3 31.2908 171.093 30.4755 170.696Z" fill="#E6E6E6"/>
<path d="M230.585 183.929C242.842 183.929 252.779 178.717 252.779 172.289C252.779 165.86 242.842 160.648 230.585 160.648C218.327 160.648 208.391 165.86 208.391 172.289C208.391 178.717 218.327 183.929 230.585 183.929Z" fill="#E6E6E6"/>
<path d="M240.297 160.734C240.51 158.15 242.903 152.954 245.978 149.817C249.052 146.679 253.639 144.568 256.671 145.834C259.496 147 258.876 150.645 255.146 152.791C251.415 154.937 245.874 157.579 243.973 161.644L240.297 166.531V160.734Z" fill="#007CCE"/>
<path opacity="0.1" d="M240.297 160.734C240.51 158.15 242.903 152.954 245.978 149.817C249.052 146.679 253.639 144.568 256.671 145.834C259.496 147 258.876 150.645 255.146 152.791C251.415 154.937 245.874 157.579 243.973 161.644L240.297 166.531V160.734Z" fill="black"/>
<path d="M239.798 164.25C239.842 164.25 239.884 164.237 239.919 164.211C239.955 164.186 239.98 164.15 239.992 164.11C242.532 155.438 250.558 148.848 255.132 147.612C255.178 147.594 255.214 147.56 255.235 147.518C255.257 147.475 255.261 147.427 255.247 147.382C255.234 147.337 255.204 147.298 255.162 147.272C255.121 147.247 255.072 147.237 255.023 147.245C250.363 148.51 242.185 155.205 239.609 164.011C239.602 164.035 239.6 164.06 239.603 164.085C239.606 164.11 239.614 164.134 239.627 164.156C239.64 164.178 239.658 164.197 239.679 164.212C239.7 164.227 239.724 164.238 239.749 164.244L239.798 164.25Z" fill="white"/>
<path d="M240.698 169.968C241.251 168.551 243.298 166.3 246.451 164.55C249.939 162.62 254.204 161.938 255.31 160.305C256.64 158.351 255.006 156.281 251.573 156.421C248.14 156.561 241.81 160.544 240.297 167.163L240.698 169.968Z" fill="#007CCE"/>
<path d="M240.166 168.417C240.204 168.417 240.241 168.407 240.272 168.387C240.303 168.367 240.328 168.339 240.342 168.306C243.793 160.975 250.015 158.789 252.822 158.654C252.873 158.654 252.923 158.635 252.959 158.6C252.996 158.565 253.016 158.517 253.016 158.468C253.016 158.418 252.996 158.371 252.959 158.336C252.923 158.301 252.873 158.281 252.822 158.281C249.717 158.427 243.526 160.666 240.002 168.148C239.991 168.171 239.985 168.196 239.984 168.221C239.984 168.247 239.988 168.272 239.998 168.295C240.008 168.318 240.022 168.34 240.041 168.358C240.059 168.376 240.081 168.39 240.105 168.399C240.124 168.409 240.145 168.415 240.166 168.417Z" fill="white"/>
<path d="M19.4467 146.333C19.4467 146.333 18.8391 140.973 16.0322 136.81C13.2253 132.646 9.43412 130.056 5.87381 129.782C2.31351 129.508 -0.560245 132.657 3.24916 134.821C7.05856 136.985 13.8268 139.183 16.9436 147.26L19.4467 146.333Z" fill="#007CCE"/>
<path opacity="0.1" d="M19.4467 146.333C19.4467 146.333 18.8391 140.973 16.0322 136.81C13.2253 132.646 9.43412 130.056 5.87381 129.782C2.31351 129.508 -0.560245 132.657 3.24916 134.821C7.05856 136.985 13.8268 139.183 16.9436 147.26L19.4467 146.333Z" fill="black"/>
<path d="M18.3996 144.943H18.436C18.4594 144.934 18.4806 144.92 18.4985 144.903C18.5164 144.886 18.5306 144.866 18.5402 144.844C18.5498 144.822 18.5547 144.798 18.5545 144.774C18.5544 144.749 18.5492 144.726 18.5393 144.703C14.7846 135.816 7.60324 132.107 4.37102 131.384C4.32366 131.379 4.27611 131.391 4.2374 131.418C4.19869 131.444 4.17152 131.484 4.16103 131.528C4.15053 131.573 4.15746 131.62 4.18049 131.66C4.20352 131.7 4.24105 131.73 4.28597 131.745C7.47566 132.445 14.4869 136.096 18.1869 144.838C18.2051 144.875 18.2359 144.906 18.2745 144.925C18.313 144.944 18.357 144.95 18.3996 144.943Z" fill="white"/>
<path d="M1.31565 144.888C1.66196 145.635 2.53077 146.02 3.29022 146.323C4.1108 146.536 4.83496 147.003 5.34985 147.652C6.20651 149.07 4.80304 151.064 5.72046 152.44C5.93565 152.719 6.2087 152.952 6.5224 153.125C6.83609 153.298 7.18364 153.406 7.54314 153.443C8.13126 153.525 8.72342 153.578 9.31721 153.601C9.59972 153.594 9.88164 153.573 10.1617 153.537C10.9784 153.36 11.8329 153.449 12.592 153.787C13.7646 154.417 14.123 155.84 14.8339 156.937C15.2758 157.583 15.858 158.13 16.5406 158.541C17.2233 158.952 17.9902 159.216 18.7891 159.316C19.4693 159.448 20.174 159.404 20.8305 159.188L20.9459 159.118C21.0199 159.042 21.0889 158.962 21.1525 158.878V158.843C21.3591 158.109 21.0188 157.345 21.0067 156.587V156.447C21.0067 155.566 21.0674 154.697 21.0857 153.811C21.1262 152.189 21.1424 150.568 21.1343 148.947C21.1343 147.897 21.2558 146.743 20.794 145.751C20.2776 144.661 19.0017 144.637 18.5217 143.564C18.3273 143.139 18.224 142.684 18.0357 142.252C17.7462 141.621 17.2814 141.078 16.6921 140.683C16.1027 140.288 15.4115 140.056 14.6941 140.013C12.4583 139.902 10.4412 141.634 8.22968 141.477C7.65536 141.402 7.08549 141.299 6.52244 141.168C4.69976 140.841 2.62798 141.337 1.61336 142.8C1.38956 143.099 1.24539 143.445 1.19348 143.809C1.14158 144.173 1.18353 144.543 1.31565 144.888Z" fill="#007CCE"/>
<path d="M21.3595 155.479C21.3839 155.474 21.4069 155.464 21.427 155.45C21.4472 155.435 21.4641 155.417 21.4766 155.397C21.4891 155.376 21.4971 155.353 21.4999 155.329C21.5028 155.305 21.5005 155.281 21.4932 155.258C18.425 144.154 6.24343 142.556 3.4122 142.749C3.38745 142.75 3.36325 142.757 3.34098 142.767C3.31872 142.777 3.29883 142.792 3.28246 142.81C3.26609 142.828 3.25356 142.849 3.24559 142.871C3.23762 142.894 3.23436 142.918 3.23601 142.941C3.23259 142.966 3.23455 142.99 3.24178 143.014C3.24901 143.038 3.26134 143.06 3.27797 143.078C3.29459 143.097 3.31514 143.112 3.33827 143.123C3.3614 143.133 3.38659 143.139 3.4122 143.14C6.2009 142.947 18.1212 144.516 21.1347 155.386C21.1545 155.425 21.1879 155.456 21.2292 155.473C21.2704 155.49 21.3166 155.492 21.3595 155.479Z" fill="white"/>
<path d="M7.82299 149.864C7.86221 149.857 7.89827 149.839 7.92628 149.812C9.05096 148.877 10.3768 148.191 11.8093 147.804C13.2417 147.417 14.7455 147.338 16.2134 147.573C16.2638 147.578 16.3145 147.564 16.3551 147.535C16.3956 147.506 16.4232 147.463 16.4321 147.415C16.4355 147.391 16.434 147.367 16.4275 147.344C16.4211 147.321 16.4099 147.299 16.3947 147.28C16.3794 147.261 16.3603 147.245 16.3386 147.233C16.3169 147.221 16.2929 147.214 16.2681 147.211C14.7423 146.971 13.18 147.057 11.6929 147.463C10.2058 147.869 8.83045 148.586 7.66503 149.561C7.64739 149.578 7.6334 149.598 7.62384 149.62C7.61429 149.642 7.60938 149.666 7.60938 149.689C7.60938 149.713 7.61429 149.737 7.62384 149.759C7.6334 149.781 7.64739 149.801 7.66503 149.818C7.68639 149.836 7.71153 149.849 7.73877 149.857C7.76601 149.865 7.79472 149.868 7.82299 149.864Z" fill="white"/>
<path d="M228.817 115.442L185.425 139.544C184.883 139.806 184.285 139.942 183.678 139.942C183.072 139.942 182.474 139.806 181.932 139.544L106.412 97.7019C105.446 97.1712 105.446 96.3023 106.412 95.7716L149.834 71.6633C150.375 71.4018 150.972 71.2656 151.578 71.2656C152.184 71.2656 152.781 71.4018 153.322 71.6633L228.817 113.506C229.753 114.042 229.753 114.905 228.817 115.442Z" fill="#37474F"/>
<path d="M205.605 126.496C204.852 126.863 204.02 127.054 203.175 127.054C202.33 127.054 201.498 126.863 200.745 126.496C199.408 125.755 199.408 124.554 200.745 123.813C201.497 123.443 202.33 123.25 203.175 123.25C204.02 123.25 204.853 123.443 205.605 123.813C206.948 124.554 206.948 125.755 205.605 126.496Z" fill="#263238"/>
<path d="M185.401 139.547L228.823 115.445C229.686 114.967 229.777 114.22 229.097 113.695C229.528 114.023 229.883 114.434 230.137 114.903C230.392 115.371 230.54 115.886 230.573 116.413V117.987C230.542 118.572 230.367 119.14 230.063 119.647C229.759 120.154 229.334 120.584 228.823 120.903L185.431 145.006C184.895 145.28 184.295 145.418 183.688 145.408V139.967C184.286 139.967 184.875 139.823 185.401 139.547Z" fill="#455A64"/>
<path d="M106.416 103.151C105.906 102.832 105.482 102.401 105.179 101.894C104.876 101.387 104.702 100.819 104.672 100.235V98.6609C104.704 98.1327 104.852 97.6169 105.106 97.1475C105.361 96.6781 105.716 96.2658 106.148 95.9375C105.468 96.474 105.541 97.2146 106.416 97.687L181.905 139.529C182.443 139.804 183.045 139.943 183.655 139.932V145.373C183.045 145.384 182.443 145.245 181.905 144.97L106.416 103.151Z" fill="#263238"/>
<path d="M178.146 134.491L219.078 111.748C219.206 111.708 219.319 111.63 219.398 111.525C219.478 111.421 219.521 111.294 219.521 111.164C219.521 111.035 219.478 110.908 219.398 110.804C219.319 110.699 219.206 110.621 219.078 110.581L158.577 76.9907C158.253 76.8325 157.895 76.75 157.532 76.75C157.168 76.75 156.81 76.8325 156.487 76.9907L115.537 99.7344C115.408 99.7739 115.296 99.8517 115.216 99.9565C115.137 100.061 115.094 100.188 115.094 100.318C115.094 100.447 115.137 100.574 115.216 100.679C115.296 100.783 115.408 100.861 115.537 100.901L176.05 134.491C176.375 134.65 176.734 134.732 177.098 134.732C177.462 134.732 177.821 134.65 178.146 134.491Z" fill="#FAFAFA"/>
<path d="M121.888 100.773L141.439 111.655C141.847 111.853 142.298 111.956 142.755 111.956C143.212 111.956 143.662 111.853 144.07 111.655L178.458 92.6025C178.617 92.5509 178.754 92.4527 178.852 92.322C178.95 92.1913 179.002 92.0344 179.002 91.8736C179.002 91.7127 178.95 91.5559 178.852 91.4252C178.754 91.2944 178.617 91.1963 178.458 91.1446L158.882 80.286C158.475 80.0877 158.024 79.9844 157.567 79.9844C157.11 79.9844 156.659 80.0877 156.252 80.286L121.888 99.3148C121.729 99.3665 121.592 99.4646 121.494 99.5954C121.396 99.7261 121.344 99.8829 121.344 100.044C121.344 100.205 121.396 100.361 121.494 100.492C121.592 100.623 121.729 100.721 121.888 100.773Z" fill="#EBEBEB"/>
<path d="M136.248 95.5822L141.266 96.5211C141.579 96.5838 141.905 96.5553 142.202 96.4394L146.455 94.6899C147.129 94.41 148.089 94.6899 148.077 95.1506L148.01 98.0665C148.01 98.2531 148.168 98.4281 148.441 98.5389L152.767 100.236C153.454 100.504 153.29 101.093 152.482 101.233L147.408 102.114C147.276 102.126 147.147 102.166 147.032 102.23C146.916 102.294 146.817 102.382 146.74 102.487L145.167 105.292C144.911 105.735 143.848 105.828 143.344 105.449L140.306 103.053C140.063 102.884 139.767 102.8 139.468 102.813L134.164 102.848C133.319 102.848 132.833 102.324 133.337 101.95L136.509 99.6177C136.554 99.5929 136.594 99.5598 136.625 99.5203C136.657 99.4807 136.681 99.4355 136.694 99.3873C136.708 99.3391 136.711 99.2888 136.704 99.2392C136.698 99.1897 136.681 99.1419 136.655 99.0987L134.953 96.317C134.686 95.8504 135.446 95.4306 136.248 95.5822Z" fill="#FAFAFA"/>
<path d="M147.408 89.4414L158.173 83.4756C158.385 83.3561 158.622 83.2854 158.867 83.2692C159.111 83.253 159.357 83.2917 159.583 83.3823C159.923 83.5747 159.844 83.9246 159.413 84.1637L148.653 90.1295C148.441 90.2474 148.204 90.317 147.96 90.3332C147.715 90.3494 147.47 90.3116 147.244 90.2228C146.903 90.0304 146.982 89.6805 147.408 89.4414Z" fill="#FAFAFA"/>
<path d="M150.129 90.9414L160.888 84.9756C161.1 84.8561 161.337 84.7854 161.582 84.7692C161.826 84.753 162.072 84.7917 162.298 84.8823C162.638 85.0747 162.565 85.4246 162.128 85.6637L151.368 91.6295C151.156 91.7474 150.919 91.817 150.674 91.8332C150.43 91.8494 150.185 91.8116 149.958 91.7228C149.612 91.5304 149.691 91.1805 150.129 90.9414Z" fill="#FAFAFA"/>
<path d="M152.835 92.4513L163.594 86.4854C163.805 86.3646 164.043 86.2932 164.288 86.277C164.533 86.2608 164.778 86.3002 165.004 86.3921C165.35 86.5846 165.271 86.9345 164.834 87.1736L154.086 93.1394C153.874 93.2572 153.637 93.3269 153.393 93.3431C153.148 93.3592 152.903 93.3215 152.677 93.2327C152.324 93.0403 152.397 92.6904 152.835 92.4513Z" fill="#FAFAFA"/>
<path d="M155.546 93.9454L166.312 87.9854C166.522 87.8646 166.758 87.7932 167.002 87.777C167.246 87.7608 167.49 87.8002 167.715 87.8921C168.062 88.0787 167.983 88.4286 167.551 88.6735L156.785 94.6335C156.575 94.7543 156.337 94.8257 156.092 94.8419C155.847 94.8582 155.602 94.8187 155.376 94.7268C155.036 94.5402 155.115 94.1903 155.546 93.9454Z" fill="#FAFAFA"/>
<path d="M158.267 95.4532L169.026 89.4932C169.237 89.3724 169.475 89.301 169.72 89.2848C169.964 89.2686 170.21 89.308 170.436 89.3999C170.776 89.5865 170.703 89.9364 170.266 90.1814L159.506 96.1414C159.295 96.2622 159.058 96.3336 158.813 96.3498C158.568 96.366 158.322 96.3266 158.096 96.2347C157.738 96.0481 157.829 95.6982 158.267 95.4532Z" fill="#FAFAFA"/>
<path d="M160.978 96.9532L171.713 90.9932C171.924 90.8724 172.161 90.801 172.406 90.7848C172.651 90.7686 172.897 90.808 173.123 90.8999C173.463 91.0865 173.39 91.4364 172.953 91.6814L162.217 97.653C162.006 97.7739 161.769 97.8453 161.524 97.8615C161.279 97.8777 161.033 97.8382 160.807 97.7464C160.467 97.5481 160.54 97.1982 160.978 96.9532Z" fill="#FAFAFA"/>
<path d="M146.02 114.162L146.907 114.658C147.152 114.776 147.422 114.837 147.697 114.837C147.971 114.837 148.241 114.776 148.486 114.658L169.143 103.222C169.581 102.977 169.581 102.586 169.143 102.347L168.25 101.851C168.005 101.733 167.735 101.672 167.461 101.672C167.186 101.672 166.916 101.733 166.671 101.851L146.014 113.287C145.918 113.318 145.835 113.378 145.777 113.456C145.718 113.535 145.687 113.63 145.688 113.727C145.688 113.824 145.721 113.918 145.78 113.996C145.84 114.074 145.924 114.132 146.02 114.162Z" fill="#E0E0E0"/>
<path d="M183.037 93.6463L183.924 94.142C184.361 94.3811 184.361 94.7718 183.924 95.0167L175.631 99.6121C175.386 99.7301 175.115 99.7916 174.841 99.7916C174.567 99.7916 174.296 99.7301 174.051 99.6121L173.164 99.1164C172.727 98.8773 172.727 98.4866 173.164 98.2417L181.433 93.6463C181.681 93.5245 181.956 93.4609 182.235 93.4609C182.514 93.4609 182.789 93.5245 183.037 93.6463Z" fill="#E0E0E0"/>
<path d="M151.504 117.185L171.104 128.038C171.512 128.236 171.962 128.339 172.42 128.339C172.877 128.339 173.327 128.236 173.735 128.038L208.123 108.985C208.281 108.934 208.419 108.836 208.517 108.705C208.615 108.574 208.667 108.417 208.667 108.256C208.667 108.096 208.615 107.939 208.517 107.808C208.419 107.677 208.281 107.579 208.123 107.527L188.547 96.6688C188.139 96.4705 187.689 96.3672 187.232 96.3672C186.775 96.3672 186.324 96.4705 185.916 96.6688L151.504 115.733C151.348 115.786 151.212 115.884 151.116 116.014C151.02 116.144 150.969 116.299 150.969 116.459C150.969 116.618 151.02 116.773 151.116 116.903C151.212 117.034 151.348 117.132 151.504 117.185Z" fill="#EBEBEB"/>
<path d="M165.875 111.998L170.9 112.943C171.213 113.005 171.539 112.977 171.835 112.861L176.088 111.112C176.769 110.832 177.729 111.112 177.716 111.567L177.65 114.483C177.65 114.669 177.801 114.844 178.075 114.949L182.407 116.646C183.093 116.92 182.923 117.509 182.121 117.649L177.054 118.518C176.922 118.532 176.794 118.572 176.678 118.636C176.563 118.701 176.464 118.788 176.386 118.891L174.812 121.696C174.563 122.14 173.5 122.233 172.99 121.854L169.952 119.457C169.706 119.289 169.409 119.204 169.107 119.218L163.803 119.253C162.965 119.253 162.473 118.728 162.977 118.355L166.148 116.022C166.238 115.971 166.304 115.889 166.333 115.792C166.361 115.695 166.349 115.592 166.3 115.503L164.593 112.721C164.32 112.272 165.079 111.853 165.875 111.998Z" fill="#FAFAFA"/>
<path d="M177.051 105.855L187.811 99.8896C188.022 99.7701 188.259 99.6995 188.504 99.6833C188.748 99.6671 188.994 99.7058 189.22 99.7963C189.566 99.9888 189.487 100.339 189.05 100.578L178.29 106.544C178.078 106.661 177.841 106.731 177.597 106.747C177.352 106.763 177.107 106.726 176.881 106.637C176.571 106.444 176.613 106.095 177.051 105.855Z" fill="#FAFAFA"/>
<path d="M179.761 107.355L190.545 101.39C190.757 101.27 190.994 101.199 191.239 101.183C191.483 101.167 191.729 101.206 191.955 101.296C192.295 101.489 192.216 101.839 191.785 102.078L181.019 108.044C180.808 108.165 180.572 108.237 180.327 108.255C180.082 108.273 179.837 108.237 179.609 108.149C179.251 107.944 179.33 107.595 179.761 107.355Z" fill="#FAFAFA"/>
<path d="M182.48 108.861L193.24 102.907C193.451 102.786 193.688 102.715 193.933 102.699C194.178 102.683 194.423 102.722 194.65 102.814C194.99 103.001 194.917 103.351 194.479 103.595L183.72 109.555C183.508 109.673 183.27 109.743 183.026 109.759C182.782 109.775 182.537 109.738 182.31 109.649C181.964 109.456 182.043 109.106 182.48 108.861Z" fill="#FAFAFA"/>
<path d="M185.188 110.359L195.948 104.399C196.159 104.279 196.397 104.207 196.641 104.191C196.886 104.175 197.132 104.214 197.358 104.306C197.704 104.493 197.625 104.843 197.188 105.088L186.428 111.065C186.217 111.186 185.98 111.257 185.735 111.274C185.49 111.29 185.244 111.25 185.018 111.158C184.678 110.954 184.751 110.604 185.188 110.359Z" fill="#FAFAFA"/>
<path d="M187.898 111.867L198.663 105.907C198.873 105.786 199.11 105.715 199.354 105.699C199.597 105.683 199.842 105.722 200.067 105.814C200.413 106.001 200.334 106.35 199.903 106.595L189.137 112.555C188.926 112.676 188.689 112.748 188.444 112.764C188.199 112.78 187.953 112.741 187.727 112.649C187.387 112.462 187.466 112.112 187.898 111.867Z" fill="#FAFAFA"/>
<path d="M190.613 113.399L201.373 107.439C201.584 107.318 201.821 107.246 202.066 107.23C202.311 107.214 202.556 107.253 202.782 107.345C203.123 107.532 203.05 107.882 202.612 108.127L191.852 114.087C191.642 114.208 191.404 114.279 191.159 114.295C190.914 114.311 190.669 114.272 190.443 114.18C190.096 113.982 190.175 113.614 190.613 113.399Z" fill="#FAFAFA"/>
<path d="M175.649 130.576L176.543 131.072C176.788 131.19 177.058 131.251 177.332 131.251C177.607 131.251 177.877 131.19 178.122 131.072L198.779 119.636C198.875 119.605 198.958 119.547 199.018 119.468C199.077 119.39 199.108 119.295 199.108 119.198C199.108 119.102 199.077 119.007 199.018 118.929C198.958 118.85 198.875 118.792 198.779 118.761L197.886 118.265C197.641 118.147 197.371 118.086 197.096 118.086C196.822 118.086 196.552 118.147 196.307 118.265L175.649 129.701C175.554 129.732 175.47 129.79 175.411 129.869C175.352 129.947 175.32 130.042 175.32 130.139C175.32 130.236 175.352 130.33 175.411 130.409C175.47 130.487 175.554 130.546 175.649 130.576Z" fill="#E0E0E0"/>
<path d="M212.671 110.062L213.564 110.558C214.001 110.797 214.001 111.188 213.564 111.433L205.271 116.028C205.026 116.146 204.755 116.207 204.481 116.207C204.207 116.207 203.936 116.146 203.691 116.028L202.798 115.532C202.702 115.502 202.619 115.443 202.56 115.365C202.501 115.286 202.469 115.192 202.469 115.095C202.469 114.998 202.501 114.904 202.56 114.825C202.619 114.747 202.702 114.688 202.798 114.658L211.097 110.062C211.341 109.944 211.611 109.883 211.884 109.883C212.157 109.883 212.427 109.944 212.671 110.062Z" fill="#E0E0E0"/>
<path d="M131.785 85.5225C131.618 85.6007 131.435 85.6414 131.25 85.6414C131.065 85.6414 130.882 85.6007 130.715 85.5225C130.652 85.5012 130.598 85.4618 130.559 85.4095C130.521 85.3573 130.5 85.2949 130.5 85.2309C130.5 85.1669 130.521 85.1044 130.559 85.0522C130.598 85 130.652 84.9605 130.715 84.9393C130.882 84.861 131.065 84.8203 131.25 84.8203C131.435 84.8203 131.618 84.861 131.785 84.9393C132.082 85.0967 132.082 85.3592 131.785 85.5225Z" fill="#263238"/>
<path d="M130.078 90.1767C129.747 90.3376 129.38 90.4215 129.009 90.4215C128.637 90.4215 128.271 90.3376 127.94 90.1767C127.819 90.1295 127.716 90.0487 127.643 89.9449C127.57 89.841 127.531 89.7187 127.531 89.5936C127.531 89.4684 127.57 89.3461 127.643 89.2422C127.716 89.1384 127.819 89.0577 127.94 89.0104C128.271 88.8495 128.637 88.7656 129.009 88.7656C129.38 88.7656 129.747 88.8495 130.078 89.0104C130.199 89.0577 130.302 89.1384 130.375 89.2422C130.448 89.3461 130.487 89.4684 130.487 89.5936C130.487 89.7187 130.448 89.841 130.375 89.9449C130.302 90.0487 130.199 90.1295 130.078 90.1767Z" fill="#263238"/>
<path d="M131.61 88.115C131.215 87.8934 131.239 87.5318 131.658 87.2985L138.694 83.3971C138.922 83.285 139.175 83.2266 139.432 83.2266C139.689 83.2266 139.942 83.285 140.17 83.3971C140.559 83.6129 140.541 83.9803 140.122 84.2136L133.086 88.1091C132.858 88.2208 132.605 88.2795 132.349 88.2805C132.092 88.2815 131.839 88.2248 131.61 88.115Z" fill="#263238"/>
<path d="M114.549 31.0656V32.436L109.615 35.1711L102.215 39.2533L36.8903 75.4973C36.5032 75.7304 36.1835 76.0533 35.9607 76.4362C35.7206 76.8129 35.5867 77.2429 35.5719 77.6842V161.019C35.5719 165.55 32.2546 167.387 28.1718 165.101C24.089 162.815 20.7656 157.328 20.7656 152.797V69.4557C20.7909 69.0174 20.9234 68.5909 21.1525 68.211C21.3816 67.831 21.7007 67.5082 22.084 67.2688L94.8029 26.9659L101.844 23.0703C102.08 23.4504 102.209 23.8821 102.221 24.3241V25.5954L24.5507 68.75C24.1862 68.9672 23.8835 69.2678 23.6698 69.6248C23.4042 70.0163 23.2551 70.47 23.2384 70.9369V154.161C23.2384 157.182 25.4499 160.85 28.1779 162.361C30.9058 163.871 33.1112 162.646 33.1112 159.625V76.2904C33.1324 75.8539 33.2606 75.4283 33.4855 75.0482C33.7103 74.6682 34.0255 74.3445 34.4053 74.1035L114.166 29.8992C114.395 30.2503 114.527 30.6518 114.549 31.0656Z" fill="#E0E0E0"/>
<path d="M107.14 27.0527V31.0649L31.9731 72.7382C31.5869 72.9739 31.264 73.2937 31.0307 73.6717C30.7974 74.0496 30.6603 74.4751 30.6304 74.9135V158.248C30.6304 159.759 29.5308 160.371 28.1698 159.613C27.4532 159.167 26.8563 158.565 26.4277 157.855C25.9991 157.146 25.7509 156.35 25.7031 155.531V72.1901C25.7188 71.7497 25.8505 71.3203 26.0859 70.9421C26.3124 70.5618 26.6313 70.2396 27.0155 70.0032L106.77 25.8047C107.001 26.1841 107.128 26.6134 107.14 27.0527Z" fill="#E0E0E0"/>
<path d="M38.4193 77.784C38.1831 78.1598 38.0513 78.5875 38.0365 79.0262V161.644C38.0378 162.245 37.9972 162.845 37.915 163.44C37.8907 163.596 37.8664 163.747 37.8421 163.895C37.8421 164.035 37.7874 164.169 37.757 164.309C37.7266 164.449 37.6963 164.554 37.6598 164.671C37.6234 164.787 37.5991 164.898 37.5626 165.009C37.1601 166.428 36.214 167.648 34.9136 168.426C33.1456 169.4 30.7762 169.283 28.1697 167.843C22.7017 164.822 18.2969 157.148 18.2969 150.709V68.0859C18.3117 67.6472 18.4435 67.2196 18.6796 66.8438L21.1524 68.2084C20.9123 68.585 20.7784 69.015 20.7636 69.4564V152.791C20.7636 157.323 24.0808 162.834 28.1697 165.096C32.2586 167.359 35.5698 165.528 35.5698 161.014V77.6616C35.5846 77.2203 35.7186 76.7902 35.9586 76.4136L38.4193 77.784Z" fill="#EBEBEB"/>
<path d="M33.49 75.0484C33.2546 75.4245 33.1228 75.852 33.1072 76.2905V159.626C33.1072 162.646 30.8957 163.871 28.1738 162.361C25.452 160.85 23.2344 157.182 23.2344 154.161V70.9137C23.251 70.4468 23.4002 69.9931 23.6657 69.6016L26.096 70.9429C25.8606 71.3211 25.7289 71.7505 25.7132 72.1908V155.526C25.761 156.345 26.0092 157.141 26.4378 157.85C26.8664 158.56 27.4633 159.162 28.1799 159.608C29.5408 160.366 30.6405 159.754 30.6405 158.243V74.9142C30.6553 74.4729 30.7893 74.0429 31.0294 73.6663L33.49 75.0484Z" fill="#EBEBEB"/>
<path d="M101.842 23.0687L94.813 26.9643L22.082 67.2672C21.6936 67.4987 21.3736 67.822 21.1525 68.2061L18.6797 66.8415C18.9006 66.4557 19.2206 66.1305 19.6093 65.8967L92.3342 25.5938L93.7377 24.8124L95.1593 24.0426L96.3745 23.3661L97.0975 22.9637L98.4402 22.2231C98.8317 22.0232 99.2668 21.9148 99.7102 21.9067C100.154 21.8986 100.593 21.991 100.992 22.1765C101.351 22.398 101.644 22.7055 101.842 23.0687Z" fill="#FAFAFA"/>
<path d="M119.099 32.6377L112.069 36.5333L99.7296 43.368L39.3503 76.8362C38.9612 77.0713 38.6396 77.3961 38.4146 77.7809L35.9844 76.4104C36.2019 76.0395 36.5106 75.7252 36.8836 75.4949L102.202 39.2742L109.602 35.192L114.536 32.4569L115.684 31.8212L115.812 31.7571C116.191 31.5827 116.606 31.4922 117.027 31.4922C117.447 31.4922 117.863 31.5827 118.242 31.7571L118.37 31.8329C118.67 32.0475 118.919 32.322 119.099 32.6377Z" fill="#FAFAFA"/>
<path d="M106.77 25.803L27.0161 70.0015C26.6319 70.2379 26.313 70.5601 26.0865 70.9404L23.6562 69.5991C23.87 69.2421 24.1727 68.9415 24.5372 68.7243L102.208 25.5697L103.35 24.9341C103.741 24.7342 104.177 24.6258 104.62 24.6177C105.063 24.6096 105.502 24.702 105.902 24.8874C106.269 25.1147 106.569 25.4303 106.77 25.803Z" fill="#FAFAFA"/>
<path d="M114.181 29.8958L34.4023 74.1001C34.012 74.3337 33.69 74.6588 33.4667 75.0448L31 73.6744C31.2329 73.2852 31.5681 72.9614 31.9721 72.7355L107.164 31.0621L110.809 29.056C111.201 28.8571 111.636 28.7497 112.08 28.7426C112.523 28.7355 112.962 28.8289 113.361 29.0152C113.708 29.2363 113.991 29.5396 114.181 29.8958Z" fill="#FAFAFA"/>
<path d="M119.46 33.8886V116.506C119.46 119.895 118.245 122.268 116.283 123.318L34.7969 168.478C35.5183 168.062 36.144 167.509 36.6359 166.854C37.1278 166.198 37.4757 165.453 37.6585 164.665C37.6949 164.548 37.7253 164.425 37.7557 164.303C37.7861 164.181 37.8104 164.029 37.8408 163.889C37.8711 163.749 37.8894 163.592 37.9137 163.434C37.9958 162.839 38.0364 162.239 38.0352 161.638V79.0202C38.05 78.5815 38.1818 78.1538 38.4179 77.778C38.6429 77.3932 38.9645 77.0684 39.3536 76.8333L99.7329 43.371L112.072 36.5362L119.102 32.6406C119.331 33.0203 119.454 33.45 119.46 33.8886Z" fill="#F5F5F5"/>
<path d="M46.7637 78.2097L58.9149 71.4624C59.644 71.06 60.2272 71.3807 60.2272 72.1914V88.421C60.2036 88.859 60.0724 89.2854 59.8443 89.6655C59.6163 90.0456 59.2978 90.3685 58.9149 90.6079L46.7637 97.3551C46.0346 97.7575 45.4453 97.431 45.4453 96.6262V80.3966C45.4701 79.9581 45.6025 79.5315 45.8316 79.1515C46.0607 78.7715 46.3801 78.4488 46.7637 78.2097Z" fill="#455A64"/>
<path d="M45.4453 103.551L112.082 66.625V69.3601L45.4453 106.286V103.551Z" fill="#007CCE"/>
<path opacity="0.4" d="M45.4453 103.551L112.082 66.625V69.3601L45.4453 106.286V103.551Z" fill="white"/>
<path d="M46.2351 111.318L59.4678 103.988C59.8992 103.743 60.2516 103.941 60.2516 104.425V130.026C60.2374 130.289 60.1591 130.544 60.0229 130.772C59.8867 131 59.6966 131.194 59.4678 131.339L46.2351 138.669C45.7977 138.914 45.4453 138.716 45.4453 138.232V112.631C45.4597 112.367 45.5387 112.111 45.676 111.883C45.8133 111.655 46.0049 111.462 46.2351 111.318Z" fill="#F0F0F0"/>
<path d="M46.2351 141.391L59.4678 134.055C59.8992 133.816 60.2516 134.014 60.2516 134.492V154.53L45.4453 162.752V142.721C45.4568 142.454 45.5345 142.195 45.6719 141.964C45.8094 141.732 46.0025 141.536 46.2351 141.391Z" fill="#F0F0F0"/>
<path d="M63.5086 101.738L76.7352 94.4072C77.1726 94.1681 77.525 94.3606 77.525 94.8446V128.668C77.5101 128.931 77.4309 129.187 77.2936 129.415C77.1564 129.643 76.9651 129.837 76.7352 129.981L63.5086 137.311C63.0711 137.55 62.7188 137.358 62.7188 136.874V103.05C62.7345 102.787 62.8142 102.532 62.9514 102.304C63.0885 102.076 63.2793 101.882 63.5086 101.738Z" fill="#F0F0F0"/>
<path d="M80.782 92.1718L94.0086 84.8239C94.446 84.5789 94.7984 84.7772 94.7984 85.2612V110.862C94.7841 111.125 94.705 111.381 94.5677 111.61C94.4304 111.838 94.2388 112.031 94.0086 112.175L80.782 119.522C80.3446 119.767 79.9922 119.569 79.9922 119.085V93.4839C80.0065 93.2209 80.0856 92.9649 80.2229 92.7368C80.3602 92.5087 80.5518 92.3151 80.782 92.1718Z" fill="#F0F0F0"/>
<path d="M98.0633 82.5996L111.29 75.2692C111.727 75.0242 112.08 75.2225 112.08 75.7066V109.53C112.064 109.793 111.984 110.049 111.847 110.277C111.71 110.504 111.519 110.698 111.29 110.843L98.0633 118.173C97.6258 118.412 97.2734 118.22 97.2734 117.736V83.9118C97.2878 83.6487 97.3669 83.3927 97.5041 83.1646C97.6414 82.9366 97.833 82.7429 98.0633 82.5996Z" fill="#F0F0F0"/>
<path d="M63.5086 140.037L76.7352 132.707C77.1726 132.462 77.525 132.66 77.525 133.144V144.971L62.7188 153.182V141.349C62.7331 141.086 62.8122 140.83 62.9494 140.602C63.0867 140.374 63.2783 140.18 63.5086 140.037Z" fill="#F0F0F0"/>
<path d="M79.9688 123.573V143.611L94.775 135.406V115.368C94.775 114.884 94.4226 114.692 93.9852 114.931L80.7586 122.261C80.5287 122.405 80.3373 122.598 80.2001 122.826C80.0628 123.054 79.9836 123.31 79.9688 123.573Z" fill="#F0F0F0"/>
<path d="M98.0572 120.897L111.29 113.566C111.727 113.321 112.08 113.519 112.08 114.003V125.83L97.2734 134.035V122.209C97.2876 121.946 97.3659 121.691 97.5021 121.463C97.6382 121.235 97.8284 121.041 98.0572 120.897Z" fill="#F0F0F0"/>
<path d="M65.993 141.396L74.2861 136.8C74.7236 136.555 75.076 136.754 75.076 137.238V143.728C75.0616 143.992 74.9826 144.248 74.8453 144.476C74.708 144.704 74.5164 144.897 74.2861 145.041L65.993 149.624C65.5555 149.863 65.2031 149.671 65.2031 149.187V142.731C65.2137 142.464 65.2909 142.204 65.4284 141.971C65.5658 141.739 65.7595 141.541 65.993 141.396Z" fill="#E0E0E0"/>
<path d="M100.532 122.271L108.825 117.675C109.257 117.43 109.615 117.629 109.615 118.113V124.569C109.599 124.831 109.519 125.086 109.382 125.314C109.245 125.542 109.054 125.736 108.825 125.881L100.532 130.476C100.095 130.715 99.7422 130.523 99.7422 130.039V123.583C99.7565 123.32 99.8356 123.064 99.9729 122.836C100.11 122.608 100.302 122.414 100.532 122.271Z" fill="#E0E0E0"/>
<path d="M48.6961 112.687L56.9893 108.086C57.4267 107.847 57.7791 108.045 57.7791 108.523V114.985C57.7633 115.248 57.6836 115.503 57.5465 115.731C57.4093 115.959 57.2185 116.153 56.9893 116.297L48.6961 120.892C48.2647 121.131 47.9062 120.939 47.9062 120.455V113.982C47.9239 113.722 48.0045 113.469 48.1416 113.245C48.2787 113.02 48.4686 112.829 48.6961 112.687Z" fill="#E0E0E0"/>
<path d="M48.4348 122.407L57.2566 117.52C57.5482 117.363 57.7791 117.491 57.7791 117.812V118.016C57.7698 118.191 57.7177 118.361 57.6269 118.513C57.5361 118.665 57.4092 118.795 57.2566 118.891L48.4348 123.778C48.1432 123.941 47.9062 123.778 47.9062 123.486V123.282C47.9167 123.107 47.97 122.936 48.0618 122.784C48.1536 122.632 48.2814 122.503 48.4348 122.407Z" fill="#E0E0E0"/>
<path d="M48.4348 125.142L57.2566 120.255C57.5482 120.097 57.7791 120.226 57.7791 120.546V120.75C57.7698 120.925 57.7177 121.096 57.6269 121.248C57.5361 121.4 57.4092 121.529 57.2566 121.625L48.4348 126.512C48.1432 126.675 47.9062 126.512 47.9062 126.221V126.016C47.9167 125.841 47.97 125.67 48.0618 125.518C48.1536 125.367 48.2814 125.237 48.4348 125.142Z" fill="#E0E0E0"/>
<path d="M48.4348 127.876L57.2566 122.989C57.5482 122.832 57.7791 122.96 57.7791 123.281V123.485C57.7698 123.66 57.7177 123.83 57.6269 123.982C57.5361 124.134 57.4092 124.263 57.2566 124.359L48.4348 129.246C48.1432 129.41 47.9062 129.276 47.9062 128.955V128.751C47.9167 128.575 47.97 128.405 48.0618 128.253C48.1536 128.101 48.2814 127.972 48.4348 127.876Z" fill="#E0E0E0"/>
<path d="M48.4348 130.61L57.2566 125.723C57.5482 125.566 57.7791 125.694 57.7791 126.015V126.231C57.7698 126.406 57.7177 126.576 57.6269 126.728C57.5361 126.88 57.4092 127.009 57.2566 127.106L48.4348 131.992C48.1432 132.156 47.9062 132.022 47.9062 131.701V131.479C47.9176 131.305 47.9713 131.136 48.0631 130.985C48.1549 130.834 48.2822 130.706 48.4348 130.61Z" fill="#E0E0E0"/>
<path d="M48.4348 133.345L57.2566 128.458C57.5482 128.3 57.7791 128.429 57.7791 128.749V128.953C57.7698 129.128 57.7177 129.299 57.6269 129.451C57.5361 129.603 57.4092 129.732 57.2566 129.828L48.4348 134.715C48.1432 134.878 47.9062 134.744 47.9062 134.424V134.22C47.9167 134.044 47.97 133.874 48.0618 133.722C48.1536 133.57 48.2814 133.441 48.4348 133.345Z" fill="#E0E0E0"/>
<path d="M65.993 103.115L74.2861 98.5192C74.7236 98.2742 75.076 98.4725 75.076 98.9566V105.412C75.0611 105.675 74.9819 105.931 74.8446 106.159C74.7074 106.387 74.516 106.581 74.2861 106.724L65.993 111.32C65.5555 111.559 65.2031 111.366 65.2031 110.882V104.427C65.2175 104.164 65.2965 103.908 65.4338 103.68C65.5711 103.451 65.7627 103.258 65.993 103.115Z" fill="#E0E0E0"/>
<path d="M65.71 112.817L74.5318 107.93C74.8234 107.767 75.0603 107.895 75.0603 108.222V108.42C75.0504 108.596 74.9973 108.766 74.9054 108.918C74.8136 109.07 74.6855 109.199 74.5318 109.295L65.71 114.182C65.4244 114.345 65.1875 114.182 65.1875 113.89V113.692C65.1968 113.517 65.2489 113.346 65.3397 113.195C65.4305 113.043 65.5574 112.913 65.71 112.817Z" fill="#E0E0E0"/>
<path d="M65.71 115.575L74.5318 110.688C74.8234 110.525 75.0603 110.653 75.0603 110.98V111.178C75.0504 111.353 74.9973 111.524 74.9054 111.676C74.8136 111.828 74.6855 111.957 74.5318 112.053L65.71 116.94C65.4244 117.103 65.1875 116.969 65.1875 116.648V116.45C65.1968 116.275 65.2489 116.104 65.3397 115.952C65.4305 115.8 65.5574 115.671 65.71 115.575Z" fill="#E0E0E0"/>
<path d="M65.71 118.303L74.5318 113.399C74.8234 113.236 75.0603 113.364 75.0603 113.69V113.889C75.0504 114.064 74.9973 114.235 74.9054 114.387C74.8136 114.539 74.6855 114.668 74.5318 114.764L65.71 119.65C65.4244 119.814 65.1875 119.68 65.1875 119.359V119.161C65.1996 118.989 65.253 118.822 65.3437 118.673C65.4344 118.524 65.5598 118.398 65.71 118.303Z" fill="#E0E0E0"/>
<path d="M65.71 121.044L74.5318 116.157C74.8234 115.993 75.0603 116.122 75.0603 116.448V116.647C75.0504 116.822 74.9973 116.993 74.9054 117.145C74.8136 117.297 74.6855 117.426 74.5318 117.521L65.71 122.408C65.4244 122.572 65.1875 122.437 65.1875 122.117V121.918C65.1968 121.743 65.2489 121.573 65.3397 121.421C65.4305 121.269 65.5574 121.14 65.71 121.044Z" fill="#E0E0E0"/>
<path d="M65.71 123.778L74.5318 118.891C74.8234 118.728 75.0603 118.856 75.0603 119.183V119.381C75.0504 119.556 74.9973 119.727 74.9054 119.879C74.8136 120.031 74.6855 120.16 74.5318 120.256L65.71 125.143C65.4244 125.306 65.1875 125.172 65.1875 124.851V124.653C65.1968 124.478 65.2489 124.307 65.3397 124.155C65.4305 124.003 65.5574 123.874 65.71 123.778Z" fill="#E0E0E0"/>
<path d="M65.71 126.511L74.5318 121.624C74.8234 121.461 75.0603 121.595 75.0603 121.916V122.114C75.0514 122.29 74.9987 122.461 74.9067 122.613C74.8148 122.765 74.6862 122.894 74.5318 122.989L65.71 127.876C65.4244 128.039 65.1875 127.911 65.1875 127.584V127.398C65.1963 127.221 65.2482 127.049 65.339 126.895C65.4297 126.741 65.5568 126.61 65.71 126.511Z" fill="#E0E0E0"/>
<path d="M65.71 129.246L74.5318 124.359C74.8234 124.195 75.0603 124.33 75.0603 124.65V124.849C75.0514 125.024 74.9987 125.195 74.9067 125.348C74.8148 125.5 74.6862 125.629 74.5318 125.723L65.71 130.61C65.4244 130.774 65.1875 130.645 65.1875 130.319V130.121C65.1982 129.946 65.2509 129.776 65.3416 129.624C65.4323 129.472 65.5584 129.343 65.71 129.246Z" fill="#E0E0E0"/>
<path d="M65.71 131.98L74.5318 127.093C74.8234 126.93 75.0603 127.064 75.0603 127.385V127.583C75.0514 127.759 74.9987 127.93 74.9067 128.082C74.8148 128.234 74.6862 128.363 74.5318 128.458L65.71 133.345C65.4244 133.508 65.1875 133.38 65.1875 133.053V132.855C65.1982 132.68 65.2509 132.51 65.3416 132.359C65.4323 132.207 65.5584 132.077 65.71 131.98Z" fill="#E0E0E0"/>
<path d="M48.6961 142.781L56.9893 138.18C57.4267 137.941 57.7791 138.139 57.7791 138.617V145.079C57.7643 145.341 57.685 145.597 57.5478 145.825C57.4105 146.053 57.2192 146.247 56.9893 146.391L48.6961 150.986C48.2647 151.225 47.9062 151.033 47.9062 150.549V144.093C47.9211 143.83 48.0003 143.574 48.1376 143.346C48.2748 143.118 48.4662 142.925 48.6961 142.781Z" fill="#E0E0E0"/>
<path d="M48.4348 152.478L57.2566 147.591C57.5482 147.433 57.7791 147.561 57.7791 147.882V148.086C57.7698 148.261 57.7177 148.432 57.6269 148.584C57.5361 148.736 57.4092 148.865 57.2566 148.961L48.4348 153.848C48.1432 154.011 47.9062 153.877 47.9062 153.556V153.352C47.9167 153.177 47.97 153.006 48.0618 152.854C48.1536 152.702 48.2814 152.573 48.4348 152.478Z" fill="#E0E0E0"/>
<path d="M48.4348 155.235L57.2566 150.348C57.5482 150.191 57.7791 150.319 57.7791 150.64V150.844C57.7698 151.019 57.7177 151.189 57.6269 151.341C57.5361 151.493 57.4092 151.623 57.2566 151.719L48.4348 156.606C48.1432 156.769 47.9062 156.635 47.9062 156.314V156.11C47.9167 155.935 47.97 155.764 48.0618 155.612C48.1536 155.46 48.2814 155.331 48.4348 155.235Z" fill="#E0E0E0"/>
<path d="M48.4348 157.975L57.2566 153.059C57.5482 152.902 57.7791 153.03 57.7791 153.351V153.555C57.7698 153.73 57.7177 153.9 57.6269 154.052C57.5361 154.204 57.4092 154.334 57.2566 154.43L48.4348 159.317C48.1432 159.48 47.9062 159.346 47.9062 159.025V158.827C47.919 158.655 47.9734 158.489 48.0652 158.341C48.157 158.193 48.2836 158.068 48.4348 157.975Z" fill="#E0E0E0"/>
<path d="M83.2508 93.5417L91.544 88.9463C91.9814 88.7072 92.3338 88.8996 92.3338 89.3837V95.8394C92.3194 96.1024 92.2404 96.3584 92.1031 96.5865C91.9658 96.8146 91.7742 97.0082 91.544 97.1515L83.2508 101.741C82.8194 101.98 82.4609 101.782 82.4609 101.304V94.8538C82.4777 94.5913 82.5577 94.3361 82.6948 94.1084C82.8319 93.8807 83.0222 93.6867 83.2508 93.5417Z" fill="#E0E0E0"/>
<path d="M83.0051 103.262L91.8269 98.3747C92.1125 98.2173 92.3494 98.3747 92.3494 98.6663V98.8704C92.3387 99.0451 92.286 99.215 92.1953 99.3668C92.1046 99.5185 91.9785 99.6481 91.8269 99.7452L83.0051 104.655C82.7135 104.813 82.4766 104.655 82.4766 104.364V104.16C82.4832 103.98 82.5347 103.805 82.6267 103.649C82.7187 103.493 82.8485 103.36 83.0051 103.262Z" fill="#E0E0E0"/>
<path d="M83.0051 105.996L91.8269 101.109C92.1125 100.952 92.3494 101.109 92.3494 101.401V101.605C92.3387 101.779 92.286 101.949 92.1953 102.101C92.1046 102.253 91.9785 102.382 91.8269 102.48L83.0051 107.367C82.7135 107.524 82.4766 107.367 82.4766 107.075V106.871C82.487 106.695 82.5403 106.525 82.6321 106.373C82.7239 106.221 82.8517 106.092 83.0051 105.996Z" fill="#E0E0E0"/>
<path d="M83.0051 108.735L91.8269 103.848C92.1125 103.691 92.3494 103.819 92.3494 104.14V104.344C92.3387 104.519 92.286 104.689 92.1953 104.84C92.1046 104.992 91.9785 105.122 91.8269 105.219L83.0051 110.1C82.7135 110.257 82.4766 110.1 82.4766 109.808V109.604C82.4879 109.43 82.5416 109.261 82.6334 109.11C82.7252 108.959 82.8525 108.831 83.0051 108.735Z" fill="#E0E0E0"/>
<path d="M83.0051 111.462L91.8269 106.575C92.1125 106.418 92.3494 106.546 92.3494 106.867V107.071C92.3387 107.245 92.286 107.415 92.1953 107.567C92.1046 107.719 91.9785 107.848 91.8269 107.945L83.0051 112.815C82.7135 112.972 82.4766 112.844 82.4766 112.523V112.319C82.4898 112.147 82.5444 111.98 82.6361 111.831C82.7278 111.682 82.8541 111.556 83.0051 111.462Z" fill="#E0E0E0"/>
<path d="M83.0051 114.198L91.8087 109.317C92.0942 109.16 92.3312 109.288 92.3312 109.609V109.813C92.3205 109.988 92.2677 110.157 92.1771 110.309C92.0864 110.461 91.9603 110.591 91.8087 110.688L83.0051 115.569C82.7135 115.726 82.4766 115.598 82.4766 115.277V115.073C82.487 114.898 82.5403 114.727 82.6321 114.575C82.7239 114.423 82.8517 114.294 83.0051 114.198Z" fill="#E0E0E0"/>
<path d="M100.532 83.9661L108.825 79.3707C109.257 79.1258 109.615 79.3241 109.615 79.8081V86.2638C109.599 86.5264 109.519 86.7818 109.382 87.0095C109.245 87.2373 109.054 87.4313 108.825 87.5759L100.532 92.1713C100.095 92.4104 99.7422 92.218 99.7422 91.734V85.2783C99.7565 85.0152 99.8356 84.7592 99.9729 84.5311C100.11 84.303 100.302 84.1094 100.532 83.9661Z" fill="#E0E0E0"/>
<path d="M100.265 93.6885L109.086 88.8015C109.378 88.6441 109.615 88.7724 109.615 89.0931V89.2972C109.605 89.4726 109.551 89.6432 109.459 89.7952C109.368 89.9471 109.24 90.0762 109.086 90.172L100.265 95.059C99.9791 95.2222 99.7422 95.0881 99.7422 94.7674V94.5633C99.7529 94.3886 99.8056 94.2187 99.8963 94.0669C99.987 93.9151 100.113 93.7856 100.265 93.6885Z" fill="#E0E0E0"/>
<path d="M100.265 96.4287L109.086 91.5359C109.378 91.3785 109.615 91.5068 109.615 91.8275V92.0316C109.605 92.207 109.551 92.3776 109.459 92.5295C109.368 92.6815 109.24 92.8106 109.086 92.9064L100.265 97.7933C99.9791 97.9566 99.7422 97.8225 99.7422 97.5017V97.3035C99.7515 97.1285 99.8036 96.9581 99.8944 96.8061C99.9852 96.6541 100.112 96.5248 100.265 96.4287Z" fill="#E0E0E0"/>
<path d="M100.265 99.1631L109.086 94.2703C109.378 94.1128 109.615 94.2411 109.615 94.5619V94.7427C109.605 94.918 109.551 95.0886 109.459 95.2406C109.368 95.3925 109.24 95.5216 109.086 95.6174L100.265 100.504C99.9791 100.668 99.7422 100.534 99.7422 100.213V100.015C99.7552 99.8436 99.8091 99.6778 99.8997 99.5301C99.9903 99.3825 100.115 99.2569 100.265 99.1631Z" fill="#E0E0E0"/>
<path d="M100.265 101.893L109.086 96.9997C109.378 96.8423 109.615 96.9997 109.615 97.2913V97.4954C109.605 97.6708 109.551 97.8414 109.459 97.9933C109.368 98.1453 109.24 98.2744 109.086 98.3702L100.265 103.257C99.9791 103.42 99.7422 103.257 99.7422 102.966V102.767C99.7515 102.592 99.8036 102.422 99.8944 102.27C99.9852 102.118 100.112 101.989 100.265 101.893Z" fill="#E0E0E0"/>
<path d="M100.265 104.658L109.086 99.7654C109.378 99.6079 109.615 99.7654 109.615 100.057V100.261C109.605 100.436 109.551 100.607 109.459 100.759C109.368 100.911 109.24 101.04 109.086 101.136L100.265 105.999C99.9791 106.163 99.7422 105.999 99.7422 105.708V105.51C99.7552 105.339 99.8091 105.173 99.8997 105.025C99.9903 104.878 100.115 104.752 100.265 104.658Z" fill="#E0E0E0"/>
<path d="M100.265 107.364L109.086 102.477C109.378 102.314 109.615 102.442 109.615 102.769V102.967C109.605 103.142 109.552 103.313 109.46 103.465C109.368 103.617 109.24 103.746 109.086 103.842L100.265 108.734C99.9791 108.898 99.7422 108.734 99.7422 108.443V108.245C99.751 108.069 99.8029 107.897 99.8937 107.744C99.9845 107.591 100.112 107.461 100.265 107.364Z" fill="#E0E0E0"/>
<path d="M100.265 110.098L109.086 105.235C109.378 105.072 109.615 105.2 109.615 105.526V105.725C109.605 105.9 109.552 106.071 109.46 106.223C109.368 106.375 109.24 106.504 109.086 106.599L100.265 111.486C99.9791 111.65 99.7422 111.486 99.7422 111.195V110.997C99.7482 110.818 99.7987 110.643 99.8896 110.487C99.9805 110.33 100.109 110.197 100.265 110.098Z" fill="#E0E0E0"/>
<path d="M100.265 112.817L109.086 107.93C109.378 107.767 109.615 107.895 109.615 108.222V108.42C109.605 108.596 109.552 108.766 109.46 108.918C109.368 109.07 109.24 109.199 109.086 109.295L100.265 114.182C99.9791 114.345 99.7422 114.217 99.7422 113.89V113.692C99.7519 113.517 99.8043 113.347 99.8951 113.195C99.9858 113.043 100.112 112.914 100.265 112.817Z" fill="#E0E0E0"/>
<path d="M83.2508 123.628L91.544 119.032C91.9814 118.793 92.3338 118.986 92.3338 119.47V125.925C92.3194 126.188 92.2404 126.444 92.1031 126.672C91.9658 126.901 91.7742 127.094 91.544 127.237L83.2508 131.839C82.8194 132.078 82.4609 131.879 82.4609 131.401V124.94C82.4777 124.677 82.5577 124.422 82.6948 124.194C82.8319 123.967 83.0222 123.773 83.2508 123.628Z" fill="#E0E0E0"/>
<path d="M83.0051 133.353L91.8269 128.466C92.1125 128.308 92.3494 128.436 92.3494 128.757V128.961C92.3387 129.136 92.286 129.306 92.1953 129.458C92.1046 129.609 91.9785 129.739 91.8269 129.836L83.0051 134.723C82.7135 134.88 82.4766 134.752 82.4766 134.431V134.227C82.487 134.052 82.5403 133.881 82.6321 133.729C82.7239 133.577 82.8517 133.448 83.0051 133.353Z" fill="#E0E0E0"/>
<path d="M83.0051 136.09L91.8269 131.203C92.1125 131.045 92.3494 131.203 92.3494 131.494V131.699C92.3387 131.873 92.286 132.043 92.1953 132.195C92.1046 132.347 91.9785 132.476 91.8269 132.573L83.0051 137.46C82.7135 137.618 82.4766 137.489 82.4766 137.169V136.965C82.487 136.789 82.5403 136.619 82.6321 136.467C82.7239 136.315 82.8517 136.186 83.0051 136.09Z" fill="#E0E0E0"/>
<path d="M83.0051 138.824L91.8269 133.937C92.1125 133.78 92.3494 133.937 92.3494 134.229V134.433C92.3387 134.608 92.286 134.777 92.1953 134.929C92.1046 135.081 91.9785 135.211 91.8269 135.308L83.0051 140.195C82.7135 140.352 82.4766 140.224 82.4766 139.903V139.699C82.487 139.524 82.5403 139.353 82.6321 139.201C82.7239 139.049 82.8517 138.92 83.0051 138.824Z" fill="#E0E0E0"/>
<path d="M65.5729 85.4478C65.4514 85.4089 65.3906 85.2981 65.3906 85.1154C65.3979 84.9379 65.4349 84.7627 65.5 84.5964L66.1561 82.5903C66.198 82.4091 66.2928 82.2432 66.4296 82.1121C66.4743 82.0886 66.5244 82.0763 66.5754 82.0763C66.6263 82.0763 66.6765 82.0886 66.7212 82.1121C67.059 82.2478 67.4269 82.2997 67.7911 82.263C68.1553 82.2263 68.504 82.1022 68.8051 81.9021C69.3482 81.5981 69.7744 81.1338 70.0202 80.5783C70.3043 79.8967 70.4387 79.1661 70.4151 78.4323V66.6697C70.4038 66.3302 70.468 65.9922 70.6035 65.6783C70.7492 65.3888 70.9877 65.1518 71.284 65.0018L72.6327 64.2554C72.9365 64.0863 73.1552 64.0629 73.2828 64.1912C73.4434 64.423 73.5124 64.7022 73.4772 64.9785V76.7819C73.4991 78.4383 73.1337 80.0784 72.4079 81.5814C71.7467 82.9649 70.6531 84.1164 69.279 84.8763C67.8168 85.6888 66.5814 85.8793 65.5729 85.4478Z" fill="#455A64"/>
<path d="M76.514 78.3594C75.4244 77.2864 74.8797 75.2317 74.8797 72.1953C74.8177 69.4558 75.3753 66.736 76.514 64.2234C77.4848 62.0743 79.1422 60.2771 81.2469 59.0915C83.3065 57.9251 84.8922 57.9251 85.9676 58.9865C87.043 60.0479 87.602 62.1065 87.602 65.1448C87.664 67.8842 87.1064 70.604 85.9676 73.1167C84.9993 75.2621 83.3463 77.0571 81.2469 78.2428C79.1812 79.3858 77.6036 79.4247 76.514 78.3594ZM83.7561 72.0379C84.3742 70.3536 84.6626 68.5742 84.6067 66.7893C84.6067 64.686 84.3232 63.2553 83.7561 62.4972C83.1911 61.7391 82.3587 61.6691 81.2469 62.2814C80.0682 62.9748 79.1754 64.0379 78.7194 65.2906C78.1026 66.975 77.8162 68.7545 77.8749 70.5391C77.8749 72.6385 78.1544 74.0731 78.7194 74.8254C79.2845 75.5777 80.129 75.6535 81.2469 75.0295C82.4205 74.3429 83.3079 73.285 83.7561 72.0379Z" fill="#455A64"/>
<path d="M89.2893 73.096C89.1289 72.8707 89.0598 72.597 89.0949 72.3262V56.3299C89.0848 55.9879 89.1511 55.6479 89.2893 55.3326C89.4152 55.062 89.6281 54.8372 89.8968 54.6911L95.2434 51.7228C96.5881 50.9802 97.6007 50.8792 98.2812 51.4196C98.9616 51.96 99.2958 53.0291 99.2836 54.627C99.284 55.4723 99.1467 56.3125 98.8766 57.1171C98.6404 57.8634 98.259 58.56 97.7526 59.1699C99.0042 59.0882 99.6299 60.0991 99.6299 62.2024C99.6296 63.2344 99.4678 64.2606 99.15 65.2465C98.8302 66.2415 98.3349 67.1765 97.6858 68.0108C97.0343 68.8507 96.2063 69.55 95.2555 70.0635L89.909 73.0319C89.6234 73.1893 89.4169 73.2126 89.2893 73.096ZM94.7573 59.4265C95.2451 59.1526 95.6381 58.7469 95.8874 58.2601C96.1715 57.7036 96.3111 57.0894 96.2944 56.4698C96.2944 55.735 96.1668 55.3035 95.9177 55.0994C95.6686 54.8953 95.2798 54.9827 94.7573 55.2685L92.1205 56.7381V60.9136L94.7573 59.4265ZM95.0489 66.9261C95.5918 66.6324 96.0188 66.1754 96.2641 65.6256C96.5322 65.0334 96.6668 64.3934 96.659 63.7478C96.659 62.978 96.5071 62.4823 96.2033 62.2665C95.8995 62.0508 95.4682 62.0916 94.9214 62.3948L92.1205 63.9402V68.5531L95.0489 66.9261Z" fill="#455A64"/>
<path d="M102.335 66.1101C101.642 66.3052 100.901 66.2765 100.227 66.0285C100.147 65.9952 100.079 65.9407 100.03 65.8714C99.982 65.8022 99.9551 65.7211 99.9531 65.6378C99.9609 65.4923 99.9916 65.3487 100.044 65.2121L100.798 63.0427C100.828 62.8871 100.912 62.7456 101.035 62.6403C101.077 62.6188 101.124 62.6076 101.171 62.6076C101.219 62.6076 101.266 62.6188 101.308 62.6403C101.813 62.7701 102.343 62.79 102.857 62.6986C103.481 62.5911 104.08 62.3778 104.625 62.0688C105.258 61.7415 105.798 61.2711 106.199 60.6983C106.55 60.1377 106.727 59.4921 106.709 58.838C106.74 58.4719 106.653 58.1055 106.46 57.7883C106.282 57.5655 106.02 57.4189 105.731 57.3801C105.238 57.3169 104.74 57.2858 104.242 57.2868C103.575 57.3018 102.908 57.2272 102.262 57.0652C101.703 56.9019 101.229 56.5441 100.931 56.0621C100.533 55.3468 100.352 54.5386 100.409 53.7294C100.387 52.1084 100.823 50.5121 101.673 49.1107C102.463 47.7804 103.608 46.6755 104.99 45.9091C106.812 44.9002 108.192 44.6378 109.152 45.1102C109.228 45.1476 109.293 45.2031 109.341 45.2715C109.389 45.3399 109.418 45.4188 109.425 45.5009C109.417 45.6464 109.386 45.7899 109.334 45.9266L108.587 48.096C108.557 48.2501 108.473 48.3899 108.35 48.4926C108.308 48.5156 108.261 48.5277 108.213 48.5277C108.165 48.5277 108.118 48.5156 108.076 48.4926C107.335 48.1854 106.436 48.3234 105.379 48.9066C104.769 49.208 104.261 49.6683 103.911 50.2346C103.562 50.8009 103.386 51.4503 103.404 52.1082C103.377 52.4608 103.457 52.8134 103.635 53.1229C103.775 53.3294 103.993 53.4758 104.242 53.5312C104.659 53.6035 105.083 53.6367 105.506 53.6303H106.017C106.727 53.6329 107.434 53.7371 108.113 53.9394C108.632 54.1208 109.056 54.4918 109.291 54.9716C109.607 55.71 109.747 56.5072 109.698 57.3043C109.7 58.8466 109.281 60.3624 108.483 61.7014C107.669 63.0894 106.47 64.2338 105.02 65.0079C104.191 65.5079 103.284 65.8798 102.335 66.1101Z" fill="#455A64"/>
<path d="M178.258 9.99284L175.792 8.62239C175.613 8.54245 175.414 8.51002 175.218 8.52848C175.021 8.54694 174.833 8.61561 174.674 8.72736L143.281 26.1642C142.822 26.4525 142.44 26.8401 142.166 27.2959C141.892 27.7517 141.733 28.2629 141.702 28.7884V90.8961C141.681 91.084 141.712 91.274 141.794 91.4462C141.875 91.6184 142.002 91.7667 142.163 91.8758L144.594 93.2404H144.63C144.805 93.3081 144.994 93.3323 145.181 93.3109C145.368 93.2895 145.546 93.2231 145.699 93.1179L153.992 88.5226V93.3104C153.992 94.156 154.132 94.6458 154.363 94.78L156.793 96.1388C157.073 96.2846 157.48 95.9113 157.936 94.9724L163.817 83.0174L177.043 75.6461C177.502 75.3578 177.884 74.9702 178.158 74.5144C178.433 74.0586 178.592 73.5474 178.623 73.0219V10.9667C178.653 10.788 178.636 10.6049 178.572 10.4345C178.508 10.2642 178.4 10.1122 178.258 9.99284Z" fill="#007CCE"/>
<path opacity="0.4" d="M178.196 9.9562C178.021 9.89629 177.834 9.8772 177.65 9.90053C177.467 9.92386 177.291 9.98892 177.139 10.0903L145.74 27.533C145.284 27.8053 144.908 28.1846 144.646 28.6351L142.18 27.2647C142.439 26.8129 142.816 26.4333 143.273 26.1625L174.666 8.71988C174.877 8.59558 175.117 8.5253 175.365 8.51577C175.511 8.51312 175.655 8.5473 175.784 8.61491L178.196 9.9562Z" fill="white"/>
<path opacity="0.2" d="M154.404 94.8036C154.179 94.6695 154.039 94.1796 154.039 93.334V88.552L156.524 87.1641V94.687C156.524 95.4917 156.652 95.9816 156.852 96.1449L154.404 94.8036Z" fill="black"/>
<path opacity="0.1" d="M144.646 93.2455L142.18 91.8809C142.022 91.7704 141.897 91.6226 141.817 91.4518C141.738 91.2811 141.705 91.0933 141.724 90.907V28.7877C141.746 28.2485 141.913 27.7241 142.21 27.2656L144.677 28.6361C144.382 29.0949 144.216 29.6194 144.197 30.1581V92.2658C144.174 92.4527 144.203 92.6422 144.282 92.8144C144.361 92.9867 144.487 93.1355 144.646 93.2455Z" fill="black"/>
<path d="M150.414 30.411L172.462 18.1645C173.191 17.7621 173.781 18.0887 173.781 18.8934V32.3472C173.756 32.7864 173.624 33.2138 173.394 33.5948C173.165 33.9757 172.846 34.2995 172.462 34.5399L150.414 46.7865C149.691 47.1888 149.102 46.8623 149.102 46.0575V32.5979C149.127 32.1602 149.258 31.7343 149.486 31.3545C149.714 30.9746 150.032 30.6515 150.414 30.411Z" fill="#455A64"/>
<path d="M173.781 37.9353C173.749 38.3601 173.612 38.7717 173.383 39.1365C173.154 39.5013 172.839 39.8091 172.462 40.0347L150.414 52.2521C149.691 52.6545 149.102 52.3687 149.102 51.6106C149.134 51.1874 149.27 50.7775 149.498 50.4139C149.726 50.0503 150.04 49.7431 150.414 49.517L172.462 37.2996C173.191 36.8972 173.781 37.183 173.781 37.9353Z" fill="#455A64"/>
<path d="M173.781 43.4231C173.749 43.8479 173.612 44.2595 173.383 44.6243C173.154 44.9891 172.839 45.2969 172.462 45.5225L150.414 57.7691C149.691 58.1715 149.102 57.8857 149.102 57.1276C149.134 56.7044 149.27 56.2945 149.498 55.9309C149.726 55.5673 150.04 55.2601 150.414 55.034L172.462 42.7874C173.191 42.3675 173.781 42.6533 173.781 43.4231Z" fill="#455A64"/>
<path d="M173.781 48.8806C173.749 49.3054 173.612 49.717 173.383 50.0818C173.154 50.4466 172.839 50.7544 172.462 50.98L150.414 63.2266C149.691 63.629 149.102 63.3432 149.102 62.5851C149.134 62.1619 149.27 61.752 149.498 61.3884C149.726 61.0248 150.04 60.7176 150.414 60.4915L172.462 48.2449C173.191 47.8426 173.781 48.1283 173.781 48.8806Z" fill="#455A64"/>
<path d="M173.781 54.3464C173.749 54.7713 173.612 55.1829 173.383 55.5477C173.154 55.9125 172.839 56.2202 172.462 56.4459L150.414 68.6633C149.691 69.0657 149.102 68.7799 149.102 68.0218C149.134 67.5986 149.27 67.1887 149.498 66.8251C149.726 66.4615 150.04 66.1543 150.414 65.9282L172.462 53.6816C173.191 53.3376 173.781 53.5942 173.781 54.3464Z" fill="#455A64"/>
<path d="M149.102 73.4963C149.102 74.2486 149.709 74.5344 150.414 74.132L152.723 72.8548C153.097 72.6288 153.41 72.3216 153.638 71.958C153.866 71.5943 154.002 71.1845 154.035 70.7613C154.035 70.0031 153.427 69.7174 152.723 70.1198L150.414 71.3969C150.039 71.6236 149.725 71.9317 149.497 72.2964C149.269 72.6611 149.133 73.0721 149.102 73.4963Z" fill="#455A64"/>
<path d="M157.375 68.9214C157.375 69.6737 157.983 69.9594 158.693 69.557L172.461 61.9175C172.837 61.6919 173.153 61.3841 173.382 61.0193C173.611 60.6545 173.747 60.2429 173.779 59.8181C173.779 59.0658 173.172 58.7801 172.461 59.1824L158.693 66.822C158.317 67.0476 158.001 67.3554 157.772 67.7202C157.543 68.085 157.407 68.4965 157.375 68.9214Z" fill="#455A64"/>
<path d="M149.102 78.9963C149.102 79.7486 149.709 80.0344 150.414 79.632L152.723 78.3548C153.097 78.1288 153.41 77.8216 153.638 77.458C153.866 77.0943 154.002 76.6844 154.035 76.2613C154.035 75.5031 153.427 75.2174 152.723 75.6198L150.414 76.8969C150.039 77.1236 149.725 77.4317 149.497 77.7964C149.269 78.1611 149.133 78.5721 149.102 78.9963Z" fill="#455A64"/>
<path d="M157.375 74.3901C157.375 75.1424 157.983 75.4282 158.693 75.0258L172.461 67.3863C172.837 67.1606 173.153 66.8529 173.382 66.4881C173.611 66.1233 173.747 65.7117 173.779 65.2869C173.779 64.5346 173.172 64.2488 172.461 64.6512L158.693 72.2907C158.317 72.5164 158.001 72.8241 157.772 73.1889C157.543 73.5537 157.407 73.9653 157.375 74.3901Z" fill="#455A64"/>
<path d="M149.102 84.4416C149.102 85.1939 149.709 85.4797 150.414 85.0773L152.723 83.8002C153.097 83.5741 153.41 83.2669 153.638 82.9033C153.866 82.5397 154.002 82.1298 154.035 81.7066C154.035 80.9485 153.427 80.6627 152.723 81.0651L150.414 82.3422C150.039 82.5689 149.725 82.877 149.497 83.2417C149.269 83.6064 149.133 84.0174 149.102 84.4416Z" fill="#455A64"/>
<path d="M157.375 79.8587C157.375 80.611 157.983 80.8968 158.693 80.4944L172.461 72.8548C172.836 72.6298 173.151 72.3229 173.38 71.9592C173.61 71.5955 173.746 71.1851 173.779 70.7613C173.779 70.0031 173.172 69.7174 172.461 70.1198L158.693 77.7593C158.317 77.9849 158.001 78.2927 157.772 78.6575C157.543 79.0223 157.407 79.4339 157.375 79.8587Z" fill="#455A64"/>
<path d="M207.889 26.3678L205.458 24.9974C205.279 24.9174 205.081 24.885 204.885 24.9035C204.688 24.9219 204.5 24.9906 204.341 25.1024L172.93 42.5333C172.471 42.8217 172.089 43.2093 171.815 43.6651C171.54 44.1208 171.381 44.6321 171.35 45.1576V107.265C171.329 107.453 171.361 107.643 171.442 107.815C171.523 107.988 171.651 108.136 171.812 108.245L174.272 109.61H174.303C174.478 109.678 174.669 109.702 174.857 109.681C175.045 109.659 175.224 109.593 175.378 109.487L183.671 104.892V109.68C183.671 110.525 183.811 111.015 184.036 111.149L186.466 112.508H186.496C186.776 112.654 187.183 112.28 187.633 111.342L193.52 99.3866L206.746 92.0153C207.205 91.727 207.587 91.3393 207.862 90.8836C208.136 90.4278 208.295 89.9166 208.326 89.3911V27.3417C208.348 27.1569 208.319 26.9698 208.242 26.7989C208.166 26.6281 208.044 26.4795 207.889 26.3678Z" fill="#007CCE"/>
<path opacity="0.4" d="M207.819 26.3311C207.644 26.2712 207.457 26.2521 207.274 26.2755C207.09 26.2988 206.914 26.3639 206.762 26.4653L175.357 43.9079C174.901 44.1803 174.525 44.5596 174.264 45.0101L171.797 43.6396C172.058 43.1891 172.434 42.8098 172.89 42.5374L204.289 25.0948C204.499 24.9693 204.74 24.8989 204.988 24.8907C205.132 24.8888 205.275 24.923 205.401 24.9898L207.819 26.3311Z" fill="white"/>
<path opacity="0.2" d="M184.029 111.177C183.804 111.043 183.664 110.553 183.664 109.707V104.925L186.131 103.555V111.072C186.131 111.877 186.258 112.366 186.465 112.53L184.029 111.177Z" fill="black"/>
<path opacity="0.1" d="M174.266 109.617L171.805 108.252C171.647 108.142 171.521 107.995 171.441 107.824C171.361 107.653 171.33 107.465 171.349 107.278V45.1705C171.369 44.6318 171.535 44.1073 171.829 43.6484L174.296 45.0189C174.001 45.4777 173.836 46.0022 173.816 46.541V108.649C173.796 108.834 173.826 109.021 173.905 109.191C173.984 109.361 174.109 109.508 174.266 109.617Z" fill="black"/>
<path d="M180.045 46.786L202.093 34.5395C202.816 34.1371 203.406 34.4637 203.406 35.2684V48.7572C203.381 49.1957 203.249 49.6227 203.022 50.0035C202.794 50.3844 202.476 50.7085 202.093 50.9499L180.045 63.1964C179.316 63.5988 178.727 63.2723 178.727 62.4675V48.9729C178.751 48.5345 178.884 48.1079 179.113 47.7279C179.342 47.3478 179.661 47.0251 180.045 46.786Z" fill="#455A64"/>
<path d="M203.406 54.3103C203.374 54.7345 203.238 55.1455 203.01 55.5102C202.782 55.8749 202.468 56.1831 202.093 56.4097L180.045 68.6271C179.316 69.0295 178.727 68.7437 178.727 67.9856C178.76 67.5618 178.896 67.1514 179.125 66.7877C179.354 66.4239 179.669 66.1171 180.045 65.892L202.093 53.6746C202.816 53.2722 203.406 53.558 203.406 54.3103Z" fill="#455A64"/>
<path d="M203.406 59.7793C203.374 60.2035 203.238 60.6145 203.01 60.9792C202.782 61.3439 202.468 61.652 202.093 61.8787L180.045 74.0961C179.316 74.4985 178.727 74.2127 178.727 73.4546C178.76 73.0308 178.896 72.6204 179.125 72.2566C179.354 71.8929 179.669 71.5861 180.045 71.361L202.093 59.1669C202.816 58.7412 203.406 59.027 203.406 59.7793Z" fill="#455A64"/>
<path d="M203.406 65.2556C203.371 65.6768 203.234 66.0843 203.006 66.4458C202.779 66.8072 202.466 67.1126 202.093 67.3375L180.045 79.5841C179.316 79.9865 178.727 79.7007 178.727 78.9426C178.76 78.5188 178.896 78.1084 179.125 77.7446C179.354 77.3809 179.669 77.0741 180.045 76.849L202.093 64.6199C202.816 64.2176 203.406 64.5033 203.406 65.2556Z" fill="#455A64"/>
<path d="M203.406 70.7243C203.374 71.1485 203.238 71.5595 203.01 71.9242C202.782 72.2889 202.468 72.597 202.093 72.8237L180.045 85.0703C179.316 85.4727 178.727 85.1869 178.727 84.4288C178.76 84.0049 178.896 83.5945 179.125 83.2308C179.354 82.8671 179.669 82.5603 180.045 82.3352L202.093 70.0886C202.816 69.6687 203.406 69.972 203.406 70.7243Z" fill="#455A64"/>
<path d="M178.727 89.8713C178.727 90.6236 179.334 90.9094 180.045 90.507L182.348 89.2298C182.723 89.0048 183.038 88.6979 183.267 88.3342C183.496 87.9705 183.633 87.5601 183.666 87.1363C183.666 86.3781 183.058 86.0924 182.348 86.4948L180.045 87.7719C179.669 87.9976 179.353 88.3053 179.124 88.6701C178.895 89.0349 178.759 89.4465 178.727 89.8713Z" fill="#455A64"/>
<path d="M187.008 85.2964C187.008 86.0487 187.615 86.3344 188.326 85.932L202.094 78.2925C202.468 78.0659 202.783 77.7578 203.011 77.3931C203.239 77.0284 203.374 76.6173 203.406 76.1931C203.406 75.4408 202.798 75.1551 202.094 75.5574L188.32 83.197C187.945 83.4236 187.631 83.7317 187.403 84.0964C187.175 84.4611 187.04 84.8722 187.008 85.2964Z" fill="#455A64"/>
<path d="M178.727 95.3245C178.727 96.0767 179.334 96.3625 180.045 95.9601L182.348 94.683C182.723 94.4579 183.038 94.1511 183.267 93.7873C183.496 93.4236 183.633 93.0132 183.666 92.5894C183.666 91.8313 183.058 91.5455 182.348 91.9479L180.045 93.225C179.669 93.4507 179.353 93.7584 179.124 94.1232C178.895 94.488 178.759 94.8996 178.727 95.3245Z" fill="#455A64"/>
<path d="M187.008 90.7651C187.008 91.5174 187.615 91.8032 188.326 91.4008L202.094 83.7613C202.468 83.5346 202.783 83.2265 203.011 82.8618C203.239 82.4971 203.374 82.0861 203.406 81.6619C203.406 80.9096 202.798 80.6238 202.094 81.0262L188.32 88.6657C187.945 88.8924 187.631 89.2005 187.403 89.5652C187.175 89.9299 187.04 90.3409 187.008 90.7651Z" fill="#455A64"/>
<path d="M178.727 100.817C178.727 101.569 179.334 101.855 180.045 101.452L182.348 100.175C182.723 99.9501 183.038 99.6433 183.267 99.2795C183.496 98.9158 183.633 98.5054 183.666 98.0816C183.666 97.3235 183.058 97.0377 182.348 97.4401L180.045 98.7172C179.669 98.9429 179.353 99.2506 179.124 99.6154C178.895 99.9802 178.759 100.392 178.727 100.817Z" fill="#455A64"/>
<path d="M187.008 96.2337C187.008 96.986 187.615 97.2718 188.326 96.8694L202.094 89.2298C202.468 89.0038 202.781 88.6966 203.009 88.333C203.237 87.9693 203.373 87.5595 203.406 87.1363C203.406 86.3781 202.798 86.0924 202.094 86.4948L188.32 94.1576C187.948 94.382 187.636 94.6864 187.408 95.0468C187.181 95.4072 187.043 95.8136 187.008 96.2337Z" fill="#455A64"/>
<path d="M239.989 2.29445L236.72 0.49828H236.69C235.25 -0.277337 233.276 -0.160701 231.088 1.04646C226.684 3.48994 223.117 9.42662 223.117 14.3078C223.117 16.7396 224.004 18.4541 225.444 19.253L228.397 20.8743L229.102 19.7079C229.906 19.5386 230.679 19.2514 231.392 18.8565C235.791 16.4188 239.363 10.4822 239.363 5.60102C239.361 4.94266 239.277 4.28688 239.114 3.6474L239.989 2.29445Z" fill="#007CCE"/>
<path d="M223.133 14.2626C223.133 16.7003 224.02 18.4148 225.46 19.2138L228.412 20.835L229.117 19.7036C229.921 19.5294 230.693 19.2405 231.408 18.8464C233.925 17.3256 235.969 15.1823 237.325 12.6414L225.782 6.22656C224.16 8.62707 223.245 11.4037 223.133 14.2626Z" fill="#263238"/>
<path d="M239.992 2.29088L236.748 0.494717H236.717C235.277 -0.286731 233.303 -0.170096 231.116 1.0429C228.927 2.33628 227.096 4.11906 225.781 6.23894L237.325 12.6538C238.581 10.5124 239.281 8.11199 239.366 5.65577C239.364 4.99741 239.28 4.34163 239.117 3.70215L239.992 2.29088Z" fill="#455A64"/>
<path d="M234.19 2.7271C229.791 5.16475 226.219 11.1014 226.219 16.0117C226.219 20.922 229.791 22.8698 234.19 20.4263C238.589 17.9828 242.192 12.0228 242.192 7.1417C242.192 2.26056 238.595 0.266119 234.19 2.7271Z" fill="#37474F"/>
<path d="M234.769 6.77281C235.005 6.69385 235.258 6.67575 235.504 6.72033C235.704 6.76487 235.889 6.85943 236.038 6.99442C236.183 7.12981 236.293 7.29546 236.36 7.47845C236.437 7.66472 236.482 7.86162 236.494 8.06162C236.498 8.15897 236.475 8.25559 236.427 8.34154C236.391 8.41819 236.331 8.48301 236.257 8.52816L235.65 8.86056C235.552 8.91888 235.479 8.93054 235.431 8.90139C235.372 8.86482 235.325 8.812 235.297 8.74976C235.255 8.67449 235.198 8.60791 235.129 8.55387C235.061 8.49982 234.981 8.45937 234.896 8.43485C234.76 8.41607 234.622 8.42396 234.489 8.45804C234.357 8.49212 234.233 8.55168 234.125 8.63312C233.97 8.71643 233.827 8.81834 233.699 8.93637C233.566 9.05453 233.447 9.18767 233.347 9.33293C233.246 9.47332 233.167 9.6264 233.11 9.7878C233.055 9.94171 233.026 10.1032 233.025 10.266C233.012 10.4141 233.046 10.5624 233.122 10.6917C233.158 10.7368 233.204 10.7734 233.256 10.7987C233.309 10.824 233.367 10.8373 233.426 10.8375C233.608 10.8453 233.79 10.8276 233.967 10.785L234.769 10.6042C235.052 10.5324 235.345 10.5009 235.637 10.5109C235.859 10.5147 236.072 10.5885 236.245 10.7209C236.409 10.8633 236.523 11.0506 236.573 11.2574C236.642 11.5422 236.674 11.834 236.67 12.1263C236.666 12.4549 236.621 12.7818 236.537 13.1002C236.448 13.4388 236.322 13.7673 236.16 14.0799C235.993 14.4017 235.789 14.7048 235.552 14.9839C235.318 15.265 235.051 15.5193 234.756 15.742V16.5992C234.755 16.6948 234.73 16.7886 234.684 16.8733C234.653 16.9515 234.598 17.0187 234.526 17.0658L233.827 17.4507C233.805 17.4703 233.775 17.4812 233.745 17.4812C233.715 17.4812 233.685 17.4703 233.663 17.4507C233.639 17.4236 233.62 17.3921 233.609 17.358C233.597 17.324 233.593 17.288 233.596 17.2524V16.3893C233.364 16.4675 233.119 16.5031 232.873 16.4943C232.657 16.4851 232.447 16.4207 232.266 16.3076C232.089 16.1852 231.948 16.0203 231.858 15.8294C231.747 15.5806 231.69 15.3129 231.688 15.0422C231.683 14.9447 231.706 14.8477 231.755 14.7622C231.79 14.6846 231.847 14.6178 231.919 14.5698L232.527 14.2374C232.624 14.1849 232.697 14.1674 232.752 14.1907C232.812 14.2276 232.857 14.2832 232.879 14.3482C232.922 14.4349 232.97 14.5186 233.025 14.599C233.082 14.675 233.163 14.732 233.256 14.7622C233.376 14.7891 233.5 14.7891 233.62 14.7622C233.815 14.719 233.999 14.6441 234.167 14.5406C234.342 14.4432 234.509 14.332 234.665 14.2082C234.82 14.083 234.961 13.9422 235.085 13.7884C235.204 13.6359 235.302 13.4693 235.376 13.2927C235.45 13.1187 235.487 12.9324 235.486 12.7445C235.494 12.6748 235.488 12.6042 235.467 12.537C235.446 12.4698 235.411 12.4075 235.364 12.3538C235.313 12.3149 235.255 12.2862 235.192 12.2692C235.13 12.2521 235.064 12.2472 235 12.2546C234.794 12.2654 234.591 12.2967 234.392 12.3479C234.149 12.4062 233.876 12.4587 233.56 12.517C233.313 12.5729 233.059 12.5906 232.806 12.5695C232.61 12.5567 232.424 12.4807 232.278 12.3538C232.125 12.2024 232.016 12.0155 231.962 11.8114C231.886 11.5078 231.851 11.1962 231.858 10.8842C231.858 10.5515 231.903 10.2201 231.992 9.89861C232.077 9.57141 232.195 9.25301 232.344 8.94804C232.493 8.64382 232.677 8.35632 232.891 8.09078C233.097 7.83191 233.329 7.59355 233.584 7.37931V6.52205C233.586 6.42726 233.609 6.33398 233.651 6.24796C233.685 6.17027 233.742 6.10356 233.815 6.05551L234.513 5.67062C234.535 5.65135 234.563 5.64062 234.592 5.64062C234.622 5.64062 234.65 5.65135 234.671 5.67062C234.698 5.69664 234.718 5.72784 234.731 5.76207C234.743 5.79631 234.748 5.83275 234.744 5.8689L234.769 6.77281Z" fill="#FAFAFA"/>
<path d="M239.989 59.3534L236.72 57.5572H236.69C235.25 56.7758 233.276 56.8924 231.088 58.1054C226.684 60.543 223.117 66.4797 223.117 71.3609C223.117 73.7985 224.004 75.5072 225.444 76.312L228.397 77.9274L229.102 76.796C229.905 76.624 230.677 76.337 231.392 75.9446C235.791 73.5011 239.363 67.5644 239.363 62.6833C239.361 62.0249 239.277 61.3692 239.114 60.7297L239.989 59.3534Z" fill="#007CCE"/>
<path d="M223.133 71.3505C223.133 73.7881 224.02 75.4968 225.46 76.3016L228.412 77.9169L229.117 76.7856C229.921 76.6114 230.693 76.3225 231.408 75.9283C233.927 74.4051 235.972 72.2573 237.325 69.7117L225.782 63.2969C224.159 65.7032 223.243 68.4858 223.133 71.3505Z" fill="#263238"/>
<path d="M239.996 59.3534L236.751 57.5572H236.721C235.281 56.7758 233.306 56.8924 231.119 58.1054C228.933 59.4035 227.107 61.1903 225.797 63.3131L237.341 69.728C238.608 67.5674 239.31 65.1441 239.388 62.6658C239.385 62.0074 239.302 61.3517 239.139 60.7122L239.996 59.3534Z" fill="#455A64"/>
<path d="M234.19 59.7917C229.791 62.2294 226.219 68.166 226.219 73.0472C226.219 77.9283 229.791 79.9052 234.19 77.4676C238.589 75.0299 242.192 69.0816 242.192 64.2121C242.192 59.3427 238.595 57.3541 234.19 59.7917Z" fill="#37474F"/>
<path d="M238.25 70.3693L230.139 74.8655C230.042 74.918 229.969 74.8655 229.969 74.7081V67.8033C229.967 67.7363 229.981 67.6698 230.011 67.6091C230.04 67.5484 230.084 67.4951 230.139 67.4534L238.25 62.9572C238.341 62.9047 238.42 62.9572 238.42 63.1146V70.0252C238.421 70.0912 238.406 70.1566 238.377 70.2162C238.347 70.2759 238.304 70.3282 238.25 70.3693Z" fill="#FAFAFA"/>
<path d="M235.788 64.7807C235.697 64.8332 235.618 64.7808 235.618 64.6233V63.5736L232.768 65.154V66.2037C232.769 66.2712 232.754 66.338 232.723 66.3987C232.693 66.4595 232.648 66.5126 232.592 66.5536C232.501 66.6061 232.422 66.5536 232.422 66.3961V65.0898C232.421 65.0238 232.436 64.9585 232.465 64.8988C232.495 64.8391 232.538 64.7868 232.592 64.7458L235.788 62.9962C235.885 62.9438 235.958 62.9962 235.958 63.1537V64.4192C235.963 64.4882 235.95 64.5574 235.92 64.6205C235.89 64.6835 235.845 64.7386 235.788 64.7807Z" fill="#FAFAFA"/>
<path d="M235.788 63.4774L232.592 65.2269C232.501 65.2794 232.422 65.2269 232.422 65.0694V64.4863C232.421 64.4195 232.436 64.3534 232.466 64.2929C232.495 64.2323 232.538 64.1789 232.592 64.1364L235.788 62.3869C235.885 62.3344 235.958 62.3869 235.958 62.5443V63.1275C235.96 63.1945 235.945 63.261 235.916 63.3217C235.886 63.3825 235.842 63.4358 235.788 63.4774Z" fill="#FAFAFA"/>
<path d="M235.349 67.7872L233.028 69.0701C232.961 69.1109 232.906 69.0701 232.906 68.9535V68.5336C232.905 68.4857 232.916 68.4382 232.937 68.3947C232.958 68.3513 232.989 68.313 233.028 68.2829L235.349 66.9999C235.422 66.959 235.476 66.9999 235.476 67.1107V67.5306C235.477 67.5799 235.467 67.6289 235.444 67.6735C235.422 67.718 235.389 67.757 235.349 67.7872Z" fill="#37474F"/>
<path d="M239.989 30.828L236.72 29.026H236.69C235.25 28.2445 233.276 28.3612 231.088 29.5741C226.684 32.0176 223.117 37.9485 223.117 42.8296C223.117 45.2673 224.004 46.9818 225.444 47.7807L228.397 49.3961L229.102 48.2648C229.906 48.0954 230.679 47.8083 231.392 47.4133C235.791 44.9698 239.363 39.039 239.363 34.1579C239.361 33.4976 239.277 32.8399 239.114 32.1984L239.989 30.828Z" fill="#007CCE"/>
<path d="M223.133 42.8425C223.133 45.2802 224.02 46.9947 225.46 47.7937L228.412 49.409L229.117 48.2777C229.922 48.1084 230.694 47.8212 231.408 47.4263C233.931 45.8943 235.975 43.7363 237.325 41.1805L225.782 34.7656C224.155 37.1787 223.239 39.9699 223.133 42.8425Z" fill="#263238"/>
<path d="M239.996 30.8255L236.751 29.0235H236.721C235.281 28.2479 233.306 28.3587 231.119 29.5717C228.933 30.8698 227.107 32.6566 225.797 34.7794L237.341 41.1942C238.6 39.0436 239.3 36.633 239.382 34.167C239.38 33.5068 239.296 32.8491 239.133 32.2076L239.996 30.8255Z" fill="#455A64"/>
<path d="M234.19 31.2601C229.791 33.7036 226.219 39.6344 226.219 44.5156C226.219 49.3967 229.791 51.3795 234.19 48.936C238.589 46.4925 242.192 40.5617 242.192 35.6806C242.192 30.7994 238.595 28.8458 234.19 31.2601Z" fill="#37474F"/>
<path d="M231.25 39.0249C231.25 37.9168 231.858 36.6922 232.611 36.2606C233.364 35.8291 233.972 36.4064 233.972 37.5203C233.972 38.6341 233.364 39.853 232.611 40.2845C231.858 40.7161 231.25 40.1387 231.25 39.0249Z" fill="white"/>
<path d="M235.045 44.6253L230.039 47.4012L230.306 44.2055C230.422 42.8467 231.169 41.4529 232.056 40.963L233.022 40.4265C233.909 39.9367 234.657 40.4965 234.772 41.7328L235.045 44.6253Z" fill="white"/>
<path d="M234.555 35.6967C234.555 34.5887 235.162 33.3641 235.916 32.9325C236.669 32.501 237.277 33.0783 237.277 34.1922C237.277 35.306 236.669 36.5248 235.916 36.9564C235.162 37.3879 234.555 36.8106 234.555 35.6967Z" fill="white"/>
<path d="M238.335 41.2928L235.267 42.9957L235.127 41.4678C235.024 40.3947 234.52 39.7183 233.852 39.7183C234.087 38.8822 234.617 38.1504 235.352 37.648L236.318 37.1173C237.205 36.6216 237.953 37.1815 238.068 38.4178L238.335 41.2928Z" fill="white"/>
<path d="M156.823 150.038C156.823 146.422 154.332 142.807 149.35 140.048C139.392 134.526 123.225 134.526 113.285 140.048C108.303 142.807 105.812 146.422 105.812 150.038V156.704C105.812 160.319 108.303 163.935 113.285 166.699C123.243 172.216 139.411 172.216 149.35 166.699C154.332 163.935 156.823 160.319 156.823 156.704V150.038ZM114.519 142.095C118.966 139.628 124.932 138.275 131.318 138.275C137.703 138.275 143.67 139.628 148.117 142.095C152.139 144.323 154.357 147.145 154.357 150.038C154.357 152.93 152.139 155.753 148.117 157.981C143.67 160.448 137.685 161.806 131.318 161.806C124.951 161.806 118.966 160.448 114.519 157.981C110.497 155.753 108.279 152.93 108.279 150.038C108.279 147.145 110.497 144.311 114.519 142.095Z" fill="#007CCE"/>
<path opacity="0.3" d="M113.284 160.055C123.248 165.571 139.409 165.571 149.355 160.055C159.301 154.538 159.313 145.586 149.355 140.069C139.397 134.553 123.23 134.547 113.284 140.069C103.338 145.592 103.326 154.515 113.284 160.055ZM108.284 150.059C108.284 147.143 110.495 144.344 114.518 142.116C118.965 139.65 124.937 138.297 131.323 138.297C137.708 138.297 143.674 139.65 148.122 142.116C152.144 144.344 154.355 147.167 154.355 150.059C154.355 152.952 152.144 155.774 148.122 158.002C143.674 160.445 137.69 161.804 131.323 161.804C124.955 161.804 118.965 160.445 114.518 157.979C110.495 155.751 108.284 152.928 108.284 150.036V150.059Z" fill="white"/>
<path d="M108.281 150.036C108.296 151.214 108.64 152.366 109.278 153.372C110.286 151.692 112.066 150.112 114.521 148.759C118.962 146.292 124.934 144.933 131.32 144.933C137.705 144.933 143.672 146.292 148.119 148.759C150.253 149.838 152.061 151.426 153.368 153.372C154.001 152.364 154.343 151.213 154.359 150.036C154.359 147.12 152.141 144.321 148.119 142.093C143.672 139.632 137.705 138.273 131.32 138.273C124.934 138.273 118.962 139.632 114.521 142.093C110.493 144.309 108.281 147.143 108.281 150.036Z" fill="#007CCE"/>
<path opacity="0.1" d="M108.281 150.036C108.296 151.214 108.64 152.366 109.278 153.372C110.286 151.692 112.066 150.112 114.521 148.759C118.962 146.292 124.934 144.933 131.32 144.933C137.705 144.933 143.672 146.292 148.119 148.759C150.253 149.838 152.061 151.426 153.368 153.372C154.001 152.364 154.343 151.213 154.359 150.036C154.359 147.12 152.141 144.321 148.119 142.093C143.672 139.632 137.705 138.273 131.32 138.273C124.934 138.273 118.962 139.632 114.521 142.093C110.493 144.309 108.281 147.143 108.281 150.036Z" fill="black"/>
<path opacity="0.4" d="M114.519 145.109C118.967 142.648 124.939 141.289 131.324 141.289C137.71 141.289 143.676 142.648 148.123 145.109C151.441 146.952 153.525 149.191 154.156 151.524C153.549 153.856 151.441 156.119 148.123 157.939C143.676 160.446 137.692 161.805 131.324 161.805C124.957 161.805 118.967 160.446 114.519 157.979C111.202 156.142 109.118 153.897 108.492 151.565C109.136 149.191 111.202 146.952 114.519 145.109Z" fill="white"/>
<path opacity="0.1" d="M125.312 163.78V170.44C121.093 169.938 117.013 168.669 113.289 166.702C108.307 163.937 105.816 160.322 105.816 156.706V150.04C105.818 149.304 105.92 148.571 106.119 147.859C104.904 152.163 107.298 156.718 113.283 160.036C117.008 162.006 121.091 163.277 125.312 163.78Z" fill="black"/>
<path d="M114.045 164.27C114.014 163.676 113.837 163.096 113.529 162.579C113.221 162.063 112.79 161.623 112.271 161.296C112.092 161.17 111.881 161.092 111.66 161.069C111.439 161.047 111.216 161.081 111.013 161.168L102.453 165.886C102.269 166.006 102.123 166.172 102.031 166.367C101.939 166.561 101.904 166.776 101.93 166.988C101.957 167.581 102.128 168.159 102.43 168.676C102.732 169.194 103.156 169.636 103.668 169.968C103.848 170.095 104.06 170.173 104.283 170.194C104.505 170.216 104.729 170.18 104.932 170.09L113.517 165.39C113.701 165.266 113.847 165.096 113.94 164.899C114.033 164.702 114.069 164.485 114.045 164.27Z" fill="#37474F"/>
<path d="M113.517 165.389C113.7 165.265 113.845 165.096 113.938 164.901C114.031 164.705 114.068 164.489 114.045 164.275C114.038 163.833 113.937 163.396 113.748 162.992L102.672 169.069C102.938 169.431 103.277 169.738 103.668 169.973C103.848 170.1 104.061 170.178 104.283 170.199C104.505 170.221 104.729 170.185 104.932 170.095L113.517 165.395V165.389Z" fill="#263238"/>
<path d="M105.112 169.968C105.073 169.192 104.843 168.437 104.442 167.763C104.041 167.089 103.479 166.516 102.803 166.089C102.573 165.928 102.302 165.828 102.019 165.798C101.735 165.769 101.449 165.811 101.187 165.92L72.7109 180.5L76.9639 187.708L104.45 171.379C104.679 171.219 104.86 171.005 104.977 170.758C105.093 170.51 105.139 170.238 105.112 169.968Z" fill="#007CCE"/>
<path opacity="0.1" d="M76.9372 187.703L104.423 171.375C104.661 171.215 104.851 170.998 104.972 170.745C105.092 170.491 105.14 170.211 105.11 169.934C105.075 169.104 104.809 168.299 104.338 167.602L74.75 183.965L76.9372 187.703Z" fill="black"/>
<path d="M74.7878 187.466C73.9003 186.907 73.1627 186.156 72.6348 185.272C72.107 184.389 71.8038 183.398 71.75 182.381C71.75 180.515 73.1231 179.762 74.7878 180.701C75.6751 181.258 76.4128 182.009 76.9407 182.892C77.4686 183.774 77.7718 184.764 77.8256 185.781C77.8378 187.676 76.4707 188.428 74.7878 187.466Z" fill="#007CCE"/>
<g opacity="0.2">
<path d="M74.7878 187.466C73.9003 186.907 73.1627 186.156 72.6348 185.272C72.107 184.389 71.8038 183.398 71.75 182.381C71.75 180.515 73.1231 179.762 74.7878 180.701C75.6751 181.258 76.4128 182.009 76.9407 182.892C77.4686 183.774 77.7718 184.764 77.8256 185.781C77.8378 187.676 76.4707 188.428 74.7878 187.466Z" fill="black"/>
</g>
<path d="M242.626 123.062C242.936 111.982 242.018 109.317 238.938 107.281L237.723 113.696C237.723 113.696 239.126 121.277 238.974 123.791C238.847 126.007 238.622 128.783 238.075 130.573C237.975 130.888 237.759 131.158 237.468 131.331C236.831 131.766 236.262 132.287 235.779 132.877C235.317 133.343 234.922 133.46 234.983 133.606C235.071 133.768 235.221 133.893 235.401 133.955C235.581 134.016 235.779 134.01 235.955 133.938C236.349 133.788 236.722 133.592 237.067 133.355C236.794 134.035 236.411 134.669 235.931 135.233C234.831 136.521 234.782 137.315 237 137.338C238.391 137.338 239.503 136.527 240.548 133.588C240.952 132.51 241.279 131.408 241.526 130.287C242.046 127.903 242.414 125.49 242.626 123.062Z" fill="#FFA8A7"/>
<path d="M236.352 106.441C237.297 106.279 238.271 106.416 239.128 106.832C239.985 107.247 240.678 107.919 241.103 108.745C242.391 110.955 242.707 114.763 242.852 118.548C242.852 118.548 240.295 120.607 237.22 119.598L236.352 106.441Z" fill="#007CCE"/>
<path d="M240.674 167.44C240.905 167.527 240.966 167.953 241.002 168.799C241.002 169.44 241.166 170.548 240.395 170.787C239.623 171.026 238.463 170.892 237.965 170.292C237.357 169.534 236.914 168.875 236.02 167.959C235.243 167.16 234.404 166.414 234.094 165.294C233.809 164.279 234.046 163.842 234.763 163.544C235.753 163.142 237.308 164.466 238.086 164.67C238.742 164.845 240.437 167.358 240.674 167.44Z" fill="#263238"/>
<path d="M240.674 166.66V167.698C240.267 167.949 239.797 168.088 239.314 168.1C238.831 168.112 238.354 167.998 237.934 167.768C237.885 167.669 237.648 166.281 237.648 166.281L240.674 166.66Z" fill="#FFA8A7"/>
<path d="M231.891 173.469C232.083 174.026 232.243 174.592 232.371 175.166C232.505 175.796 232.699 176.845 232.468 177.318C232.237 177.79 231.344 178.099 229.953 178.087C228.799 178.223 227.688 178.595 226.696 179.178C225.403 179.705 223.995 179.919 222.595 179.802C221.38 179.668 220.08 178.98 219.88 178.49C219.679 178 219.946 177.487 222.857 176.297C222.857 176.297 226.903 175.032 228.325 173.539L231.891 173.469Z" fill="#263238"/>
<path d="M231.885 172.305V173.518C231.885 173.961 231.35 174.62 229.941 174.567C228.957 174.532 228.264 174.282 228.307 173.5V172.375L231.885 172.305Z" fill="#FFA8A7"/>
<path d="M241.373 152.848C241.132 151.005 240.702 149.188 240.091 147.425C240.091 147.425 240.479 142.76 240.662 138.316C240.862 133.528 240.662 127.504 240.747 126.308C240.747 126.308 224.646 123.182 224.343 128.723C224.039 134.263 224.95 148.352 225.169 150.784C225.388 153.216 225.776 155.362 226.317 159.304C226.858 163.246 228.286 172.385 228.286 172.385C228.842 172.657 229.46 172.793 230.084 172.78C230.708 172.768 231.32 172.608 231.864 172.315C231.864 172.315 233 161.234 232.879 158.441C232.788 156.361 232.416 154.3 231.773 152.312C231.773 152.312 232.077 147.746 232.344 143.774C232.612 139.803 232.903 137.896 232.952 136.193L233.298 136.03C233.298 136.03 233.65 142.882 233.845 145.314C234.039 147.746 234.452 150.078 235.169 154.592C235.807 158.511 237.697 166.804 237.697 166.804C239.519 167.76 240.637 166.681 240.637 166.681C240.637 166.681 241.865 156.248 241.373 152.848Z" fill="#37474F"/>
<path d="M232.984 136.147C232.984 136.147 236.891 134.299 238.847 132.648C238.847 132.648 237.025 135.104 234.649 136.188C234.649 136.188 233.799 144.703 233.805 144.533L233.312 136.147H232.984Z" fill="#263238"/>
<path d="M229.516 104.683L230.469 109.715L235.202 109.383L234.212 103.68L229.516 104.683Z" fill="#FFA8A7"/>
<path d="M240.207 109.018C239.733 107.648 237.929 106.161 236.118 106.482C233.437 106.923 230.795 107.558 228.214 108.383C226.555 108.966 225.049 110.325 224.909 115.556C224.909 115.556 224.356 127.756 224.344 130.135C227.802 131.437 231.568 131.795 235.225 131.167C240.207 130.123 240.809 128.141 240.809 128.141C240.809 128.141 240.869 119.393 240.724 115.579C240.572 112.342 240.529 109.957 240.207 109.018Z" fill="#F5F5F5"/>
<path d="M225.855 98.5625C225.855 98.5625 224.64 100.399 224.804 100.574C224.968 100.749 225.868 100.889 225.868 100.889L225.855 98.5625Z" fill="#FFA8A7"/>
<path d="M229.188 93.475C226.685 94.0581 225.986 95.1195 225.834 98.9568C225.682 102.975 226.138 104.205 226.703 104.753C227.08 105.109 229.133 105.133 230.172 104.835C231.466 104.462 234.377 103.401 235.707 101.336C237.269 98.9276 237.621 95.7027 235.853 94.4197C233.374 92.6352 230.209 93.2475 229.188 93.475Z" fill="#FFA8A7"/>
<path d="M225.864 94.48C226.439 95.2843 227.251 95.9057 228.197 96.2645C228.677 96.7893 228.409 98.8363 229.254 99.1803C229.254 99.1803 229.618 97.6874 230.924 97.8449C232.231 98.0023 232.449 99.5944 231.647 100.597C230.845 101.6 230.068 101.233 230.068 101.233C230.068 101.233 230.159 103.35 231.167 104.528C232.215 104.724 233.296 104.676 234.321 104.388C235.572 104.102 237.316 102.551 238.027 100.936C239.534 97.5241 239.57 94.48 237.298 93.6169C237.018 92.0598 235.724 91.3892 234.26 91.1034C231.107 90.4794 229.077 92.3689 226.653 92.1998C225.262 92.089 225.001 93.0629 225.864 94.48Z" fill="#263238"/>
<path d="M237.357 94.1152L238.839 93.2288C238.783 93.128 238.705 93.0395 238.611 92.9687C238.517 92.8979 238.409 92.8463 238.294 92.817C238.179 92.7877 238.058 92.7814 237.94 92.7984C237.822 92.8154 237.709 92.8555 237.608 92.9161C237.506 92.9766 237.419 93.0564 237.351 93.1506C237.283 93.2448 237.236 93.3513 237.212 93.4636C237.189 93.576 237.19 93.6917 237.215 93.8038C237.239 93.9158 237.288 94.0218 237.357 94.1152Z" fill="#263238"/>
<path d="M208.161 117.445C208.939 117.778 218.113 124.286 219.547 123.528C220.981 122.77 228.314 114.535 228.314 114.535C228.934 113.615 229.264 112.543 229.264 111.447C229.264 110.352 228.934 109.279 228.314 108.359C226.88 108.657 225.607 109.442 224.729 110.57C223.514 112.354 218.18 118.734 218.18 118.734C216.868 118.104 215.555 117.463 214.255 116.815C213.18 116.279 212.098 115.748 211.047 115.171C210.751 115.043 210.473 114.878 210.221 114.681C209.698 114.191 209.789 112.996 209.802 112.348C209.797 112.046 209.812 111.745 209.844 111.444C209.893 111.071 209.966 110.167 209.267 110.453C209.137 110.516 209.024 110.608 208.939 110.721C208.829 110.858 208.744 111.012 208.69 111.176C208.556 111.567 208.599 111.998 208.483 112.389C208.469 112.449 208.437 112.503 208.392 112.547C208.362 112.571 208.328 112.59 208.29 112.601C208.252 112.612 208.212 112.615 208.173 112.611C207.165 112.582 206.205 111.223 205.743 110.5C205.575 110.156 205.31 109.865 204.978 109.66C204.685 109.575 204.371 109.587 204.086 109.692C203.801 109.798 203.561 109.992 203.404 110.243C202.967 110.873 202.788 111.635 202.9 112.383C202.99 113.4 203.458 114.352 204.218 115.066C205.38 116.071 206.714 116.876 208.161 117.445Z" fill="#FFA8A7"/>
<path d="M229.134 108.094C228.126 108.205 226.704 108.024 224.723 110.071C223.124 111.823 221.633 113.663 220.258 115.582C220.519 116.589 221.077 117.503 221.864 118.214C222.652 118.925 223.636 119.404 224.699 119.594C224.699 119.594 228.168 116.176 229.134 114.299C230.1 112.421 230.331 109.365 229.134 108.094Z" fill="#007CCE"/>
</svg>
