<svg width="272" height="221" viewBox="0 0 272 221" fill="none" xmlns="http://www.w3.org/2000/svg">
<path d="M272 194.211H0V194.359H272V194.211Z" fill="#E6E6E6"/>
<path d="M67.9001 203.188H49.8828V203.336H67.9001V203.188Z" fill="#E6E6E6"/>
<path d="M44.1815 203.188H33.7422V203.336H44.1815V203.188Z" fill="#E6E6E6"/>
<path d="M114.541 205.367H104.102V205.515H114.541V205.367Z" fill="#E6E6E6"/>
<path d="M168.972 208.68H145.477V208.828H168.972V208.68Z" fill="#E6E6E6"/>
<path d="M140.631 208.68H137.188V208.828H140.631V208.68Z" fill="#E6E6E6"/>
<path d="M246.618 205.367H195.656V205.515H246.618V205.367Z" fill="#E6E6E6"/>
<path d="M128.923 167.755H23.8821C23.0592 167.753 22.2705 167.396 21.6891 166.761C21.1078 166.126 20.7812 165.265 20.7813 164.368V3.35747C20.7884 2.46533 21.1181 1.61229 21.6987 0.983644C22.2793 0.355001 23.0639 0.0015283 23.8821 0H128.923C129.747 0 130.537 0.356858 131.119 0.992069C131.702 1.62728 132.029 2.48881 132.029 3.38713V164.368C132.029 165.266 131.702 166.128 131.119 166.763C130.537 167.398 129.747 167.755 128.923 167.755ZM23.8821 0.118639C23.0952 0.12021 22.3411 0.462136 21.7853 1.06937C21.2294 1.67659 20.9172 2.49951 20.9173 3.35747V164.368C20.9172 165.226 21.2294 166.049 21.7853 166.656C22.3411 167.263 23.0952 167.605 23.8821 167.607H128.923C129.71 167.605 130.465 167.263 131.022 166.656C131.578 166.049 131.892 165.226 131.893 164.368V3.35747C131.892 2.49896 131.578 1.67606 131.022 1.069C130.465 0.461944 129.71 0.120207 128.923 0.118639H23.8821Z" fill="#E6E6E6"/>
<path d="M246.598 167.755H141.552C140.728 167.754 139.939 167.396 139.357 166.761C138.774 166.126 138.447 165.266 138.445 164.368V3.35747C138.454 2.46479 138.785 1.61175 139.366 0.983273C139.948 0.354794 140.733 0.00151163 141.552 0H246.598C247.415 0.00308727 248.198 0.35725 248.778 0.985726C249.357 1.6142 249.686 2.46635 249.693 3.35747V164.368C249.693 165.264 249.368 166.124 248.787 166.759C248.207 167.394 247.42 167.752 246.598 167.755ZM141.552 0.118639C140.764 0.120207 140.01 0.461944 139.453 1.069C138.896 1.67606 138.583 2.49896 138.581 3.35747V164.368C138.583 165.226 138.896 166.049 139.453 166.656C140.01 167.263 140.764 167.605 141.552 167.607H246.598C247.385 167.605 248.14 167.263 248.697 166.656C249.253 166.049 249.567 165.226 249.568 164.368V3.35747C249.567 2.49896 249.253 1.67606 248.697 1.069C248.14 0.461944 247.385 0.120207 246.598 0.118639H141.552Z" fill="#E6E6E6"/>
<path d="M145.463 143.539H133.5V195.283H145.463V143.539Z" fill="#E0E0E0"/>
<path d="M143.195 195.282H145.469V188.234H140.812L143.195 195.282Z" fill="#FAFAFA"/>
<path d="M93.0485 143.539H81.0859V195.283H93.0485V143.539Z" fill="#E0E0E0"/>
<path d="M145.463 143.539H91.0625V190.959H145.463V143.539Z" fill="#FAFAFA"/>
<path d="M143.491 145.872V158.418H93.024V145.872H143.475M143.687 145.641H92.8281V158.643H143.703V145.641H143.687Z" fill="#E0E0E0"/>
<path d="M93.331 195.282H91.0625V188.234H95.7137L93.331 195.282Z" fill="#FAFAFA"/>
<path d="M117.062 152.139C117.062 152.398 117.133 152.652 117.265 152.867C117.397 153.083 117.585 153.251 117.805 153.35C118.024 153.449 118.266 153.475 118.499 153.425C118.732 153.374 118.947 153.249 119.115 153.066C119.283 152.883 119.397 152.649 119.444 152.395C119.49 152.141 119.466 151.877 119.375 151.637C119.284 151.398 119.13 151.193 118.933 151.049C118.735 150.905 118.503 150.828 118.265 150.828C117.946 150.828 117.64 150.966 117.415 151.212C117.189 151.458 117.062 151.791 117.062 152.139Z" fill="#E6E6E6"/>
<path d="M143.491 160.975V173.521H93.024V160.975H143.475M143.687 160.75H92.8281V173.753H143.703V160.756L143.687 160.75Z" fill="#E0E0E0"/>
<path d="M117.062 167.28C117.062 167.539 117.133 167.792 117.265 168.008C117.397 168.224 117.585 168.392 117.805 168.491C118.024 168.59 118.266 168.616 118.499 168.565C118.732 168.515 118.947 168.39 119.115 168.207C119.283 168.023 119.397 167.79 119.444 167.535C119.49 167.281 119.466 167.018 119.375 166.778C119.284 166.538 119.13 166.334 118.933 166.19C118.735 166.046 118.503 165.969 118.265 165.969C117.946 165.969 117.64 166.107 117.415 166.353C117.189 166.599 117.062 166.932 117.062 167.28Z" fill="#E6E6E6"/>
<path d="M143.491 176.083V188.635H93.024V176.083H143.475M143.687 175.852H92.8281V188.86H143.703V175.852H143.687Z" fill="#E0E0E0"/>
<path d="M117.063 182.356C117.064 182.615 117.135 182.868 117.268 183.083C117.401 183.297 117.589 183.465 117.808 183.563C118.028 183.661 118.27 183.686 118.503 183.635C118.735 183.584 118.949 183.458 119.117 183.275C119.284 183.091 119.398 182.858 119.444 182.604C119.49 182.349 119.466 182.086 119.375 181.847C119.284 181.608 119.13 181.403 118.932 181.26C118.735 181.116 118.502 181.039 118.265 181.039C118.106 181.039 117.95 181.073 117.803 181.139C117.657 181.206 117.524 181.303 117.413 181.425C117.301 181.547 117.213 181.693 117.152 181.852C117.092 182.012 117.062 182.183 117.063 182.356Z" fill="#E6E6E6"/>
<path d="M85.7438 113.492H73.7812V195.294H85.7438V113.492Z" fill="#E0E0E0"/>
<path d="M83.4632 195.282H85.7371V188.234H81.0859L83.4632 195.282Z" fill="#FAFAFA"/>
<path d="M41.0329 113.492H29.0703V195.294H41.0329V113.492Z" fill="#E0E0E0"/>
<path d="M85.7384 113.492H39.0469V190.969H85.7384V113.492Z" fill="#FAFAFA"/>
<path d="M83.7239 115.673V133.214H41.058V115.673H83.7239ZM83.9742 115.406H40.7969V133.469H83.9633V115.412L83.9742 115.406Z" fill="#E0E0E0"/>
<path d="M83.7249 135.351V181.875H63.4011V135.351H83.7249ZM83.9751 135.078H63.1562V182.148H83.9751V135.078Z" fill="#E0E0E0"/>
<path d="M61.3818 135.351V181.875H41.058V135.351H61.3818ZM61.6266 135.078H40.7969V182.148H61.6158V135.078H61.6266Z" fill="#E0E0E0"/>
<path d="M41.3208 195.282H39.0469V188.234H43.7035L41.3208 195.282Z" fill="#FAFAFA"/>
<path d="M61.1875 124.452C61.1864 124.712 61.2563 124.967 61.3884 125.185C61.5204 125.402 61.7087 125.572 61.9292 125.672C62.1498 125.773 62.3928 125.8 62.6274 125.75C62.8621 125.7 63.0778 125.575 63.2472 125.391C63.4166 125.207 63.5322 124.972 63.5793 124.717C63.6263 124.461 63.6027 124.196 63.5115 123.955C63.4202 123.714 63.2654 123.508 63.0667 123.363C62.868 123.218 62.6343 123.141 62.3952 123.141C62.0758 123.141 61.7695 123.279 61.5432 123.524C61.3168 123.77 61.189 124.103 61.1875 124.452Z" fill="#E6E6E6"/>
<path d="M65.5 157.512C65.5 157.773 65.571 158.028 65.7039 158.244C65.8369 158.461 66.0258 158.63 66.2468 158.729C66.4678 158.829 66.7109 158.855 66.9453 158.803C67.1797 158.752 67.3949 158.626 67.5636 158.441C67.7323 158.257 67.8468 158.021 67.8928 157.765C67.9388 157.51 67.9141 157.245 67.8219 157.004C67.7296 156.764 67.574 156.558 67.3747 156.414C67.1754 156.27 66.9413 156.194 66.7023 156.195C66.5439 156.195 66.3871 156.229 66.2409 156.296C66.0947 156.362 65.9619 156.459 65.8502 156.581C65.7385 156.704 65.6501 156.849 65.59 157.009C65.5299 157.168 65.4993 157.34 65.5 157.512Z" fill="#E6E6E6"/>
<path d="M56.8906 157.512C56.8917 157.771 56.9631 158.024 57.0959 158.239C57.2286 158.454 57.4168 158.621 57.6366 158.719C57.8563 158.817 58.0979 158.843 58.3307 158.791C58.5636 158.74 58.7773 158.615 58.9449 158.431C59.1125 158.248 59.2265 158.014 59.2724 157.76C59.3184 157.506 59.2942 157.242 59.2031 157.003C59.1119 156.764 58.9578 156.56 58.7602 156.416C58.5627 156.272 58.3304 156.195 58.0929 156.195C57.9345 156.195 57.7778 156.229 57.6315 156.296C57.4853 156.362 57.3525 156.459 57.2408 156.581C57.1291 156.704 57.0407 156.849 56.9806 157.009C56.9205 157.168 56.8899 157.34 56.8906 157.512Z" fill="#E6E6E6"/>
<path d="M55.5236 90.6797H50.4807C50.9454 93.3472 51.2381 96.0469 51.3565 98.759C51.3565 101.725 47.5159 113.488 52.9885 113.488C58.4612 113.488 54.6205 101.755 54.6205 98.759C54.748 96.0462 55.0497 93.3465 55.5236 90.6797Z" fill="#E0E0E0"/>
<path d="M36.3438 102.711V106.27C36.3495 108.178 37.0471 110.006 38.2844 111.355C39.5217 112.704 41.1981 113.465 42.9479 113.471H46.2119C47.9617 113.465 49.6381 112.704 50.8754 111.355C52.1127 110.006 52.8103 108.178 52.8161 106.27V102.711H36.3438Z" fill="#F5F5F5"/>
<path d="M106.445 135.992C106.445 140.145 110.705 143.538 115.911 143.538H120.611C125.817 143.538 130.077 140.145 130.077 135.992H106.445Z" fill="#E0E0E0"/>
<path d="M230.993 129.913C228.142 132.451 224.203 137.096 220.602 143.633C218.198 147.987 216.751 152.531 216.114 158.57C216.114 151.748 216.152 144.422 216.174 137.505C216.898 135.726 218.551 131.621 219.737 128.382C223.692 117.568 225.177 114.905 228.73 105.58C233.479 93.1228 238.342 78.376 236.949 79.5564C234.11 81.9589 223.23 104.174 222.055 107.353C218.852 115.839 216.872 124.813 216.185 133.958C216.185 127.433 216.228 121.501 216.25 116.898C216.326 101.884 216.56 97.0378 216.675 95.543C217.115 94.7837 217.632 93.8999 217.937 93.4253C220.493 89.3916 221.478 85.9629 223.883 79.9479C227.299 71.4356 230.236 56.3151 229.377 57.0744C225.797 60.2539 222.979 67.0757 219.269 75.7778C215.559 84.4799 216.62 89.4806 215.886 96.9073C215.733 98.3666 215.614 103.871 215.527 111.494C214.569 103.367 212.763 98.0166 209.472 93.1524C205.425 87.1671 201.508 83.1275 198.635 81.0157C195.763 78.9039 203.597 93.6033 207.339 99.9979C210.674 105.716 213.748 110.752 215.499 115.718C215.407 126.057 215.363 139.143 215.363 151.309C214.504 145.769 213.1 139.795 211.229 135.174C208.977 129.622 205.517 121.104 202.759 118.215C202.101 117.521 205.642 134.089 207.916 138.49C210.19 142.892 211.86 147.05 213.291 149.547C213.623 150.141 214.732 152.377 215.363 153.67C215.363 168.541 215.44 181.663 215.559 186.13H216.147C216.109 184.979 216.098 177.41 216.114 167.396C217.534 161.963 220.776 155.758 223.453 150.099C226.369 143.971 233.843 127.392 230.993 129.913Z" fill="#E0E0E0"/>
<path d="M224.369 195.285H207.321L206.031 177.062H225.659L224.369 195.285Z" fill="#F0F0F0"/>
<path d="M226.924 179.183H204.756L204.125 173.031H227.561L226.924 179.183Z" fill="#F5F5F5"/>
<path d="M67.6006 12.1641H37.1094V48.6751H67.6006V12.1641Z" fill="#E0E0E0"/>
<path d="M70.9039 12.1641H39.4062V48.6751H70.9039V12.1641Z" fill="#F5F5F5"/>
<path d="M68.2656 45.7961V15.0391L42.0448 15.0391V45.7961H68.2656Z" fill="white"/>
<path d="M61.9062 38.3286V22.4844H48.3987V38.3286H61.9062Z" fill="#F5F5F5"/>
<path d="M223.068 16.4141H194.742V50.3329H223.068V16.4141Z" fill="#E0E0E0"/>
<path d="M226.131 16.4141H196.875V50.3329H226.131V16.4141Z" fill="#F5F5F5"/>
<path d="M223.688 47.6541V19.0859H199.333V47.6541H223.688Z" fill="white"/>
<path d="M211.506 41.6598C215.703 41.6598 219.106 37.9496 219.106 33.3728C219.106 28.7961 215.703 25.0859 211.506 25.0859C207.309 25.0859 203.906 28.7961 203.906 33.3728C203.906 37.9496 207.309 41.6598 211.506 41.6598Z" fill="#F5F5F5"/>
<path d="M99.2758 33.9297H76.6562V61.0149H99.2758V33.9297Z" fill="#E0E0E0"/>
<path d="M101.724 33.9297H78.3594V61.0149H101.724V33.9297Z" fill="#F5F5F5"/>
<path d="M99.7656 58.8767V36.0625H80.3176V58.8767H99.7656Z" fill="white"/>
<path d="M90.0391 41.7031L84.7188 51.7518H95.3594L90.0391 41.7031Z" fill="#F5F5F5"/>
<path d="M136 221C194.252 221 241.476 217.994 241.476 214.285C241.476 210.577 194.252 207.57 136 207.57C77.7467 207.57 30.5234 210.577 30.5234 214.285C30.5234 217.994 77.7467 221 136 221Z" fill="#F5F5F5"/>
<path d="M189.994 64.3181L184.597 61.9453C184.597 61.9453 177.476 76.1048 175.436 76.8226C172.662 77.7954 166.917 80.5004 163.512 80.975C163.049 81.5681 162.293 83.413 162.364 84.0833C166.939 85.7502 176.992 83.5375 179.146 81.7936C184.048 77.837 189.994 64.3181 189.994 64.3181Z" fill="#E58A7B"/>
<path d="M191.65 61.0975C192.656 65.149 187.205 73.2995 187.205 73.2995L180.062 68.9336C180.062 68.9336 181.401 65.5821 183.033 62.1712C185.649 56.6604 190.502 56.4765 191.65 61.0975Z" fill="#007CCE"/>
<path opacity="0.2" d="M191.65 61.0975C192.656 65.149 187.205 73.2995 187.205 73.2995L180.062 68.9336C180.062 68.9336 181.401 65.5821 183.033 62.1712C185.649 56.6604 190.502 56.4765 191.65 61.0975Z" fill="black"/>
<path opacity="0.2" d="M182.898 70.6781L185.711 72.3984L186.206 62.9844C184.569 64.3547 183.415 68.4833 182.898 70.6781Z" fill="black"/>
<path d="M186.95 58.0507C186.95 58.0507 181.39 71.54 184.633 96.6558H206.539C206.888 92.9898 205.734 75.0991 209.907 57.8253C207.504 57.3132 205.072 56.9744 202.628 56.811C199.528 56.6151 196.42 56.6151 193.32 56.811C191.171 57.0489 189.042 57.4634 186.95 58.0507Z" fill="#007CCE"/>
<path opacity="0.2" d="M186.95 58.0507C186.95 58.0507 181.39 71.54 184.633 96.6558H206.539C206.888 92.9898 205.734 75.0991 209.907 57.8253C207.504 57.3132 205.072 56.9744 202.628 56.811C199.528 56.6151 196.42 56.6151 193.32 56.811C191.171 57.0489 189.042 57.4634 186.95 58.0507Z" fill="black"/>
<g style="mix-blend-mode:multiply">
<path d="M181.867 214.823C181.835 215.463 190.142 215.979 200.418 215.979C210.694 215.979 219.061 215.463 219.093 214.823C219.126 214.182 210.824 213.672 200.543 213.672C190.261 213.672 181.905 214.188 181.867 214.823Z" fill="#E8ECF1"/>
</g>
<path d="M196.495 197.985L192.609 199.625L195.956 209.053L199.842 207.413L196.495 197.985Z" fill="#E58A7B"/>
<path d="M213.816 210.261H209.72L208.219 199.922H212.315L213.816 210.261Z" fill="#E58A7B"/>
<path d="M209.441 209.742H214.043C214.123 209.742 214.2 209.774 214.261 209.83C214.321 209.887 214.362 209.965 214.375 210.051L214.968 214.019C214.98 214.119 214.973 214.22 214.946 214.316C214.92 214.412 214.874 214.501 214.813 214.577C214.752 214.652 214.677 214.712 214.593 214.753C214.509 214.794 214.418 214.815 214.326 214.814C212.721 214.784 211.948 214.678 209.925 214.678C208.679 214.678 206.117 214.82 204.387 214.82C202.657 214.82 202.543 212.969 203.255 212.797C206.454 212.044 207.694 211.018 208.761 210.021C208.949 209.841 209.19 209.742 209.441 209.742Z" fill="#263238"/>
<path d="M195.841 208.215L200.193 206.827C200.271 206.803 200.354 206.809 200.428 206.843C200.502 206.878 200.563 206.939 200.601 207.017L202.233 210.576C202.271 210.666 202.291 210.764 202.29 210.864C202.289 210.963 202.269 211.061 202.23 211.151C202.191 211.241 202.135 211.32 202.065 211.384C201.995 211.447 201.913 211.494 201.825 211.519C200.242 211.994 199.181 212.284 197.201 212.913C195.836 213.346 194.443 214.052 193.094 214.521C192.158 214.847 189.961 214.859 188.824 214.859C187.143 214.859 186.767 212.925 187.491 212.836C189.313 212.617 189.558 212.717 190.564 212.166C192.211 211.381 193.704 210.257 194.96 208.856C195.197 208.561 195.501 208.34 195.841 208.215Z" fill="#263238"/>
<path d="M164.195 80.9568L159.691 78.8984L157.836 84.3439C159.682 84.6506 161.56 84.6506 163.406 84.3439L164.195 80.9568Z" fill="#E58A7B"/>
<path d="M156.338 78.75L156.219 82.3685L157.834 84.326L159.689 78.8805L156.338 78.75Z" fill="#E58A7B"/>
<path d="M197.023 198.789L193.125 200.43L194.851 205.305L198.749 203.664L197.023 198.789Z" fill="#CF6F64"/>
<path d="M212.315 199.922H208.219L208.997 205.255H213.093L212.315 199.922Z" fill="#CF6F64"/>
<path opacity="0.2" d="M183.938 89.8658C184.019 90.9395 184.112 92.0369 184.231 93.164L200.519 87.3981C203.062 86.5761 205.273 84.8332 206.785 82.4568C206.851 80.873 206.932 79.2061 207.057 77.4681C207.112 76.6257 207.177 75.7597 207.248 74.8818C207.319 74.0038 207.417 73.031 207.52 72.0938L183.938 89.8658Z" fill="black"/>
<path d="M189.255 70.4099L188.711 70.3387C189.032 67.3727 191.061 65.0355 193.199 65.0949V65.688C191.328 65.6465 189.543 67.7524 189.255 70.4099Z" fill="white"/>
<path d="M192.155 75.8831H192.062V75.29C193.934 75.3671 195.691 73.2375 195.979 70.5859L196.523 70.6571C196.235 73.5578 194.271 75.8831 192.155 75.8831Z" fill="white"/>
<path d="M202.326 45.3828C201.559 48.6513 200.656 54.6366 202.631 56.8136C202.631 56.8136 201.249 60.1296 195.684 60.1296C190.598 60.1296 193.323 56.8136 193.323 56.8136C196.707 55.9476 196.767 53.2545 196.321 50.7038L202.326 45.3828Z" fill="#E58A7B"/>
<path d="M199.873 47.5547L196.32 50.7045C196.43 51.2907 196.494 51.8861 196.511 52.4841C197.55 53.6112 199.633 50.7579 199.845 49.2987C199.953 48.7242 199.962 48.1329 199.873 47.5547Z" fill="#CF6F64"/>
<path d="M190.212 45.3424C190.459 45.8096 190.792 46.2161 191.19 46.5366C191.588 46.8571 192.042 47.0847 192.524 47.2051C193.83 47.5195 194.483 46.2085 194.124 44.8916C193.803 43.7052 192.731 42.1095 191.404 42.3824C191.119 42.4463 190.853 42.5835 190.627 42.7826C190.402 42.9817 190.223 43.2368 190.106 43.5267C189.99 43.8166 189.938 44.1327 189.957 44.4486C189.975 44.7645 190.063 45.071 190.212 45.3424Z" fill="#CF6F64"/>
<path d="M192.376 34.8815C190.341 35.8958 189.623 44.7107 192.18 46.0157C194.737 47.3207 196.227 32.9536 192.376 34.8815Z" fill="#263238"/>
<path d="M202.939 40.4639C202.45 44.8892 202.395 47.4933 200.219 49.7593C199.545 50.5112 198.693 51.0454 197.758 51.3028C196.823 51.5601 195.841 51.5307 194.92 51.2177C193.999 50.9047 193.176 50.3203 192.54 49.5291C191.905 48.7379 191.483 47.7706 191.32 46.734C190.661 42.7596 191.57 36.1929 195.639 34.4312C196.494 34.02 197.434 33.8656 198.362 33.9841C199.29 34.1025 200.173 34.4895 200.917 35.105C201.662 35.7204 202.242 36.5418 202.598 37.4841C202.953 38.4264 203.071 39.4552 202.939 40.4639Z" fill="#E58A7B"/>
<path d="M196.255 37.1705C199.269 36.3341 201.483 35.7647 200.689 38.4993C199.639 42.1533 198.377 45.6888 200.069 45.8489C201.102 45.9498 205.672 43.838 205.09 41.6966C204.584 39.834 206.722 39.3238 207.103 38.3806C208.512 34.9638 204.481 35.4147 205.199 33.3385C205.917 31.2623 201.935 27.9167 199.759 29.5836C196.217 32.2767 190.141 32.2352 193.334 27.804C195.624 24.6423 191.539 25.2889 191.539 25.2889C191.539 25.2889 194.009 26.8846 189.853 29.3522C185.457 31.986 189.488 39.0628 196.255 37.1705Z" fill="#263238"/>
<path d="M204.545 45.3424C203.95 46.2812 203.057 46.9451 202.038 47.2051C200.694 47.5195 200.177 46.2085 200.683 44.8916C201.134 43.7052 202.375 42.1095 203.659 42.3824C204.942 42.6553 205.236 44.1798 204.545 45.3424Z" fill="#E58A7B"/>
<path d="M184.635 96.6562C184.635 96.6562 180.957 132.544 180.669 146.164C180.375 160.33 193.132 204.528 193.132 204.528L199.66 201.562C199.66 201.562 192.044 161.178 193.132 147.268C194.285 132.1 199.051 96.68 199.051 96.68L184.635 96.6562Z" fill="#007CCE"/>
<path opacity="0.2" d="M193.773 106.507C190.841 113.139 192.816 126.255 194.404 134.026C195.008 128.539 195.726 122.583 196.406 117.072C196.341 108.601 195.737 102.058 193.773 106.507Z" fill="black"/>
<path d="M199.364 199.211C199.397 199.211 200.137 201.477 200.137 201.477L192.608 204.929L191.422 202.521L199.364 199.211Z" fill="#007CCE"/>
<path d="M192.406 96.6562C192.406 96.6562 195.219 130.789 197.079 143.572C199.125 157.577 207.143 204.22 207.143 204.22H214.645C214.645 204.22 210.152 158.71 209.303 144.841C208.378 129.798 206.539 96.6562 206.539 96.6562H192.406Z" fill="#007CCE"/>
<path d="M214.756 202.088C214.789 202.088 215.006 204.372 215.006 204.372H206.759L206.172 201.75L214.756 202.088Z" fill="#007CCE"/>
<path opacity="0.2" d="M211.89 199.389C211.873 199.389 211.856 199.383 211.843 199.371C211.83 199.359 211.822 199.342 211.819 199.324C211.776 198.909 207.723 157.8 206.961 145.343C206.134 131.83 204.47 101.856 204.453 101.554C204.453 101.544 204.454 101.534 204.457 101.525C204.46 101.515 204.464 101.507 204.47 101.499C204.477 101.492 204.484 101.486 204.492 101.482C204.501 101.479 204.51 101.477 204.519 101.477C204.536 101.477 204.554 101.484 204.567 101.497C204.58 101.51 204.588 101.528 204.589 101.548C204.589 101.85 206.27 131.801 207.097 145.337C207.859 157.794 211.912 198.873 211.95 199.318C211.951 199.328 211.951 199.338 211.949 199.347C211.946 199.357 211.942 199.366 211.937 199.374C211.931 199.382 211.924 199.388 211.916 199.393C211.908 199.397 211.899 199.4 211.89 199.401V199.389Z" fill="black"/>
<path d="M196.717 41.6994C196.717 42.0612 196.511 42.3519 196.293 42.3519C196.076 42.3519 195.918 42.0612 195.94 41.6994C195.961 41.3375 196.146 41.0469 196.364 41.0469C196.581 41.0469 196.739 41.3435 196.717 41.6994Z" fill="#263238"/>
<path d="M192.988 41.6994C192.988 42.0612 192.775 42.3519 192.563 42.3519C192.351 42.3519 192.188 42.0612 192.204 41.6994C192.221 41.3375 192.416 41.0469 192.634 41.0469C192.852 41.0469 193.009 41.3435 192.988 41.6994Z" fill="#263238"/>
<path d="M194.163 41.8828C193.709 42.9878 193.123 44.0228 192.422 44.9615C192.966 45.5547 193.983 45.2818 193.983 45.2818L194.163 41.8828Z" fill="#DF5753"/>
<path d="M194.265 46.7941C194.252 46.7941 194.239 46.7913 194.228 46.7859C194.216 46.7804 194.206 46.7725 194.197 46.7625C194.188 46.7525 194.182 46.7406 194.177 46.7277C194.173 46.7148 194.171 46.701 194.172 46.6873C194.173 46.6584 194.185 46.6313 194.204 46.6114C194.223 46.5915 194.249 46.5805 194.275 46.5805C194.691 46.5837 195.103 46.4851 195.479 46.2921C195.856 46.0992 196.188 45.8166 196.451 45.4653C196.47 45.4474 196.494 45.4375 196.519 45.4375C196.544 45.4375 196.569 45.4474 196.587 45.4653C196.605 45.4852 196.615 45.5118 196.615 45.5395C196.615 45.5671 196.605 45.5937 196.587 45.6136C196.306 45.987 195.951 46.2868 195.549 46.4911C195.147 46.6954 194.708 46.7989 194.265 46.7941Z" fill="#263238"/>
<path d="M197.384 40.6084C197.358 40.623 197.329 40.6306 197.3 40.6306C197.27 40.6306 197.242 40.623 197.215 40.6084C197.012 40.465 196.78 40.3757 196.539 40.3479C196.298 40.3201 196.055 40.3545 195.828 40.4483C195.806 40.4603 195.782 40.4674 195.757 40.4691C195.733 40.4709 195.708 40.4672 195.685 40.4584C195.661 40.4495 195.64 40.4357 195.622 40.4176C195.603 40.3996 195.588 40.3777 195.578 40.3534C195.558 40.3006 195.557 40.2413 195.577 40.1881C195.596 40.1349 195.634 40.092 195.681 40.0686C195.966 39.942 196.274 39.892 196.58 39.923C196.886 39.954 197.18 40.065 197.438 40.2466C197.459 40.262 197.477 40.2819 197.491 40.3049C197.505 40.3279 197.514 40.3537 197.519 40.3808C197.523 40.4078 197.523 40.4356 197.517 40.4624C197.512 40.4893 197.502 40.5147 197.487 40.5373C197.46 40.5713 197.424 40.596 197.384 40.6084Z" fill="#263238"/>
<path d="M191.547 39.4222C191.518 39.4145 191.492 39.3981 191.471 39.3747C191.453 39.3554 191.439 39.3323 191.429 39.3068C191.419 39.2814 191.414 39.254 191.414 39.2264C191.414 39.1988 191.419 39.1714 191.429 39.146C191.439 39.1205 191.453 39.0974 191.471 39.0781C191.68 38.8231 191.939 38.6241 192.23 38.4965C192.521 38.3689 192.834 38.3162 193.147 38.3425C193.172 38.3468 193.196 38.3565 193.217 38.3712C193.239 38.386 193.257 38.4053 193.271 38.4281C193.286 38.4509 193.295 38.4767 193.3 38.5038C193.305 38.5309 193.305 38.5588 193.299 38.5858C193.287 38.6407 193.258 38.6891 193.216 38.7218C193.174 38.7546 193.122 38.7695 193.071 38.7637C192.823 38.7467 192.576 38.7913 192.347 38.8941C192.118 38.9969 191.913 39.1551 191.749 39.3569C191.724 39.3869 191.692 39.4089 191.656 39.4204C191.621 39.4319 191.583 39.4325 191.547 39.4222Z" fill="#263238"/>
<path d="M212.011 63.6588L206.353 62.0156C206.353 62.0156 200.804 76.9107 198.84 77.8776C196.175 79.2064 189.424 83.8095 186.551 85.9866C186.394 86.7281 186.519 88.6915 186.878 89.2313C191.774 88.2585 201.147 84.3256 203.105 82.3266C207.572 77.7649 212.011 63.6588 212.011 63.6588Z" fill="#E58A7B"/>
<path d="M208.067 210.522C207.791 210.546 207.516 210.464 207.289 210.291C207.219 210.222 207.166 210.134 207.137 210.036C207.107 209.939 207.101 209.834 207.12 209.733C207.124 209.67 207.143 209.609 207.175 209.557C207.208 209.505 207.253 209.463 207.305 209.437C207.762 209.182 209.04 210.065 209.187 210.166C209.203 210.177 209.216 210.193 209.223 210.213C209.23 210.232 209.231 210.253 209.225 210.273C209.221 210.294 209.211 210.313 209.198 210.328C209.185 210.344 209.168 210.356 209.149 210.362C208.795 210.457 208.432 210.511 208.067 210.522ZM207.523 209.597C207.481 209.587 207.439 209.587 207.398 209.597C207.377 209.608 207.359 209.626 207.348 209.648C207.336 209.671 207.331 209.696 207.332 209.721C207.318 209.79 207.32 209.862 207.339 209.93C207.358 209.998 207.394 210.059 207.441 210.107C207.653 210.315 208.186 210.338 208.888 210.19C208.47 209.89 208 209.688 207.506 209.597H207.523Z" fill="#007CCE"/>
<path d="M209.116 210.361C209.102 210.366 209.086 210.366 209.072 210.361C208.664 210.112 207.897 209.134 208.011 208.635C208.029 208.556 208.069 208.486 208.128 208.435C208.186 208.385 208.258 208.357 208.332 208.356C208.405 208.346 208.48 208.353 208.55 208.376C208.621 208.4 208.685 208.439 208.74 208.493C209.192 208.914 209.219 210.207 209.219 210.272C209.222 210.292 209.218 210.312 209.21 210.329C209.201 210.346 209.187 210.36 209.17 210.367C209.152 210.371 209.133 210.369 209.116 210.361ZM208.387 208.552H208.349C208.224 208.552 208.207 208.629 208.202 208.659C208.137 208.95 208.621 209.691 209.023 210.041C209.021 209.54 208.879 209.052 208.615 208.641C208.552 208.581 208.471 208.549 208.387 208.552Z" fill="#007CCE"/>
<path d="M193.618 209.78C193.285 209.907 192.922 209.907 192.589 209.78C192.514 209.736 192.45 209.671 192.403 209.592C192.357 209.513 192.329 209.423 192.323 209.329C192.316 209.271 192.323 209.211 192.343 209.156C192.363 209.101 192.395 209.053 192.437 209.015C192.872 208.588 194.651 209.015 194.852 209.098C194.872 209.103 194.889 209.116 194.9 209.133C194.912 209.15 194.918 209.171 194.918 209.193C194.919 209.215 194.913 209.237 194.903 209.256C194.892 209.275 194.876 209.29 194.858 209.3C194.457 209.497 194.043 209.658 193.618 209.78ZM192.731 209.074C192.669 209.088 192.611 209.119 192.562 209.163C192.545 209.177 192.532 209.197 192.524 209.219C192.516 209.241 192.514 209.265 192.519 209.288C192.522 209.35 192.54 209.41 192.57 209.463C192.601 209.516 192.643 209.56 192.693 209.59C192.981 209.757 193.65 209.626 194.515 209.229C193.933 209.068 193.329 209.016 192.731 209.074Z" fill="#007CCE"/>
<path d="M194.841 209.301H194.797C194.253 209.194 193.165 208.512 193.133 208.002C193.133 207.883 193.182 207.717 193.443 207.622C193.531 207.588 193.625 207.573 193.718 207.579C193.812 207.586 193.903 207.612 193.987 207.658C194.574 207.972 194.884 209.111 194.901 209.164C194.905 209.182 194.904 209.201 194.899 209.219C194.895 209.236 194.886 209.252 194.874 209.265C194.865 209.28 194.854 209.292 194.841 209.301ZM193.552 207.8H193.497C193.329 207.865 193.329 207.942 193.329 207.966C193.329 208.275 194.117 208.838 194.667 209.028C194.54 208.552 194.273 208.134 193.905 207.842C193.796 207.781 193.67 207.766 193.552 207.8Z" fill="#007CCE"/>
<path d="M187.012 85.6406L181.338 88.488L180.68 90.2675L182.774 91.8039C182.774 91.8039 186.691 91.3412 187.806 88.5947L187.012 85.6406Z" fill="#E58A7B"/>
<path d="M187.258 89.3352C187.132 88.1465 186.772 87.0014 186.203 85.9778L187.101 85.2422C187.776 86.4216 188.207 87.7477 188.363 89.1276L187.258 89.3352Z" fill="#263238"/>
<path d="M188.225 86.4866C188.345 86.6923 188.404 86.9334 188.394 87.1769C188.384 87.4204 188.305 87.6546 188.168 87.8477C188.032 88.0407 187.844 88.1832 187.631 88.2558C187.417 88.3284 187.188 88.3275 186.975 88.2532C186.763 88.179 186.576 88.0351 186.44 87.8409C186.305 87.6468 186.228 87.412 186.22 87.1684C186.211 86.9248 186.272 86.6842 186.393 86.4795C186.514 86.2747 186.69 86.1156 186.898 86.0239C187.13 85.8947 187.4 85.8709 187.648 85.9575C187.897 86.0442 188.104 86.2343 188.225 86.4866Z" fill="#263238"/>
<path d="M177.508 90.786L178.264 91.6164L183.356 89.2437L181.343 88.4844L177.508 90.786Z" fill="#E58A7B"/>
<path opacity="0.2" d="M199.364 199.211C199.397 199.211 200.137 201.477 200.137 201.477L192.608 204.929L191.422 202.521L199.364 199.211Z" fill="black"/>
<path opacity="0.2" d="M214.756 202.088C214.789 202.088 215.006 204.372 215.006 204.372H206.759L206.172 201.75L214.756 202.088Z" fill="black"/>
<path d="M213.485 61.9543C214.981 67.216 209.133 74.4114 209.133 74.4114L201.055 70.8166C202.012 67.7755 203.116 64.7915 204.362 61.8772C206.843 56.0461 211.973 56.6453 213.485 61.9543Z" fill="#007CCE"/>
<path opacity="0.2" d="M213.485 61.9543C214.981 67.216 209.133 74.4114 209.133 74.4114L201.055 70.8166C202.012 67.7755 203.116 64.7915 204.362 61.8772C206.843 56.0461 211.973 56.6453 213.485 61.9543Z" fill="black"/>
<path d="M133.218 9.23438H129.742V9.84536H133.218V9.23438Z" fill="#007CCE"/>
<path d="M178.218 33.413L177.797 43.5938L178.357 43.6213L178.777 33.4405L178.218 33.413Z" fill="#007CCE"/>
<path d="M177.134 11.9766H112.942L106.969 157.736H171.161L177.134 11.9766Z" fill="#007CCE"/>
<path opacity="0.56" d="M175.22 13.9766H111.028L105.055 159.736H169.247L175.22 13.9766Z" fill="#FAFAFA"/>
<path opacity="0.07" d="M173.303 15.9766H109.111L103.133 161.736H167.325L173.303 15.9766Z" fill="#007CCE"/>
<path d="M165.999 79.5547H111.207L110.75 90.7067H165.542L165.999 79.5547Z" fill="white"/>
<path d="M141.338 71.4141H111.537L111.336 76.4028H141.136L141.338 71.4141Z" fill="#007CCE"/>
<path d="M164.764 109.648H109.973L109.516 120.8H164.307L164.764 109.648Z" fill="white"/>
<path opacity="0.47" d="M154.715 135.859H117.87L117.32 149.224H154.165L154.715 135.859Z" fill="#007CCE"/>
<path d="M152.25 151.307H115.405C115.389 151.312 115.372 151.312 115.356 151.307C115.35 151.29 115.35 151.271 115.356 151.254L115.9 137.883C115.9 137.874 115.901 137.865 115.905 137.857C115.908 137.849 115.913 137.841 115.919 137.835C115.925 137.829 115.932 137.824 115.94 137.821C115.948 137.818 115.957 137.817 115.965 137.818H152.81C152.817 137.814 152.824 137.812 152.832 137.812C152.839 137.812 152.847 137.814 152.854 137.818C152.857 137.825 152.859 137.833 152.859 137.842C152.859 137.85 152.857 137.858 152.854 137.866L152.32 151.266C152.314 151.28 152.304 151.291 152.291 151.299C152.278 151.306 152.264 151.309 152.25 151.307ZM115.47 151.165H152.184L152.728 137.937H116.014L115.47 151.165Z" fill="white"/>
<path d="M134.903 101.508H110.303L110.102 106.502H134.696L134.903 101.508Z" fill="#007CCE"/>
<path d="M154.013 43.5264C153.873 46.7719 152.814 49.8905 150.983 52.4539C149.628 54.3902 147.884 55.9621 145.884 57.049C143.885 58.1359 141.684 58.7089 139.45 58.724C137.645 58.739 135.856 58.3508 134.194 57.5834C132.532 56.816 131.031 55.6856 129.784 54.2619C128.538 52.8381 127.572 51.1511 126.946 49.3048C126.32 47.4585 126.047 45.492 126.144 43.5264C126.336 39.4476 127.949 35.6026 130.654 32.7776C133.358 29.9527 136.951 28.3612 140.696 28.3288C142.503 28.3104 144.294 28.6962 145.958 29.4622C147.622 30.2283 149.125 31.3584 150.373 32.7827C151.621 34.207 152.588 35.8953 153.214 37.7432C153.84 39.5911 154.112 41.5593 154.013 43.5264Z" fill="white"/>
<path d="M155.319 31.5104C155.284 32.3734 155.003 33.2029 154.514 33.8832C154.153 34.3975 153.689 34.815 153.157 35.1039C152.625 35.3927 152.04 35.5454 151.446 35.5501C150.871 35.5539 150.303 35.404 149.793 35.1134C149.283 34.8228 148.845 34.4005 148.519 33.8832C148.088 33.1842 147.874 32.3522 147.91 31.5104C147.963 30.4275 148.392 29.4072 149.111 28.6577C149.83 27.9081 150.784 27.4858 151.778 27.4767C152.258 27.4719 152.733 27.5743 153.175 27.7776C153.618 27.9809 154.017 28.2807 154.349 28.6586C154.68 29.0365 154.938 29.4845 155.105 29.975C155.272 30.4654 155.345 30.988 155.319 31.5104Z" fill="#007CCE"/>
<path d="M117.111 85.1312C117.084 85.6092 116.893 86.0586 116.575 86.3889C116.257 86.7191 115.836 86.9056 115.397 86.9108C115.185 86.9135 114.975 86.8688 114.779 86.7795C114.584 86.6901 114.407 86.5579 114.26 86.3911C114.113 86.2243 113.999 86.0264 113.925 85.8097C113.851 85.593 113.819 85.3621 113.83 85.1312C113.854 84.6522 114.044 84.2012 114.363 83.8703C114.682 83.5395 115.104 83.354 115.544 83.3516C115.756 83.3497 115.966 83.395 116.161 83.4847C116.356 83.5744 116.532 83.7066 116.679 83.8732C116.826 84.0398 116.94 84.2373 117.014 84.4536C117.088 84.67 117.121 84.9005 117.111 85.1312Z" fill="#263238"/>
<path d="M124.441 85.1313C124.416 85.6098 124.225 86.06 123.907 86.3905C123.589 86.7211 123.167 86.9071 122.727 86.9108C122.516 86.9128 122.306 86.8675 122.111 86.7777C121.916 86.688 121.74 86.5557 121.594 86.389C121.448 86.2223 121.334 86.0247 121.261 85.8084C121.187 85.5921 121.155 85.3616 121.166 85.1313C121.19 84.6533 121.38 84.2031 121.697 83.8724C122.014 83.5418 122.435 83.3555 122.874 83.3517C123.086 83.3489 123.297 83.3936 123.492 83.483C123.688 83.5724 123.864 83.7046 124.011 83.8714C124.158 84.0382 124.272 84.236 124.346 84.4527C124.42 84.6694 124.452 84.9004 124.441 85.1313Z" fill="#263238"/>
<path d="M131.782 85.1313C131.757 85.6098 131.566 86.06 131.248 86.3905C130.93 86.7211 130.508 86.9071 130.069 86.9108C129.857 86.9127 129.647 86.8675 129.452 86.7778C129.256 86.6881 129.08 86.5559 128.933 86.3893C128.787 86.2227 128.673 86.0252 128.599 85.8088C128.524 85.5925 128.491 85.3619 128.502 85.1313C128.527 84.6528 128.718 84.2025 129.036 83.872C129.354 83.5415 129.776 83.3554 130.215 83.3517C130.427 83.3489 130.638 83.3936 130.833 83.483C131.029 83.5724 131.206 83.7046 131.352 83.8714C131.499 84.0382 131.613 84.236 131.687 84.4527C131.761 84.6694 131.793 84.9004 131.782 85.1313Z" fill="#263238"/>
<path d="M115.876 115.225C115.85 115.703 115.658 116.152 115.34 116.483C115.022 116.813 114.601 116.999 114.162 117.005C113.951 117.006 113.741 116.961 113.545 116.871C113.35 116.782 113.174 116.65 113.027 116.483C112.881 116.316 112.767 116.119 112.692 115.903C112.618 115.686 112.585 115.456 112.596 115.225C112.62 114.746 112.811 114.296 113.13 113.966C113.448 113.635 113.87 113.449 114.309 113.445C114.521 113.443 114.731 113.489 114.926 113.578C115.121 113.668 115.298 113.8 115.444 113.967C115.591 114.134 115.705 114.331 115.779 114.547C115.853 114.764 115.886 114.994 115.876 115.225Z" fill="#263238"/>
<path d="M123.207 115.225C123.182 115.702 122.992 116.152 122.675 116.482C122.357 116.813 121.937 116.999 121.499 117.005C121.287 117.007 121.076 116.963 120.881 116.873C120.685 116.784 120.508 116.652 120.362 116.485C120.215 116.318 120.101 116.12 120.027 115.903C119.953 115.687 119.921 115.456 119.932 115.225C119.957 114.746 120.148 114.296 120.466 113.966C120.784 113.635 121.206 113.449 121.645 113.445C121.857 113.443 122.067 113.489 122.262 113.578C122.457 113.668 122.633 113.801 122.779 113.967C122.925 114.134 123.038 114.332 123.112 114.548C123.186 114.764 123.218 114.995 123.207 115.225Z" fill="#263238"/>
<path d="M130.563 115.225C130.538 115.704 130.347 116.154 130.029 116.484C129.711 116.815 129.289 117.001 128.85 117.005C128.638 117.006 128.428 116.96 128.234 116.87C128.039 116.78 127.863 116.648 127.716 116.481C127.57 116.315 127.456 116.118 127.381 115.902C127.307 115.686 127.273 115.455 127.283 115.225C127.309 114.747 127.5 114.298 127.818 113.967C128.136 113.637 128.557 113.451 128.996 113.445C129.208 113.443 129.419 113.487 129.614 113.577C129.81 113.666 129.987 113.798 130.133 113.965C130.28 114.132 130.394 114.33 130.468 114.546C130.542 114.763 130.574 114.994 130.563 115.225Z" fill="#263238"/>
<path d="M137.883 115.225C137.857 115.703 137.666 116.152 137.348 116.483C137.03 116.813 136.609 116.999 136.17 117.005C135.958 117.006 135.749 116.96 135.554 116.87C135.359 116.78 135.183 116.648 135.037 116.481C134.89 116.315 134.776 116.117 134.702 115.902C134.627 115.686 134.594 115.455 134.603 115.225C134.629 114.747 134.821 114.298 135.139 113.967C135.457 113.637 135.878 113.451 136.317 113.445C136.529 113.443 136.738 113.489 136.934 113.578C137.129 113.668 137.305 113.8 137.452 113.967C137.599 114.134 137.713 114.331 137.787 114.547C137.861 114.764 137.894 114.994 137.883 115.225Z" fill="#263238"/>
<path d="M145.251 115.225C145.225 115.703 145.034 116.152 144.716 116.483C144.398 116.813 143.977 116.999 143.538 117.005C143.326 117.007 143.115 116.963 142.92 116.873C142.724 116.784 142.548 116.652 142.401 116.485C142.254 116.318 142.14 116.12 142.066 115.903C141.992 115.687 141.96 115.456 141.971 115.225C141.996 114.746 142.187 114.296 142.505 113.966C142.823 113.635 143.245 113.449 143.685 113.445C143.896 113.443 144.106 113.489 144.301 113.578C144.497 113.668 144.673 113.8 144.82 113.967C144.966 114.134 145.08 114.331 145.154 114.547C145.229 114.764 145.262 114.994 145.251 115.225Z" fill="#263238"/>
<path d="M144.133 42.7353C146.41 40.3073 146.531 36.4156 144.403 34.0428C142.275 31.6701 138.704 31.7148 136.427 34.1428C134.151 36.5708 134.03 40.4626 136.158 42.8353C138.285 45.208 141.856 45.1633 144.133 42.7353Z" fill="#007CCE"/>
<path d="M150.981 52.4565C149.625 54.3928 147.881 55.9647 145.882 57.0516C143.883 58.1384 141.682 58.7114 139.448 58.7265C137.282 58.7466 135.144 58.1851 133.224 57.0917C131.304 55.9982 129.66 54.4064 128.438 52.4565C131.081 49.5854 135.265 47.7109 139.9 47.7109C144.534 47.7109 148.571 49.5854 150.981 52.4565Z" fill="#007CCE"/>
<path opacity="0.1" d="M144.133 42.7353C146.41 40.3073 146.531 36.4156 144.403 34.0428C142.275 31.6701 138.704 31.7148 136.427 34.1428C134.151 36.5708 134.03 40.4626 136.158 42.8353C138.285 45.208 141.856 45.1633 144.133 42.7353Z" fill="white"/>
<path opacity="0.1" d="M150.981 52.4565C149.625 54.3928 147.881 55.9647 145.882 57.0516C143.883 58.1384 141.682 58.7114 139.448 58.7265C137.282 58.7466 135.144 58.1851 133.224 57.0917C131.304 55.9982 129.66 54.4064 128.438 52.4565C131.081 49.5854 135.265 47.7109 139.9 47.7109C144.534 47.7109 148.571 49.5854 150.981 52.4565Z" fill="white"/>
<path d="M70.9423 93.3952C70.4255 94.629 69.8815 95.9874 69.4082 97.3043C68.9349 98.6212 68.4507 99.9796 68.0319 101.332C67.1766 103.998 66.5252 106.736 66.0843 109.518L65.9647 110.39C65.9532 110.54 65.9661 110.69 66.0027 110.835C66.1311 111.327 66.3333 111.792 66.6011 112.211C67.2997 113.297 68.1102 114.292 69.0165 115.177C69.9721 116.146 70.9745 117.059 72.0194 117.912C73.0639 118.79 74.1627 119.644 75.2453 120.451L74.228 122.533C71.643 121.305 69.1894 119.771 66.9112 117.959C65.6958 116.993 64.5989 115.86 63.6472 114.59C63.0831 113.834 62.6433 112.977 62.3471 112.057C62.1748 111.482 62.0867 110.882 62.0859 110.277C62.0859 110.135 62.0859 109.927 62.0859 109.827V109.536L62.1403 108.943C62.4522 105.852 63.0482 102.804 63.9192 99.8432C64.3435 98.3839 64.7951 96.9306 65.3119 95.5129C65.8287 94.0951 66.3618 92.7071 67.02 91.2656L70.9423 93.3952Z" fill="#E58A7B"/>
<path d="M74.4806 120.085L78.3267 117.961L77.3311 122.564C77.3311 122.564 74.6928 123.371 73.4688 121.971L74.4806 120.085Z" fill="#E58A7B"/>
<path d="M81.8433 118.714L80.8206 122.523L77.3281 122.564L78.3236 117.961L81.8433 118.714Z" fill="#E58A7B"/>
<path d="M87.2765 71.1875C87.4822 72.0096 87.7686 72.8051 88.1306 73.5603C88.0248 73.6911 87.8886 73.7882 87.7363 73.8415C87.5841 73.8947 87.4214 73.9021 87.2656 73.8628L87.2765 71.1875Z" fill="#DF5753"/>
<path d="M87.158 71.2237C87.3833 71.2237 87.566 70.9183 87.566 70.5416C87.566 70.1648 87.3833 69.8594 87.158 69.8594C86.9327 69.8594 86.75 70.1648 86.75 70.5416C86.75 70.9183 86.9327 71.2237 87.158 71.2237Z" fill="#263238"/>
<path d="M87.0391 69.8801L87.8659 69.625C87.8659 69.625 87.4634 70.325 87.0391 69.8801Z" fill="#263238"/>
<path d="M76.6505 75.5391C77.1456 78.2974 77.6406 83.3574 75.8672 85.2022C75.8672 85.2022 76.5635 88.0021 81.2691 88.0021C86.4425 88.0021 83.7389 85.2022 83.7389 85.2022C80.9155 84.4666 80.9862 82.1828 81.4813 80.0355L76.6505 75.5391Z" fill="#E58A7B"/>
<path d="M75.2715 69.2487C75.5326 73.8578 75.5544 75.8154 77.6869 78.1822C80.9019 81.7414 86.0373 80.3889 87.0437 75.8094C87.9521 71.6571 87.3755 64.8235 83.2357 62.9905C82.3269 62.5823 81.3378 62.4337 80.3616 62.5586C79.3855 62.6835 78.4548 63.0779 77.6575 63.7044C76.8601 64.331 76.2225 65.169 75.805 66.1391C75.3875 67.1093 75.2039 68.1796 75.2715 69.2487Z" fill="#E58A7B"/>
<path d="M75.6904 64.0684C73.5688 64.9107 70.74 64.2819 71.8498 71.418C73.0248 78.9753 71.2188 81.4608 71.2188 81.4608C71.2188 81.4608 79.2645 83.3294 87.4789 81.3481C87.4789 81.3481 84.9711 76.567 85.6728 73.0434C86.5704 68.5944 85.8632 66.9513 85.8632 66.9513C85.8632 66.9513 78.6716 62.882 75.6904 64.0684Z" fill="#263238"/>
<path d="M84.6641 71.657C84.6663 72.5334 84.8964 73.3911 85.3277 74.1306C85.9044 75.0916 86.5844 74.7238 86.753 73.7035C86.9053 72.8078 86.7911 71.2239 86.0567 70.607C85.3223 69.9901 84.6749 70.5951 84.6641 71.657Z" fill="#E58A7B"/>
<path d="M73.845 64.8452C73.2357 62.9766 76.1407 60.0997 82.2879 61.286C88.4351 62.4724 88.7017 68.0544 88.7017 68.0544L87.4613 66.4409L87.5157 68.1374L81.1999 69.4602L73.845 64.8452Z" fill="#263238"/>
<path d="M74.3695 85.5166C74.3332 85.2458 74.3954 84.9702 74.5427 84.7486C74.69 84.527 74.9109 84.3769 75.1583 84.3303C77.0732 83.9862 81.4252 83.2862 83.612 83.6184C85.244 83.8676 85.6684 84.8997 85.7391 85.748C85.7502 85.8965 85.7319 86.0459 85.6857 86.1861C85.6394 86.3264 85.5661 86.4541 85.4708 86.5609C85.3754 86.6677 85.2602 86.751 85.1329 86.8051C85.0056 86.8593 84.8691 86.8832 84.7327 86.8751L75.278 86.4124C75.0551 86.4001 74.8429 86.3042 74.6774 86.141C74.5118 85.9778 74.4031 85.7572 74.3695 85.5166Z" fill="#007CCE"/>
<path opacity="0.6" d="M74.3695 85.5166C74.3332 85.2458 74.3954 84.9702 74.5427 84.7486C74.69 84.527 74.9109 84.3769 75.1583 84.3303C77.0732 83.9862 81.4252 83.2862 83.612 83.6184C85.244 83.8676 85.6684 84.8997 85.7391 85.748C85.7502 85.8965 85.7319 86.0459 85.6857 86.1861C85.6394 86.3264 85.5661 86.4541 85.4708 86.5609C85.3754 86.6677 85.2602 86.751 85.1329 86.8051C85.0056 86.8593 84.8691 86.8832 84.7327 86.8751L75.278 86.4124C75.0551 86.4001 74.8429 86.3042 74.6774 86.141C74.5118 85.9778 74.4031 85.7572 74.3695 85.5166Z" fill="black"/>
<path d="M79.8359 189.149L83.3447 191.807L89.2145 183.128L85.7057 180.477L79.8359 189.149Z" fill="#E58A7B"/>
<path d="M71.6562 188.974L75.3609 191.275L80.5561 182.098L76.8515 179.797L71.6562 188.974Z" fill="#E58A7B"/>
<path d="M89.2053 183.128L86.1807 187.601L82.6719 184.949L85.6965 180.477L89.2053 183.128Z" fill="#CF6F64"/>
<path d="M76.8484 179.797L80.5584 182.104L77.882 186.832L74.1719 184.525L76.8484 179.797Z" fill="#CF6F64"/>
<path d="M82.7955 114.492C82.7955 114.492 96.4934 133.314 93.9203 151.318C91.8477 165.857 79.8253 185.545 79.8253 185.545L74.1731 182.484C78.1571 173.779 81.5569 164.771 84.3459 155.529C85.206 152.66 85.457 149.616 85.08 146.625C84.7031 143.635 83.708 140.777 82.1699 138.267C75.2285 127.216 64.1091 133.795 71.5891 114.492H82.7955Z" fill="#007CCE"/>
<path opacity="0.6" d="M82.7955 114.492C82.7955 114.492 96.4934 133.314 93.9203 151.318C91.8477 165.857 79.8253 185.545 79.8253 185.545L74.1731 182.484C78.1571 173.779 81.5569 164.771 84.3459 155.529C85.206 152.66 85.457 149.616 85.08 146.625C84.7031 143.635 83.708 140.777 82.1699 138.267C75.2285 127.216 64.1091 133.795 71.5891 114.492H82.7955Z" fill="black"/>
<path opacity="0.4" d="M89.5145 126.581L87.5234 124.422C87.5234 124.594 91.3804 150.558 92.463 157.854C93.1018 155.723 93.591 153.541 93.9263 151.329C95.1993 142.496 92.5391 133.474 89.5145 126.581Z" fill="black"/>
<path d="M88.906 114.492C88.906 114.492 105.4 138.149 105.868 152.332C106.254 164.196 87.9159 187.182 87.9159 187.182L82.5847 183.421C82.5847 183.421 93.3178 167.097 96.0215 153.762C94.977 140.545 72.8906 114.492 72.8906 114.492H88.906Z" fill="#007CCE"/>
<path opacity="0.6" d="M88.906 114.492C88.906 114.492 105.4 138.149 105.868 152.332C106.254 164.196 87.9159 187.182 87.9159 187.182L82.5847 183.421C82.5847 183.421 93.3178 167.097 96.0215 153.762C94.977 140.545 72.8906 114.492 72.8906 114.492H88.906Z" fill="black"/>
<path d="M68.5013 86.2613C66.7387 86.7181 65.0469 93.7059 65.0469 93.7059L71.9394 98.7243C71.9394 98.7243 74.235 93.1957 73.4299 90.7755C72.5976 88.2544 70.7154 85.6859 68.5013 86.2613Z" fill="#007CCE"/>
<path opacity="0.2" d="M69.8537 90.7656L69.375 96.8577L71.9372 98.7322C72.6447 96.9954 73.1685 95.1764 73.4985 93.3104L69.8537 90.7656Z" fill="black"/>
<path d="M90.9454 86.3929C90.9454 86.3929 92.98 87.1699 88.9054 114.481H71.5736C71.8674 106.769 71.8728 102.024 68.5 86.2564C70.9268 85.7111 73.3867 85.3582 75.8603 85.2005C78.4809 84.9957 81.1115 84.9957 83.732 85.2005C87.1157 85.5387 90.9454 86.3929 90.9454 86.3929Z" fill="#007CCE"/>
<path d="M92.7173 90.7598C93.1089 91.9461 93.5224 93.2215 93.9576 94.4494C94.3928 95.6773 94.8062 96.9408 95.2469 98.1865L96.5797 101.912L96.9169 102.843L97.091 103.306L97.1726 103.537C97.1726 103.579 97.1726 103.579 97.1726 103.573C97.0732 103.42 96.9429 103.294 96.7918 103.205C96.5766 103.067 96.334 102.987 96.0846 102.974C95.8774 102.967 95.6713 103.009 95.4808 103.098C95.2305 103.223 95.2305 103.276 95.236 103.27C95.2812 103.231 95.3215 103.185 95.3557 103.134C95.6568 102.703 95.9174 102.24 96.1336 101.752C96.3893 101.206 96.6341 100.625 96.8789 100.037C97.3576 98.8509 97.7982 97.623 98.2389 96.3832C98.6795 95.1435 99.0984 93.8918 99.5064 92.6283L100.747 88.8438L102.841 89.4369C102.428 92.1419 101.895 94.7757 101.253 97.4569C100.943 98.7916 100.578 100.114 100.165 101.449C99.9579 102.119 99.7294 102.784 99.4683 103.466C99.1961 104.206 98.861 104.917 98.4673 105.59C98.3227 105.816 98.1626 106.03 97.9886 106.23C97.7108 106.557 97.3737 106.818 96.9985 106.995C96.6657 107.151 96.3052 107.224 95.9432 107.209C95.5377 107.193 95.1427 107.064 94.7953 106.835C94.3855 106.556 94.0454 106.171 93.8053 105.714C93.7237 105.56 93.6529 105.406 93.604 105.293L93.5006 105.068L93.2939 104.605L92.8805 103.685C92.3365 102.452 91.7925 101.206 91.3192 99.9543C90.8459 98.7026 90.3454 97.4332 89.8776 96.1578C89.4098 94.8825 88.9909 93.6071 88.5938 92.2309L92.7173 90.7598Z" fill="#E58A7B"/>
<path d="M90.9499 86.3965C93.0334 86.9363 95.3781 93.6512 95.3781 93.6512L89.1819 99.3993C89.1819 99.3993 85.1726 92.0793 85.9832 89.665C86.8264 87.1498 88.2299 85.6906 90.9499 86.3965Z" fill="#007CCE"/>
<path d="M101.729 86.7235L103.905 84.7422L105.417 87.3107L104.302 89.4521C104.302 89.4521 102.528 91.2317 100.962 90.3241C100.713 89.7147 100.653 89.0334 100.792 88.3836C100.93 87.7338 101.259 87.151 101.729 86.7235Z" fill="#E58A7B"/>
<path d="M107.835 84.7481L107.671 85.3947L104.228 86.0235L103.891 84.7422L107.835 84.7481Z" fill="#E58A7B"/>
<path d="M88.3453 187.482L82.1328 183.104L83.248 180.992L90.2275 185.672L88.3453 187.482Z" fill="#007CCE"/>
<path d="M77.7873 190.969C77.2422 190.896 76.7185 190.694 76.2532 190.376C76.234 190.368 76.2174 190.355 76.2056 190.337C76.1938 190.319 76.1875 190.297 76.1875 190.275C76.1875 190.253 76.1938 190.231 76.2056 190.213C76.2174 190.195 76.234 190.181 76.2532 190.174C76.4219 190.115 77.8852 189.622 78.3096 190.002C78.3573 190.045 78.3935 190.101 78.4145 190.165C78.4356 190.229 78.4406 190.297 78.4292 190.364C78.4217 190.471 78.3892 190.573 78.335 190.663C78.2807 190.752 78.2064 190.825 78.1192 190.874C78.0173 190.935 77.9034 190.967 77.7873 190.969ZM76.5633 190.316C77.2433 190.696 77.7873 190.832 78.0484 190.69C78.1053 190.656 78.1531 190.606 78.1874 190.546C78.2217 190.486 78.2413 190.417 78.2443 190.346C78.2443 190.251 78.2443 190.21 78.1953 190.186C77.9668 189.984 77.1508 190.138 76.5524 190.316H76.5633Z" fill="#263238"/>
<path d="M76.2916 190.421C76.2629 190.42 76.2355 190.408 76.2155 190.385C76.2074 190.369 76.2031 190.351 76.2031 190.332C76.2031 190.313 76.2074 190.295 76.2155 190.279C76.2155 190.225 76.5691 188.938 77.1239 188.647C77.1948 188.612 77.2718 188.594 77.3497 188.594C77.4276 188.594 77.5046 188.612 77.5755 188.647C77.6519 188.674 77.718 188.727 77.7633 188.799C77.8087 188.871 77.8306 188.957 77.8257 189.045C77.7876 189.579 76.7921 190.314 76.3351 190.439L76.2916 190.421ZM77.347 188.801C77.2941 188.803 77.2421 188.817 77.1947 188.843C76.8574 189.021 76.5799 189.715 76.4439 190.136C76.9227 189.917 77.5809 189.335 77.6027 189.009C77.6027 188.956 77.6027 188.89 77.4775 188.831C77.4368 188.807 77.3927 188.791 77.347 188.784V188.801Z" fill="#263238"/>
<path d="M85.5488 193.533C84.9341 193.533 84.08 192.673 83.6121 192.145C83.6002 192.127 83.5938 192.105 83.5938 192.083C83.5938 192.06 83.6002 192.039 83.6121 192.02C83.6229 192.001 83.6381 191.986 83.6563 191.975C83.6745 191.965 83.695 191.96 83.7155 191.961C83.9331 191.961 85.8208 192.27 86.0873 192.851C86.1156 192.903 86.1305 192.962 86.1305 193.023C86.1305 193.083 86.1156 193.143 86.0873 193.195C86.0474 193.285 85.987 193.363 85.9118 193.422C85.8366 193.48 85.7491 193.516 85.6576 193.527L85.5488 193.533ZM83.9712 192.228C84.6566 192.952 85.2605 193.355 85.6032 193.308C85.6632 193.299 85.7204 193.275 85.7697 193.236C85.819 193.198 85.859 193.147 85.8861 193.088C85.8982 193.068 85.9047 193.044 85.9047 193.02C85.9047 192.996 85.8982 192.972 85.8861 192.952C85.7446 192.631 84.7382 192.359 83.9712 192.228Z" fill="#263238"/>
<path d="M84.0311 192.198C83.909 192.202 83.7869 192.192 83.6666 192.168C83.6499 192.165 83.634 192.158 83.6206 192.147C83.6073 192.135 83.5969 192.12 83.5905 192.103C83.5824 192.085 83.5781 192.066 83.5781 192.047C83.5781 192.027 83.5824 192.008 83.5905 191.99C83.6231 191.949 84.3575 190.982 85.0538 190.917C85.251 190.9 85.4462 190.968 85.5978 191.106C85.81 191.308 85.7991 191.486 85.7447 191.599C85.6087 192.002 84.6676 192.198 84.0311 192.198ZM83.8897 191.978C84.499 192.014 85.4727 191.794 85.5978 191.504C85.5978 191.504 85.6414 191.409 85.4999 191.278C85.4436 191.225 85.3779 191.185 85.3068 191.16C85.2356 191.136 85.1607 191.128 85.0865 191.136C84.6174 191.279 84.1998 191.575 83.8897 191.984V191.978Z" fill="#263238"/>
<path d="M76.4402 189.775L71.8271 188.352C71.7476 188.325 71.662 188.332 71.5867 188.37C71.5114 188.409 71.4517 188.476 71.4191 188.559L69.8632 192.374C69.8267 192.471 69.8096 192.576 69.8129 192.682C69.8163 192.787 69.84 192.891 69.8827 192.985C69.9253 193.08 69.9859 193.164 70.0604 193.231C70.1348 193.298 70.2215 193.348 70.3148 193.376C71.9468 193.839 72.7301 193.969 74.7592 194.604C76.0104 194.984 77.7948 195.69 79.5192 196.223C81.2437 196.757 81.8204 194.924 81.1512 194.533C78.1266 192.789 77.8873 191.567 77.0604 190.262C76.9123 190.025 76.6928 189.853 76.4402 189.775Z" fill="#007CCE"/>
<path d="M83.7427 191.451L79.8042 188.485C79.7374 188.432 79.6551 188.407 79.5729 188.416C79.4906 188.425 79.4142 188.466 79.3581 188.532L76.7469 191.593C76.6833 191.672 76.6358 191.765 76.6077 191.866C76.5795 191.966 76.5714 192.072 76.5837 192.177C76.5961 192.281 76.6286 192.381 76.6793 192.471C76.7299 192.561 76.7975 192.637 76.8775 192.696C78.2647 193.711 78.9827 194.12 80.7181 195.431C81.8061 196.238 83.9114 198.029 85.3802 199.144C86.849 200.259 87.9424 198.729 87.4202 198.124C85.081 195.401 84.5696 193.693 84.1834 192.145C84.1163 191.864 83.9602 191.618 83.7427 191.451Z" fill="#007CCE"/>
<path d="M80.5523 185.934L73.4531 182.084L74.1875 179.984L81.7709 184.042L80.5523 185.934Z" fill="#007CCE"/>
<path d="M71.3154 113.376L70.717 115.085C70.6571 115.215 70.7986 115.351 70.9999 115.351H88.9954C89.1531 115.351 89.2837 115.268 89.2946 115.162L89.4469 113.465C89.4469 113.352 89.3218 113.252 89.1531 113.252H71.5983C71.5454 113.246 71.4921 113.255 71.4429 113.276C71.3937 113.298 71.35 113.332 71.3154 113.376Z" fill="#007CCE"/>
<path opacity="0.4" d="M71.3154 113.376L70.717 115.085C70.6571 115.215 70.7986 115.351 70.9999 115.351H88.9954C89.1531 115.351 89.2837 115.268 89.2946 115.162L89.4469 113.465C89.4469 113.352 89.3218 113.252 89.1531 113.252H71.5983C71.5454 113.246 71.4921 113.255 71.4429 113.276C71.3937 113.298 71.35 113.332 71.3154 113.376Z" fill="white"/>
<path d="M74.147 115.518H73.6737C73.5812 115.518 73.5105 115.465 73.5159 115.399L73.739 113.199C73.739 113.139 73.826 113.086 73.9185 113.086H74.3918C74.4842 113.086 74.555 113.139 74.5495 113.199L74.3265 115.399C74.321 115.465 74.2394 115.518 74.147 115.518Z" fill="#007CCE"/>
<path d="M85.2509 115.518H84.7831C84.6906 115.518 84.6199 115.465 84.6253 115.399L84.8429 113.199C84.8429 113.139 84.9354 113.086 85.0279 113.086H85.4957C85.5882 113.086 85.6643 113.139 85.6535 113.199L85.4359 115.399C85.4087 115.465 85.3488 115.518 85.2509 115.518Z" fill="#007CCE"/>
<g style="mix-blend-mode:multiply">
<path d="M73.7378 215.973C81.7867 215.973 88.3116 215.458 88.3116 214.823C88.3116 214.187 81.7867 213.672 73.7378 213.672C65.689 213.672 59.1641 214.187 59.1641 214.823C59.1641 215.458 65.689 215.973 73.7378 215.973Z" fill="#F5F5F5"/>
</g>
<path d="M82.62 213.2C80.0415 212.381 77.18 211.331 75.4501 210.234C75.4011 210.198 75.3467 210.181 75.2978 210.151V197.421H80.5147C80.9108 197.396 81.2829 197.206 81.555 196.891C81.8271 196.576 81.9786 196.16 81.9786 195.728C81.9786 195.295 81.8271 194.879 81.555 194.564C81.2829 194.249 80.9108 194.06 80.5147 194.034H75.325V136.008H72.1915V194.034H67.0072C66.7955 194.02 66.5835 194.054 66.3842 194.133C66.1849 194.212 66.0024 194.334 65.8481 194.493C65.6938 194.652 65.5709 194.843 65.4868 195.055C65.4028 195.268 65.3594 195.496 65.3594 195.728C65.3594 195.959 65.4028 196.188 65.4868 196.4C65.5709 196.612 65.6938 196.804 65.8481 196.962C66.0024 197.121 66.1849 197.243 66.3842 197.322C66.5835 197.401 66.7955 197.435 67.0072 197.421H72.1915V210.133C72.1426 210.133 72.0936 210.181 72.0447 210.216C70.2875 211.331 67.4479 212.381 64.8693 213.182C64.6951 213.24 64.5455 213.363 64.4477 213.531C64.3498 213.698 64.3101 213.898 64.3357 214.094C64.3614 214.291 64.4507 214.471 64.5875 214.601C64.7243 214.732 64.8995 214.805 65.0815 214.808H82.4079C82.5817 214.795 82.7463 214.717 82.8741 214.588C83.0018 214.459 83.0851 214.285 83.1099 214.097C83.1347 213.909 83.0996 213.718 83.0105 213.554C82.9213 213.391 82.7835 213.266 82.62 213.2Z" fill="#E0E0E0"/>
<path d="M83.4126 130.094H64.0679C62.5116 130.094 61.25 131.469 61.25 133.166V139.437C61.25 141.134 62.5116 142.509 64.0679 142.509H83.4126C84.9689 142.509 86.2305 141.134 86.2305 139.437V133.166C86.2305 131.469 84.9689 130.094 83.4126 130.094Z" fill="#007CCE"/>
<path d="M63.8906 142.516V143.595C63.8906 144.485 64.7773 145.209 65.8653 145.209H81.6413C82.7293 145.209 83.6161 144.485 83.6161 143.595V142.516H63.8906Z" fill="#007CCE"/>
<path opacity="0.3" d="M63.8906 142.516V143.595C63.8906 144.485 64.7773 145.209 65.8653 145.209H81.6413C82.7293 145.209 83.6161 144.485 83.6161 143.595V142.516H63.8906Z" fill="white"/>
</svg>
