<svg width="15" height="16" viewBox="0 0 15 16" fill="none" xmlns="http://www.w3.org/2000/svg">
<path d="M15 7.0625H13.125V5.1875H12.1875V7.0625H10.3125V8H12.1875V9.875H13.125V8H15V7.0625ZM5.625 2.375C6.08855 2.375 6.54169 2.51246 6.92712 2.76999C7.31255 3.02753 7.61295 3.39357 7.79034 3.82184C7.96774 4.2501 8.01415 4.72135 7.92372 5.17599C7.83328 5.63064 7.61006 6.04825 7.28228 6.37603C6.9545 6.70381 6.53689 6.92703 6.08224 7.01747C5.6276 7.1079 5.15635 7.06149 4.72809 6.88409C4.29982 6.7067 3.93378 6.4063 3.67624 6.02087C3.41871 5.63544 3.28125 5.1823 3.28125 4.71875C3.28125 4.09715 3.52818 3.50101 3.96772 3.06147C4.40726 2.62193 5.0034 2.375 5.625 2.375ZM5.625 1.4375C4.97603 1.4375 4.34163 1.62994 3.80204 1.99049C3.26244 2.35104 2.84187 2.8635 2.59352 3.46307C2.34517 4.06264 2.28019 4.72239 2.4068 5.35889C2.53341 5.99539 2.84591 6.58005 3.30481 7.03894C3.7637 7.49784 4.34836 7.81034 4.98486 7.93695C5.62136 8.06356 6.28111 7.99858 6.88068 7.75023C7.48025 7.50188 7.99271 7.08131 8.35326 6.54171C8.71381 6.00212 8.90625 5.36772 8.90625 4.71875C8.90625 3.84851 8.56055 3.01391 7.94519 2.39856C7.32984 1.7832 6.49524 1.4375 5.625 1.4375ZM10.3125 14.5625H9.375V12.2188C9.375 11.5971 9.12807 11.001 8.68853 10.5615C8.24899 10.1219 7.65285 9.875 7.03125 9.875H4.21875C3.59715 9.875 3.00101 10.1219 2.56147 10.5615C2.12193 11.001 1.875 11.5971 1.875 12.2188V14.5625H0.9375V12.2188C0.9375 11.3485 1.2832 10.5139 1.89856 9.89856C2.51391 9.2832 3.34851 8.9375 4.21875 8.9375H7.03125C7.90149 8.9375 8.73609 9.2832 9.35144 9.89856C9.9668 10.5139 10.3125 11.3485 10.3125 12.2188V14.5625Z" fill="#121212" fill-opacity="0.5"/>
</svg>
