<svg width="15" height="16" viewBox="0 0 15 16" fill="none" xmlns="http://www.w3.org/2000/svg">
<path d="M13.75 4.25H8.75M1.25 4.25C1.25 3.375 1.25 2.9375 1.42 2.60313C1.56983 2.30897 1.80897 2.06983 2.10313 1.92C2.4375 1.75 2.875 1.75 3.75 1.75C4.625 1.75 5.0625 1.75 5.39688 1.92C5.69103 2.06983 5.93017 2.30897 6.08 2.60313C6.25 2.9375 6.25 3.375 6.25 4.25C6.25 5.125 6.25 5.5625 6.08 5.89688C5.93017 6.19103 5.69103 6.43017 5.39688 6.58C5.0625 6.75 4.625 6.75 3.75 6.75C2.875 6.75 2.4375 6.75 2.10313 6.58C1.80897 6.43017 1.56983 6.19103 1.42 5.89688C1.25 5.5625 1.25 5.125 1.25 4.25ZM1.25 11.75C1.25 10.875 1.25 10.4375 1.42 10.1031C1.56993 9.8092 1.80907 9.57029 2.10313 9.42062C2.4375 9.25 2.875 9.25 3.75 9.25C4.625 9.25 5.0625 9.25 5.39688 9.42062C5.69093 9.57029 5.93007 9.8092 6.08 10.1031C6.25 10.4375 6.25 10.875 6.25 11.75C6.25 12.625 6.25 13.0625 6.08 13.3969C5.93007 13.6908 5.69093 13.9297 5.39688 14.0794C5.0625 14.25 4.625 14.25 3.75 14.25C2.875 14.25 2.4375 14.25 2.10313 14.0794C1.80907 13.9297 1.56993 13.6908 1.42 13.3969C1.25 13.0625 1.25 12.625 1.25 11.75ZM8.75 11.75C8.75 10.875 8.75 10.4375 8.92062 10.1031C9.0704 9.8093 9.3093 9.5704 9.60312 9.42062C9.9375 9.25 10.375 9.25 11.25 9.25C12.125 9.25 12.5625 9.25 12.8969 9.42062C13.1907 9.5704 13.4296 9.8093 13.5794 10.1031C13.75 10.4375 13.75 10.875 13.75 11.75C13.75 12.625 13.75 13.0625 13.5794 13.3969C13.4296 13.6907 13.1907 13.9296 12.8969 14.0794C12.5625 14.25 12.125 14.25 11.25 14.25C10.375 14.25 9.9375 14.25 9.60312 14.0794C9.3093 13.9296 9.0704 13.6907 8.92062 13.3969C8.75 13.0625 8.75 12.625 8.75 11.75Z" stroke="#121212" stroke-opacity="0.5" stroke-width="1.5" stroke-linecap="round" stroke-linejoin="round"/>
</svg>
