<svg width="15" height="16" viewBox="0 0 15 16" fill="none" xmlns="http://www.w3.org/2000/svg">
<g clip-path="url(#clip0_4583_63210)">
<path d="M7.68 0.5C10.0387 0.5 12.2227 1.54625 13.671 3.308C13.7123 3.35794 13.7431 3.41567 13.7615 3.47775C13.78 3.53983 13.7859 3.605 13.7786 3.66938C13.7714 3.73375 13.7514 3.79602 13.7196 3.85248C13.6878 3.90893 13.645 3.95842 13.5937 3.998C13.4894 4.07983 13.3572 4.11776 13.2253 4.10376C13.0934 4.08976 12.9721 4.02492 12.8872 3.923C12.254 3.15588 11.4584 2.5389 10.5577 2.1166C9.65711 1.6943 8.67396 1.47721 7.67925 1.481C3.993 1.481 1.00425 4.4 1.00425 8C1.00425 11.6 3.993 14.519 7.67925 14.519C8.68831 14.523 9.6853 14.2996 10.5962 13.8656C11.5072 13.4315 12.3087 12.7979 12.9412 12.0118C13.0247 11.9088 13.145 11.8424 13.2766 11.8265C13.4082 11.8107 13.5408 11.8467 13.6462 11.927C13.698 11.9659 13.7414 12.0148 13.7738 12.0708C13.8063 12.1268 13.8272 12.1888 13.8352 12.253C13.8432 12.3172 13.8383 12.3824 13.8207 12.4447C13.803 12.5069 13.773 12.565 13.7325 12.6155C12.2865 14.423 10.0732 15.5 7.68 15.5C3.43725 15.5 0 12.1423 0 8C0 3.85775 3.438 0.5 7.68 0.5ZM12.8235 5.87L14.853 7.90025C15.0495 8.096 15.0532 8.41025 14.862 8.60225L12.879 10.5845C12.8325 10.6303 12.7774 10.6664 12.7169 10.6908C12.6564 10.7152 12.5917 10.7274 12.5264 10.7267C12.4612 10.726 12.3967 10.7124 12.3368 10.6867C12.2768 10.6611 12.2225 10.6238 12.177 10.577C12.1301 10.5315 12.0926 10.4772 12.0668 10.4172C12.041 10.3572 12.0273 10.2927 12.0265 10.2273C12.0257 10.162 12.0379 10.0972 12.0623 10.0366C12.0867 9.97598 12.1229 9.92081 12.1687 9.87425L13.329 8.714H5.5965C5.53124 8.71499 5.46644 8.70307 5.40581 8.67892C5.34518 8.65477 5.28992 8.61887 5.24322 8.57328C5.19651 8.52769 5.15929 8.47332 5.13368 8.41329C5.10807 8.35326 5.09459 8.28876 5.094 8.2235C5.094 7.952 5.319 7.73225 5.5965 7.73225H13.2983L12.1297 6.56375C12.0829 6.5183 12.0456 6.46404 12.0198 6.40409C11.9941 6.34415 11.9804 6.27971 11.9796 6.21447C11.9789 6.14923 11.991 6.08448 12.0154 6.02395C12.0397 5.96341 12.0758 5.90829 12.1215 5.86175C12.168 5.81603 12.2232 5.77996 12.2837 5.75561C12.3442 5.73127 12.409 5.71913 12.4742 5.71989C12.5395 5.72066 12.6039 5.73432 12.6638 5.76008C12.7238 5.78584 12.778 5.8232 12.8235 5.87Z" fill="#121212" fill-opacity="0.5"/>
</g>
<defs>
<clipPath id="clip0_4583_63210">
<rect width="15" height="15" fill="white" transform="translate(0 0.5)"/>
</clipPath>
</defs>
</svg>
