<svg width="15" height="16" viewBox="0 0 15 16" fill="none" xmlns="http://www.w3.org/2000/svg">
<path d="M2.5 11.75C2.5 11.087 2.76339 10.4511 3.23223 9.98223C3.70107 9.51339 4.33696 9.25 5 9.25H10C10.663 9.25 11.2989 9.51339 11.7678 9.98223C12.2366 10.4511 12.5 11.087 12.5 11.75C12.5 12.0815 12.3683 12.3995 12.1339 12.6339C11.8995 12.8683 11.5815 13 11.25 13H3.75C3.41848 13 3.10054 12.8683 2.86612 12.6339C2.6317 12.3995 2.5 12.0815 2.5 11.75Z" stroke="#121212" stroke-opacity="0.5" stroke-width="1.5" stroke-linejoin="round"/>
<path d="M7.5 6.75C8.53553 6.75 9.375 5.91053 9.375 4.875C9.375 3.83947 8.53553 3 7.5 3C6.46447 3 5.625 3.83947 5.625 4.875C5.625 5.91053 6.46447 6.75 7.5 6.75Z" stroke="#121212" stroke-opacity="0.5" stroke-width="1.5"/>
</svg>
