<svg width="15" height="16" viewBox="0 0 15 16" fill="none" xmlns="http://www.w3.org/2000/svg">
<path d="M9.0625 14.875C8.80208 14.875 8.58083 14.784 8.39875 14.6019C8.21667 14.4198 8.12542 14.1983 8.125 13.9375V9.5625C8.125 9.30208 8.21625 9.08083 8.39875 8.89875C8.58125 8.71667 8.8025 8.62542 9.0625 8.625H13.4375C13.6979 8.625 13.9194 8.71625 14.1019 8.89875C14.2844 9.08125 14.3754 9.3025 14.375 9.5625V13.9375C14.375 14.1979 14.284 14.4194 14.1019 14.6019C13.9198 14.7844 13.6983 14.8754 13.4375 14.875H9.0625ZM5.78125 14.25L5.53125 12.25C5.39583 12.1979 5.26833 12.1354 5.14875 12.0625C5.02917 11.9896 4.91188 11.9115 4.79688 11.8281L2.9375 12.6094L1.21875 9.64062L2.82813 8.42187C2.81771 8.34896 2.8125 8.27875 2.8125 8.21125V7.78937C2.8125 7.72146 2.81771 7.65104 2.82813 7.57812L1.21875 6.35938L2.9375 3.39062L4.79688 4.17188C4.91146 4.08854 5.03125 4.01042 5.15625 3.9375C5.28125 3.86458 5.40625 3.80208 5.53125 3.75L5.78125 1.75H9.21875L9.46875 3.75C9.60417 3.80208 9.73188 3.86458 9.85188 3.9375C9.97188 4.01042 10.089 4.08854 10.2031 4.17188L12.0625 3.39062L13.7812 6.35938L12.4531 7.375H9.625C9.47917 6.92708 9.21875 6.55479 8.84375 6.25813C8.46875 5.96146 8.03125 5.81292 7.53125 5.8125C6.92708 5.8125 6.41146 6.02604 5.98438 6.45312C5.55729 6.88021 5.34375 7.39583 5.34375 8C5.34375 8.5 5.48438 8.9375 5.76563 9.3125C6.04688 9.6875 6.41667 9.94792 6.875 10.0938V14.25H5.78125ZM9.375 13.625H13.125V13.1094C12.8646 12.8698 12.5729 12.6875 12.25 12.5625C11.9271 12.4375 11.5938 12.375 11.25 12.375C10.9062 12.375 10.5729 12.4375 10.25 12.5625C9.92708 12.6875 9.63542 12.8698 9.375 13.1094V13.625ZM11.25 11.75C11.5104 11.75 11.7319 11.659 11.9144 11.4769C12.0969 11.2948 12.1879 11.0733 12.1875 10.8125C12.1871 10.5517 12.096 10.3304 11.9144 10.1487C11.7327 9.96708 11.5113 9.87583 11.25 9.875C10.9888 9.87417 10.7675 9.96542 10.5863 10.1487C10.405 10.3321 10.3138 10.5533 10.3125 10.8125C10.3113 11.0717 10.4025 11.2931 10.5863 11.4769C10.77 11.6606 10.9913 11.7517 11.25 11.75Z" fill="#121212" fill-opacity="0.5"/>
</svg>
