<svg width="15" height="15" viewBox="0 0 15 15" fill="none" xmlns="http://www.w3.org/2000/svg">
<path d="M13.9706 0H1.02941C0.756395 0 0.49456 0.128633 0.301508 0.357602C0.108456 0.586571 0 0.897119 0 1.22093V13.7791C0 14.1029 0.108456 14.4134 0.301508 14.6424C0.49456 14.8714 0.756395 15 1.02941 15H2.01397C2.09746 15 2.17922 14.9718 2.24977 14.9189C2.32031 14.8659 2.37674 14.7903 2.4125 14.7009C2.71042 13.9546 3.18085 13.3241 3.76908 12.8825C4.3573 12.4409 5.03915 12.2065 5.73529 12.2065C6.43144 12.2065 7.11329 12.4409 7.70151 12.8825C8.28974 13.3241 8.76017 13.9546 9.05809 14.7009C9.09385 14.7903 9.15028 14.8659 9.22082 14.9189C9.29137 14.9718 9.37313 15 9.45662 15H13.9706C14.2436 15 14.5054 14.8714 14.6985 14.6424C14.8915 14.4134 15 14.1029 15 13.7791V1.22093C15 0.897119 14.8915 0.586571 14.6985 0.357602C14.5054 0.128633 14.2436 0 13.9706 0ZM3.82353 8.89535C3.82353 8.44689 3.93565 8.0085 4.14572 7.63563C4.35579 7.26275 4.65436 6.97212 5.00369 6.80051C5.35302 6.62889 5.73742 6.58398 6.10826 6.67147C6.47911 6.75896 6.81975 6.97492 7.08712 7.29203C7.35448 7.60913 7.53656 8.01315 7.61032 8.45299C7.68409 8.89283 7.64623 9.34874 7.50153 9.76306C7.35684 10.1774 7.1118 10.5315 6.79741 10.7807C6.48303 11.0298 6.11341 11.1628 5.73529 11.1628C5.22826 11.1628 4.742 10.9239 4.38347 10.4987C4.02495 10.0734 3.82353 9.49671 3.82353 8.89535ZM14.1176 13.7791C14.1176 13.8253 14.1022 13.8697 14.0746 13.9024C14.047 13.9351 14.0096 13.9535 13.9706 13.9535H9.72574C9.21131 12.8584 8.39359 12.0077 7.41103 11.5456C7.88036 11.1284 8.22709 10.5467 8.40211 9.88272C8.57713 9.21878 8.57155 8.50635 8.38617 7.84637C8.20079 7.1864 7.84501 6.61235 7.36923 6.20556C6.89345 5.79877 6.32181 5.57987 5.73529 5.57987C5.14878 5.57987 4.57714 5.79877 4.10136 6.20556C3.62558 6.61235 3.2698 7.1864 3.08442 7.84637C2.89904 8.50635 2.89346 9.21878 3.06848 9.88272C3.24349 10.5467 3.59023 11.1284 4.05956 11.5456C3.077 12.0077 2.25928 12.8584 1.74485 13.9535H1.02941C0.990409 13.9535 0.953004 13.9351 0.925425 13.9024C0.897847 13.8697 0.882353 13.8253 0.882353 13.7791V1.22093C0.882353 1.17467 0.897847 1.13031 0.925425 1.0976C0.953004 1.06489 0.990409 1.04651 1.02941 1.04651H13.9706C14.0096 1.04651 14.047 1.06489 14.0746 1.0976C14.1022 1.13031 14.1176 1.17467 14.1176 1.22093V13.7791ZM12.6471 3.31395V11.686C12.6471 11.8248 12.6006 11.9579 12.5178 12.056C12.4351 12.1542 12.3229 12.2093 12.2059 12.2093H11.0294C10.9124 12.2093 10.8002 12.1542 10.7175 12.056C10.6347 11.9579 10.5882 11.8248 10.5882 11.686C10.5882 11.5473 10.6347 11.4142 10.7175 11.316C10.8002 11.2179 10.9124 11.1628 11.0294 11.1628H11.7647V3.83721H3.23529V4.7093C3.23529 4.84808 3.18881 4.98117 3.10608 5.0793C3.02334 5.17743 2.91112 5.23256 2.79412 5.23256C2.67711 5.23256 2.5649 5.17743 2.48216 5.0793C2.39942 4.98117 2.35294 4.84808 2.35294 4.7093V3.31395C2.35294 3.17518 2.39942 3.04209 2.48216 2.94396C2.5649 2.84583 2.67711 2.7907 2.79412 2.7907H12.2059C12.3229 2.7907 12.4351 2.84583 12.5178 2.94396C12.6006 3.04209 12.6471 3.17518 12.6471 3.31395Z" fill="#121212" fill-opacity="0.5"/>
</svg>
