<svg width="15" height="16" viewBox="0 0 15 16" fill="none" xmlns="http://www.w3.org/2000/svg">
<path fill-rule="evenodd" clip-rule="evenodd" d="M3 6.6875C3.19891 6.6875 3.38968 6.60848 3.53033 6.46783C3.67098 6.32718 3.75 6.13641 3.75 5.9375C3.75 5.73859 3.67098 5.54782 3.53033 5.40717C3.38968 5.26652 3.19891 5.1875 3 5.1875C2.80109 5.1875 2.61032 5.26652 2.46967 5.40717C2.32902 5.54782 2.25 5.73859 2.25 5.9375C2.25 6.13641 2.32902 6.32718 2.46967 6.46783C2.61032 6.60848 2.80109 6.6875 3 6.6875ZM3 8.1875C3.59674 8.1875 4.16903 7.95045 4.59099 7.52849C5.01295 7.10653 5.25 6.53424 5.25 5.9375C5.25 5.34076 5.01295 4.76847 4.59099 4.34651C4.16903 3.92455 3.59674 3.6875 3 3.6875C2.40326 3.6875 1.83097 3.92455 1.40901 4.34651C0.987053 4.76847 0.75 5.34076 0.75 5.9375C0.75 6.53424 0.987053 7.10653 1.40901 7.52849C1.83097 7.95045 2.40326 8.1875 3 8.1875Z" fill="#121212" fill-opacity="0.5"/>
<path fill-rule="evenodd" clip-rule="evenodd" d="M3.03906 8.75C2.74069 8.75 2.45455 8.86853 2.24357 9.0795C2.03259 9.29048 1.91406 9.57663 1.91406 9.875V11C1.91406 11.1989 1.83504 11.3897 1.69439 11.5303C1.55374 11.671 1.36297 11.75 1.16406 11.75C0.96515 11.75 0.774385 11.671 0.633732 11.5303C0.49308 11.3897 0.414063 11.1989 0.414062 11V9.875C0.414062 9.17881 0.690624 8.51113 1.18291 8.01884C1.67519 7.52656 2.34287 7.25 3.03906 7.25C3.73526 7.25 4.40293 7.52656 4.89522 8.01884C5.3875 8.51113 5.66406 9.17881 5.66406 9.875V11C5.66406 11.1989 5.58504 11.3897 5.44439 11.5303C5.30374 11.671 5.11297 11.75 4.91406 11.75C4.71515 11.75 4.52438 11.671 4.38373 11.5303C4.24308 11.3897 4.16406 11.1989 4.16406 11V9.875C4.16406 9.57663 4.04554 9.29048 3.83456 9.0795C3.62358 8.86853 3.33743 8.75 3.03906 8.75ZM12.0016 6.6875C11.8027 6.6875 11.6119 6.60848 11.4712 6.46783C11.3306 6.32718 11.2516 6.13641 11.2516 5.9375C11.2516 5.73859 11.3306 5.54782 11.4712 5.40717C11.6119 5.26652 11.8027 5.1875 12.0016 5.1875C12.2005 5.1875 12.3912 5.26652 12.5319 5.40717C12.6725 5.54782 12.7516 5.73859 12.7516 5.9375C12.7516 6.13641 12.6725 6.32718 12.5319 6.46783C12.3912 6.60848 12.2005 6.6875 12.0016 6.6875ZM12.0016 8.1875C11.4048 8.1875 10.8325 7.95045 10.4106 7.52849C9.98862 7.10653 9.75156 6.53424 9.75156 5.9375C9.75156 5.34076 9.98862 4.76847 10.4106 4.34651C10.8325 3.92455 11.4048 3.6875 12.0016 3.6875C12.5983 3.6875 13.1706 3.92455 13.5926 4.34651C14.0145 4.76847 14.2516 5.34076 14.2516 5.9375C14.2516 6.53424 14.0145 7.10653 13.5926 7.52849C13.1706 7.95045 12.5983 8.1875 12.0016 8.1875Z" fill="#121212" fill-opacity="0.5"/>
<path fill-rule="evenodd" clip-rule="evenodd" d="M11.9609 8.75C12.2593 8.75 12.5455 8.86853 12.7564 9.0795C12.9674 9.29048 13.0859 9.57663 13.0859 9.875V11C13.0859 11.1989 13.165 11.3897 13.3056 11.5303C13.4463 11.671 13.637 11.75 13.8359 11.75C14.0349 11.75 14.2256 11.671 14.3663 11.5303C14.5069 11.3897 14.5859 11.1989 14.5859 11V9.875C14.5859 9.17881 14.3094 8.51113 13.8171 8.01884C13.3248 7.52656 12.6571 7.25 11.9609 7.25C11.2647 7.25 10.5971 7.52656 10.1048 8.01884C9.6125 8.51113 9.33594 9.17881 9.33594 9.875V11C9.33594 11.1989 9.41496 11.3897 9.55561 11.5303C9.69626 11.671 9.88703 11.75 10.0859 11.75C10.2848 11.75 10.4756 11.671 10.6163 11.5303C10.7569 11.3897 10.8359 11.1989 10.8359 11V9.875C10.8359 9.57663 10.9545 9.29048 11.1654 9.0795C11.3764 8.86853 11.6626 8.75 11.9609 8.75Z" fill="#121212" fill-opacity="0.5"/>
<path fill-rule="evenodd" clip-rule="evenodd" d="M7.53906 10.8125C7.04178 10.8125 6.56487 11.01 6.21324 11.3617C5.86161 11.7133 5.66406 12.1902 5.66406 12.6875V13.8125C5.66406 14.0114 5.58504 14.2022 5.44439 14.3428C5.30374 14.4835 5.11297 14.5625 4.91406 14.5625C4.71515 14.5625 4.52438 14.4835 4.38373 14.3428C4.24308 14.2022 4.16406 14.0114 4.16406 13.8125V12.6875C4.16406 11.7924 4.51964 10.934 5.15258 10.301C5.78551 9.66808 6.64396 9.3125 7.53906 9.3125C8.43417 9.3125 9.29261 9.66808 9.92555 10.301C10.5585 10.934 10.9141 11.7924 10.9141 12.6875V13.8125C10.9141 14.0114 10.835 14.2022 10.6944 14.3428C10.5537 14.4835 10.363 14.5625 10.1641 14.5625C9.96515 14.5625 9.77438 14.4835 9.63373 14.3428C9.49308 14.2022 9.41406 14.0114 9.41406 13.8125V12.6875C9.41406 12.1902 9.21652 11.7133 8.86489 11.3617C8.51326 11.01 8.03634 10.8125 7.53906 10.8125Z" fill="#121212" fill-opacity="0.5"/>
<path fill-rule="evenodd" clip-rule="evenodd" d="M7.5 8.75C7.69891 8.75 7.88968 8.67098 8.03033 8.53033C8.17098 8.38968 8.25 8.19891 8.25 8C8.25 7.80109 8.17098 7.61032 8.03033 7.46967C7.88968 7.32902 7.69891 7.25 7.5 7.25C7.30109 7.25 7.11032 7.32902 6.96967 7.46967C6.82902 7.61032 6.75 7.80109 6.75 8C6.75 8.19891 6.82902 8.38968 6.96967 8.53033C7.11032 8.67098 7.30109 8.75 7.5 8.75ZM7.5 10.25C8.09674 10.25 8.66903 10.0129 9.09099 9.59099C9.51295 9.16903 9.75 8.59674 9.75 8C9.75 7.40326 9.51295 6.83097 9.09099 6.40901C8.66903 5.98705 8.09674 5.75 7.5 5.75C6.90326 5.75 6.33097 5.98705 5.90901 6.40901C5.48705 6.83097 5.25 7.40326 5.25 8C5.25 8.59674 5.48705 9.16903 5.90901 9.59099C6.33097 10.0129 6.90326 10.25 7.5 10.25Z" fill="#121212" fill-opacity="0.5"/>
</svg>
