<svg width="40" height="40" viewBox="0 0 40 40" fill="none" xmlns="http://www.w3.org/2000/svg">
<rect width="40" height="40" rx="20" fill="#040505" fill-opacity="0.1"/>
<rect x="0.5" y="0.5" width="39" height="39" rx="19.5" stroke="#040505" stroke-opacity="0.24"/>
<g clip-path="url(#clip0_3416_17813)">
<path d="M29.8725 8.90527H10.1306C9.45442 8.90527 8.90625 9.45344 8.90625 10.1296V29.8715C8.90625 30.5477 9.45442 31.0959 10.1306 31.0959H29.8725C30.5487 31.0959 31.0969 30.5477 31.0969 29.8715V10.1296C31.0969 9.45344 30.5487 8.90527 29.8725 8.90527Z" fill="#3D5A98"/>
<path d="M24.2159 31.0943V22.5012H27.0997L27.5309 19.1524H24.2159V17.0149C24.2159 16.0455 24.4859 15.3837 25.8753 15.3837H27.6491V12.3837C26.7901 12.2943 25.927 12.2518 25.0634 12.2562C22.5097 12.2562 20.7509 13.8124 20.7509 16.683V19.1524H17.8672V22.5012H20.7509V31.0943H24.2159Z" fill="white"/>
</g>
<defs>
<clipPath id="clip0_3416_17813">
<rect width="24" height="24" fill="white" transform="translate(8 8)"/>
</clipPath>
</defs>
</svg>
