<svg width="40" height="40" viewBox="0 0 40 40" fill="none" xmlns="http://www.w3.org/2000/svg">
<rect width="40" height="40" rx="20" fill="#040505" fill-opacity="0.1"/>
<rect x="0.5" y="0.5" width="39" height="39" rx="19.5" stroke="#040505" stroke-opacity="0.24"/>
<g clip-path="url(#clip0_3416_17817)">
<path d="M29.75 8.56259H10.25C9.80756 8.55808 9.3814 8.72928 9.06504 9.03862C8.74867 9.34795 8.56794 9.77016 8.5625 10.2126V29.7913C8.56892 30.2331 8.75009 30.6544 9.06634 30.9629C9.3826 31.2714 9.8082 31.4421 10.25 31.4376H29.75C30.1925 31.4411 30.6183 31.2693 30.9345 30.9598C31.2507 30.6503 31.4316 30.2282 31.4375 29.7857V10.207C31.4296 9.76583 31.2479 9.34564 30.9319 9.03772C30.6159 8.72981 30.1912 8.55906 29.75 8.56259Z" fill="#007CCE"/>
<path d="M11.9497 17.1367H15.3453V28.0623H11.9497V17.1367ZM13.6484 11.6992C14.0379 11.6992 14.4186 11.8147 14.7424 12.0311C15.0662 12.2476 15.3186 12.5551 15.4675 12.915C15.6165 13.2748 15.6553 13.6708 15.5792 14.0527C15.5031 14.4347 15.3154 14.7855 15.0399 15.0607C14.7644 15.336 14.4134 15.5234 14.0314 15.5991C13.6493 15.6749 13.2534 15.6356 12.8937 15.4863C12.534 15.337 12.2267 15.0844 12.0106 14.7604C11.7945 14.4364 11.6793 14.0556 11.6797 13.6661C11.6802 13.1443 11.8878 12.644 12.257 12.2752C12.6261 11.9064 13.1266 11.6992 13.6484 11.6992ZM17.4753 17.1367H20.7303V18.6367H20.7753C21.2291 17.778 22.3353 16.8723 23.9872 16.8723C27.4259 16.8648 28.0634 19.128 28.0634 22.0623V28.0623H24.6678V22.7467C24.6678 21.4811 24.6453 19.8517 22.9034 19.8517C21.1616 19.8517 20.8653 21.2317 20.8653 22.6642V28.0623H17.4753V17.1367Z" fill="white"/>
</g>
<defs>
<clipPath id="clip0_3416_17817">
<rect width="24" height="24" fill="white" transform="translate(8 8)"/>
</clipPath>
</defs>
</svg>
