<svg width="40" height="40" viewBox="0 0 40 40" fill="none" xmlns="http://www.w3.org/2000/svg">
<rect width="40" height="40" rx="20" fill="#040505" fill-opacity="0.1"/>
<rect x="0.5" y="0.5" width="39" height="39" rx="19.5" stroke="#040505" stroke-opacity="0.24"/>
<g clip-path="url(#clip0_3416_17821)">
<path d="M32.4479 14.6515C32.3045 14.139 32.0248 13.6718 31.6366 13.2964C31.2484 12.9209 30.7653 12.6504 30.2354 12.5117C28.2953 12 20.4873 12 20.4873 12C20.4873 12 12.6789 12.0155 10.7389 12.5272C10.209 12.6659 9.72584 12.9365 9.33766 13.3119C8.94948 13.6873 8.66977 14.1546 8.52639 14.6671C7.93957 18.0008 7.71193 23.0806 8.5425 26.2809C8.68589 26.7934 8.96561 27.2607 9.35379 27.6361C9.74197 28.0115 10.2251 28.2821 10.755 28.4208C12.695 28.9325 20.5032 28.9325 20.5032 28.9325C20.5032 28.9325 28.3113 28.9325 30.2513 28.4208C30.7812 28.2821 31.2644 28.0116 31.6525 27.6361C32.0408 27.2607 32.3205 26.7935 32.4639 26.2809C33.0828 22.9425 33.2736 17.8659 32.4479 14.6515Z" fill="#FF0000"/>
<path d="M18.0039 24.0946L24.4812 20.4663L18.0039 16.8379V24.0946Z" fill="white"/>
</g>
<defs>
<clipPath id="clip0_3416_17821">
<rect width="25" height="17" fill="white" transform="translate(8 12)"/>
</clipPath>
</defs>
</svg>
