<svg width="26" height="26" viewBox="0 0 26 26" fill="none" xmlns="http://www.w3.org/2000/svg">
<path d="M4.33268 22.7493C3.73685 22.7493 3.22696 22.5374 2.80302 22.1134C2.37907 21.6895 2.16674 21.1792 2.16602 20.5827V8.66602C2.16602 8.07018 2.37835 7.56029 2.80302 7.13635C3.22768 6.7124 3.73757 6.50007 4.33268 6.49935H8.66602V4.33268C8.66602 3.73685 8.87835 3.22696 9.30302 2.80302C9.72768 2.37907 10.2376 2.16674 10.8327 2.16602H15.166C15.7618 2.16602 16.2721 2.37835 16.6968 2.80302C17.1214 3.22768 17.3334 3.73757 17.3327 4.33268V6.49935H21.666C22.2619 6.49935 22.7721 6.71168 23.1968 7.13635C23.6214 7.56102 23.8334 8.0709 23.8327 8.66602V20.5827C23.8327 21.1785 23.6207 21.6888 23.1968 22.1134C22.7728 22.5381 22.2626 22.7501 21.666 22.7493H4.33268ZM4.33268 20.5827H21.666V8.66602H4.33268V20.5827ZM10.8327 6.49935H15.166V4.33268H10.8327V6.49935Z" fill="#121212" fill-opacity="0.5"/>
</svg>
