<svg width="28" height="29" viewBox="0 0 28 29" fill="none" xmlns="http://www.w3.org/2000/svg">
<path d="M4.66406 21.7513C4.66406 20.4694 5.15573 19.24 6.0309 18.3336C6.90607 17.4272 8.09305 16.918 9.33073 16.918H18.6641C19.9017 16.918 21.0887 17.4272 21.9639 18.3336C22.8391 19.24 23.3307 20.4694 23.3307 21.7513C23.3307 22.3922 23.0849 23.0069 22.6473 23.4601C22.2097 23.9134 21.6162 24.168 20.9974 24.168H6.9974C6.37856 24.168 5.78506 23.9134 5.34748 23.4601C4.9099 23.0069 4.66406 22.3922 4.66406 21.7513Z" stroke="#007CCE" stroke-width="2.5" stroke-linejoin="round"/>
<path d="M14 12.084C15.933 12.084 17.5 10.461 17.5 8.45898C17.5 6.45695 15.933 4.83398 14 4.83398C12.067 4.83398 10.5 6.45695 10.5 8.45898C10.5 10.461 12.067 12.084 14 12.084Z" stroke="#007CCE" stroke-width="2.5"/>
</svg>
