<svg width="26" height="26" viewBox="0 0 26 26" fill="none" xmlns="http://www.w3.org/2000/svg">
<path d="M8.125 1.625C7.26305 1.625 6.4364 1.96741 5.8269 2.5769C5.21741 3.1864 4.875 4.01305 4.875 4.875V21.1218C4.875 21.9837 5.21741 22.8104 5.8269 23.4198C6.4364 24.0293 7.26305 24.3718 8.125 24.3718H9.82475L10.231 22.7468H8.125C7.69402 22.7468 7.2807 22.5755 6.97595 22.2708C6.67121 21.9661 6.5 21.5527 6.5 21.1218V4.875C6.5 4.44402 6.67121 4.0307 6.97595 3.72595C7.2807 3.4212 7.69402 3.25 8.125 3.25H13V7.3125C13 7.9584 13.2564 8.5779 13.7128 9.03493C14.1692 9.49195 14.7883 9.74914 15.4342 9.75H19.4967V12.09C19.9841 11.755 20.5386 11.5304 21.1217 11.4319V8.79613C21.1212 8.14988 20.864 7.53031 20.4067 7.07363L15.6731 2.33838C15.2162 1.88172 14.5966 1.62514 13.9506 1.625H8.125ZM19.1604 8.125H15.4375C15.222 8.125 15.0153 8.0394 14.863 7.88702C14.7106 7.73465 14.625 7.52799 14.625 7.3125V3.58475L19.1604 8.125ZM21.1217 13.0975C20.7153 13.2176 20.3454 13.4378 20.046 13.7378L13.0813 20.7025C12.5176 21.2686 12.113 21.9731 11.908 22.7451L11.8934 22.7988L11.4026 24.7666C11.3612 24.9324 11.3634 25.1061 11.4089 25.2708C11.4545 25.4356 11.5418 25.5857 11.6625 25.7067C11.7832 25.8277 11.9331 25.9155 12.0977 25.9615C12.2623 26.0074 12.436 26.0101 12.6019 25.9691L14.5697 25.4768C15.3624 25.2768 16.0865 24.867 16.666 24.2905L23.634 17.3225C24.0332 16.9241 24.2882 16.4041 24.3585 15.8445C24.4289 15.285 24.3107 14.7179 24.0226 14.2331C23.7345 13.7483 23.293 13.3734 22.7679 13.1677C22.2428 12.962 21.6625 12.9373 21.1217 13.0975Z" fill="#121212" fill-opacity="0.5"/>
</svg>
