<svg width="22" height="23" viewBox="0 0 22 23" fill="none" xmlns="http://www.w3.org/2000/svg">
<path d="M8.57975 7.48567C9.19575 7.48567 9.69075 6.99067 9.69075 6.37467C9.69075 5.75867 9.19575 5.26367 8.57975 5.26367C7.96375 5.26367 7.46875 5.75867 7.46875 6.37467C7.46875 6.99067 7.96375 7.48567 8.57975 7.48567Z" fill="#121212" fill-opacity="0.5"/>
<path fill-rule="evenodd" clip-rule="evenodd" d="M10.8122 9.90538C10.8122 8.71738 9.81122 7.85938 8.57922 7.85938C7.34722 7.85938 6.34622 8.71738 6.34622 9.90538V10.4664C6.34622 10.5654 6.39022 10.6644 6.45622 10.7304C6.52222 10.7964 6.62122 10.8404 6.72022 10.8404H10.4382C10.5372 10.8404 10.6362 10.7964 10.7022 10.7304C10.7682 10.6644 10.8122 10.5654 10.8122 10.4664V9.90538ZM6.32422 13.1504C6.32422 12.9316 6.41114 12.7217 6.56586 12.567C6.72057 12.4123 6.93042 12.3254 7.14922 12.3254H14.8492C15.068 12.3254 15.2779 12.4123 15.4326 12.567C15.5873 12.7217 15.6742 12.9316 15.6742 13.1504C15.6742 13.3692 15.5873 13.579 15.4326 13.7337C15.2779 13.8885 15.068 13.9754 14.8492 13.9754H7.14922C6.93042 13.9754 6.72057 13.8885 6.56586 13.7337C6.41114 13.579 6.32422 13.3692 6.32422 13.1504ZM6.32422 16.4504C6.32422 16.2316 6.41114 16.0217 6.56586 15.867C6.72057 15.7123 6.93042 15.6254 7.14922 15.6254H14.8492C15.068 15.6254 15.2779 15.7123 15.4326 15.867C15.5873 16.0217 15.6742 16.2316 15.6742 16.4504C15.6742 16.6692 15.5873 16.879 15.4326 17.0337C15.2779 17.1885 15.068 17.2754 14.8492 17.2754H7.14922C6.93042 17.2754 6.72057 17.1885 6.56586 17.0337C6.41114 16.879 6.32422 16.6692 6.32422 16.4504Z" fill="#121212" fill-opacity="0.5"/>
<path fill-rule="evenodd" clip-rule="evenodd" d="M2.75 3.25078C2.75 2.03858 3.7378 1.05078 4.95 1.05078H12.309C12.9272 1.05078 13.5102 1.31258 13.9205 1.74488L13.9271 1.75258L18.6703 6.92478C19.0652 7.34608 19.25 7.89718 19.25 8.42078V19.7508C19.25 20.963 18.2622 21.9508 17.05 21.9508H4.95C3.7378 21.9508 2.75 20.963 2.75 19.7508V3.25078ZM12.3079 3.25078H4.95V19.7508H17.05V8.41198L12.3244 3.25848L12.3211 3.25738L12.3079 3.25078Z" fill="#121212" fill-opacity="0.5"/>
<path fill-rule="evenodd" clip-rule="evenodd" d="M12.309 1.05078C12.6007 1.05078 12.8805 1.16667 13.0868 1.37296C13.2931 1.57925 13.409 1.85904 13.409 2.15078V7.32078H18.15C18.2944 7.32078 18.4375 7.34923 18.5709 7.40451C18.7044 7.45979 18.8257 7.54082 18.9278 7.64296C19.0299 7.74511 19.111 7.86637 19.1663 7.99983C19.2215 8.13329 19.25 8.27633 19.25 8.42078C19.25 8.56523 19.2215 8.70827 19.1663 8.84173C19.111 8.97519 19.0299 9.09645 18.9278 9.1986C18.8257 9.30074 18.7044 9.38177 18.5709 9.43705C18.4375 9.49233 18.2944 9.52078 18.15 9.52078H12.309C12.0172 9.52078 11.7375 9.40489 11.5312 9.1986C11.3249 8.99231 11.209 8.71252 11.209 8.42078V2.15078C11.209 1.85904 11.3249 1.57925 11.5312 1.37296C11.7375 1.16667 12.0172 1.05078 12.309 1.05078Z" fill="#121212" fill-opacity="0.5"/>
</svg>
