<svg width="26" height="26" viewBox="0 0 26 26" fill="none" xmlns="http://www.w3.org/2000/svg">
<path d="M15.524 25.791C15.0205 25.791 14.5927 25.615 14.2407 25.263C13.8887 24.9109 13.7123 24.4828 13.7115 23.9785V15.5202C13.7115 15.0167 13.8879 14.589 14.2407 14.2369C14.5935 13.8849 15.0213 13.7085 15.524 13.7077H23.9823C24.4858 13.7077 24.9139 13.8841 25.2667 14.2369C25.6196 14.5898 25.7956 15.0175 25.7948 15.5202V23.9785C25.7948 24.482 25.6188 24.9101 25.2667 25.263C24.9147 25.6158 24.4866 25.7918 23.9823 25.791H15.524ZM9.18021 24.5827L8.69688 20.716C8.43507 20.6153 8.18857 20.4945 7.95738 20.3535C7.72618 20.2125 7.49942 20.0615 7.27708 19.9004L3.68229 21.4108L0.359375 15.6712L3.47083 13.315C3.45069 13.174 3.44063 13.0383 3.44063 12.9078V12.0921C3.44063 11.9608 3.45069 11.8247 3.47083 11.6837L0.359375 9.32747L3.68229 3.58789L7.27708 5.09831C7.49861 4.9372 7.73021 4.78615 7.97188 4.64518C8.21354 4.50421 8.45521 4.38338 8.69688 4.28268L9.18021 0.416016H15.826L16.3094 4.28268C16.5712 4.38338 16.8181 4.50421 17.0501 4.64518C17.2821 4.78615 17.5084 4.9372 17.7292 5.09831L21.324 3.58789L24.6469 9.32747L22.0792 11.291H16.6115C16.3295 10.425 15.826 9.70528 15.101 9.13172C14.376 8.55817 13.5302 8.27099 12.5635 8.27018C11.3955 8.27018 10.3986 8.68303 9.57292 9.50872C8.74722 10.3344 8.33438 11.3313 8.33438 12.4993C8.33438 13.466 8.60625 14.3118 9.15 15.0368C9.69375 15.7618 10.4087 16.2653 11.2948 16.5473V24.5827H9.18021ZM16.1281 23.3743H23.3781V22.3775C22.8747 21.9143 22.3108 21.5618 21.6865 21.3202C21.0622 21.0785 20.4177 20.9577 19.7531 20.9577C19.0885 20.9577 18.4441 21.0785 17.8198 21.3202C17.1955 21.5618 16.6316 21.9143 16.1281 22.3775V23.3743ZM19.7531 19.7493C20.2566 19.7493 20.6847 19.5733 21.0376 19.2213C21.3904 18.8693 21.5664 18.4411 21.5656 17.9368C21.5648 17.4326 21.3888 17.0048 21.0376 16.6536C20.6864 16.3024 20.2582 16.126 19.7531 16.1243C19.248 16.1227 18.8203 16.2992 18.4699 16.6536C18.1195 17.008 17.943 17.4358 17.9406 17.9368C17.9382 18.4379 18.1146 18.8661 18.4699 19.2213C18.8251 19.5766 19.2529 19.7526 19.7531 19.7493Z" fill="#007CCE"/>
</svg>
