<svg width="26" height="27" viewBox="0 0 26 27" fill="none" xmlns="http://www.w3.org/2000/svg">
<path d="M5.53556 2.45508L4.39156 3.59745L6.09375 5.29883L7.23612 4.15645L5.53556 2.45508ZM20.4653 2.45508L18.7631 4.15645L19.9062 5.29883L21.6076 3.59827L20.4653 2.45508ZM13 2.96208C12.7319 2.96424 12.461 2.98158 12.1875 3.01408H12.1631C8.86763 3.39189 6.24487 6.05445 5.78906 9.33533C5.42506 11.976 6.51381 14.3704 8.32812 15.9125C9.07017 16.546 9.57213 17.4151 9.75 18.3744V23.2494H11.6025C11.8853 23.7345 12.4012 24.0619 13 24.0619C13.5988 24.0619 14.1147 23.7345 14.3975 23.2494H16.25V19.9994H16.3264V19.0341C16.3264 17.843 16.9455 16.6421 17.9514 15.7086C19.2969 14.3615 20.3125 12.448 20.3125 10.2502C20.3125 6.23645 17.0089 2.9247 13 2.96208ZM13 4.58708C16.1403 4.5432 18.6875 7.11395 18.6875 10.2502C18.6875 11.9516 17.8994 13.4498 16.8082 14.5402L16.8342 14.5662C15.7502 15.5665 15.0491 16.9135 14.8517 18.3752H11.2978C11.1191 16.9826 10.5219 15.6346 9.39331 14.6678C7.95762 13.449 7.10206 11.6128 7.38806 9.53927C7.74313 6.97989 9.81988 4.92183 12.3646 4.63989C12.5747 4.61075 12.7863 4.59339 12.9984 4.58789L13 4.58708ZM1.625 10.2502V11.8752H4.0625V10.2502H1.625ZM21.9375 10.2502V11.8752H24.375V10.2502H21.9375ZM6.09375 16.8266L4.39237 18.5271L5.53556 19.6703L7.23531 17.969L6.09375 16.8266ZM19.9062 16.8266L18.7639 17.969L20.4644 19.6703L21.6076 18.5271L19.9062 16.8266ZM11.375 20.0002H14.625V21.6252H11.375V20.0002Z" fill="#121212" fill-opacity="0.5"/>
</svg>
