<svg width="265" height="265" viewBox="0 0 265 265" fill="none" xmlns="http://www.w3.org/2000/svg">
<path d="M202.942 6.70611L186.554 14.9255C185.954 15.1806 185.442 15.6067 185.082 16.1507C184.723 16.6947 184.531 17.3325 184.531 17.9847V25.6493C184.517 32.6173 186.549 39.4361 190.375 45.2593C193.328 49.7416 197.244 55.5069 203.76 58.7958H206.696C213.952 56.5547 219.364 50.6885 222.67 45.6459C226.496 39.8224 228.528 33.0038 228.514 26.0359V17.9847C228.514 17.3333 228.323 16.6963 227.964 16.1525C227.606 15.6087 227.095 15.1821 226.497 14.9255L207.828 6.96944C206.993 6.61647 203.772 6.35313 202.942 6.70611Z" fill="#E0E0E0"/>
<path d="M202.285 6.97359L183.616 14.9296C183.016 15.1848 182.504 15.6109 182.145 16.1549C181.785 16.6989 181.593 17.3367 181.594 17.9888V25.6535C181.594 32.7544 183.701 39.6956 187.647 45.5989C191.594 51.5021 197.203 56.1021 203.764 58.8168C211.014 56.5756 216.427 50.7094 219.738 45.6669C223.565 39.8375 225.596 33.0133 225.582 26.0401V17.9888C225.582 17.3367 225.39 16.6989 225.031 16.1549C224.671 15.6109 224.159 15.1848 223.559 14.9296L204.89 6.97359C204.478 6.80023 204.035 6.71094 203.588 6.71094C203.14 6.71094 202.698 6.80023 202.285 6.97359Z" fill="#F5F5F5"/>
<path d="M225.515 23.9531C225.54 24.069 225.551 24.1875 225.548 24.3061C225.548 24.5694 225.576 24.9056 225.593 25.3202C225.61 25.7348 225.638 26.3007 225.593 26.9282C225.548 27.5558 225.593 28.2729 225.492 29.0573C225.391 29.8417 225.363 30.7382 225.201 31.629C225.128 32.0885 225.072 32.5647 224.977 33.0522C224.882 33.5396 224.764 34.0327 224.657 34.5425C224.141 36.7546 223.419 38.9137 222.5 40.9914C221.557 43.059 220.432 45.0389 219.139 46.908C218.517 47.7484 217.94 48.5889 217.323 49.2556C217.021 49.6086 216.763 49.9672 216.455 50.2809L215.603 51.183C215.071 51.7433 214.528 52.2363 214.074 52.6733C213.62 53.1104 213.205 53.4521 212.863 53.7267L212.13 54.3654C212.042 54.4451 211.947 54.5147 211.844 54.5727C211.918 54.4797 212.003 54.3951 212.096 54.3206L212.852 53.6426C213.183 53.3569 213.586 52.9983 214.023 52.5221C214.46 52.0458 214.998 51.6088 215.514 51.0149L216.348 50.1016C216.634 49.7879 216.909 49.4293 217.2 49.0763C217.805 48.376 218.365 47.5635 218.976 46.7231C220.245 44.8625 221.351 42.8961 222.282 40.8457C223.19 38.7832 223.912 36.6438 224.439 34.4529L224.77 32.9737C224.87 32.4919 224.932 32.0156 225.01 31.5618C225.179 30.6541 225.246 29.7969 225.33 29.0125C225.414 28.2281 225.425 27.5221 225.47 26.8946C225.515 26.2671 225.509 25.7348 225.509 25.2922C225.509 24.8496 225.509 24.5414 225.509 24.2781C225.5 24.1699 225.502 24.061 225.515 23.9531Z" fill="#E0E0E0"/>
<path d="M202.191 40.6203L191.484 32.1095L194.454 28.3724L201.637 34.0817L212.125 22.3438L215.683 25.5262L202.191 40.6203Z" fill="white"/>
<path d="M252.766 48.6539H250.738V37.6219C250.738 36.3736 250.242 35.1766 249.359 34.2939C248.477 33.4113 247.28 32.9155 246.031 32.9155C244.783 32.9155 243.586 33.4113 242.704 34.2939C241.821 35.1766 241.325 36.3736 241.325 37.6219V48.6539H239.297V37.6219C239.297 35.8387 240.005 34.1286 241.266 32.8677C242.527 31.6068 244.237 30.8984 246.02 30.8984C247.803 30.8984 249.514 31.6068 250.774 32.8677C252.035 34.1286 252.744 35.8387 252.744 37.6219L252.766 48.6539Z" fill="#EBEBEB"/>
<path d="M253.383 41.1641H238.687C237.734 41.1641 236.961 41.9367 236.961 42.8897V53.664C236.961 54.6171 237.734 55.3897 238.687 55.3897H253.383C254.336 55.3897 255.109 54.6171 255.109 53.664V42.8897C255.109 41.9367 254.336 41.1641 253.383 41.1641Z" fill="#EBEBEB"/>
<path d="M247.424 48.6385C247.605 48.4553 247.747 48.2382 247.843 47.9997C247.94 47.7612 247.988 47.5061 247.985 47.249C247.987 46.8762 247.886 46.5101 247.692 46.1919C247.497 45.8738 247.218 45.6163 246.885 45.4485C246.552 45.2807 246.179 45.2092 245.808 45.2422C245.436 45.2752 245.081 45.4114 244.783 45.6353C244.485 45.8592 244.256 46.1619 244.12 46.5093C243.985 46.8568 243.95 47.2351 244.018 47.6016C244.087 47.968 244.256 48.3081 244.508 48.5834C244.759 48.8587 245.082 49.0582 245.441 49.1596L245.015 51.0533H246.915L246.534 49.1596C246.865 49.0648 247.167 48.8852 247.408 48.6385" fill="#FAFAFA"/>
<path d="M22.4347 209.667C20.2586 208.305 17.7996 207.46 15.2462 207.196C14.0696 207.073 12.7866 207.106 11.8453 207.818C11.736 207.88 11.6456 207.971 11.5835 208.08C11.5213 208.19 11.4899 208.314 11.4923 208.44C11.5497 208.617 11.669 208.768 11.8285 208.866C13.3548 209.955 15.1501 210.605 17.0198 210.746C18.8894 210.887 20.7621 210.514 22.4347 209.667Z" fill="#E0E0E0"/>
<path d="M22.2472 209.46C20.5829 208.237 19.0287 206.87 17.6024 205.376C16.1732 203.87 15.1697 202.012 14.6946 199.992C14.5999 199.692 14.5715 199.376 14.6111 199.064C14.6508 198.753 14.7576 198.454 14.9243 198.188C18.6221 201.079 21.53 204.821 22.2472 209.46Z" fill="#E0E0E0"/>
<path d="M22.399 209.628C22.058 207.606 22.0884 205.538 22.4887 203.527C22.9001 201.499 24.0579 199.699 25.7327 198.484C26.3715 199.98 26.0969 201.706 25.6487 203.264C24.9521 205.684 23.8638 207.974 22.4271 210.043" fill="#E0E0E0"/>
<path d="M26.0264 216.141C23.8485 216.493 21.8339 217.513 20.261 219.06C18.6067 220.563 17.4546 222.538 16.9609 224.719C19.1236 224.584 20.9558 223.038 22.2836 221.357C23.6115 219.676 24.5248 217.777 25.9983 216.18" fill="#E0E0E0"/>
<path d="M26.8177 217.173C25.9503 214.973 25.6462 212.59 25.9328 210.242C26.2195 207.894 27.0879 205.654 28.4593 203.727C29.7144 208.209 29.2493 213.251 26.8177 217.173Z" fill="#E0E0E0"/>
<path d="M31.6051 222.886C29.5915 222.764 27.5865 223.236 25.8385 224.243C24.0906 225.25 22.6766 226.747 21.7721 228.551C21.6544 228.791 21.5424 229.111 21.7104 229.318C21.7947 229.401 21.8981 229.462 22.0115 229.495C22.1249 229.528 22.2447 229.533 22.3604 229.509C24.299 229.385 26.0134 228.22 27.4309 226.892C28.8485 225.564 30.0867 224.029 31.6499 222.88" fill="#E0E0E0"/>
<path d="M31.4572 222.589C30.4249 219.266 30.3607 215.717 31.2723 212.359C31.6365 211.042 32.2416 209.658 33.4574 209.042C33.5062 209.009 33.5612 208.986 33.6191 208.976C33.6769 208.965 33.7364 208.967 33.7936 208.98C33.8919 209.032 33.9662 209.121 34.0009 209.227C34.4119 210.146 34.589 211.153 34.5164 212.157C34.4445 213.16 34.2909 214.155 34.0569 215.132C33.6759 216.947 33.4967 218.897 32.4713 220.466C32.2373 220.843 32.0259 221.234 31.8382 221.637C31.6533 222.035 31.6533 222.197 31.4796 222.489" fill="#E0E0E0"/>
<path d="M44.1431 224.47C43.7165 222.602 43.7026 220.664 44.1022 218.791C44.5019 216.917 45.3055 215.154 46.4571 213.623C46.6196 213.404 46.8381 213.174 47.1126 213.197C47.5273 213.236 47.6337 213.791 47.6169 214.205C47.445 217.883 46.2412 221.438 44.1431 224.464" fill="#E0E0E0"/>
<path d="M45.2891 225.249C47.5093 225.773 49.8168 225.808 52.0523 225.354C54.2878 224.899 56.398 223.965 58.2373 222.615C56.0708 221.526 53.5932 221.223 51.2281 221.758C48.8861 222.318 46.7458 223.338 45.2891 225.249Z" fill="#E0E0E0"/>
<path d="M46.25 222.874C48.6872 218.908 53.3544 216.319 58.016 216.078C57.4557 217.972 55.9261 219.44 54.1724 220.331C52.3747 221.137 50.4742 221.691 48.5248 221.978C47.774 222.124 46.743 222.286 46.2836 222.874" fill="#E0E0E0"/>
<path d="M44.3821 211.315C45.1211 209.08 45.6244 206.774 45.8836 204.435C46.1441 202.08 45.6663 199.704 44.5165 197.633C42.2418 202.031 42.0121 207.158 44.3148 211.556" fill="#E0E0E0"/>
<path d="M52.0391 207.452C54.7004 202.623 60.124 198.762 65.6092 198.219C63.4913 203.491 57.7204 207.564 52.0391 207.452Z" fill="#E0E0E0"/>
<path d="M50.3672 208.397C54.3284 209.002 57.7069 211.534 61.4104 213.069C62.1882 213.441 63.0492 213.605 63.9093 213.546C64.3089 213.54 64.6973 213.413 65.0222 213.18C65.3472 212.948 65.593 212.621 65.7267 212.244C65.8604 211.868 65.8755 211.459 65.7699 211.074C65.6643 210.688 65.4432 210.345 65.1363 210.089C64.6121 209.598 63.9948 209.217 63.321 208.968C59.2869 207.287 54.9559 207.248 50.709 208.268" fill="#E0E0E0"/>
<path d="M48.0703 211.174C48.9668 211.431 49.2749 211.896 49.9865 212.501C52.4173 214.567 55.2941 216.04 58.3908 216.804C58.7101 216.883 59.1303 216.916 59.2928 216.631C59.4553 216.345 59.2536 216.07 59.0743 215.846C57.7333 214.268 55.9911 213.082 54.0317 212.412C52.0988 211.689 50.4235 210.821 48.1151 211.011" fill="#E0E0E0"/>
<path d="M45.4922 194.381C47.1183 195.88 49.0401 197.023 51.1339 197.735C53.2278 198.447 55.4475 198.713 57.6504 198.516C57.855 198.523 58.0548 198.453 58.2107 198.32C58.5188 197.984 58.149 197.469 57.796 197.2C54.2214 194.398 49.8904 193.278 45.5034 194.398" fill="#E0E0E0"/>
<path d="M48.5547 193.263C50.7068 191.68 53.2026 190.628 55.8385 190.194C58.4743 189.76 61.1755 189.955 63.7216 190.764C61.7364 192.602 59.1907 193.719 56.4939 193.935C53.8286 194.18 51.1409 193.952 48.5547 193.263Z" fill="#E0E0E0"/>
<path d="M47.3347 185.54C46.9874 181.971 47.2115 179.158 46.9649 175.572C46.9649 175.287 46.8865 174.945 46.6176 174.838C46.2422 174.698 45.934 175.152 45.8108 175.533C45.2907 177.194 45.1572 178.953 45.4204 180.673C45.6835 182.394 46.3364 184.032 47.3291 185.461" fill="#E0E0E0"/>
<path d="M47.0781 185.93C49.4181 184.429 51.4353 182.477 53.0115 180.187C54.1769 178.59 55.163 176.68 54.8997 174.719C54.0777 174.74 53.2704 174.941 52.534 175.307C51.7976 175.673 51.1499 176.195 50.6359 176.837C49.6184 178.128 48.8783 179.616 48.462 181.207C47.9914 182.776 47.6608 184.389 47.1005 185.93" fill="#E0E0E0"/>
<path d="M52.8864 184.315C58.2145 182.349 63.1479 179.446 67.4538 175.743C65.7169 175.042 63.7279 175.463 61.991 176.163C58.0479 177.656 54.7902 180.545 52.8359 184.281" fill="#E0E0E0"/>
<path d="M48.7109 187.879C51.3879 188.259 54.1041 188.272 56.7846 187.918C59.4012 187.481 61.8776 186.439 64.3205 185.414C64.5342 185.35 64.7174 185.21 64.8359 185.021C64.8728 184.908 64.8749 184.786 64.842 184.671C64.809 184.556 64.7425 184.454 64.651 184.377C64.4619 184.229 64.2416 184.125 64.0067 184.075C61.3454 183.335 58.4767 183.682 55.8602 184.562C53.3681 185.416 50.972 186.527 48.7109 187.879Z" fill="#E0E0E0"/>
<path d="M33.396 194.502C31.5639 190.804 31.7151 186.49 33.2671 182.68C34.3877 184.361 34.5166 186.534 34.3149 188.557C34.1132 190.58 33.4968 192.653 33.452 194.681" fill="#E0E0E0"/>
<path d="M26.0603 190.806C23.7677 190.776 21.494 191.224 19.3849 192.123C17.2758 193.023 15.3778 194.353 13.8125 196.028C16.128 196.306 18.4731 195.872 20.5359 194.784C22.5781 193.7 24.5042 192.41 26.2844 190.935" fill="#E0E0E0"/>
<path d="M21.1445 189.166C18.9033 188.987 16.7574 188.712 14.6059 189.368C13.5204 189.673 12.5135 190.209 11.654 190.939C10.7944 191.669 10.1024 192.576 9.625 193.598C11.7352 193.767 13.852 193.366 15.7545 192.438C17.6457 191.511 19.4497 190.416 21.1445 189.166Z" fill="#E0E0E0"/>
<path d="M28.431 189.243C26.4196 187.926 24.3521 186.581 22.0101 186.032C19.6681 185.483 16.9676 185.892 15.3203 187.657C17.2141 188.777 19.5168 188.901 21.7188 188.901C23.9207 188.901 26.6101 188.873 28.6831 189.607" fill="#E0E0E0"/>
<path d="M28.4345 189.352C24.9944 185.991 23.6945 179.906 25.0728 175.289C27.7874 179.446 28.9755 184.417 28.4345 189.352Z" fill="#E0E0E0"/>
<path d="M37.8828 179.773C38.5327 178.261 39.0034 176.681 39.5637 175.146C40.0941 173.588 40.9091 172.142 41.9673 170.882C43.0393 169.604 44.5707 168.799 46.2311 168.641C45.7007 170.968 44.6915 173.159 43.2677 175.075C41.8439 176.991 40.0367 178.589 37.9613 179.768" fill="#E0E0E0"/>
<path d="M36.202 181.769C35.1319 180.29 33.888 178.284 32.4313 177.18C30.9746 176.077 29.0696 175.41 27.3047 175.83C28.2251 177.443 29.5082 178.819 31.0525 179.85C32.5968 180.88 34.3598 181.538 36.202 181.769Z" fill="#E0E0E0"/>
<path d="M36.5344 179.896C35.7718 178.132 35.2081 176.289 34.8536 174.4C34.5015 172.488 34.8056 170.514 35.7164 168.797C37.6046 172.366 38.2153 176.198 36.6521 179.924" fill="#E0E0E0"/>
<path d="M37.9219 168.797C38.992 165.262 42.2305 162.634 45.7323 161.457C46.1647 161.28 46.634 161.21 47.0993 161.256C47.3319 161.28 47.5521 161.372 47.7317 161.522C47.9113 161.672 48.0423 161.872 48.1079 162.096C48.2367 162.696 47.7381 163.217 47.2674 163.637C44.5342 165.973 41.3546 167.728 37.9219 168.797Z" fill="#E0E0E0"/>
<path d="M37.9545 165.926C38.0889 163.64 38.229 161.326 38.9742 159.163C39.7194 157.001 41.1481 154.978 43.2267 154.031C43.5797 156.334 42.5656 158.626 41.3386 160.609C40.1116 162.592 38.6324 164.464 37.8984 166.677" fill="#E0E0E0"/>
<path d="M37.8796 167.491C36.9944 164.913 36.9047 161.636 35.3584 159.389C34.277 157.82 32.5569 156.75 31.6213 155.086C31.0594 156.681 31.1377 158.433 31.8398 159.972C32.5422 161.494 33.5098 162.879 34.6972 164.062C35.8178 165.283 36.8151 166.202 37.8796 167.491Z" fill="#E0E0E0"/>
<path d="M37.9161 243.437C37.8489 243.437 37.7872 226.236 37.7816 205.018C37.776 183.8 37.8321 166.594 37.8993 166.594C37.9665 166.594 38.0282 183.789 38.0338 205.018C38.0394 226.247 37.9833 243.437 37.9161 243.437Z" fill="#E0E0E0"/>
<path d="M52.951 191.898C52.7454 192.003 52.5295 192.085 52.3067 192.145L50.525 192.744C49.0234 193.254 46.9616 193.994 44.726 194.913C42.4905 195.832 40.4175 196.633 39.2296 197.664C38.7483 198.058 38.3648 198.559 38.1091 199.126C37.9354 199.53 37.9074 199.776 37.885 199.776C37.8625 199.776 37.885 199.709 37.885 199.591C37.9134 199.422 37.9565 199.255 38.0138 199.092C38.2382 198.492 38.6078 197.957 39.0896 197.535C39.8082 196.927 40.6125 196.429 41.4764 196.056C42.4289 195.608 43.4878 195.142 44.6084 194.683C46.8495 193.764 48.9282 193.047 50.4466 192.576C51.2085 192.341 51.8249 192.167 52.2563 192.05C52.4826 191.978 52.7152 191.927 52.951 191.898Z" fill="#E0E0E0"/>
<path d="M57.8847 179.797C57.8321 179.869 57.7699 179.933 57.6998 179.987L57.1395 180.508L55.0777 182.38L48.2198 188.487C45.5416 190.874 43.2276 193.148 41.6252 194.863C40.8184 195.72 40.1853 196.432 39.7539 196.925L39.2552 197.485C39.2031 197.556 39.1408 197.618 39.0703 197.67C39.1121 197.592 39.1629 197.518 39.2216 197.451C39.3224 197.311 39.4737 197.104 39.681 196.852C40.09 196.336 40.7063 195.608 41.4963 194.734C43.5658 192.472 45.754 190.321 48.0517 188.291C50.7411 185.915 53.1839 183.775 54.96 182.24C55.834 181.489 56.5512 180.878 57.0723 180.424L57.6326 179.943C57.7095 179.883 57.7944 179.834 57.8847 179.797Z" fill="#E0E0E0"/>
<path d="M45.3423 190.917C45.2695 190.883 45.8298 189.595 46.3901 187.959C46.9504 186.323 47.2137 184.95 47.2865 184.961C47.2284 186.015 47.0053 187.053 46.6254 188.037C46.3848 188.735 46.1061 189.42 45.7906 190.088C45.678 190.382 45.5273 190.661 45.3423 190.917Z" fill="#E0E0E0"/>
<path d="M37.9328 201.327C37.7758 201.186 37.6366 201.026 37.5182 200.851L36.4593 199.495C35.574 198.346 34.347 196.761 32.9687 195.013C31.5904 193.265 30.3298 191.724 29.4109 190.598L28.352 189.275C28.2102 189.118 28.0844 188.948 27.9766 188.766C28.1401 188.9 28.2902 189.05 28.4248 189.214C28.6993 189.511 29.0915 189.953 29.5454 190.502C30.4978 191.623 31.7865 193.136 33.1648 194.873C34.5431 196.61 35.7477 198.234 36.5993 199.389C37.0308 199.949 37.3669 200.459 37.5967 200.795C37.7265 200.96 37.8392 201.139 37.9328 201.327Z" fill="#E0E0E0"/>
<path d="M34.6357 197.101C33.9714 196.366 33.4981 195.479 33.2574 194.518C32.9953 193.674 32.889 192.79 32.9436 191.907H33.0557C33.0404 192.014 33.0042 192.117 32.9492 192.21C32.9492 192.21 32.9492 192.092 32.9492 191.891H33.0613C33.1137 192.75 33.2602 193.601 33.4983 194.429C33.8125 195.346 34.1927 196.239 34.6357 197.101Z" fill="#E0E0E0"/>
<path d="M30.3871 191.771C30.089 191.547 29.7656 191.359 29.4234 191.211C28.5561 190.95 27.6429 190.877 26.7452 190.998C25.8362 191.064 24.9345 191.209 24.0503 191.43C23.6828 191.543 23.3085 191.633 22.9297 191.699C23.2568 191.497 23.6144 191.349 23.9886 191.262C24.8757 190.987 25.7911 190.814 26.7172 190.746C27.6466 190.623 28.592 190.725 29.4738 191.043C29.8534 191.173 30.1762 191.43 30.3871 191.771Z" fill="#E0E0E0"/>
<path d="M29.3724 190.452C29.3724 190.491 28.8121 190.228 27.8932 189.892C25.4988 189.077 22.9365 188.884 20.447 189.331C19.4945 189.5 18.9231 189.679 18.9062 189.64C19.0267 189.562 19.1593 189.505 19.2985 189.471C19.6649 189.343 20.0392 189.238 20.419 189.158C21.671 188.883 22.9564 188.793 24.2346 188.889C25.5105 188.988 26.7653 189.272 27.9605 189.729C28.3214 189.868 28.6732 190.028 29.0138 190.211C29.145 190.272 29.2659 190.354 29.3724 190.452Z" fill="#E0E0E0"/>
<path d="M37.8849 184.953C37.4463 183.73 37.0869 182.48 36.8092 181.211C36.4472 179.962 36.1665 178.691 35.9688 177.406C36.4079 178.63 36.769 179.88 37.0501 181.149C37.4088 182.398 37.6876 183.669 37.8849 184.953Z" fill="#E0E0E0"/>
<path d="M37.9683 184.955C37.6239 184.181 37.2251 183.432 36.7749 182.714C36.2704 182.034 35.6789 181.424 35.0156 180.898C35.2657 180.962 35.4977 181.083 35.6936 181.251C36.1929 181.614 36.6268 182.06 36.9766 182.568C37.5119 183.262 37.8541 184.086 37.9683 184.955Z" fill="#E0E0E0"/>
<path d="M37.9203 234.264C37.9203 234.264 37.8419 233.849 37.6458 233.143C37.3711 232.115 36.9957 231.117 36.5252 230.162C34.8686 227.051 32.8199 224.164 30.4293 221.573C29.0678 220.016 27.7455 218.548 26.625 217.141C25.6163 215.907 24.7058 214.596 23.902 213.219C23.3613 212.29 22.9021 211.315 22.5293 210.306C22.4004 209.947 22.3108 209.667 22.2603 209.477C22.2276 209.38 22.2032 209.281 22.1875 209.18C22.1875 209.18 22.3332 209.572 22.6189 210.272C23.026 211.259 23.5054 212.214 24.0532 213.13C24.8742 214.484 25.7917 215.778 26.7986 217.001C27.9192 218.391 29.2527 219.848 30.6142 221.405C33.0223 224.012 35.0654 226.933 36.6877 230.09C37.156 231.058 37.5185 232.074 37.769 233.121C37.8354 233.405 37.8859 233.693 37.9203 233.984C37.9289 234.077 37.9289 234.17 37.9203 234.264Z" fill="#E0E0E0"/>
<path d="M51.5022 218.925C51.2719 219.07 51.0344 219.203 50.7906 219.323C50.145 219.684 49.527 220.092 48.9417 220.544C48.0745 221.215 47.2632 221.956 46.5156 222.758C45.664 223.654 44.7899 224.696 43.8935 225.817C42.1062 228.058 40.4309 230.053 39.4112 231.638C38.9013 232.423 38.5316 233.084 38.2906 233.549C38.1755 233.796 38.0445 234.035 37.8984 234.266C37.8984 234.266 37.8984 234.193 37.9657 234.064C38.0329 233.935 38.0889 233.745 38.201 233.504C38.519 232.831 38.8782 232.177 39.2767 231.548C40.6377 229.505 42.1136 227.541 43.6974 225.665C44.5938 224.545 45.4847 223.503 46.3531 222.601C47.1173 221.802 47.9476 221.069 48.8352 220.41C49.4406 219.957 50.0857 219.559 50.7626 219.222C50.9443 219.129 51.1314 219.047 51.3229 218.976C51.4387 218.931 51.4984 218.914 51.5022 218.925Z" fill="#E0E0E0"/>
<path d="M51.7664 223.897C51.2699 224.006 50.7662 224.079 50.2592 224.116C49.0502 224.24 47.8553 224.476 46.6902 224.822C45.5377 225.196 44.4577 225.765 43.4966 226.503C42.7626 227.063 42.4152 227.539 42.376 227.517C42.3368 227.494 42.432 227.377 42.5945 227.169C42.8285 226.877 43.0913 226.608 43.3789 226.368C44.3321 225.572 45.4297 224.967 46.6117 224.586C47.7914 224.234 49.0079 224.02 50.2368 223.948C50.744 223.884 51.256 223.867 51.7664 223.897Z" fill="#E0E0E0"/>
<path d="M42.8265 226.966C42.7481 226.921 43.4261 225.885 43.9471 224.489C44.4682 223.094 44.5578 221.851 44.6419 221.867C44.6897 222.134 44.6897 222.407 44.6419 222.674C44.5654 223.323 44.4189 223.962 44.2048 224.579C43.9744 225.189 43.6815 225.773 43.3308 226.322C43.2005 226.563 43.03 226.781 42.8265 226.966Z" fill="#E0E0E0"/>
<path d="M55.9047 205.562C55.8316 205.618 55.7503 205.661 55.6637 205.691L54.9578 206.011C54.644 206.145 54.2686 206.313 53.8372 206.537C53.4058 206.762 52.9127 206.986 52.3973 207.294L51.5793 207.759C51.2935 207.927 51.019 208.117 50.7108 208.319C50.1057 208.683 49.5006 209.137 48.8507 209.597C47.4774 210.639 46.1816 211.779 44.9735 213.009C43.7879 214.252 42.6961 215.582 41.707 216.987C41.2644 217.653 40.833 218.275 40.4856 218.892C40.3119 219.194 40.127 219.486 39.9702 219.777L39.5611 220.617C39.2698 221.144 39.0625 221.648 38.8552 222.08C38.6479 222.511 38.491 222.892 38.3677 223.2C38.2445 223.508 38.1492 223.727 38.0708 223.917C38.04 224.003 38.0006 224.086 37.9531 224.164C37.9638 224.073 37.9884 223.984 38.026 223.901L38.2781 223.167C38.3901 222.847 38.5302 222.455 38.7263 222.018C38.9224 221.581 39.1185 221.066 39.4043 220.533C39.5387 220.259 39.6844 219.973 39.8301 219.682C39.9758 219.39 40.1606 219.121 40.3399 218.785C40.6817 218.158 41.1075 217.53 41.5446 216.858C43.5112 213.982 45.949 211.459 48.7554 209.395C49.411 208.935 50.0273 208.487 50.638 208.129C50.9461 207.944 51.2319 207.748 51.5176 207.568L52.3525 207.109C52.8791 206.812 53.3834 206.593 53.8148 206.386C54.1795 206.204 54.5536 206.041 54.9354 205.899L55.6637 205.619C55.742 205.592 55.8227 205.573 55.9047 205.562Z" fill="#E0E0E0"/>
<path d="M45.1641 212.754C45.2528 212.409 45.449 212.101 45.7243 211.874C46.3872 211.298 47.2327 210.974 48.1112 210.961C48.9699 210.957 49.8211 211.123 50.6156 211.448C50.9512 211.557 51.2699 211.711 51.5625 211.908C51.2196 211.843 50.8837 211.746 50.5596 211.617C49.7738 211.345 48.9482 211.207 48.1168 211.208C47.2925 211.225 46.4954 211.506 45.842 212.009C45.5966 212.239 45.3699 212.488 45.1641 212.754Z" fill="#E0E0E0"/>
<path d="M43.5391 214.421C43.858 213.719 44.0858 212.979 44.217 212.219C44.2624 211.45 44.2116 210.678 44.0657 209.922C44.2099 210.111 44.306 210.332 44.3459 210.566C44.6356 211.674 44.4976 212.85 43.9593 213.861C43.7464 214.242 43.5615 214.438 43.5391 214.421Z" fill="#E0E0E0"/>
<path d="M26.0312 236.727C26.401 243.304 28.3844 249.989 31.4324 256.751H44.6831C47.591 250.056 49.4344 243.383 49.7593 236.727H26.0312Z" fill="#E0E0E0"/>
<path d="M47.6195 247.377C47.6195 247.444 43.2549 247.5 37.8762 247.5C32.4974 247.5 28.1328 247.444 28.1328 247.377C28.1328 247.309 32.4918 247.242 37.8818 247.242C43.2717 247.242 47.6195 247.309 47.6195 247.377Z" fill="#FAFAFA"/>
<path d="M47.3256 249.748C47.3256 249.815 43.2355 249.872 38.1929 249.872C33.1504 249.872 29.0547 249.815 29.0547 249.748C29.0547 249.681 33.1448 249.625 38.1929 249.625C43.2411 249.625 47.3256 249.681 47.3256 249.748Z" fill="#FAFAFA"/>
<path d="M31.6467 241.078C31.8111 243.109 31.8111 245.149 31.6467 247.18C31.4823 245.149 31.4823 243.109 31.6467 241.078Z" fill="#FAFAFA"/>
<path d="M38.7483 241.078C38.9126 243.182 38.9126 245.295 38.7483 247.398C38.5839 245.295 38.5839 243.182 38.7483 241.078Z" fill="#FAFAFA"/>
<path d="M45.4201 240.992C45.5845 243.139 45.5845 245.295 45.4201 247.441C45.2558 245.295 45.2558 243.139 45.4201 240.992Z" fill="#FAFAFA"/>
<path d="M49.344 241.076C49.344 241.144 44.2286 241.2 37.9198 241.2C31.611 241.2 26.4844 241.144 26.4844 241.076C26.4844 241.009 31.6054 240.953 37.9198 240.953C44.2342 240.953 49.344 240.981 49.344 241.076Z" fill="#FAFAFA"/>
<path d="M254.929 179.743C256.141 179.208 257.17 178.328 257.888 177.214C258.606 176.1 258.982 174.799 258.968 173.474C258.968 169.731 256.167 166.683 252.643 166.672C249.118 166.661 246.272 169.675 246.261 173.395C246.235 174.731 246.606 176.045 247.326 177.171C248.046 178.296 249.083 179.184 250.306 179.721C240.529 181.194 240.972 191.817 240.972 191.817L264.095 191.924C264.095 191.924 264.621 181.206 254.929 179.743Z" fill="#EBEBEB"/>
<path d="M150.987 25.2567C151.839 25.0895 152.624 24.6785 153.246 24.0738C153.869 23.4691 154.302 22.6966 154.494 21.8502C154.654 21.307 154.701 20.7371 154.633 20.1751C154.565 19.6131 154.383 19.0709 154.099 18.5814C153.814 18.092 153.433 17.6657 152.978 17.3284C152.524 16.9912 152.005 16.75 151.454 16.6197C150.903 16.4894 150.332 16.4727 149.774 16.5706C149.216 16.6684 148.685 16.8789 148.211 17.189C147.737 17.4991 147.332 17.9024 147.019 18.3744C146.707 18.8463 146.494 19.377 146.393 19.934C146.177 20.7835 146.219 21.6778 146.512 22.5037C146.805 23.3296 147.337 24.0498 148.04 24.5732C141.58 24.0633 140.297 30.91 140.297 30.91L155.032 34.4006C155.032 34.4006 156.96 27.6043 150.987 25.2567Z" fill="#EBEBEB"/>
<path d="M255.558 82.292C256.265 81.8501 256.826 81.2105 257.173 80.4526C257.519 79.6947 257.636 78.8517 257.508 78.0282C257.466 77.4831 257.312 76.9523 257.057 76.4688C256.802 75.9852 256.45 75.5591 256.024 75.2168C255.597 74.8745 255.105 74.6233 254.578 74.4786C254.051 74.3339 253.499 74.2988 252.958 74.3755C252.417 74.4523 251.897 74.6392 251.43 74.9247C250.964 75.2103 250.561 75.5883 250.247 76.0357C249.932 76.483 249.713 76.99 249.602 77.5255C249.491 78.0609 249.491 78.6134 249.602 79.1488C249.706 79.9826 250.054 80.7669 250.604 81.4023C251.153 82.0377 251.879 82.4956 252.69 82.7178C246.745 84.5163 247.972 91.0829 247.972 91.0829L262.36 89.0714C262.36 89.0714 261.716 82.3312 255.558 82.292Z" fill="#F5F5F5"/>
<path d="M24.7008 84.3323L16.9297 78.1523L19.0812 75.4405L24.2974 79.581L31.9061 71.0703L34.489 73.3787L24.7008 84.3323Z" fill="#F5F5F5"/>
<path d="M260.135 256.95C260.135 257.034 204.022 257.096 134.827 257.096C65.6316 257.096 9.50781 257.034 9.50781 256.95C9.50781 256.866 65.6036 256.805 134.827 256.805C204.05 256.805 260.135 256.872 260.135 256.95Z" fill="#263238"/>
<path d="M35.3052 93.2833L18.1212 101.906C17.4979 102.178 16.9677 102.626 16.5963 103.195C16.2248 103.765 16.0285 104.431 16.0314 105.111V113.151C16.0117 120.464 18.1412 127.622 22.1553 133.736C25.2537 138.453 29.3606 144.482 36.1904 147.928H39.272C46.8807 145.608 52.5564 139.428 56.0245 134.139C60.0404 128.026 62.1718 120.868 62.1541 113.554V105.111C62.1532 104.428 61.9521 103.761 61.5756 103.191C61.1992 102.621 60.6639 102.175 60.0362 101.906L40.4318 93.5634C39.5634 93.1936 36.2017 92.9135 35.3052 93.2833Z" fill="#FF725E"/>
<path opacity="0.3" d="M35.3052 93.2833L18.1212 101.906C17.4979 102.178 16.9677 102.626 16.5963 103.195C16.2248 103.765 16.0285 104.431 16.0314 105.111V113.151C16.0117 120.464 18.1412 127.622 22.1553 133.736C25.2537 138.453 29.3606 144.482 36.1904 147.928H39.272C46.8807 145.608 52.5564 139.428 56.0245 134.139C60.0404 128.026 62.1718 120.868 62.1541 113.554V105.111C62.1532 104.428 61.9521 103.761 61.5756 103.191C61.1992 102.621 60.6639 102.175 60.0362 101.906L40.4318 93.5634C39.5634 93.1936 36.2017 92.9135 35.3052 93.2833Z" fill="black"/>
<path d="M34.6217 93.5615L15.0398 101.904C14.412 102.173 13.8767 102.619 13.5003 103.189C13.1239 103.759 12.9228 104.426 12.9219 105.109V113.149C12.9223 120.595 15.1312 127.874 19.2691 134.064C23.407 140.255 29.288 145.079 36.1681 147.926C43.7712 145.606 49.4469 139.426 52.9206 134.137C56.9365 128.024 59.0679 120.866 59.0501 113.552V105.109C59.0497 104.427 58.8495 103.76 58.4741 103.19C58.0987 102.621 57.5646 102.174 56.9379 101.904L37.3279 93.5615C36.8995 93.3817 36.4395 93.2891 35.9748 93.2891C35.5102 93.2891 35.0502 93.3817 34.6217 93.5615Z" fill="#FF725E"/>
<path opacity="0.3" d="M40.634 130.035C47.2434 127.472 50.5232 120.035 47.9595 113.426C45.3959 106.816 37.9597 103.537 31.3502 106.1C24.7408 108.664 21.461 116.1 24.0247 122.71C26.5883 129.319 34.0245 132.599 40.634 130.035Z" fill="black"/>
<path d="M35.9846 118.782C38.9273 118.782 41.3129 116.396 41.3129 113.453C41.3129 110.511 38.9273 108.125 35.9846 108.125C33.0418 108.125 30.6562 110.511 30.6562 113.453C30.6562 116.396 33.0418 118.782 35.9846 118.782Z" fill="white"/>
<path d="M26.2578 126.425C27.1147 124.633 28.4671 123.123 30.155 122.074C31.8429 121.026 33.7958 120.482 35.7827 120.509C37.82 120.509 39.8196 121.059 41.5708 122.1C43.322 123.141 44.76 124.636 45.7333 126.425C45.7333 126.425 42.5901 131.076 35.6482 130.908C33.8491 130.9 32.0739 130.495 30.4503 129.72C28.8267 128.945 27.3949 127.82 26.2578 126.425Z" fill="white"/>
<path d="M48.8156 118.062C48.8092 117.993 48.8092 117.924 48.8156 117.855C48.8156 117.703 48.8156 117.502 48.7651 117.249C48.7651 117.115 48.7651 116.964 48.7651 116.801C48.7651 116.639 48.7091 116.459 48.6811 116.241C48.6227 115.796 48.5328 115.356 48.4122 114.924C48.1076 113.728 47.626 112.583 46.9834 111.529C46.1407 110.13 45.0375 108.905 43.7338 107.921C42.1588 106.723 40.3238 105.913 38.3775 105.556C36.1429 105.145 33.8391 105.338 31.7045 106.117C31.1268 106.317 30.5649 106.561 30.0236 106.845C29.4823 107.142 28.9619 107.475 28.466 107.842C27.9616 108.222 27.4808 108.632 27.0261 109.069C26.5804 109.531 26.1649 110.022 25.7822 110.537C24.9979 111.6 24.387 112.78 23.9725 114.033C23.0984 116.633 23.0984 119.446 23.9725 122.046C24.3846 123.3 24.9956 124.481 25.7822 125.542C26.1649 126.059 26.5803 126.551 27.0261 127.015C27.4794 127.453 27.9604 127.861 28.466 128.237C29.4388 128.979 30.5221 129.563 31.6764 129.968C33.8111 130.746 36.1149 130.94 38.3494 130.528C40.1241 130.194 41.8081 129.489 43.2912 128.459C44.7742 127.428 46.0229 126.096 46.9554 124.55C47.5908 123.503 48.0649 122.366 48.3617 121.177C48.4819 120.743 48.5718 120.301 48.6307 119.855C48.6307 119.664 48.6979 119.485 48.7147 119.295C48.7315 119.104 48.7147 118.981 48.7147 118.846L48.7651 118.236C48.7594 118.167 48.7594 118.097 48.7651 118.028C48.7712 118.097 48.7712 118.167 48.7651 118.236C48.7651 118.392 48.7651 118.594 48.7651 118.852C48.7651 118.986 48.7651 119.138 48.7651 119.3C48.7651 119.463 48.7203 119.647 48.6923 119.86C48.6475 120.313 48.5651 120.761 48.4458 121.199C48.1615 122.413 47.6909 123.576 47.0507 124.645C45.5281 127.245 43.143 129.228 40.3098 130.252C37.4766 131.276 34.3743 131.274 31.542 130.248C30.9652 130.041 30.4036 129.794 29.8611 129.509C29.3096 129.198 28.7815 128.848 28.2811 128.461C27.76 128.079 27.2658 127.661 26.802 127.211C26.356 126.746 25.9405 126.251 25.5581 125.732C24.7516 124.647 24.1236 123.441 23.698 122.158C23.2725 120.833 23.0477 119.453 23.0312 118.062C23.0468 116.671 23.2735 115.29 23.7036 113.966C24.125 112.682 24.7512 111.475 25.5581 110.392C25.9521 109.865 26.3787 109.363 26.8356 108.89C27.2977 108.44 27.79 108.023 28.3091 107.641C28.8059 107.261 29.3282 106.917 29.8723 106.61C30.4147 106.323 30.9763 106.074 31.5532 105.864C33.732 105.075 36.0821 104.882 38.3606 105.304C40.1681 105.652 41.8804 106.381 43.3829 107.444C44.8855 108.507 46.1436 109.879 47.0731 111.467C47.7134 112.539 48.184 113.703 48.4682 114.919C48.5874 115.356 48.6699 115.802 48.7147 116.252C48.7147 116.448 48.7763 116.628 48.7876 116.812V117.266C48.7876 117.524 48.7876 117.726 48.7876 117.877C48.802 117.938 48.8114 118 48.8156 118.062Z" fill="#263238"/>
<path d="M58.9827 111.375C59.0089 111.498 59.022 111.624 59.022 111.75C59.022 112.019 59.022 112.372 59.0668 112.815C59.1116 113.258 59.1116 113.84 59.0668 114.496C59.0668 114.826 59.0668 115.174 59.0668 115.549C59.0668 115.925 59.0668 116.317 58.9939 116.726C58.9155 117.549 58.8595 118.457 58.6858 119.421C58.613 119.903 58.5513 120.401 58.4505 120.911C58.3496 121.421 58.2264 121.942 58.1143 122.48C57.5755 124.796 56.8253 127.058 55.8732 129.237C54.8892 131.405 53.7135 133.481 52.3602 135.439C51.7102 136.319 51.1107 137.171 50.4608 137.905C50.147 138.274 49.8557 138.65 49.5475 138.98L48.6567 139.922C48.0964 140.543 47.5361 141.042 47.0543 141.485C46.6511 141.881 46.2265 142.255 45.7824 142.605L44.9532 143.278C44.8622 143.359 44.7627 143.431 44.6562 143.491C44.7359 143.397 44.8241 143.31 44.9196 143.233L45.7096 142.521C46.0626 142.219 46.4828 141.843 46.9422 141.401C47.4016 140.958 47.9619 140.437 48.5054 139.815L49.3795 138.863C49.682 138.532 49.9397 138.157 50.2759 137.787C50.909 137.053 51.4973 136.201 52.1417 135.316C53.4716 133.365 54.6301 131.303 55.6042 129.153C56.551 126.983 57.3011 124.733 57.8454 122.429L58.1927 120.872C58.2936 120.368 58.3608 119.869 58.4449 119.393C58.6242 118.44 58.6914 117.538 58.781 116.72C58.8315 116.311 58.8651 115.919 58.8763 115.549L58.9267 114.501C58.9771 113.846 58.9659 113.28 58.9659 112.821C58.9659 112.361 58.9659 112.031 58.9659 111.756C58.962 111.629 58.9676 111.501 58.9827 111.375Z" fill="#263238"/>
<path d="M195.214 256.953H62.7291C61.8611 256.938 61.0045 256.753 60.2083 256.407C59.412 256.061 58.6918 255.562 58.0887 254.937C57.4856 254.313 57.0115 253.576 56.6935 252.768C56.3755 251.96 56.2199 251.097 56.2354 250.229V47.7312C56.2199 46.8633 56.3755 46.0007 56.6935 45.1929C57.0115 44.3851 57.4856 43.648 58.0887 43.0235C58.6918 42.3991 59.412 41.8997 60.2083 41.5538C61.0045 41.2079 61.8611 41.0224 62.7291 41.0078H195.214C196.082 41.0224 196.938 41.208 197.734 41.5539C198.53 41.8999 199.25 42.3994 199.853 43.0239C200.455 43.6484 200.929 44.3856 201.246 45.1934C201.564 46.0011 201.719 46.8635 201.702 47.7312V250.241C201.717 251.107 201.561 251.969 201.243 252.775C200.925 253.582 200.451 254.317 199.849 254.941C199.246 255.564 198.527 256.063 197.732 256.408C196.936 256.753 196.081 256.938 195.214 256.953Z" fill="#263238"/>
<path d="M131.513 247.135C131.534 248.358 131.191 249.56 130.526 250.588C129.862 251.615 128.907 252.421 127.783 252.904C126.659 253.387 125.416 253.525 124.214 253.299C123.011 253.073 121.903 252.495 121.031 251.637C120.158 250.78 119.561 249.682 119.314 248.484C119.067 247.285 119.183 246.041 119.646 244.908C120.109 243.776 120.899 242.807 121.915 242.125C122.931 241.443 124.126 241.079 125.35 241.078C126.97 241.065 128.529 241.695 129.685 242.831C130.841 243.967 131.498 245.515 131.513 247.135Z" fill="#455A64"/>
<path d="M143.878 52.4268H114.183C113.906 52.4224 113.633 52.3636 113.379 52.2537C113.125 52.1437 112.895 51.9848 112.703 51.7861C112.51 51.5873 112.359 51.3526 112.257 51.0953C112.155 50.838 112.105 50.5632 112.11 50.2865C112.101 49.7272 112.314 49.1872 112.702 48.7849C113.091 48.3827 113.623 48.1509 114.183 48.1406H143.878C144.437 48.1509 144.969 48.3827 145.358 48.7849C145.747 49.1872 145.96 49.7272 145.951 50.2865C145.955 50.5632 145.905 50.838 145.803 51.0953C145.702 51.3526 145.55 51.5873 145.358 51.7861C145.165 51.9848 144.935 52.1437 144.681 52.2537C144.428 52.3636 144.154 52.4224 143.878 52.4268Z" fill="#455A64"/>
<path d="M196.998 56.4219H60.7031V236.755H196.998V56.4219Z" fill="white"/>
<path d="M197.003 56.4219H191.188V236.755H197.003V56.4219Z" fill="#F5F5F5"/>
<path d="M194.075 121.213C193.595 121.211 193.135 121.019 192.795 120.679C192.456 120.339 192.266 119.878 192.266 119.397V79.5106C192.266 79.0302 192.456 78.5693 192.795 78.229C193.135 77.8887 193.595 77.6968 194.075 77.6953C194.557 77.6953 195.019 77.8866 195.359 78.227C195.699 78.5674 195.891 79.0292 195.891 79.5106V119.397C195.891 119.879 195.699 120.341 195.359 120.681C195.019 121.021 194.557 121.213 194.075 121.213Z" fill="#E0E0E0"/>
<path d="M179.22 97.4618H78.727C77.9602 97.4618 77.2249 97.1572 76.6827 96.6151C76.1405 96.0729 75.8359 95.3375 75.8359 94.5708C75.8359 93.804 76.1405 93.0686 76.6827 92.5265C77.2249 91.9843 77.9602 91.6797 78.727 91.6797H179.22C179.987 91.6797 180.722 91.9843 181.264 92.5265C181.806 93.0686 182.111 93.804 182.111 94.5708C182.111 95.3375 181.806 96.0729 181.264 96.6151C180.722 97.1572 179.987 97.4618 179.22 97.4618Z" fill="#E0E0E0"/>
<path d="M163.764 76.3525H100.547C99.7806 76.3525 99.0452 76.0479 98.503 75.5057C97.9608 74.9635 97.6563 74.2281 97.6563 73.4614C97.6562 72.6946 97.9608 71.9593 98.503 71.4171C99.0452 70.8749 99.7806 70.5703 100.547 70.5703H163.764C164.531 70.5703 165.266 70.8749 165.809 71.4171C166.351 71.9593 166.655 72.6946 166.655 73.4614C166.655 74.2281 166.351 74.9635 165.809 75.5057C165.266 76.0479 164.531 76.3525 163.764 76.3525Z" fill="#FF725E"/>
<path d="M164.952 109.102H93.0004C92.2337 109.102 91.4983 108.798 90.9561 108.256C90.414 107.713 90.1094 106.978 90.1094 106.211C90.1094 105.445 90.414 104.709 90.9561 104.167C91.4983 103.625 92.2337 103.32 93.0004 103.32H164.952C165.332 103.32 165.708 103.395 166.059 103.54C166.409 103.686 166.728 103.899 166.997 104.167C167.265 104.436 167.478 104.754 167.623 105.105C167.769 105.456 167.843 105.832 167.843 106.211C167.843 106.591 167.769 106.967 167.623 107.318C167.478 107.669 167.265 107.987 166.997 108.256C166.728 108.524 166.409 108.737 166.059 108.882C165.708 109.028 165.332 109.102 164.952 109.102Z" fill="#E0E0E0"/>
<path d="M132.456 159.829H77.0942C76.3274 159.829 75.5921 159.524 75.0499 158.982C74.5077 158.44 74.2031 157.705 74.2031 156.938C74.2031 156.558 74.2779 156.182 74.4232 155.832C74.5685 155.481 74.7814 155.162 75.0499 154.894C75.3184 154.625 75.6371 154.412 75.9878 154.267C76.3386 154.122 76.7145 154.047 77.0942 154.047H132.456C132.836 154.047 133.212 154.122 133.562 154.267C133.913 154.412 134.232 154.625 134.5 154.894C134.769 155.162 134.982 155.481 135.127 155.832C135.272 156.182 135.347 156.558 135.347 156.938C135.347 157.705 135.042 158.44 134.5 158.982C133.958 159.524 133.223 159.829 132.456 159.829Z" fill="#E0E0E0"/>
<path d="M177.587 147.714H77.0942C76.3274 147.714 75.5921 147.409 75.0499 146.867C74.5077 146.325 74.2031 145.59 74.2031 144.823C74.2031 144.444 74.2779 144.068 74.4233 143.717C74.5687 143.367 74.7817 143.049 75.0502 142.781C75.3188 142.513 75.6375 142.3 75.9883 142.156C76.339 142.011 76.7148 141.937 77.0942 141.938H177.587C177.966 141.937 178.342 142.011 178.693 142.156C179.044 142.3 179.362 142.513 179.631 142.781C179.899 143.049 180.112 143.367 180.258 143.717C180.403 144.068 180.478 144.444 180.478 144.823C180.478 145.203 180.403 145.579 180.258 145.929C180.113 146.28 179.9 146.599 179.631 146.867C179.363 147.136 179.044 147.349 178.693 147.494C178.343 147.639 177.967 147.714 177.587 147.714Z" fill="#E0E0E0"/>
<path d="M177.592 180.93H89.6333C88.0366 180.93 86.7422 182.224 86.7422 183.821C86.7422 185.417 88.0366 186.712 89.6333 186.712H177.592C179.189 186.712 180.483 185.417 180.483 183.821C180.483 182.224 179.189 180.93 177.592 180.93Z" fill="#E0E0E0"/>
<path d="M177.587 199.052H77.0942C76.3274 199.052 75.5921 198.748 75.0499 198.205C74.5077 197.663 74.2031 196.928 74.2031 196.161C74.2061 195.396 74.512 194.664 75.0539 194.124C75.5957 193.584 76.3294 193.281 77.0942 193.281H177.587C177.967 193.281 178.343 193.356 178.693 193.501C179.044 193.647 179.363 193.86 179.631 194.128C179.9 194.396 180.113 194.715 180.258 195.066C180.403 195.417 180.478 195.793 180.478 196.172C180.475 196.937 180.169 197.67 179.627 198.209C179.085 198.749 178.352 199.052 177.587 199.052Z" fill="#E0E0E0"/>
<path d="M177.587 211.618H77.0942C76.3274 211.618 75.5921 211.313 75.0499 210.771C74.5077 210.229 74.2031 209.494 74.2031 208.727C74.2031 207.96 74.5077 207.225 75.0499 206.683C75.5921 206.141 76.3274 205.836 77.0942 205.836H177.587C177.967 205.836 178.343 205.911 178.693 206.056C179.044 206.201 179.363 206.414 179.631 206.683C179.9 206.951 180.113 207.27 180.258 207.621C180.403 207.971 180.478 208.347 180.478 208.727C180.478 209.494 180.173 210.229 179.631 210.771C179.089 211.313 178.354 211.618 177.587 211.618Z" fill="#E0E0E0"/>
<path d="M81.6235 183.816C81.6235 184.41 81.4472 184.991 81.1169 185.485C80.7867 185.979 80.3173 186.364 79.7683 186.591C79.2192 186.818 78.6151 186.877 78.0324 186.761C77.4497 186.644 76.9146 186.358 76.4948 185.937C76.075 185.517 75.7895 184.981 75.6742 184.398C75.559 183.815 75.6192 183.211 75.8474 182.662C76.0756 182.114 76.4614 181.645 76.956 181.316C77.4506 180.987 78.0317 180.811 78.6259 180.813C79.4214 180.814 80.1839 181.131 80.7458 181.694C81.3078 182.257 81.6235 183.02 81.6235 183.816Z" fill="#FF725E"/>
<path d="M177.598 136.431H89.6333C88.8665 136.431 88.1311 136.126 87.589 135.584C87.0468 135.042 86.7422 134.306 86.7422 133.54C86.7422 132.773 87.0468 132.037 87.589 131.495C88.1311 130.953 88.8665 130.648 89.6333 130.648H177.598C177.978 130.648 178.354 130.723 178.704 130.869C179.055 131.014 179.374 131.227 179.642 131.495C179.911 131.764 180.124 132.082 180.269 132.433C180.414 132.784 180.489 133.16 180.489 133.54C180.489 133.919 180.414 134.295 180.269 134.646C180.124 134.997 179.911 135.315 179.642 135.584C179.374 135.852 179.055 136.065 178.704 136.211C178.354 136.356 177.978 136.431 177.598 136.431Z" fill="#E0E0E0"/>
<path d="M78.6281 136.538C80.2867 136.538 81.6313 135.193 81.6313 133.534C81.6313 131.876 80.2867 130.531 78.6281 130.531C76.9695 130.531 75.625 131.876 75.625 133.534C75.625 135.193 76.9695 136.538 78.6281 136.538Z" fill="#FF725E"/>
<path d="M174.79 230H152.238C151.017 230 149.845 229.515 148.982 228.651C148.118 227.788 147.633 226.616 147.633 225.395C147.633 224.173 148.118 223.002 148.982 222.138C149.845 221.274 151.017 220.789 152.238 220.789H174.79C176.011 220.789 177.183 221.274 178.046 222.138C178.91 223.002 179.395 224.173 179.395 225.395C179.395 226.616 178.91 227.788 178.046 228.651C177.183 229.515 176.011 230 174.79 230Z" fill="#FF725E"/>
<path d="M58.6123 12.6677L35.2372 24.3945C34.3819 24.7581 33.6523 25.3652 33.1393 26.1403C32.6262 26.9153 32.3524 27.824 32.3518 28.7535V39.6903C32.3241 49.6438 35.2233 59.3858 40.6888 67.7045C44.9021 74.103 50.4826 82.3055 59.7777 86.9895H63.9687C74.3115 83.8351 82.0322 75.4252 86.7554 68.2368C92.2209 59.918 95.1201 50.176 95.0925 40.2225V28.7535C95.0938 27.8266 94.8232 26.9196 94.3143 26.1448C93.8055 25.3701 93.0806 24.7615 92.2294 24.3945L65.5823 13.0319C64.3945 12.5444 59.8001 12.1634 58.6123 12.6677Z" fill="#FF725E"/>
<path opacity="0.3" d="M58.6123 12.6677L35.2372 24.3945C34.3819 24.7581 33.6523 25.3652 33.1393 26.1403C32.6262 26.9153 32.3524 27.824 32.3518 28.7535V39.6903C32.3241 49.6438 35.2233 59.3858 40.6888 67.7045C44.9021 74.103 50.4826 82.3055 59.7777 86.9895H63.9687C74.3115 83.8351 82.0322 75.4252 86.7554 68.2368C92.2209 59.918 95.1201 50.176 95.0925 40.2225V28.7535C95.0938 27.8266 94.8232 26.9196 94.3143 26.1448C93.8055 25.3701 93.0806 24.7615 92.2294 24.3945L65.5823 13.0319C64.3945 12.5444 59.8001 12.1634 58.6123 12.6677Z" fill="black"/>
<path d="M57.6743 13.0325L31.0439 24.3951C30.1892 24.759 29.4604 25.3663 28.9483 26.1414C28.4362 26.9165 28.1635 27.8251 28.1641 28.7541V39.6909C28.1654 49.8179 31.17 59.7171 36.7978 68.1364C42.4257 76.5556 50.4239 83.1168 59.781 86.9901C70.1238 83.8357 77.8445 75.4258 82.5621 68.2374C88.03 59.9198 90.9295 50.177 90.8992 40.2231V28.7541C90.8998 27.8251 90.627 26.9165 90.115 26.1414C89.6029 25.3663 88.8741 24.759 88.0193 24.3951L61.417 13.0325C60.8256 12.7791 60.189 12.6484 59.5456 12.6484C58.9023 12.6484 58.2656 12.7791 57.6743 13.0325Z" fill="#FF725E"/>
<path d="M90.8184 37.2734C90.8253 37.3161 90.8253 37.3596 90.8184 37.4023C90.8184 37.5032 90.8184 37.6264 90.8184 37.7777C90.8184 38.1363 90.8464 38.6181 90.8688 39.2288C90.8912 39.8395 90.9248 40.6239 90.8688 41.5204C90.8688 41.9686 90.8688 42.4449 90.824 42.9491C90.824 43.2069 90.824 43.4646 90.824 43.7335C90.824 44.0025 90.7736 44.2938 90.7456 44.5571C90.6335 45.6777 90.5607 46.9103 90.3253 48.2158C90.2189 48.8657 90.1348 49.5493 90.0004 50.2384C89.8659 50.9276 89.6978 51.6391 89.5409 52.3675C88.8009 55.5168 87.7712 58.5909 86.465 61.5506C85.1302 64.4967 83.5364 67.3186 81.7025 69.9829C80.8173 71.1819 80.0217 72.3417 79.1252 73.3446C78.6938 73.8488 78.3016 74.3587 77.8814 74.8069L76.6712 76.0956C75.9204 76.936 75.1472 77.6028 74.5029 78.2247C74.1723 78.5272 73.8754 78.8186 73.5896 79.0707L72.8052 79.7038L71.6847 80.6227L71.3877 80.858C71.3205 80.9084 71.2813 80.9309 71.2813 80.9252C71.2813 80.9196 71.2812 80.8916 71.3653 80.83L71.6454 80.5779L72.7268 79.6198L73.5168 78.9306C73.8025 78.6785 74.0771 78.3704 74.4132 78.0678C75.0464 77.4403 75.8028 76.7679 76.5423 75.9219L77.7357 74.622C78.1503 74.1738 78.5369 73.664 78.9572 73.1597C79.8256 72.1624 80.638 71.0026 81.5008 69.798C83.3168 67.1393 84.8972 64.3272 86.2241 61.3937C87.519 58.449 88.5484 55.3945 89.3 52.2667C89.4625 51.5439 89.6138 50.8379 89.7707 50.1544C89.9275 49.4708 89.9948 48.7873 90.1068 48.1374C90.3534 46.8375 90.4374 45.6105 90.5607 44.4955C90.5943 44.221 90.6223 43.9352 90.6503 43.6831C90.6783 43.431 90.6503 43.1564 90.6839 42.9043C90.7063 42.4 90.7287 41.9238 90.7512 41.4756C90.8128 40.5847 90.796 39.7947 90.796 39.1896V37.7833V37.4023C90.7949 37.3583 90.8026 37.3145 90.8184 37.2734Z" fill="#263238"/>
<path d="M70.0713 51.966H67.2307V36.5077C67.1806 34.7913 66.4636 33.1619 65.2318 31.9655C64.0001 30.7691 62.3505 30.0998 60.6333 30.0998C58.9161 30.0998 57.2666 30.7691 56.0348 31.9655C54.803 33.1619 54.086 34.7913 54.036 36.5077V51.966H51.1953V36.5077C51.2553 34.0444 52.276 31.7022 54.0395 29.9812C55.8029 28.2602 58.1693 27.2969 60.6333 27.2969C63.0973 27.2969 65.4637 28.2602 67.2272 29.9812C68.9906 31.7022 70.0113 34.0444 70.0713 36.5077V51.966Z" fill="#F5F5F5"/>
<path d="M70.1114 41.4844H51.1849C49.3871 41.4844 47.9297 42.9418 47.9297 44.7396V58.1641C47.9297 59.9619 49.3871 61.4193 51.1849 61.4193H70.1114C71.9092 61.4193 73.3666 59.9619 73.3666 58.1641V44.7396C73.3666 42.9418 71.9092 41.4844 70.1114 41.4844Z" fill="white"/>
<path d="M70.1096 61.4203C70.3944 61.3901 70.6771 61.3415 70.9556 61.2746C71.6344 61.0787 72.2303 60.6659 72.6522 60.0993C73.0742 59.5327 73.2989 58.8434 73.292 58.137C73.292 57.4815 73.292 56.7699 73.292 56.0023C73.292 54.4727 73.292 52.7302 73.292 50.8029C73.292 48.8755 73.292 46.7744 73.292 44.5109C73.2499 43.9467 73.0557 43.4045 72.7302 42.9418C72.4046 42.4792 71.9598 42.1133 71.443 41.8831C70.8919 41.6562 70.2945 41.564 69.7006 41.6142H67.818L51.1831 41.6086C50.4839 41.6083 49.805 41.8437 49.2561 42.2768C48.7071 42.7099 48.3201 43.3153 48.1576 43.9954C48.0849 44.334 48.0548 44.6803 48.068 45.0263V48.1807C48.068 50.9821 48.068 53.6267 48.068 56.176C48.1184 57.4422 47.855 58.7477 48.505 59.745C48.7927 60.2349 49.2076 60.6378 49.7058 60.911C50.2039 61.1843 50.7667 61.3176 51.3344 61.297H57.6376L66.7647 61.3474H69.2411H69.8855C69.96 61.3404 70.035 61.3404 70.1096 61.3474C70.0351 61.3558 69.9599 61.3558 69.8855 61.3474H69.2411H66.7647L57.6376 61.3922H51.3344C50.8715 61.413 50.4092 61.3386 49.9761 61.1737C49.5431 61.0088 49.1484 60.7568 48.8165 60.4334C48.4847 60.1099 48.2227 59.7218 48.0467 59.2931C47.8707 58.8644 47.7845 58.4042 47.7934 57.9409V56.176C47.7934 53.6267 47.7934 50.9541 47.7934 48.1807V45.0487C47.7766 44.6727 47.8086 44.296 47.8887 43.9282C48.0707 43.1939 48.4951 42.5424 49.0933 42.0792C49.6963 41.6022 50.4422 41.3417 51.2112 41.3396H67.7844H69.6669C70.2986 41.2914 70.9326 41.3952 71.5159 41.6422C72.0732 41.891 72.5523 42.2869 72.9017 42.7873C73.2511 43.2878 73.4577 43.8739 73.4993 44.4828C73.4993 46.7688 73.4993 48.8643 73.4993 50.7916C73.4993 52.719 73.4993 54.4615 73.4993 55.9911C73.4993 56.7587 73.4993 57.4702 73.4993 58.1258C73.4999 58.7394 73.3291 59.3409 73.0062 59.8627C72.5669 60.5872 71.8607 61.1103 71.0396 61.3194C70.7386 61.4108 70.4232 61.445 70.1096 61.4203Z" fill="#263238"/>
<path d="M62.6007 51.9642C62.8571 51.7084 63.0604 51.4045 63.1989 51.0699C63.3374 50.7352 63.4083 50.3765 63.4075 50.0144C63.4108 49.4924 63.2681 48.9799 62.9957 48.5346C62.7233 48.0893 62.3318 47.7291 61.8656 47.4944C61.3993 47.2597 60.8767 47.16 60.3568 47.2064C59.8369 47.2529 59.3403 47.4437 58.923 47.7573C58.5057 48.0709 58.1844 48.4949 57.9952 48.9814C57.806 49.4679 57.7565 49.9976 57.8522 50.5107C57.948 51.0238 58.1852 51.5 58.5372 51.8855C58.8891 52.271 59.3418 52.5505 59.8441 52.6925L59.2446 55.3483H61.9059L61.3456 52.6925C61.8107 52.5597 62.2334 52.3088 62.5727 51.9642" fill="#FF725E"/>
<path d="M236.129 71.9654V94.6681C236.179 98.5901 236.756 104.753 230.526 104.552C225.153 103.991 223.724 98.8759 223.685 95.2116C223.685 93.4747 223.646 92.0236 223.629 91.8499C223.629 91.8499 217.746 91.3681 217.247 85.5523C217.006 82.7509 216.984 76.9183 217.023 71.646C217.047 68.9155 218.098 66.2939 219.966 64.3027C221.835 62.3116 224.385 61.0967 227.108 60.8998L227.669 60.8605C233.759 60.7709 236.23 65.8863 236.129 71.9654Z" fill="#FFBF9D"/>
<path d="M223.648 91.8405C226.336 91.634 228.909 90.6619 231.061 89.0391C231.061 89.0391 229.526 93.4261 223.682 93.3252L223.648 91.8405Z" fill="#FF9A6C"/>
<path d="M226.976 74.0322C227.094 74.1499 227.766 73.6064 228.736 73.584C229.705 73.5616 230.416 74.0322 230.54 73.909C230.663 73.7857 230.472 73.6344 230.153 73.4159C229.727 73.1295 229.221 72.9845 228.708 73.0013C228.198 73.0174 227.707 73.196 227.307 73.5112C227.015 73.7577 226.92 73.9762 226.976 74.0322Z" fill="#263238"/>
<path d="M226.961 76.7836C226.973 76.9897 227.065 77.1829 227.218 77.3214C227.371 77.4598 227.573 77.5323 227.779 77.5232C227.879 77.5239 227.979 77.5045 228.072 77.4661C228.165 77.4276 228.249 77.3709 228.32 77.2994C228.39 77.2278 228.446 77.1428 228.483 77.0494C228.52 76.9559 228.538 76.856 228.535 76.7556C228.522 76.551 228.43 76.3594 228.279 76.2214C228.127 76.0834 227.928 76.0098 227.723 76.016C227.622 76.016 227.523 76.0359 227.43 76.0745C227.337 76.1132 227.253 76.1698 227.182 76.2412C227.111 76.3125 227.055 76.3972 227.017 76.4903C226.979 76.5834 226.96 76.6831 226.961 76.7836Z" fill="#263238"/>
<path d="M224.543 80.8317C224.06 80.7192 223.565 80.6666 223.069 80.6748C222.839 80.6748 222.621 80.6356 222.57 80.4843C222.533 80.2497 222.568 80.0092 222.671 79.7951C222.851 79.2348 223.03 78.6353 223.232 78.0078C223.988 75.4641 224.52 73.3799 224.419 73.3518C224.319 73.3238 223.618 75.3577 222.862 77.9014C222.683 78.5289 222.509 79.1284 222.341 79.6999C222.219 79.9854 222.201 80.3046 222.29 80.6019C222.328 80.6808 222.384 80.7497 222.453 80.8032C222.522 80.8567 222.602 80.8933 222.688 80.9101C222.818 80.9254 222.95 80.9254 223.08 80.9101C223.569 80.9422 224.06 80.9158 224.543 80.8317Z" fill="#263238"/>
<path d="M227.397 69.8792C227.492 70.0977 228.271 69.9352 229.206 69.98C230.142 70.0249 230.887 70.2322 231.016 70.0249C231.061 69.9296 230.915 69.7279 230.601 69.5374C230.183 69.3028 229.716 69.1704 229.236 69.1509C228.757 69.1315 228.281 69.2255 227.845 69.4253C227.514 69.5878 227.357 69.7783 227.397 69.8792Z" fill="#263238"/>
<path d="M218.148 71.3413C218.255 71.5206 219.011 71.3413 219.936 71.2965C220.86 71.2517 221.617 71.3861 221.717 71.2012C221.757 71.1116 221.605 70.9547 221.286 70.8146C220.854 70.6421 220.389 70.5657 219.924 70.5905C219.454 70.6035 218.991 70.7182 218.569 70.9267C218.255 71.0892 218.104 71.2573 218.148 71.3413Z" fill="#263238"/>
<path d="M209.337 66.4262C209.37 66.308 209.426 66.1975 209.502 66.1013C209.578 66.005 209.672 65.925 209.78 65.8659C210.244 65.6544 210.757 65.5712 211.264 65.625C212.816 65.5963 214.329 65.1365 215.635 64.2971C216.244 63.4212 216.924 62.5967 217.668 61.8318C219.433 60.0165 220.879 58.7783 222.38 58.1732C224.319 57.3944 227.563 57.0526 229.586 57.6129C231.608 58.1732 233.424 59.7868 233.709 61.8542C234.83 60.8961 236.545 60.9074 237.928 61.462H237.962C239.497 62.0223 240.371 63.6359 240.825 65.2047C241.279 66.7735 241.475 68.4544 242.304 69.8607C242.478 70.1521 242.685 70.505 242.534 70.8132C242.464 70.9248 242.361 71.0124 242.24 71.0644C242.119 71.1164 241.985 71.1304 241.856 71.1045C241.596 71.049 241.352 70.9381 241.139 70.7796C241.313 71.1942 241.481 71.6032 241.654 72.0122C241.093 72.1098 240.517 72.0733 239.973 71.9057C239.691 73.3044 239.326 74.6851 238.881 76.0406C238.307 75.973 237.728 76.1143 237.25 76.4385C236.69 76.9259 236.472 77.8392 235.57 77.4918C235.116 77.3125 234.701 76.3712 234.544 75.895C233.531 72.7919 233.196 69.5073 233.564 66.2637C232.926 65.585 232.166 65.0336 231.323 64.6389L231.39 64.7005C229.765 64.1402 227.927 63.5799 226.387 64.3419C225.193 64.9358 224.493 66.174 223.585 67.1433C222.764 68.0647 221.763 68.8095 220.645 69.3325C219.527 69.8555 218.314 70.1457 217.08 70.1857C216.996 71.8217 217.131 74.1357 217.047 75.7885L215.668 73.1664C215.56 72.9847 215.461 72.7977 215.371 72.6061V72.5501C215.233 72.23 215.078 71.9177 214.906 71.6144C214.715 71.7677 214.476 71.8477 214.232 71.8399C213.987 71.8322 213.753 71.7371 213.572 71.572C213.392 71.4069 213.276 71.1826 213.246 70.9396C213.217 70.6967 213.275 70.4511 213.41 70.2473C213.548 70.057 213.715 69.8889 213.903 69.7486C213.703 69.9434 213.456 70.0826 213.186 70.1523C212.916 70.2221 212.632 70.2201 212.363 70.1464C212.096 70.0652 211.863 69.8981 211.701 69.6712C211.539 69.4442 211.457 69.1701 211.466 68.8914C211.489 68.704 211.561 68.5259 211.674 68.3746C211.787 68.2233 211.937 68.104 212.11 68.0286C211.389 68.0865 210.667 67.9264 210.037 67.5691C209.589 67.3282 209.186 66.9416 209.337 66.4262Z" fill="#263238"/>
<path d="M231.859 62.5312C232.062 62.7014 232.25 62.8889 232.42 63.0915C232.88 63.6451 233.187 64.3096 233.311 65.0189C233.412 65.5054 233.463 66.0011 233.462 66.4981C233.462 67.0584 233.423 67.6186 233.378 68.2125C233.325 68.8461 233.312 69.4823 233.339 70.1175C233.354 70.4566 233.397 70.7939 233.467 71.126C233.52 71.4802 233.66 71.8155 233.876 72.1009C233.978 72.214 234.108 72.2988 234.252 72.3469C234.396 72.395 234.551 72.4048 234.7 72.3755C234.984 72.3235 235.243 72.1774 235.434 71.9608C235.751 71.5274 235.944 71.0163 235.994 70.4817H235.877C236.05 70.9216 236.288 71.3332 236.583 71.7031C236.865 72.0432 237.265 72.2634 237.703 72.3194C237.909 72.34 238.116 72.3031 238.303 72.213C238.476 72.1224 238.619 71.9819 238.712 71.8096C238.796 71.651 238.838 71.4736 238.835 71.2941C238.826 71.1269 238.759 70.9682 238.644 70.8459L238.583 70.9019C238.929 71.2977 239.355 71.6164 239.832 71.8376C240 71.9123 240.129 71.9627 240.219 71.9889L240.359 72.0225L240.23 71.9664C240.14 71.9272 240.012 71.8768 239.855 71.7984C239.392 71.564 238.981 71.2402 238.644 70.8459L238.583 70.9019C238.678 71.0238 238.733 71.1724 238.74 71.3271C238.747 71.4817 238.706 71.6347 238.622 71.7648C238.539 71.9167 238.412 72.0398 238.258 72.1177C238.084 72.2015 237.889 72.2327 237.698 72.2074C237.288 72.1604 236.912 71.9602 236.644 71.6471C236.363 71.2836 236.134 70.8817 235.966 70.4537L235.882 70.2688L235.843 70.4705C235.783 70.9821 235.59 71.4689 235.283 71.8824C235.107 72.0726 234.876 72.2021 234.622 72.2522C234.495 72.2779 234.364 72.2703 234.241 72.23C234.118 72.1897 234.008 72.1182 233.921 72.0225C233.72 71.7554 233.59 71.4409 233.546 71.1092C233.477 70.7843 233.432 70.4547 233.411 70.1231C233.385 69.4917 233.398 68.8592 233.451 68.2293C233.484 67.6242 233.523 67.0528 233.518 66.5093C233.514 66.0061 233.458 65.5047 233.35 65.0133C233.213 64.2907 232.886 63.6175 232.403 63.0635C232.253 62.8564 232.07 62.6764 231.859 62.5312Z" fill="#455A64"/>
<path d="M213.867 68.1847L213.918 68.2239C213.964 68.2629 214.012 68.2985 214.063 68.3304C214.14 68.3928 214.222 68.4473 214.31 68.4928C214.424 68.5603 214.542 68.622 214.663 68.6777C215.442 69.0311 216.297 69.1851 217.15 69.126C218.421 69.0403 219.639 68.5888 220.658 67.8261C221.891 66.8879 222.917 65.7053 223.672 64.3523C224.098 63.652 224.44 62.9292 224.793 62.2625C225.155 61.6115 225.607 61.0153 226.137 60.492C226.604 60.0168 227.182 59.6662 227.818 59.4722C228.106 59.3925 228.405 59.3584 228.704 59.3714C228.975 59.392 229.243 59.4485 229.499 59.5395C229.952 59.6931 230.366 59.9414 230.715 60.2679C230.978 60.5141 231.2 60.8018 231.37 61.1195C231.506 61.3971 231.606 61.6908 231.667 61.9935C231.667 61.9935 231.667 61.9935 231.667 61.9319C231.667 61.8703 231.667 61.8254 231.639 61.7526C231.593 61.5255 231.518 61.3052 231.415 61.0971C231.023 60.3263 230.349 59.7363 229.533 59.4498C229.263 59.356 228.983 59.2976 228.698 59.2761C228.388 59.2631 228.078 59.2971 227.779 59.377C227.124 59.5705 226.528 59.9271 226.048 60.4135C225.519 60.9426 225.072 61.5468 224.72 62.2064C224.333 62.8788 223.986 63.5959 223.571 64.2963C222.821 65.6315 221.809 66.8016 220.596 67.7365C219.598 68.4925 218.404 68.9457 217.156 69.0419C216.316 69.1082 215.472 68.9698 214.696 68.6385C214.411 68.5046 214.134 68.3531 213.867 68.1847Z" fill="#455A64"/>
<path d="M213.352 65.6347C213.352 65.6347 213.419 65.6963 213.559 65.7803C213.756 65.9 213.962 66.0049 214.175 66.0941C214.492 66.2288 214.82 66.3357 215.156 66.4135C215.566 66.51 215.984 66.5663 216.405 66.5815C216.827 66.5919 217.249 66.5638 217.666 66.4975C218.003 66.4406 218.335 66.3544 218.657 66.2398C218.877 66.1647 219.091 66.0729 219.296 65.9652C219.374 65.9304 219.447 65.8872 219.515 65.8364C219.515 65.8364 219.184 65.9764 218.629 66.1501C218.306 66.2464 217.977 66.3213 217.643 66.3742C217.235 66.431 216.823 66.4554 216.411 66.4471C215.998 66.4288 215.588 66.3782 215.184 66.2958C214.854 66.2232 214.53 66.1258 214.214 66.0045C213.677 65.7971 213.363 65.6122 213.352 65.6347Z" fill="#455A64"/>
<path d="M218.104 74.0322C218.216 74.1499 218.888 73.6064 219.863 73.584C220.838 73.5616 221.544 74.0322 221.667 73.9089C221.79 73.7857 221.594 73.6344 221.281 73.4159C220.852 73.1297 220.345 72.9847 219.829 73.0013C219.322 73.0169 218.833 73.1957 218.434 73.5111C218.137 73.7576 218.042 73.9762 218.104 74.0322Z" fill="#263238"/>
<path d="M219.094 76.7836C219.107 76.9882 219.199 77.1797 219.35 77.3177C219.502 77.4557 219.701 77.5294 219.906 77.5232C220.007 77.5239 220.107 77.5045 220.2 77.4662C220.293 77.4278 220.378 77.3712 220.449 77.2997C220.52 77.2282 220.576 77.1432 220.613 77.0498C220.651 76.9563 220.67 76.8563 220.668 76.7556C220.654 76.5505 220.561 76.3589 220.408 76.2211C220.256 76.0832 220.056 76.0097 219.85 76.016C219.75 76.016 219.651 76.0359 219.558 76.0746C219.466 76.1133 219.382 76.1701 219.311 76.2415C219.241 76.3129 219.186 76.3976 219.148 76.4907C219.111 76.5838 219.092 76.6833 219.094 76.7836Z" fill="#263238"/>
<path d="M235.977 76.3033C236.072 76.2529 239.899 74.8298 240.05 78.8134C240.201 82.7971 236.178 82.1359 236.167 82.0239C236.156 81.9118 235.977 76.3033 235.977 76.3033Z" fill="#FFBF9D"/>
<path d="M237.35 80.4614C237.35 80.4614 237.423 80.5063 237.541 80.5567C237.709 80.6215 237.894 80.6215 238.062 80.5567C238.312 80.3827 238.512 80.1451 238.64 79.8684C238.768 79.5917 238.82 79.2858 238.79 78.9823C238.79 78.6404 238.711 78.3031 238.561 77.9962C238.517 77.8713 238.443 77.7593 238.345 77.6703C238.247 77.5813 238.129 77.518 238 77.4863C237.92 77.4705 237.837 77.4824 237.765 77.5201C237.693 77.5578 237.635 77.619 237.603 77.6936C237.552 77.8057 237.603 77.8841 237.558 77.8953C237.513 77.9065 237.474 77.8337 237.496 77.6656C237.517 77.5667 237.568 77.4766 237.642 77.4079C237.75 77.3233 237.886 77.2814 238.023 77.2902C238.188 77.3168 238.343 77.3847 238.474 77.4876C238.605 77.5904 238.708 77.725 238.774 77.8785C238.961 78.2222 239.059 78.6075 239.059 78.9991C239.059 79.8003 238.69 80.5679 238.118 80.7584C238.013 80.7939 237.9 80.8052 237.79 80.7917C237.679 80.7781 237.573 80.7399 237.479 80.6799C237.35 80.5567 237.311 80.467 237.35 80.4614Z" fill="#FF9A6C"/>
<path d="M227.374 81.6254C227.408 81.6254 227.408 81.8608 227.274 82.1857C227.078 82.623 226.759 82.9932 226.355 83.2503C225.962 83.5151 225.495 83.6484 225.021 83.6313C224.657 83.5976 224.461 83.4744 224.461 83.4464C224.461 83.4183 224.685 83.4464 225.021 83.4464C225.448 83.4148 225.861 83.276 226.22 83.043C226.583 82.8102 226.887 82.4978 227.111 82.1297C227.262 81.8215 227.33 81.6142 227.374 81.6254Z" fill="#263238"/>
<path d="M247.431 239.156L248.619 252.603L252.832 263.002C252.901 263.183 252.931 263.377 252.92 263.57C252.908 263.764 252.856 263.953 252.766 264.125C252.676 264.296 252.55 264.447 252.397 264.566C252.245 264.686 252.068 264.771 251.88 264.817C251.657 264.884 251.422 264.898 251.193 264.859C250.963 264.82 250.746 264.729 250.558 264.593C248.154 262.845 239.486 256.413 239.391 255.578C239.268 254.491 237.055 241.252 237.055 241.252L247.431 239.156Z" fill="#455A64"/>
<path d="M251.917 264.837L239.188 254.062L239.316 255.06C239.4 255.62 239.412 255.9 239.793 256.242C243.175 259.306 246.73 262.176 250.438 264.837C250.666 264.943 250.915 264.999 251.166 264.999C251.418 264.999 251.667 264.943 251.895 264.837H251.917Z" fill="#263238"/>
<path d="M241.663 249.861C241.849 249.958 241.991 250.122 242.06 250.32C242.129 250.518 242.119 250.735 242.033 250.926C241.92 251.111 241.745 251.248 241.539 251.313C241.333 251.378 241.11 251.366 240.912 251.279C240.718 251.176 240.57 251.002 240.499 250.794C240.428 250.586 240.44 250.358 240.531 250.158C240.667 249.977 240.865 249.851 241.087 249.807C241.309 249.762 241.54 249.802 241.736 249.917" fill="white"/>
<path d="M247.953 259.291C248.037 259.324 248.278 258.585 249.073 258.125C249.579 257.879 250.123 257.721 250.681 257.66C250.681 257.627 250.497 257.543 250.16 257.531C249.717 257.528 249.281 257.646 248.9 257.873C248.528 258.088 248.228 258.408 248.037 258.792C247.914 259.083 247.914 259.285 247.953 259.291Z" fill="#263238"/>
<path d="M249.18 260.992C249.253 261.048 249.662 260.561 250.379 260.292C250.832 260.161 251.292 260.058 251.758 259.984C251.522 259.876 251.265 259.823 251.006 259.829C250.747 259.834 250.492 259.899 250.262 260.017C249.444 260.331 249.113 260.964 249.18 260.992Z" fill="#263238"/>
<path d="M245.808 257.179C246.369 256.733 246.963 256.33 247.584 255.974C248.256 255.699 248.947 255.472 249.652 255.296C248.888 255.181 248.108 255.327 247.438 255.711C246.284 256.265 245.758 257.145 245.808 257.179Z" fill="#263238"/>
<path d="M245.078 253.112C245.123 253.19 245.879 252.798 246.899 252.664C247.919 252.529 248.765 252.664 248.787 252.591C248.186 252.302 247.506 252.223 246.854 252.367C246.195 252.406 245.568 252.669 245.078 253.112Z" fill="#263238"/>
<path d="M244.63 249.172C245.219 248.876 245.862 248.701 246.52 248.657C247.178 248.612 247.838 248.7 248.462 248.914C248.462 248.881 248.311 248.73 247.958 248.584C247.493 248.401 246.993 248.325 246.495 248.36C245.998 248.388 245.515 248.532 245.083 248.78C244.747 248.97 244.596 249.144 244.63 249.172Z" fill="#263238"/>
<path d="M246.394 247.901C246.394 247.901 246.427 247.716 246.36 247.391C246.262 246.928 246.071 246.49 245.8 246.102C245.615 245.796 245.336 245.558 245.004 245.425C244.889 245.39 244.766 245.39 244.651 245.424C244.536 245.457 244.433 245.524 244.354 245.615C244.288 245.705 244.239 245.807 244.212 245.916C244.185 246.025 244.18 246.137 244.197 246.248C244.295 246.71 244.549 247.123 244.916 247.418C245.284 247.714 245.743 247.872 246.214 247.867C246.685 247.875 247.148 247.745 247.546 247.493C247.944 247.241 248.26 246.879 248.456 246.45C248.5 246.345 248.52 246.232 248.514 246.118C248.508 246.005 248.477 245.894 248.422 245.794C248.35 245.697 248.251 245.623 248.137 245.583C248.024 245.542 247.9 245.535 247.783 245.565C247.444 245.674 247.138 245.867 246.892 246.125C246.544 246.446 246.253 246.825 246.035 247.245C245.945 247.394 245.887 247.56 245.867 247.733C246.187 247.187 246.585 246.69 247.049 246.259C247.269 246.042 247.538 245.881 247.834 245.789C247.897 245.771 247.965 245.773 248.027 245.795C248.089 245.817 248.143 245.858 248.181 245.912C248.212 245.98 248.228 246.053 248.228 246.128C248.228 246.202 248.212 246.276 248.181 246.343C248.003 246.707 247.726 247.013 247.382 247.227C247.039 247.441 246.642 247.554 246.237 247.554C245.837 247.555 245.449 247.422 245.134 247.176C244.819 246.93 244.595 246.586 244.5 246.198C244.473 246.044 244.505 245.886 244.59 245.755C244.632 245.703 244.688 245.665 244.752 245.646C244.816 245.627 244.885 245.628 244.948 245.649C245.229 245.762 245.469 245.957 245.637 246.209C245.992 246.721 246.248 247.295 246.394 247.901Z" fill="#263238"/>
<path d="M213.509 239.852L214.036 251.254C214.036 251.254 201.883 255.59 201.766 257.708L225.326 257.535L225.275 239.734L213.509 239.852Z" fill="#455A64"/>
<path d="M221.32 250.24C221.541 250.295 221.734 250.432 221.859 250.623C221.984 250.815 222.031 251.046 221.992 251.271C221.924 251.492 221.776 251.68 221.577 251.797C221.378 251.914 221.142 251.952 220.916 251.904C220.682 251.847 220.479 251.702 220.348 251.501C220.217 251.299 220.168 251.054 220.21 250.817C220.303 250.59 220.478 250.406 220.7 250.303C220.922 250.199 221.176 250.183 221.409 250.257" fill="#E0E0E0"/>
<path d="M225.336 257.543L225.257 255.75L202.695 256.585C202.695 256.585 201.652 257.022 201.776 257.705L225.336 257.543Z" fill="#263238"/>
<path d="M213.657 251.16C213.657 251.266 214.217 251.311 214.778 251.653C215.338 251.994 215.652 252.448 215.758 252.403C215.865 252.359 215.685 251.737 214.991 251.333C214.296 250.93 213.629 251.053 213.657 251.16Z" fill="#263238"/>
<path d="M211.203 252.121C211.203 252.227 211.679 252.407 212.072 252.86C212.464 253.314 212.587 253.802 212.699 253.796C212.811 253.79 212.884 253.174 212.38 252.619C211.875 252.065 211.209 252.02 211.203 252.121Z" fill="#263238"/>
<path d="M209.818 254.915C209.924 254.915 210.076 254.4 209.779 253.795C209.482 253.19 208.938 252.977 208.888 253.067C208.837 253.156 209.179 253.47 209.414 253.957C209.65 254.445 209.706 254.91 209.818 254.915Z" fill="#263238"/>
<path d="M213.845 248.542C213.895 248.643 214.405 248.491 215.072 248.542C215.739 248.592 216.232 248.766 216.288 248.676C216.344 248.587 215.862 248.2 215.094 248.166C214.327 248.133 213.817 248.458 213.845 248.542Z" fill="#263238"/>
<path d="M209.414 157.969C209.414 158.625 212.148 249.772 212.148 249.772H226.716L229.668 171.803C229.668 171.803 233.114 212.569 233.114 213.449C233.114 214.328 236.151 250.209 236.151 250.209L249.654 249.172L248.763 167.113L247.116 155.078L209.414 157.969Z" fill="#263238"/>
<path d="M231.182 168.917C230.997 169.021 230.799 169.1 230.593 169.152C230.207 169.286 229.641 169.471 228.946 169.712L228.817 169.751V169.623C228.739 168.53 228.644 167.062 228.56 165.454C228.464 163.712 228.397 162.137 228.364 160.972C228.364 160.411 228.336 159.935 228.336 159.616C228.319 159.449 228.33 159.28 228.369 159.117C228.416 159.278 228.442 159.443 228.448 159.61C228.487 159.93 228.526 160.395 228.565 160.961C228.655 162.081 228.756 163.678 228.845 165.443C228.935 167.051 228.997 168.519 229.03 169.617L228.89 169.527C229.596 169.331 230.168 169.174 230.571 169.073C230.769 169.001 230.974 168.949 231.182 168.917Z" fill="#455A64"/>
<path d="M230.066 159.447C230.066 159.447 230.111 159.374 230.262 159.324C230.475 159.267 230.701 159.287 230.901 159.38C231.052 159.435 231.181 159.537 231.268 159.671C231.356 159.806 231.398 159.965 231.389 160.125C231.37 160.327 231.285 160.518 231.147 160.668C231.01 160.818 230.827 160.918 230.627 160.954C230.423 160.985 230.215 160.958 230.025 160.878C229.835 160.798 229.671 160.667 229.551 160.5C229.467 160.371 229.422 160.22 229.422 160.066C229.422 159.912 229.467 159.761 229.551 159.632C229.667 159.458 229.836 159.326 230.033 159.256C230.178 159.206 230.262 159.217 230.268 159.228C230.274 159.24 229.937 159.335 229.736 159.716C229.676 159.817 229.648 159.934 229.654 160.051C229.66 160.169 229.7 160.282 229.769 160.377C229.86 160.497 229.981 160.59 230.12 160.647C230.259 160.704 230.411 160.723 230.559 160.702C230.698 160.675 230.826 160.608 230.926 160.508C231.025 160.408 231.093 160.28 231.12 160.142C231.131 160.027 231.106 159.911 231.049 159.811C230.991 159.711 230.905 159.63 230.8 159.581C230.576 159.46 230.319 159.413 230.066 159.447Z" fill="#455A64"/>
<path d="M236.756 160.387C236.678 160.387 236.566 159.995 236.51 159.501C236.454 159.008 236.47 158.599 236.549 158.594C236.627 158.588 236.739 158.98 236.795 159.473C236.851 159.967 236.835 160.387 236.756 160.387Z" fill="#455A64"/>
<path d="M237.763 160.281C237.684 160.281 237.617 159.861 237.617 159.34C237.617 158.819 237.673 158.398 237.757 158.398C237.841 158.398 237.903 158.819 237.903 159.34C237.903 159.861 237.847 160.281 237.763 160.281Z" fill="#455A64"/>
<path d="M220.21 160.914C220.131 160.914 220.008 160.449 219.935 159.86C219.863 159.272 219.868 158.779 219.935 158.773C220.003 158.768 220.137 159.239 220.21 159.832C220.283 160.426 220.288 160.908 220.21 160.914Z" fill="#455A64"/>
<path d="M221.44 161.007C221.181 160.693 221.052 160.292 221.081 159.886C221.02 159.494 221.11 159.094 221.333 158.766C221.417 158.766 221.333 159.281 221.372 159.886C221.412 160.491 221.518 160.984 221.44 161.007Z" fill="#455A64"/>
<path d="M216.831 159.781C216.836 159.916 216.819 160.05 216.78 160.179C216.71 160.543 216.612 160.9 216.489 161.249C216.073 162.426 215.463 163.524 214.685 164.499C213.876 165.504 212.916 166.377 211.838 167.088C211.507 167.306 211.163 167.504 210.807 167.681C210.678 167.754 210.541 167.812 210.398 167.855C210.398 167.821 210.925 167.53 211.726 166.953C212.757 166.222 213.681 165.35 214.472 164.365C215.235 163.403 215.856 162.337 216.315 161.199C216.657 160.33 216.786 159.77 216.831 159.781Z" fill="#455A64"/>
<path d="M248.321 165.932C248.177 165.974 248.028 165.997 247.878 165.999C247.472 166.031 247.063 166.031 246.657 165.999C245.327 165.871 244.047 165.425 242.925 164.699C241.863 164.003 241.006 163.036 240.443 161.897C240.28 161.566 240.152 161.219 240.062 160.861C240.017 160.735 239.996 160.602 240.001 160.469C240.045 160.469 240.169 161.029 240.611 161.83C241.203 162.914 242.051 163.835 243.082 164.514C244.169 165.215 245.397 165.667 246.679 165.836C247.682 165.948 248.315 165.887 248.321 165.932Z" fill="#455A64"/>
<path d="M224.596 212.083C224.596 212.145 222.164 211.618 219.206 210.918C216.247 210.218 213.861 209.59 213.883 209.528C213.905 209.467 216.315 209.988 219.273 210.694C222.231 211.4 224.612 212.022 224.596 212.083Z" fill="#455A64"/>
<path d="M248.055 208.768C248.089 208.824 245.988 209.916 243.366 211.216C240.744 212.516 238.581 213.519 238.547 213.457C238.514 213.396 240.615 212.303 243.237 211.009C245.859 209.715 248.022 208.712 248.055 208.768Z" fill="#455A64"/>
<path d="M202.343 127.111L204.332 129.604V125.318H210.608C210.608 125.318 211.302 135.128 211.168 137.218C211.019 138.308 210.762 139.379 210.4 140.418C210.213 141.022 209.873 141.567 209.413 142.002C208.954 142.437 208.39 142.745 207.776 142.899C207.162 143.052 206.519 143.044 205.909 142.877C205.299 142.709 204.743 142.387 204.293 141.942C203.591 141.258 202.936 140.528 202.332 139.756C199.531 136.171 194.914 127.43 194.914 127.43L199.755 124.539L202.343 127.111Z" fill="#FFBF9D"/>
<path d="M201.945 126.651C202.182 127.049 202.456 127.424 202.763 127.771C203.324 128.427 204.03 129.329 204.864 130.304C205.699 131.278 206.495 132.141 207.106 132.73C207.415 133.069 207.774 133.36 208.17 133.592C207.886 133.237 207.579 132.9 207.251 132.584C206.691 131.968 205.918 131.088 205.083 130.113C203.43 128.13 202.018 126.583 201.945 126.651Z" fill="#FF9A6C"/>
<path d="M216.656 96.9686L223.273 94.3688L235.459 93.6797L241.186 95.8592L233.336 100.218L226.568 99.9717L216.656 96.9686Z" fill="#FFBF9D"/>
<path d="M208.843 159.215C209.443 159.316 249.369 161.014 249.369 161.014L247.99 125.094L247.873 118.045L245.631 96.693C245.631 96.693 239.659 94.6367 236.616 93.6562C236.616 93.6562 233.412 97.018 227.316 96.9059C221.36 96.8219 220.116 95.4772 220.116 95.4772L211.79 98.6708C211.79 98.6708 205.868 100.794 204.848 103.416C203.829 106.039 202.047 120.533 202.047 120.533H210.681L210.451 146.289L208.843 159.215Z" fill="#455A64"/>
<g opacity="0.2">
<path d="M233.953 111.3L235.191 120.354L241.181 123.027L245.607 119.256V110.852L233.953 111.3Z" fill="black"/>
</g>
<path d="M245.45 113.884C245.45 113.957 242.962 114.019 239.892 114.019C236.821 114.019 234.328 113.957 234.328 113.884C236.179 113.744 238.036 113.697 239.892 113.744C241.746 113.697 243.601 113.744 245.45 113.884Z" fill="#263238"/>
<path d="M206.156 107.164C206.185 107.243 206.207 107.323 206.223 107.405C206.263 107.584 206.313 107.808 206.38 108.094C206.596 108.959 206.861 109.81 207.176 110.643C207.574 111.714 208.134 112.974 208.823 114.386C209.512 115.798 210.061 117.485 210.672 119.277C210.672 121.429 210.672 123.76 210.627 126.242C210.571 131.733 210.515 136.702 210.482 140.327C210.448 142.109 210.426 143.56 210.403 144.597C210.403 145.079 210.392 145.465 210.37 145.757C210.372 145.892 210.363 146.027 210.342 146.16C210.332 146.024 210.332 145.887 210.342 145.751C210.342 145.467 210.342 145.08 210.342 144.591C210.342 143.56 210.342 142.103 210.342 140.322C210.342 136.697 210.386 131.727 210.414 126.242C210.414 123.782 210.459 121.429 210.476 119.277V119.317C209.877 117.524 209.299 115.86 208.672 114.431C208.073 113.201 207.538 111.94 207.07 110.655C206.767 109.813 206.521 108.952 206.336 108.077C206.28 107.769 206.235 107.517 206.212 107.371C206.187 107.304 206.169 107.235 206.156 107.164Z" fill="#263238"/>
<path d="M248.487 102.969C248.507 103.224 248.507 103.481 248.487 103.736C248.487 104.297 248.443 104.98 248.409 105.821C248.336 107.625 248.241 110.034 248.134 112.695C248.028 115.357 247.905 117.771 247.826 119.576C247.776 120.416 247.737 121.116 247.703 121.66C247.702 121.916 247.676 122.171 247.625 122.422C247.604 122.166 247.604 121.91 247.625 121.654C247.625 121.094 247.625 120.41 247.664 119.57C247.709 117.805 247.787 115.373 247.899 112.69C248.011 110.006 248.134 107.569 248.247 105.815C248.303 104.935 248.359 104.224 248.409 103.731C248.413 103.475 248.439 103.22 248.487 102.969Z" fill="#263238"/>
<g opacity="0.3">
<path d="M206.183 108.484C206.031 112.427 207.44 116.27 210.105 119.18C209.293 115.477 207.264 112.031 206.183 108.484Z" fill="black"/>
</g>
<g opacity="0.3">
<path d="M223.719 144.026C225.596 143.776 227.308 142.823 228.509 141.359C229.773 139.948 230.855 138.384 231.731 136.704C232.86 134.418 233.502 131.922 233.613 129.375C231.288 135.611 227.882 140.541 223.719 144.026Z" fill="black"/>
</g>
<path d="M234.352 126.649C234.349 126.726 234.337 126.803 234.319 126.879C234.279 127.058 234.229 127.271 234.173 127.528C234.117 127.786 234.027 128.15 233.904 128.543C233.781 128.935 233.663 129.383 233.484 129.87C233.091 131.017 232.631 132.14 232.106 133.232C230.82 135.906 229.17 138.39 227.203 140.611C226.4 141.518 225.539 142.371 224.626 143.166C224.25 143.519 223.875 143.799 223.556 144.057C223.236 144.315 222.956 144.522 222.715 144.684L222.155 145.06C222.026 145.138 221.959 145.183 221.953 145.172C222.002 145.113 222.059 145.06 222.121 145.015L222.642 144.6C222.872 144.432 223.147 144.214 223.455 143.945C223.763 143.676 224.127 143.384 224.497 143.032C225.382 142.219 226.222 141.359 227.012 140.454C227.971 139.338 228.863 138.167 229.685 136.947C230.489 135.717 231.222 134.444 231.881 133.131C232.411 132.053 232.885 130.948 233.299 129.82C233.489 129.344 233.624 128.896 233.753 128.509C233.882 128.122 233.988 127.786 234.067 127.512C234.145 127.237 234.201 127.052 234.257 126.879C234.313 126.705 234.341 126.643 234.352 126.649Z" fill="#263238"/>
<path d="M233.205 115.414C233.196 115.538 233.179 115.662 233.154 115.784C233.11 116.047 233.048 116.395 232.975 116.826C232.902 117.257 232.79 117.829 232.628 118.462C232.465 119.095 232.32 119.829 232.068 120.614C231.955 121.006 231.832 121.42 231.703 121.852C231.574 122.283 231.406 122.72 231.25 123.174C230.953 124.098 230.549 125.051 230.129 126.059C228.289 130.412 225.815 134.47 222.789 138.1C222.078 138.918 221.411 139.714 220.727 140.397C220.391 140.745 220.077 141.092 219.752 141.4C219.427 141.708 219.119 142.011 218.817 142.291C218.257 142.851 217.651 143.339 217.136 143.764C216.62 144.19 216.206 144.543 215.836 144.818L214.99 145.457C214.898 145.537 214.796 145.607 214.688 145.664C214.769 145.573 214.859 145.491 214.956 145.417L215.769 144.739C216.127 144.454 216.564 144.101 217.041 143.658C217.517 143.215 218.094 142.745 218.671 142.156L219.59 141.26C219.909 140.946 220.218 140.599 220.548 140.251C221.226 139.562 221.882 138.767 222.588 137.943C225.587 134.319 228.055 130.285 229.916 125.964C230.331 124.961 230.734 124.02 231.037 123.107C231.199 122.647 231.367 122.216 231.502 121.79C231.636 121.364 231.759 120.955 231.883 120.563C232.14 119.784 232.303 119.062 232.477 118.428C232.65 117.795 232.774 117.252 232.863 116.804C232.953 116.355 233.037 116.036 233.093 115.773C233.117 115.649 233.155 115.529 233.205 115.414Z" fill="#263238"/>
<path d="M201.651 104.245L217.025 127.621C217.098 127.731 217.138 127.86 217.14 127.993C217.142 128.125 217.106 128.256 217.035 128.368C216.965 128.48 216.863 128.57 216.743 128.626C216.623 128.683 216.49 128.703 216.358 128.685L198.653 126.444C198.56 126.431 198.47 126.399 198.39 126.351C198.309 126.303 198.238 126.239 198.182 126.164L181.273 103.069C181.189 102.962 181.139 102.833 181.127 102.698C181.116 102.562 181.145 102.427 181.21 102.308C181.275 102.188 181.373 102.091 181.493 102.027C181.613 101.963 181.749 101.936 181.884 101.948L200.099 103.293C200.413 103.321 200.717 103.422 200.986 103.587C201.255 103.753 201.483 103.978 201.651 104.245Z" fill="#E0E0E0"/>
<path d="M201.648 104.246C201.61 104.17 201.563 104.098 201.508 104.033C201.352 103.84 201.162 103.677 200.948 103.551C200.583 103.361 200.177 103.263 199.766 103.266L198.129 103.131L187.63 102.307L184.15 102.039L182.301 101.898C182.139 101.898 181.999 101.898 181.814 101.898C181.625 101.905 181.444 101.978 181.304 102.106C181.162 102.235 181.07 102.411 181.046 102.602C181.021 102.793 181.065 102.986 181.17 103.148L186.089 109.899C189.563 114.645 193.373 119.861 197.379 125.341C197.636 125.683 197.866 126.013 198.146 126.372C198.232 126.467 198.34 126.54 198.46 126.585C198.57 126.623 198.685 126.646 198.802 126.652L199.429 126.73L201.906 127.044L206.747 127.649L215.902 128.77C216.092 128.77 216.249 128.82 216.462 128.831C216.571 128.832 216.679 128.811 216.78 128.77C216.881 128.729 216.973 128.668 217.05 128.59C217.197 128.44 217.283 128.24 217.291 128.03C217.283 127.825 217.208 127.629 217.078 127.47L215.891 125.655L213.649 122.293L209.638 116.225C207.184 112.533 205.2 109.535 203.816 107.456L202.22 105.075C202.04 104.818 201.9 104.61 201.794 104.465C201.749 104.392 201.698 104.322 201.642 104.257C201.681 104.334 201.724 104.409 201.771 104.481L202.169 105.109C202.528 105.669 203.049 106.482 203.716 107.518L209.464 116.343L213.448 122.427L215.689 125.817L216.854 127.593C216.955 127.711 217.014 127.859 217.022 128.013C217.017 128.16 216.957 128.3 216.854 128.406C216.75 128.509 216.609 128.567 216.462 128.568C216.311 128.568 216.103 128.523 215.93 128.506L206.758 127.335L201.917 126.725L199.441 126.411L198.819 126.332C198.726 126.325 198.634 126.308 198.544 126.282C198.465 126.252 198.394 126.204 198.337 126.142C198.09 125.806 197.844 125.475 197.597 125.133C193.586 119.665 189.753 114.454 186.291 109.709C184.548 107.344 182.901 105.092 181.355 102.985C181.297 102.902 181.263 102.805 181.256 102.704C181.249 102.603 181.27 102.502 181.316 102.412C181.362 102.321 181.431 102.245 181.517 102.191C181.603 102.138 181.702 102.108 181.803 102.106C181.932 102.106 182.111 102.106 182.262 102.134L184.111 102.268L187.596 102.515L198.129 103.243L199.777 103.355C200.178 103.342 200.577 103.428 200.937 103.607C201.217 103.767 201.46 103.984 201.648 104.246Z" fill="#263238"/>
<path d="M181.273 103.089C181.394 103.12 181.518 103.139 181.643 103.145L182.719 103.257L186.719 103.61L200.323 104.731L200.217 104.669C201.068 105.935 201.948 107.246 202.828 108.591C206.419 114.11 209.551 119.186 211.921 122.794C213.098 124.604 214.078 126.049 214.762 127.047L215.557 128.167C215.643 128.304 215.743 128.432 215.854 128.548C215.78 128.405 215.698 128.267 215.608 128.134L214.857 126.963L212.095 122.665C209.775 119.029 206.666 113.942 203.074 108.417C202.194 107.056 201.309 105.745 200.452 104.495L200.413 104.439H200.374L186.764 103.431L182.758 103.162L181.677 103.1C181.543 103.086 181.408 103.083 181.273 103.089Z" fill="#263238"/>
<path d="M191.808 106.651C191.818 106.604 191.838 106.56 191.866 106.522C191.894 106.483 191.929 106.45 191.97 106.426C192.011 106.401 192.056 106.385 192.103 106.378C192.151 106.372 192.199 106.375 192.245 106.387C192.425 106.428 192.59 106.52 192.721 106.651C192.804 106.727 192.858 106.829 192.873 106.941C192.889 107.052 192.865 107.166 192.805 107.261C192.631 107.48 192.245 107.396 192.054 107.217C191.968 107.151 191.901 107.065 191.857 106.966C191.814 106.867 191.797 106.758 191.808 106.651Z" fill="white"/>
<path d="M200.079 119.747C200.079 119.747 200.774 118.066 199.004 117.865C196.863 117.753 194.718 117.753 192.577 117.865C192.577 117.865 190.028 118.134 190.566 119.96C190.566 119.96 189.064 121.305 189.871 122.762C190.678 124.218 190.992 123.781 190.992 123.781C190.992 123.781 190.779 125.557 192.112 125.821C192.112 125.821 193.569 127.541 194.914 127.434C196.258 127.328 201.945 124.588 202.321 124.073C202.696 123.557 203.234 123.232 202.914 122.633C202.914 122.633 203.609 121.058 202.108 120.817C202.119 120.789 202.012 119.484 200.079 119.747Z" fill="#FFBF9D"/>
<path d="M192 120.358C192.394 120.44 192.797 120.47 193.199 120.447C193.939 120.447 194.958 120.447 196.084 120.447C197.055 120.476 198.026 120.419 198.987 120.279C199.749 120.1 200.051 119.652 200.018 119.641C199.689 119.849 199.324 119.995 198.942 120.072C198.242 120.19 197.205 120.117 196.079 120.156C194.953 120.195 193.933 120.207 193.193 120.24C192.792 120.231 192.392 120.271 192 120.358Z" fill="#FF9A6C"/>
<path d="M193.266 123.041C193.384 123.111 193.516 123.155 193.652 123.17C194.021 123.245 194.398 123.27 194.773 123.243C195.32 123.201 195.861 123.102 196.386 122.946C196.98 122.784 197.613 122.554 198.28 122.352C198.9 122.147 199.541 122.014 200.191 121.954C200.752 122.007 201.317 121.894 201.816 121.629C202.01 121.498 202.148 121.298 202.202 121.069C202.238 120.898 202.214 120.72 202.135 120.565C201.995 120.313 201.804 120.296 201.81 120.307C201.816 120.318 201.944 120.386 202.028 120.615C202.082 120.771 202.078 120.941 202.018 121.094C201.957 121.247 201.844 121.373 201.698 121.45C201.219 121.661 200.693 121.74 200.174 121.68C199.501 121.722 198.836 121.85 198.196 122.061L196.314 122.683C195.805 122.841 195.284 122.957 194.756 123.03C194.26 123.064 193.762 123.068 193.266 123.041Z" fill="#FF9A6C"/>
<path d="M195.172 125.318C195.58 125.295 195.983 125.218 196.371 125.089C197.099 124.904 198.097 124.618 199.173 124.265C200.248 123.912 201.234 123.548 201.929 123.262C202.324 123.138 202.701 122.963 203.05 122.741C203.016 122.662 201.268 123.301 199.128 123.979C196.987 124.657 195.15 125.24 195.172 125.318Z" fill="#FF9A6C"/>
<path d="M194.719 127.413C195.054 127.442 195.391 127.404 195.711 127.301C196.492 127.111 197.252 126.843 197.98 126.5C198.831 126.113 199.576 125.715 200.114 125.43C200.422 125.3 200.708 125.126 200.966 124.914C199.893 125.261 198.852 125.701 197.856 126.231C196.181 127.038 194.708 127.329 194.719 127.413Z" fill="#FF9A6C"/>
<path d="M251.31 111.396C251.31 111.396 247.691 125.897 243.169 131.253C238.788 136.441 231.924 134.054 229.549 127.331C227.173 120.608 222.938 105.306 222.938 105.306L228.137 101.328L237.102 118.747L241.152 106.875L251.31 111.396Z" fill="#FFBF9D"/>
<path d="M223.186 105.731L219.37 100.201C218.815 100.081 218.271 99.9127 217.746 99.6971C217.314 99.445 216.888 97.2487 216.9 96.8228C216.911 96.397 216.16 95.3941 216.463 95.1084C216.765 94.8226 217.785 94.8058 217.729 94.3968C217.729 94.3072 216.972 93.3883 217.566 92.7159C217.894 92.4995 218.258 92.3456 218.642 92.2621L218.58 90.1498C218.58 90.1498 219.701 87.6622 220.883 88.5642C220.883 88.5642 225.27 91.9259 225.713 92.4862C226.155 93.0465 227.848 100.044 228.144 101.361" fill="#FFBF9D"/>
<path d="M228.144 101.337C228.138 101.212 228.119 101.088 228.088 100.967C228.026 100.698 227.953 100.351 227.858 99.9135C227.656 98.9947 227.348 97.6724 226.934 96.042C226.721 95.224 226.491 94.3611 226.194 93.3806C226.121 93.1453 226.043 92.9044 225.942 92.6578C225.826 92.4068 225.649 92.189 225.427 92.0247C225.023 91.6718 224.603 91.3244 224.172 90.9714C223.303 90.271 222.379 89.5427 221.421 88.7975C221.179 88.5821 220.907 88.4028 220.614 88.2652C220.442 88.2242 220.264 88.2241 220.093 88.265C219.921 88.3059 219.762 88.3866 219.628 88.5005C219.127 88.9359 218.728 89.4751 218.457 90.0805V90.1142C218.457 90.3215 218.457 90.54 218.457 90.7585C218.457 91.2515 218.457 91.7446 218.501 92.2264L218.602 92.092C218.338 92.1559 218.079 92.2421 217.829 92.3497C217.69 92.4076 217.562 92.4912 217.454 92.5962C217.357 92.7092 217.285 92.8407 217.241 92.9828C217.169 93.2626 217.193 93.5583 217.308 93.8232C217.354 93.9498 217.413 94.0717 217.482 94.1874L217.577 94.3499V94.3891C217.58 94.4021 217.58 94.4154 217.577 94.4283C217.577 94.4732 217.465 94.5404 217.358 94.5796C217.252 94.6188 217.134 94.6581 217.017 94.6973C216.895 94.7298 216.775 94.769 216.658 94.8149C216.511 94.8573 216.383 94.9481 216.294 95.0727C216.235 95.2163 216.235 95.3772 216.294 95.5209C216.328 95.6417 216.371 95.7598 216.423 95.8739C216.518 96.098 216.624 96.3109 216.703 96.5182C216.743 96.6125 216.765 96.713 216.77 96.8152C216.772 96.9354 216.784 97.0552 216.804 97.1737C216.837 97.4035 216.877 97.6276 216.927 97.8517C217.014 98.2835 217.132 98.7086 217.28 99.1235C217.351 99.3404 217.465 99.5406 217.616 99.7118C217.799 99.8302 218 99.9191 218.21 99.9752C218.597 100.093 218.978 100.188 219.331 100.272L219.269 100.233L222.07 104.245L222.855 105.332C222.942 105.463 223.039 105.586 223.146 105.701C223.074 105.562 222.994 105.427 222.905 105.298L222.166 104.177C221.499 103.186 220.563 101.802 219.415 100.11V100.076H219.42C219.062 99.9864 218.686 99.8855 218.3 99.7679C218.12 99.7167 217.949 99.6413 217.79 99.5438C217.669 99.3962 217.578 99.2269 217.521 99.0451C217.378 98.6395 217.266 98.2237 217.185 97.8013C217.14 97.5828 217.101 97.3642 217.067 97.1401C217.067 97.0337 217.067 96.916 217.067 96.8152C217.062 96.6847 217.036 96.556 216.989 96.4342C216.905 96.2045 216.798 95.9915 216.709 95.773C216.659 95.6704 216.62 95.5635 216.591 95.4537C216.56 95.3705 216.56 95.2792 216.591 95.1959C216.655 95.1289 216.737 95.0805 216.826 95.0559C216.938 95.0118 217.052 94.9744 217.168 94.9438C217.286 94.9046 217.409 94.871 217.532 94.8205C217.686 94.7728 217.815 94.666 217.891 94.5236C217.911 94.4778 217.921 94.428 217.919 94.3779C217.917 94.3426 217.908 94.3081 217.891 94.2771V94.2322L217.795 94.0698C217.735 93.9635 217.683 93.853 217.639 93.7392C217.548 93.5289 217.529 93.2949 217.583 93.0725C217.612 92.9647 217.666 92.8651 217.739 92.7811C217.824 92.707 217.921 92.6482 218.025 92.6074C218.261 92.506 218.505 92.4236 218.754 92.3609L218.854 92.3329V92.2264C218.854 91.7446 218.826 91.2571 218.81 90.7641C218.81 90.5456 218.81 90.3215 218.81 90.1198V90.1814C219.059 89.6159 219.428 89.1112 219.891 88.7022C219.99 88.6104 220.111 88.5444 220.242 88.5102C220.373 88.476 220.51 88.4746 220.642 88.5061C220.903 88.6343 221.146 88.7963 221.364 88.988C222.328 89.7332 223.253 90.4559 224.121 91.1507C224.558 91.4981 224.978 91.8398 225.376 92.1816C225.577 92.3245 225.738 92.5177 225.841 92.7419C225.936 92.9716 226.015 93.2125 226.093 93.4423C226.39 94.3835 226.654 95.2744 226.855 96.0812C227.275 97.6892 227.623 98.9947 227.864 99.9304C227.981 100.362 228.071 100.709 228.138 100.972C228.128 101.094 228.129 101.216 228.144 101.337Z" fill="#FF9A6C"/>
<path d="M218.641 92.253C218.641 92.2978 219.083 92.253 219.761 92.3314C220.167 92.394 220.568 92.4858 220.96 92.606C221.475 92.679 221.997 92.679 222.512 92.606C222.954 92.5439 223.404 92.5832 223.828 92.7211C224.253 92.8589 224.64 93.0917 224.961 93.4016C225.209 93.6774 225.408 93.9939 225.549 94.3372C225.552 94.1377 225.513 93.9397 225.436 93.7556C225.359 93.5715 225.245 93.4053 225.101 93.2671C224.809 92.9464 224.449 92.6956 224.047 92.5331C223.554 92.3417 223.021 92.2744 222.495 92.337C222.002 92.3984 221.504 92.3984 221.011 92.337C220.606 92.2243 220.191 92.1511 219.772 92.1185C219.39 92.0881 219.005 92.1338 218.641 92.253Z" fill="#FF9A6C"/>
<path d="M220.194 92.1362C220.255 92.1698 220.435 91.9121 220.412 91.5479C220.39 91.1837 220.182 90.954 220.126 90.9876C220.07 91.0212 220.126 91.2678 220.126 91.5479C220.126 91.8281 220.121 92.1082 220.194 92.1362Z" fill="#FF9A6C"/>
<path d="M217.594 94.467C218.702 94.5729 219.821 94.4857 220.899 94.2093C221.291 94.0808 221.704 94.0275 222.115 94.0524C222.434 94.1227 222.715 94.3083 222.905 94.5735C223.07 94.8373 223.216 95.1125 223.342 95.3971C223.362 95.0576 223.265 94.7217 223.068 94.4446C222.866 94.1184 222.544 93.8849 222.171 93.7947C221.726 93.7426 221.275 93.7865 220.849 93.9236C219.073 94.327 217.594 94.3886 217.594 94.467Z" fill="#FF9A6C"/>
<path d="M217.016 96.4664C217.283 96.5288 217.561 96.5288 217.828 96.4664C218.327 96.4104 218.999 96.2367 219.727 96.0911C220.064 96.0161 220.408 95.9822 220.753 95.9902C221.021 95.9949 221.279 96.0896 221.487 96.2591C221.672 96.4306 221.8 96.6559 221.851 96.9035C221.851 96.9035 221.901 96.8306 221.896 96.6794C221.873 96.4662 221.776 96.2678 221.621 96.1191C221.394 95.8952 221.093 95.7618 220.775 95.7437C220.4 95.7178 220.022 95.7461 219.655 95.8277C218.904 95.9734 218.254 96.1751 217.772 96.2759C217.514 96.3136 217.261 96.3774 217.016 96.4664Z" fill="#FF9A6C"/>
<path d="M218.293 98.0391C218.248 98.0727 218.623 98.4649 219.307 98.4649L219.172 98.3472C219.172 98.4649 219.172 98.5825 219.212 98.7002C219.23 99.1805 219.336 99.6534 219.525 100.095C219.6 99.6223 219.585 99.1395 219.48 98.6722L219.43 98.3192V98.1959H219.312C218.968 98.1817 218.626 98.1291 218.293 98.0391Z" fill="#FF9A6C"/>
<path d="M245.589 96.7109C245.589 96.7109 253.001 98.5039 252.985 108.337C252.968 118.17 250.743 123.022 250.743 123.022L237.078 115.565L240.148 107.928L245.589 96.7109Z" fill="#455A64"/>
<path d="M250.743 123.034C250.645 123.005 250.551 122.964 250.463 122.911L249.667 122.507L246.754 120.972L237.01 115.722L236.898 115.666L236.943 115.548L237.677 113.632C238.551 111.363 239.358 109.2 240.142 107.234C240.523 106.253 240.882 105.318 241.224 104.432C241.522 103.61 241.884 102.812 242.305 102.046C242.868 100.899 243.717 99.9165 244.77 99.1937C245.066 99.0086 245.392 98.8776 245.734 98.8071C245.821 98.7885 245.909 98.7772 245.997 98.7734H246.093C245.644 98.8667 245.217 99.0414 244.832 99.2889C243.821 100.028 243.014 101.011 242.484 102.146C242.082 102.91 241.735 103.702 241.448 104.516C241.117 105.396 240.764 106.332 240.389 107.318L237.946 113.727L237.212 115.644L237.145 115.464L246.872 120.804L249.74 122.417L250.508 122.866C250.592 122.913 250.671 122.969 250.743 123.034Z" fill="#263238"/>
</svg>
