<svg width="391" height="44" viewBox="0 0 391 44" fill="none" xmlns="http://www.w3.org/2000/svg">
<line y1="21.5" x2="347" y2="21.5" stroke="#A4A4A4" stroke-opacity="0.5"/>
<circle cx="369" cy="22" r="22" fill="white"/>
<circle cx="369" cy="22" r="21.5" stroke="#A4A4A4" stroke-opacity="0.5"/>
<path d="M380.707 21.7071C381.098 21.3166 381.098 20.6834 380.707 20.2929L374.343 13.9289C373.953 13.5384 373.319 13.5384 372.929 13.9289C372.538 14.3195 372.538 14.9526 372.929 15.3431L378.586 21L372.929 26.6569C372.538 27.0474 372.538 27.6805 372.929 28.0711C373.319 28.4616 373.953 28.4616 374.343 28.0711L380.707 21.7071ZM359 22L380 22L380 20L359 20L359 22Z" fill="black" fill-opacity="0.5"/>
</svg>
