<svg width="45" height="45" viewBox="0 0 45 45" fill="none" xmlns="http://www.w3.org/2000/svg">
<circle cx="22.5" cy="22.5" r="22.5" fill="white"/>
<path d="M27.25 34.5C26.2083 34.5 25.3229 34.1354 24.5938 33.4062C23.8646 32.6771 23.5 31.7917 23.5 30.75C23.5 30.625 23.5312 30.3333 23.5938 29.875L14.8125 24.75C14.4792 25.0625 14.0938 25.3075 13.6562 25.485C13.2188 25.6625 12.75 25.7508 12.25 25.75C11.2083 25.75 10.3229 25.3854 9.59375 24.6562C8.86458 23.9271 8.5 23.0417 8.5 22C8.5 20.9583 8.86458 20.0729 9.59375 19.3438C10.3229 18.6146 11.2083 18.25 12.25 18.25C12.75 18.25 13.2188 18.3388 13.6562 18.5163C14.0938 18.6938 14.4792 18.9383 14.8125 19.25L23.5938 14.125C23.5521 13.9792 23.5262 13.8387 23.5162 13.7037C23.5062 13.5687 23.5008 13.4175 23.5 13.25C23.5 12.2083 23.8646 11.3229 24.5938 10.5938C25.3229 9.86458 26.2083 9.5 27.25 9.5C28.2917 9.5 29.1771 9.86458 29.9062 10.5938C30.6354 11.3229 31 12.2083 31 13.25C31 14.2917 30.6354 15.1771 29.9062 15.9062C29.1771 16.6354 28.2917 17 27.25 17C26.75 17 26.2812 16.9113 25.8438 16.7338C25.4062 16.5563 25.0208 16.3117 24.6875 16L15.9062 21.125C15.9479 21.2708 15.9742 21.4117 15.985 21.5475C15.9958 21.6833 16.0008 21.8342 16 22C15.9992 22.1658 15.9942 22.3171 15.985 22.4537C15.9758 22.5904 15.9496 22.7308 15.9062 22.875L24.6875 28C25.0208 27.6875 25.4062 27.4429 25.8438 27.2662C26.2812 27.0896 26.75 27.0008 27.25 27C28.2917 27 29.1771 27.3646 29.9062 28.0938C30.6354 28.8229 31 29.7083 31 30.75C31 31.7917 30.6354 32.6771 29.9062 33.4062C29.1771 34.1354 28.2917 34.5 27.25 34.5Z" fill="#007CCE"/>
</svg>
