<svg width="25" height="30" viewBox="0 0 25 30" fill="none" xmlns="http://www.w3.org/2000/svg">
<path d="M5.20841 17.1423H12.5001C13.0754 17.1423 13.5417 16.663 13.5417 16.0709V14.4637C13.5417 12.8398 12.7518 11.408 11.5525 10.5341C12.1352 9.86909 12.5001 8.99837 12.5001 8.03516C12.5001 5.96766 10.8643 4.28516 8.85425 4.28516C6.84418 4.28516 5.20841 5.96766 5.20841 8.03516C5.20841 8.99837 5.57335 9.86909 6.15598 10.5341C4.95668 11.408 4.16675 12.8398 4.16675 14.4637V16.0709C4.16675 16.663 4.63307 17.1423 5.20841 17.1423ZM8.85425 6.42801C9.71571 6.42801 10.4167 7.14908 10.4167 8.03516C10.4167 8.92123 9.71571 9.6423 8.85425 9.6423C7.99279 9.6423 7.29175 8.92123 7.29175 8.03516C7.29175 7.14908 7.99279 6.42801 8.85425 6.42801ZM6.25008 14.4637C6.25008 12.9869 7.41848 11.7852 8.85425 11.7852C10.29 11.7852 11.4584 12.9869 11.4584 14.4637V14.9994H6.25008V14.4637Z" fill="#121212" fill-opacity="0.5"/>
<path d="M11.1764 10.2046L10.816 10.616L11.258 10.9382C12.3329 11.7214 13.0417 13.0053 13.0417 14.4637V16.0709C13.0417 16.4001 12.7862 16.6423 12.5001 16.6423H5.20841C4.92229 16.6423 4.66675 16.4001 4.66675 16.0709V14.4637C4.66675 13.0053 5.37561 11.7214 6.45045 10.9382L6.89254 10.616L6.53206 10.2046C6.02373 9.62441 5.70841 8.86895 5.70841 8.03516C5.70841 6.23043 7.1335 4.78516 8.85425 4.78516C10.575 4.78516 12.0001 6.23043 12.0001 8.03516C12.0001 8.86895 11.6848 9.62441 11.1764 10.2046ZM11.4584 15.4994H11.9584V14.9994V14.4637C11.9584 12.7242 10.5793 11.2852 8.85425 11.2852C7.12916 11.2852 5.75008 12.7242 5.75008 14.4637V14.9994V15.4994H6.25008H11.4584ZM10.9167 8.03516C10.9167 6.88631 10.005 5.92801 8.85425 5.92801C7.70346 5.92801 6.79175 6.88631 6.79175 8.03516C6.79175 9.184 7.70346 10.1423 8.85425 10.1423C10.005 10.1423 10.9167 9.184 10.9167 8.03516Z" stroke="#121212" stroke-opacity="0.5"/>
<path d="M22.9167 0H2.08333C0.934375 0 0 0.961071 0 2.14286V27.8571C0 29.0386 0.934375 30 2.08333 30H22.9167C24.0656 30 25 29.0386 25 27.8571V2.14286C25 0.961071 24.0656 0 22.9167 0ZM2.08333 27.8571V2.14286H22.9167L22.9181 27.8571H2.08333Z" fill="#121212" fill-opacity="0.5"/>
<path d="M1.58333 27.8571V28.3571H2.08333H22.9181H23.4181L23.4181 27.8571L23.4167 2.14283L23.4166 1.64286H22.9167H2.08333H1.58333V2.14286V27.8571ZM2.08333 0.5H22.9167C23.7763 0.5 24.5 1.22384 24.5 2.14286V27.8571C24.5 28.7759 23.7762 29.5 22.9167 29.5H2.08333C1.22375 29.5 0.5 28.7759 0.5 27.8571V2.14286C0.5 1.22384 1.2237 0.5 2.08333 0.5Z" stroke="#121212" stroke-opacity="0.5"/>
<path d="M20.8334 20.3566C20.8334 20.9487 20.3671 21.428 19.7917 21.428H5.20841C4.63307 21.428 4.16675 20.9487 4.16675 20.3566C4.16675 19.7644 4.63307 19.2852 5.20841 19.2852H19.7917C20.3671 19.2852 20.8334 19.7644 20.8334 20.3566Z" fill="#121212" fill-opacity="0.5"/>
<path d="M20.8334 24.6417C20.8334 25.2339 20.3671 25.7132 19.7917 25.7132H5.20841C4.63307 25.7132 4.16675 25.2339 4.16675 24.6417C4.16675 24.0496 4.63307 23.5703 5.20841 23.5703H19.7917C20.3671 23.5703 20.8334 24.0496 20.8334 24.6417Z" fill="#121212" fill-opacity="0.5"/>
<path d="M20.8333 12.8566C20.8333 13.4484 20.367 13.928 19.7917 13.928H16.6667C16.0913 13.928 15.625 13.4484 15.625 12.8566C15.625 12.2648 16.0913 11.7852 16.6667 11.7852H19.7917C20.367 11.7852 20.8333 12.2648 20.8333 12.8566Z" fill="#121212" fill-opacity="0.5"/>
<path d="M20.8333 8.57143C20.8333 9.16321 20.367 9.64286 19.7917 9.64286H16.6667C16.0913 9.64286 15.625 9.16321 15.625 8.57143C15.625 7.97964 16.0913 7.5 16.6667 7.5H19.7917C20.367 7.5 20.8333 7.97964 20.8333 8.57143Z" fill="#121212" fill-opacity="0.5"/>
</svg>
