<svg width="36" height="30" viewBox="0 0 36 30" fill="none" xmlns="http://www.w3.org/2000/svg">
<path d="M29.4115 17.9082C31.2686 16.8972 32.5505 14.7629 32.5505 12.3001C32.5505 8.8647 30.0554 6.06791 26.9865 6.06791C23.9192 6.06791 21.4225 8.86281 21.4225 12.3001C21.4225 14.763 22.7045 16.8957 24.5601 17.9065C23.2393 18.3172 22.0217 19.0616 20.9922 20.0945C19.4519 17.5494 17.1165 15.653 14.3913 14.8516C16.7744 13.616 18.4327 10.9132 18.4327 7.78463C18.4327 3.4925 15.3145 0 11.4822 0C7.64979 0 4.53167 3.49238 4.53167 7.78463C4.53167 10.9149 6.19008 13.6159 8.57299 14.8516C3.64545 16.2969 0 21.325 0 27.2889C0 27.8321 0.0283872 28.3569 0.0866556 28.8901C0.155384 29.5239 0.634984 30 1.20424 30H34.8227C35.3919 30 35.8715 29.5222 35.9402 28.8884C35.9806 28.5078 36 28.1105 36 27.636C36 23.0052 33.2061 19.0938 29.4098 17.9049L29.4115 17.9082ZM26.9881 8.59469C28.8153 8.59469 30.302 10.2579 30.302 12.3017C30.302 14.3454 28.8154 16.0086 26.9881 16.0086C25.1609 16.0086 23.6742 14.3454 23.6742 12.3017C23.6742 10.2579 25.1608 8.59469 26.9881 8.59469ZM6.78377 7.78656C6.78377 4.88603 8.89191 2.52699 11.4841 2.52699C14.0763 2.52699 16.1845 4.88599 16.1845 7.78656C16.1845 10.6871 14.0763 13.0461 11.4841 13.0461C8.89191 13.0461 6.78377 10.6871 6.78377 7.78656ZM19.1606 27.4784H2.25516C2.25367 27.4164 2.25367 27.3544 2.25367 27.2923C2.25367 21.5954 6.3952 16.9594 11.4857 16.9594C15.1267 16.9594 18.2809 19.3318 19.7821 22.7654C19.7896 22.7822 19.7971 22.8006 19.806 22.8174C20.3902 24.1721 20.7174 25.6894 20.7174 27.2924C20.7174 27.3544 20.7174 27.4181 20.7159 27.4785L19.1606 27.4784ZM22.9615 27.4784C22.9615 27.4164 22.966 27.3544 22.966 27.2923C22.966 25.5637 22.6582 23.9139 22.1024 22.4066C23.3768 20.9094 25.1234 20.061 26.9925 20.061C30.6709 20.061 33.6725 23.374 33.7502 27.4783H22.9599L22.9615 27.4784Z" fill="#121212" fill-opacity="0.5"/>
<path d="M28.9659 18.135L29.199 18.5931L29.4639 18.4489C32.9254 19.6399 35.5 23.2824 35.5 27.636C35.5 28.0959 35.4812 28.4752 35.4431 28.835C35.3966 29.2619 35.0917 29.5 34.8227 29.5H1.20424C0.934213 29.5 0.629961 29.2624 0.583741 28.8362L0.583696 28.8358C0.527426 28.3209 0.5 27.8142 0.5 27.2889C0.5 21.5195 4.02441 16.7068 8.71372 15.3314L9.90855 14.981L8.80317 14.4078C6.59831 13.2644 5.03167 10.7424 5.03167 7.78463C5.03167 3.71372 7.97772 0.5 11.4822 0.5C14.9866 0.5 17.9327 3.71385 17.9327 7.78463C17.9327 10.7408 16.3661 13.2644 14.1612 14.4077L13.0568 14.9804L14.2503 15.3313C16.8438 16.0939 19.082 17.9039 20.5645 20.3533L20.8953 20.9L21.3464 20.4474C22.3211 19.4695 23.469 18.7694 24.7086 18.3839L25.8373 18.0328L24.7993 17.4674C23.1159 16.5504 21.9225 14.5934 21.9225 12.3001C21.9225 9.08422 24.2471 6.56791 26.9865 6.56791C29.7274 6.56791 32.0505 9.08591 32.0505 12.3001C32.0505 14.5093 30.943 16.4078 29.3557 17.364L28.4252 17.0726L28.9642 18.1317L28.9659 18.135ZM1.75531 27.4905L1.76706 27.9784H2.25516H19.1606L20.7159 27.9785L21.2037 27.9785L21.2158 27.4908C21.2174 27.4242 21.2174 27.3553 21.2174 27.2952V27.2924C21.2174 25.6211 20.8762 24.0364 20.2652 22.6194L20.2569 22.6001L20.2499 22.5871L20.2463 22.5789L20.2403 22.5651C18.6729 18.9803 15.357 16.4594 11.4857 16.4594C6.06757 16.4594 1.75367 21.3737 1.75367 27.2923V27.2949C1.75367 27.3552 1.75367 27.4224 1.75531 27.4905ZM22.9087 27.9756L23.4615 28.0343V27.9783H33.7502H34.2597L34.2501 27.4688C34.1683 23.1467 30.9948 19.561 26.9925 19.561C24.9655 19.561 23.0835 20.4826 21.7217 22.0825L21.5321 22.3052L21.6333 22.5796C22.1688 24.032 22.466 25.6233 22.466 27.2923C22.466 27.3128 22.4652 27.3348 22.4641 27.3673L22.464 27.3703C22.4629 27.3995 22.4615 27.4382 22.4615 27.4784H22.9334L22.9071 27.9755L22.9087 27.9756ZM30.802 12.3017C30.802 10.0359 29.1427 8.09469 26.9881 8.09469C24.8334 8.09469 23.1742 10.0359 23.1742 12.3017C23.1742 14.5674 24.8335 16.5086 26.9881 16.5086C29.1428 16.5086 30.802 14.5674 30.802 12.3017ZM11.4841 2.02699C8.56439 2.02699 6.28377 4.66423 6.28377 7.78656C6.28377 10.9089 8.56439 13.5461 11.4841 13.5461C14.4038 13.5461 16.6845 10.9089 16.6845 7.78656C16.6845 4.66418 14.4038 2.02699 11.4841 2.02699Z" stroke="#121212" stroke-opacity="0.5"/>
</svg>
