<svg width="26" height="30" viewBox="0 0 26 30" fill="none" xmlns="http://www.w3.org/2000/svg">
<path d="M0.000163819 28.57C0.00159786 29.3595 0.685509 29.9989 1.53 30.0002H4.58822C5.27643 29.9976 5.8786 29.566 6.05783 28.9453C6.12091 28.9534 6.18256 28.9601 6.24565 28.9628H15.7301C16.4111 28.9628 19.1066 28.7349 20.0271 28.0097L25.0365 24.0636H25.0379C26.1133 23.2151 26.314 21.738 25.4996 20.6656C24.6852 19.5933 23.1267 19.2837 21.9166 19.9525L16.7306 23.0395V23.0408C16.5615 23.1414 16.3665 23.1937 16.1657 23.1937H14.2473L14.2688 22.4685L14.2674 22.4698C14.286 21.8264 14.0251 21.2045 13.5448 20.7434C13.0645 20.2836 12.4063 20.0236 11.7181 20.0236H6.2455C6.20249 20.0236 6.16091 20.0329 6.1179 20.0356V19.9914C6.11646 19.2032 5.43255 18.5625 4.58805 18.5625H1.52984C0.685345 18.5625 0.00143147 19.2032 0 19.9914L0.000163819 28.57ZM6.24579 21.4525H11.7184C11.9937 21.4525 12.2575 21.557 12.4496 21.7407C12.6418 21.9256 12.7464 22.1749 12.7393 22.4323L12.7178 23.1937H11.479C11.0575 23.1937 10.7148 23.514 10.7148 23.9081C10.7148 24.3035 11.0575 24.6239 11.479 24.6239H16.1661C16.6579 24.6239 17.1382 24.4925 17.5511 24.2472L22.7085 21.1763C23.0497 20.9913 23.4684 20.9806 23.8196 21.1455C24.1738 21.3117 24.4161 21.6321 24.462 21.9993C24.5093 22.3666 24.3544 22.7312 24.0519 22.9698L19.0425 26.916C17.9915 27.3168 16.866 27.5272 15.7305 27.5326H6.24607C6.17582 27.5326 6.11846 27.479 6.11846 27.4133V21.5729C6.11846 21.5059 6.17553 21.4538 6.24579 21.4525ZM1.53 19.9914H4.58822V27.4147L4.58965 27.4201V28.5702H1.53001L1.53 19.9914Z" fill="#121212" fill-opacity="0.5"/>
<path d="M5.6179 19.9919C5.61675 19.51 5.1879 19.0625 4.58805 19.0625H1.52984C0.929974 19.0625 0.501117 19.51 0.5 19.9919L0.500163 28.5691C0.500163 28.5692 0.500163 28.5694 0.500164 28.5695C0.501261 29.0522 0.929609 29.499 1.53027 29.5002C1.53044 29.5002 1.53062 29.5002 1.5308 29.5002L4.58716 29.5002M5.6179 19.9919L4.58822 30.0002M5.6179 19.9919V20.0356V20.5678L6.149 20.5347C6.17246 20.5332 6.19314 20.531 6.20869 20.5291C6.21876 20.528 6.23149 20.5263 6.2392 20.5253C6.24152 20.525 6.24338 20.5248 6.24458 20.5246C6.24853 20.5241 6.2514 20.5238 6.25336 20.5236L5.6179 19.9919ZM4.58716 29.5002H4.58822V30.0002M4.58716 29.5002C4.58687 29.5002 4.58657 29.5002 4.58627 29.5002L4.58822 30.0002M4.58716 29.5002C5.07362 29.498 5.46544 29.1945 5.57746 28.8066L5.69627 28.3952L6.12106 28.4494C6.17475 28.4562 6.21773 28.4607 6.25734 28.4628M4.58822 30.0002C5.27643 29.9976 5.8786 29.566 6.05783 28.9453C6.12091 28.9534 6.18256 28.9601 6.24565 28.9628M6.25734 28.4628H6.24565V28.9628M6.25734 28.4628H15.7301C16.0387 28.4628 16.8547 28.4089 17.7055 28.2652C18.1291 28.1936 18.5496 28.1017 18.9133 27.9875C19.2863 27.8704 19.5588 27.7421 19.7176 27.617L19.7177 27.617L24.7271 23.6708L24.7755 23.6327M6.25734 28.4628C6.26054 28.4629 6.26371 28.4631 6.26687 28.4632L6.24565 28.9628M6.24565 28.9628H15.7301C16.4111 28.9628 19.1066 28.7349 20.0271 28.0097L24.7755 23.6327M14.2661 22.4684L14.2674 22.4684C14.2675 22.468 14.2675 22.4675 14.2675 22.467C14.2733 22.2575 14.2495 22.0503 14.1981 21.8502L13.9274 22.1032L13.926 22.1045L14.2661 22.4684ZM14.2661 22.4684L14.2674 22.4698L14.2688 22.4699L14.2688 22.4713L14.2622 22.6937H14.2473V23.173M14.2661 22.4684L13.7691 22.4537L13.769 22.4554L13.7476 23.1788L13.7335 23.6533L14.2259 23.193L14.2473 23.173M14.2473 23.173V23.1937M14.2473 23.173L14.248 23.1724L14.2473 23.1937M14.2473 23.1937L14.7471 23.2085L14.7476 23.1937H14.2473ZM24.7755 23.6327L24.8632 23.5636H25.0365H25.0379V24.0636L25.0365 24.0617L24.7282 23.671C24.7442 23.6584 24.76 23.6456 24.7755 23.6327ZM22.1724 20.3822L21.9166 19.9525L22.1585 20.3901C22.1607 20.3889 22.1629 20.3877 22.1652 20.3865L22.1724 20.3822ZM16.9864 23.4692L17.2306 23.3238V23.0408V23.0395H16.7306L16.7314 23.0408L16.9864 23.4692ZM13.1988 21.1044C13.1989 21.1044 13.1989 21.1045 13.199 21.1046L13.5448 20.7434L13.1985 21.1041C13.1986 21.1042 13.1987 21.1043 13.1988 21.1044ZM6.24579 20.9525V20.9524L6.23627 20.9526C5.93434 20.9583 5.61846 21.1945 5.61846 21.5729V27.4133C5.61846 27.7863 5.93192 28.0326 6.24607 28.0326L15.7305 28.0326L15.7329 28.0326C16.9283 28.0269 18.1134 27.8054 19.2207 27.3832L19.2919 27.356L19.3519 27.3087L24.3613 23.3626L24.3615 23.3624C24.794 23.0213 25.0286 22.4873 24.958 21.9364C24.8889 21.3862 24.529 20.9261 24.0321 20.6929C23.5383 20.4611 22.9523 20.4754 22.4702 20.7367L22.4613 20.7415L22.4527 20.7467L17.2958 23.8173C16.9614 24.016 16.5695 24.1239 16.1661 24.1239H11.479C11.302 24.1239 11.2148 23.9968 11.2148 23.9081C11.2148 23.8213 11.3014 23.6937 11.479 23.6937H12.7178H13.2038L13.2176 23.2078L13.2391 22.4464L13.2391 22.4462C13.2503 22.042 13.0854 21.6587 12.7964 21.3805L12.7951 21.3792C12.5072 21.1039 12.1184 20.9525 11.7184 20.9525H6.24579ZM1.53 19.4914H1.03L1.03 19.9914L1.03001 28.5702L1.03001 29.0702H1.53001H4.58965H5.08965V28.5702V27.4201V27.3544L5.08822 27.349V19.9914V19.4914H4.58822H1.53Z" stroke="#121212" stroke-opacity="0.5"/>
<path d="M9.20672 15.9684C9.34579 17.8316 11.0032 19.2765 13.0005 19.2765C14.9978 19.2765 16.6551 17.8316 16.7943 15.9684C17.1212 15.6748 17.3047 15.2687 17.3061 14.8438V12.5209C19.0123 11.3775 20.1163 9.60948 20.3457 7.6578C20.5736 5.70749 19.9026 3.75725 18.5019 2.29613C17.0996 0.835081 15.0995 0 13.0006 0C10.9017 0 8.90145 0.835081 7.49934 2.29613C6.09855 3.75718 5.42756 5.70749 5.65553 7.6578C5.88493 9.60944 6.98893 11.3775 8.69509 12.5209V14.8438C8.69653 15.2687 8.87983 15.6749 9.20672 15.9684ZM13.0005 17.8463C12.0284 17.845 11.1624 17.2726 10.8369 16.4174H15.164C14.8386 17.2726 13.9726 17.845 13.0005 17.8463ZM7.14209 6.90064C7.14353 4.96509 8.24036 3.17304 10.0254 2.18924C11.8105 1.20544 14.017 1.17589 15.8306 2.11284C17.6457 3.04846 18.7956 4.80976 18.8573 6.74531C18.9175 8.6822 17.8809 10.5038 16.1302 11.5387C15.9094 11.6701 15.7761 11.898 15.7761 12.1419V14.8442C15.7761 14.9233 15.7073 14.9876 15.6227 14.9876H10.378C10.2934 14.9876 10.2246 14.9233 10.2246 14.8442V13.9153H13.0003C13.2025 13.9153 13.3975 13.8402 13.5409 13.7062C13.6843 13.5721 13.7646 13.3898 13.7646 13.2008V9.56417L15.0693 8.34438H15.0707C15.3661 8.06424 15.3647 7.61386 15.0664 7.33639C14.7696 7.05893 14.2879 7.05758 13.9897 7.33371L13.0004 8.25725L12.0111 7.33237V7.33371C11.7129 7.05759 11.2311 7.05893 10.9343 7.33639C10.6361 7.61386 10.6347 8.06424 10.93 8.34439L12.2362 9.56417V12.4849H10.2246V12.1418C10.2246 11.8978 10.0913 11.67 9.87045 11.5386C8.16858 10.5346 7.1378 8.78273 7.14209 6.90064Z" fill="#121212" fill-opacity="0.5"/>
<path d="M9.69037 15.7307L9.70533 15.9312C9.82286 17.5057 11.2362 18.7765 13.0005 18.7765C14.7648 18.7765 16.1781 17.5057 16.2956 15.9312L16.3106 15.7307L16.4602 15.5964C16.6845 15.3949 16.8049 15.1224 16.8061 14.8429V12.5209V12.254L17.0278 12.1055C18.6184 11.0395 19.6375 9.39905 19.8491 7.59975L9.69037 15.7307ZM9.69037 15.7307L9.54078 15.5964M9.69037 15.7307L9.54078 15.5964M9.54078 15.5964C9.31659 15.3951 9.19625 15.1226 9.19509 14.8429V12.5209V12.254M9.54078 15.5964L9.19509 12.254M9.19509 12.254L8.97344 12.1055M9.19509 12.254L8.97344 12.1055M8.97344 12.1055C7.3827 11.0395 6.36367 9.39891 6.15212 7.59957L8.97344 12.1055ZM6.64209 6.89989C6.64382 4.77075 7.85019 2.81717 9.78407 1.75134C11.7152 0.687039 14.0981 0.655197 16.0597 1.6684C18.0255 2.68168 19.2892 4.60081 19.357 6.72939L19.357 6.72978C19.4232 8.85964 18.2829 10.8466 16.3854 11.9687C16.3075 12.0153 16.2761 12.0846 16.2761 12.1419V14.8442C16.2761 15.2306 15.9512 15.4876 15.6227 15.4876H10.378C10.0495 15.4876 9.72458 15.2306 9.72458 14.8442V13.9153V13.4153H10.2246H13.0003C13.0809 13.4153 13.1524 13.3849 13.1995 13.3409C13.2453 13.2981 13.2646 13.2466 13.2646 13.2008V9.56417V9.34714L13.4231 9.19892L14.7278 7.97914L14.741 7.96688C14.7777 7.92561 14.7913 7.881 14.7912 7.84135C14.791 7.79702 14.7736 7.74692 14.7258 7.70245L14.725 7.70164C14.6197 7.60326 14.4357 7.60269 14.3299 7.70012C14.3297 7.70028 14.3295 7.70044 14.3294 7.7006L13.3416 8.62274L13.0001 8.9415L12.6589 8.6225L11.8198 7.83799L11.6714 7.7006C11.5656 7.60269 11.3812 7.6031 11.2758 7.70164L11.2749 7.70246C11.2271 7.74692 11.2097 7.79702 11.2096 7.84135C11.2094 7.88545 11.2262 7.93567 11.273 7.9806L12.5774 9.19874L12.7362 9.34698V9.56417V12.4849V12.9849H12.2362H10.2246H9.72459V12.4849V12.1418C9.72459 12.0845 9.69327 12.0153 9.61561 11.9688C7.77093 10.8802 6.63751 8.96952 6.64209 6.89989ZM6.64209 6.89989C6.64209 6.89976 6.64209 6.89963 6.64209 6.8995L7.14209 6.90064L6.64209 6.90027C6.64209 6.90014 6.64209 6.90002 6.64209 6.89989ZM18.1409 2.64215C16.8368 1.28338 14.9688 0.5 13.0006 0.5C11.0323 0.5 9.16415 1.28346 7.86009 2.64233C6.55902 3.99948 5.9422 5.80277 6.15211 7.59943L18.1409 2.64215ZM18.1409 2.64215C19.4421 3.99939 20.059 5.8027 19.8491 7.59943L18.1409 2.64215ZM10.8369 15.9174H10.1117L10.3696 16.5953C10.7746 17.6595 11.8373 18.3447 12.9998 18.3463L13.0012 18.3463C14.1637 18.3447 15.2263 17.6595 15.6313 16.5953L15.8893 15.9174H15.164H10.8369Z" stroke="#121212" stroke-opacity="0.5"/>
<path d="M22.2319 7.12456C22.2319 7.3149 22.3122 7.49584 22.4556 7.62991C22.599 7.76529 22.7925 7.84036 22.9961 7.84036H25.2343C25.6572 7.84036 25.9999 7.52 25.9999 7.12459C25.9999 6.73052 25.6572 6.41016 25.2343 6.41016H22.9961C22.7926 6.41016 22.599 6.48522 22.4556 6.61926C22.3122 6.75331 22.2319 6.93555 22.2319 7.12456Z" fill="#121212" fill-opacity="0.5"/>
<path d="M23.1645 2.33154L21.6346 3.7698C21.3364 4.04995 21.3379 4.50167 21.6375 4.78047C21.9372 5.05928 22.4203 5.05794 22.7186 4.77779L24.2484 3.33953C24.5452 3.06072 24.5452 2.60767 24.2455 2.32886C23.9459 2.05139 23.4613 2.05139 23.1645 2.33154Z" fill="#121212" fill-opacity="0.5"/>
<path d="M21.6346 10.4807L23.1645 11.9189V11.9176C23.4613 12.1977 23.9459 12.1991 24.2455 11.9203C24.5452 11.6428 24.5452 11.1897 24.2484 10.9096L22.7186 9.47133V9.47267C22.4203 9.19252 21.9372 9.19118 21.6375 9.46999C21.3378 9.74745 21.3364 10.2005 21.6346 10.4807Z" fill="#121212" fill-opacity="0.5"/>
<path d="M0 7.12456C0 7.3149 0.0802911 7.49584 0.225101 7.62991C0.36848 7.76529 0.562037 7.84036 0.765647 7.84036H3.00377C3.42672 7.84036 3.76796 7.52 3.76796 7.12459C3.76796 6.73052 3.42672 6.41016 3.00377 6.41016H0.765647C0.562051 6.41016 0.368505 6.48522 0.225101 6.61926C0.0802911 6.7533 0 6.93555 0 7.12456Z" fill="#121212" fill-opacity="0.5"/>
<path d="M4.36725 3.76981L2.83741 2.33154C2.54062 2.05139 2.05601 2.05139 1.75635 2.32886C1.4567 2.60767 1.45669 3.06072 1.75349 3.33953L3.28333 4.7778C3.58155 5.05794 4.06473 5.05928 4.36438 4.78048C4.66404 4.50167 4.66547 4.04995 4.36725 3.76981Z" fill="#121212" fill-opacity="0.5"/>
<path d="M3.28333 9.47267L1.75348 10.9109V10.9096C1.4567 11.1897 1.4567 11.6428 1.75635 11.9203C2.05601 12.1991 2.54061 12.1977 2.83741 11.9176L4.36725 10.4793V10.4807C4.66547 10.2005 4.66404 9.74746 4.36438 9.46999C4.06472 9.19118 3.58155 9.19252 3.28333 9.47267Z" fill="#121212" fill-opacity="0.5"/>
<path d="M10.3231 23.9257C10.3231 24.8787 8.79468 24.8787 8.79468 23.9257C8.79468 22.9727 10.3231 22.9727 10.3231 23.9257Z" fill="#121212" fill-opacity="0.5"/>
</svg>
