<svg width="27" height="30" viewBox="0 0 27 30" fill="none" xmlns="http://www.w3.org/2000/svg">
<path d="M1.35502 9.89749e-06C1.17666 -0.000677589 0.99994 0.0344571 0.835062 0.103161C0.670184 0.171865 0.52042 0.27284 0.394426 0.400349C0.268432 0.527858 0.168706 0.679307 0.10101 0.845975C0.0333134 1.01264 -0.00101008 1.19118 2.26292e-05 1.37132V28.6315C-0.000658711 28.8114 0.0339242 28.9897 0.101778 29.1561C0.169631 29.3224 0.269413 29.4735 0.395372 29.6008C0.521331 29.728 0.670975 29.8288 0.835679 29.8973C1.00038 29.9658 1.17689 30.0007 1.35502 30H17.5439C17.7396 29.9998 17.9329 29.9566 18.1105 29.8734C18.288 29.7902 18.4455 29.6691 18.572 29.5184L26.6731 19.9781C26.8834 19.7315 26.9993 19.417 27 19.0914V1.37164C27.001 1.19149 26.9667 1.0128 26.899 0.846132C26.8313 0.679465 26.7316 0.528016 26.6056 0.400507C26.4796 0.272997 26.3298 0.172022 26.1649 0.103318C26.0001 0.0346143 25.8233 -0.000363104 25.645 0.000324382L1.35502 9.89749e-06ZM2.69949 2.72927H24.3005V17.7227H17.5439C17.186 17.7241 16.8432 17.869 16.5911 18.1257C16.339 18.3823 16.1981 18.7296 16.1995 19.0911L16.2179 27.2736H2.69953L2.69949 2.72927ZM6.75396 5.45585C6.57422 5.45188 6.39552 5.48426 6.22832 5.55098C6.06112 5.61771 5.9088 5.71741 5.7803 5.8444C5.65179 5.97138 5.54969 6.12296 5.47999 6.29034C5.41029 6.45771 5.37438 6.63757 5.37438 6.81915C5.37438 7.00073 5.41029 7.18042 5.47999 7.34779C5.54969 7.51517 5.65179 7.66675 5.7803 7.79373C5.9088 7.92072 6.06112 8.02058 6.22832 8.08731C6.39552 8.15403 6.57422 8.18641 6.75396 8.18244H20.246C20.4258 8.18641 20.6045 8.15403 20.7717 8.08731C20.9389 8.02058 21.0912 7.92072 21.2197 7.79373C21.3482 7.66675 21.4503 7.51517 21.52 7.34779C21.5897 7.18042 21.6256 7.00073 21.6256 6.81915C21.6256 6.63757 21.5897 6.45771 21.52 6.29034C21.4503 6.12296 21.3482 5.97138 21.2197 5.8444C21.0912 5.71741 20.9389 5.61771 20.7717 5.55098C20.6045 5.48426 20.4258 5.45188 20.246 5.45585H6.75396ZM6.75396 10.9089C6.57612 10.9082 6.39991 10.9431 6.23543 11.0114C6.07094 11.0797 5.92142 11.1801 5.79545 11.3068C5.66947 11.4336 5.56951 11.5842 5.50131 11.7501C5.4331 11.916 5.39799 12.094 5.39799 12.2736C5.39799 12.4532 5.4331 12.631 5.50131 12.7969C5.56951 12.9628 5.66947 13.1134 5.79545 13.2401C5.92142 13.3669 6.07094 13.4675 6.23543 13.5358C6.39991 13.604 6.57612 13.6388 6.75396 13.6381H20.246C20.4239 13.6388 20.6001 13.604 20.7646 13.5358C20.9291 13.4675 21.0786 13.3669 21.2046 13.2401C21.3305 13.1134 21.4305 12.9628 21.4987 12.7969C21.5669 12.631 21.602 12.4532 21.602 12.2736C21.602 12.094 21.5669 11.916 21.4987 11.7501C21.4305 11.5842 21.3305 11.4336 21.2046 11.3068C21.0786 11.1801 20.9291 11.0797 20.7646 11.0114C20.6001 10.9431 20.4239 10.9082 20.246 10.9089H6.75396ZM18.9016 20.4491H22.7214L18.9121 24.9357L18.9016 20.4491Z" fill="#121212" fill-opacity="0.5"/>
<path d="M1.35309 0.500006V0.50001H1.35501L25.645 0.500328L25.6469 0.500321C25.7586 0.49989 25.8693 0.521783 25.9726 0.564852L26.1644 0.1046L25.9726 0.564852C26.0761 0.607987 26.1704 0.671483 26.2499 0.75194C26.3295 0.832474 26.3927 0.928389 26.4357 1.03429C26.4788 1.14017 26.5006 1.25395 26.5 1.36877V1.37164L26.5 19.0904C26.5 19.0907 26.5 19.0909 26.5 19.0912C26.4994 19.2984 26.4254 19.4979 26.2926 19.6538L26.292 19.6545L18.1909 29.1947L18.1891 29.1969C18.1091 29.2922 18.0099 29.3684 17.8983 29.4207C17.7869 29.4728 17.6658 29.4998 17.5434 29.5L1.35502 29.5L1.3531 29.5C1.24145 29.5004 1.13091 29.4786 1.02777 29.4357C0.924458 29.3927 0.830237 29.3293 0.750687 29.249C0.671109 29.1686 0.607848 29.0729 0.564748 28.9672C0.521626 28.8615 0.499585 28.748 0.500023 28.6334V28.6315V1.37132H0.500031L0.500014 1.36846C0.499357 1.25369 0.521228 1.14007 0.564255 1.03413C0.607268 0.928235 0.670507 0.83232 0.750086 0.751783C0.829588 0.671326 0.923863 0.60783 1.02738 0.564695C1.13101 0.521511 1.24172 0.499577 1.35309 0.500006ZM2.69949 2.22927H2.19949L2.19949 2.72927L2.19953 27.2736L2.19953 27.7736H2.69953H16.2179H16.7191L16.7179 27.2724L16.6995 19.09L16.6995 19.0893C16.6986 18.8587 16.7885 18.6382 16.9478 18.4761C17.1067 18.3143 17.3216 18.2238 17.5451 18.2227H24.3005H24.8005V17.7227V2.72927V2.22927H24.3005H2.69949ZM6.74292 5.95573L6.74292 5.95585H6.75396H20.246V5.95597L20.2571 5.95573C20.3695 5.95325 20.4814 5.97348 20.5863 6.01537C20.6914 6.05728 20.7872 6.11997 20.8683 6.20005C20.9494 6.28027 21.0142 6.37625 21.0584 6.48256C21.1027 6.5889 21.1256 6.70341 21.1256 6.81915C21.1256 6.93482 21.1027 7.04918 21.0584 7.15557C21.0142 7.26188 20.9494 7.35787 20.8683 7.43809C20.787 7.51834 20.6911 7.58111 20.5863 7.62292C20.4814 7.66481 20.3695 7.68504 20.2571 7.68256L20.2571 7.68244H20.246H6.75396V7.68232L6.74292 7.68256C6.63054 7.68504 6.51861 7.66481 6.41365 7.62292C6.30887 7.58111 6.21296 7.51834 6.13174 7.43809L5.7803 7.79373L6.13174 7.43809C6.05056 7.35787 5.98584 7.26188 5.94156 7.15557C5.89726 7.04918 5.87438 6.93482 5.87438 6.81915C5.87438 6.70341 5.89728 6.5889 5.94156 6.48256C5.98584 6.37625 6.05056 6.28027 6.13174 6.20005L5.7803 5.8444L6.13174 6.20005C6.21278 6.11997 6.30864 6.05728 6.41365 6.01537C6.51861 5.97348 6.63054 5.95325 6.74292 5.95573ZM6.75212 11.4089H6.75396L20.246 11.4089L20.2479 11.4089C20.3591 11.4085 20.4695 11.4303 20.5729 11.4732C20.6761 11.516 20.7703 11.5792 20.8499 11.6593L21.2046 11.3068L20.8499 11.6593C20.9295 11.7394 20.9929 11.8348 21.0363 11.9402C21.0796 12.0457 21.102 12.159 21.102 12.2736C21.102 12.3881 21.0796 12.5013 21.0363 12.6067C20.9929 12.7122 20.9295 12.8076 20.8499 12.8877L21.2046 13.2401L20.8499 12.8877C20.7701 12.968 20.6759 13.0312 20.5729 13.074C20.4698 13.1168 20.3594 13.1385 20.2479 13.1381H20.246L6.75396 13.1381L6.75212 13.1381C6.64065 13.1385 6.53023 13.1168 6.42714 13.074C6.32409 13.0312 6.22986 12.968 6.15012 12.8877C6.07049 12.8076 6.00709 12.7122 5.96375 12.6067C5.92037 12.5013 5.89799 12.3881 5.89799 12.2736C5.89799 12.159 5.92039 12.0457 5.96375 11.9402C6.00709 11.8348 6.07049 11.7394 6.15012 11.6593C6.22968 11.5792 6.32386 11.516 6.42713 11.4732C6.53051 11.4303 6.64094 11.4085 6.75212 11.4089ZM18.9016 19.9491H18.4004L18.4016 20.4503L18.4121 24.9369L18.4153 26.2934L19.2933 25.2593L23.1026 20.7727L23.8019 19.9491H22.7214H18.9016Z" stroke="#121212" stroke-opacity="0.5"/>
</svg>
