<svg width="30" height="30" viewBox="0 0 30 30" fill="none" xmlns="http://www.w3.org/2000/svg">
<path d="M8.83792 24.2773C8.59355 24.2773 8.35466 24.3498 8.15146 24.4855C7.94827 24.6213 7.78989 24.8142 7.69637 25.04C7.60284 25.2658 7.57836 25.5142 7.62603 25.7538C7.67369 25.9935 7.79136 26.2137 7.96415 26.3864C8.13694 26.5592 8.3571 26.6769 8.59677 26.7246C8.83645 26.7723 9.08488 26.7478 9.31066 26.6543C9.53644 26.5608 9.72942 26.4025 9.86519 26.1993C10.001 25.9961 10.0734 25.7573 10.0735 25.5129C10.0735 25.3507 10.0415 25.19 9.97944 25.0401C9.91735 24.8902 9.82634 24.754 9.71161 24.6392C9.59688 24.5245 9.46067 24.4335 9.31076 24.3714C9.16086 24.3093 9.00018 24.2773 8.83792 24.2773Z" fill="#121212" fill-opacity="0.5"/>
<path d="M8.8379 24.7773H8.83791C8.93452 24.7773 9.03017 24.7964 9.11942 24.8333C9.20866 24.8703 9.28975 24.9245 9.35805 24.9928C9.42635 25.0611 9.48053 25.1422 9.51749 25.2314C9.55445 25.3207 9.57347 25.4163 9.57346 25.5129V25.5129C9.57345 25.6584 9.53031 25.8005 9.44948 25.9215C9.36865 26.0424 9.25377 26.1367 9.11935 26.1924C8.98493 26.248 8.83703 26.2626 8.69433 26.2342C8.55164 26.2058 8.42057 26.1358 8.31771 26.0329C8.21484 25.93 8.1448 25.799 8.11642 25.6563C8.08805 25.5136 8.10262 25.3658 8.1583 25.2314C8.21397 25.097 8.30825 24.9821 8.42922 24.9013C8.55019 24.8205 8.69241 24.7773 8.8379 24.7773Z" stroke="#121212" stroke-opacity="0.5"/>
<mask id="path-3-inside-1_6057_45881" fill="white">
<path d="M27.2287 7.13409C25.7087 5.63707 23.7303 4.69329 21.6103 4.45385C19.4903 4.21441 17.3512 4.69315 15.5356 5.81343C15.0315 3.98055 13.8843 2.39044 12.3038 1.33406C10.7233 0.27768 8.81526 -0.174329 6.9288 0.0607373C5.50313 0.237518 4.15264 0.799624 3.0226 1.68659C1.89256 2.57355 1.02575 3.75181 0.515392 5.09461C0.0050396 6.43741 -0.129533 7.89393 0.12615 9.3075C0.381834 10.7211 1.0181 12.0382 1.9665 13.1172L1.17922 13.7078C0.982273 13.8555 0.83677 14.0613 0.763322 14.2962C0.689874 14.5311 0.692205 14.7831 0.769984 15.0166C0.847763 15.2501 0.997048 15.4533 1.19669 15.5972C1.39633 15.7411 1.63621 15.8186 1.88233 15.8187H7.70649C8.90283 15.818 10.0847 15.5574 11.1704 15.0549C11.2971 16.0726 11.5891 17.0628 12.0349 17.9865L6.63476 21.2494C5.75644 21.7836 5.07665 22.5901 4.6988 23.5461C4.32095 24.5022 4.26572 25.5554 4.54152 26.5457C4.81731 27.536 5.40903 28.4092 6.22668 29.0323C7.04432 29.6554 8.04313 29.9945 9.07117 29.9979C9.26167 29.9979 9.45199 29.9865 9.64112 29.9638C10.3526 29.8816 11.0357 29.6373 11.638 29.2498C12.2402 28.8623 12.7456 28.3418 13.1152 27.7284L16.3772 22.3317C16.7544 22.5105 17.143 22.6641 17.5405 22.7915C17.4732 23.2242 17.4485 23.6625 17.467 24.1001C17.5811 25.7161 18.3089 27.2273 19.5013 28.3241C20.6936 29.421 22.2603 30.0203 23.8803 29.9995H28.3643C28.5933 29.9989 28.8164 29.9264 29.0019 29.7921C29.1875 29.6579 29.3261 29.4686 29.3982 29.2513C29.4703 29.0339 29.4722 28.7993 29.4037 28.5808C29.3351 28.3623 29.1996 28.1708 29.0163 28.0335L28.5699 27.7022C29.1234 27.0267 29.5308 26.2437 29.7662 25.4027C30.0017 24.5618 30.0601 23.6811 29.9378 22.8164C29.7445 21.5089 29.1352 20.2984 28.2002 19.3641C29.5129 17.5407 30.1358 15.3106 29.9579 13.0709C29.7799 10.8312 28.8128 8.7274 27.2287 7.13409ZM3.27365 14.1824L3.69979 13.8628C3.79669 13.7899 3.8762 13.6964 3.93257 13.589C3.98895 13.4816 4.02078 13.363 4.02577 13.2419C4.03076 13.1207 4.0088 12.9999 3.96145 12.8883C3.91411 12.7766 3.84257 12.6769 3.75199 12.5962C2.95714 11.8907 2.35473 10.9947 2.00135 9.99242C1.64797 8.99014 1.55523 7.91446 1.73185 6.86649C1.90847 5.81851 2.34865 4.83264 3.01101 4.00152C3.67338 3.1704 4.5362 2.52132 5.51838 2.11526C6.50056 1.70921 7.56985 1.55952 8.62579 1.68026C9.68172 1.801 10.6896 2.1882 11.5548 2.80549C12.4199 3.42277 13.1139 4.24987 13.5716 5.20905C14.0292 6.16824 14.2354 7.22802 14.1709 8.28881C14.0468 9.90968 13.3087 11.4221 12.1074 12.5173C10.906 13.6126 9.332 14.2081 7.70649 14.1824H3.27365ZM15.3811 20.8169L11.7153 26.8809C11.4729 27.2793 11.1432 27.6175 10.751 27.8699C10.3588 28.1223 9.91435 28.2824 9.45126 28.338C8.98817 28.3936 8.5185 28.3434 8.07768 28.191C7.63685 28.0387 7.23639 27.7882 6.9065 27.4585C6.57661 27.1288 6.32591 26.7285 6.17332 26.2877C6.02072 25.847 5.97021 25.3774 6.02561 24.9143C6.081 24.4512 6.24084 24.0068 6.49308 23.6145C6.74531 23.2222 7.08336 22.8923 7.4817 22.6497L13.5477 18.9841C13.7329 18.8722 13.8662 18.6916 13.9185 18.4817C13.9708 18.2717 13.9379 18.0496 13.8268 17.864C13.1518 16.7261 12.778 15.4349 12.741 14.1124C13.3635 13.6315 13.9119 13.0617 14.3686 12.4213C13.9974 13.9294 14.1976 15.5215 14.9308 16.8906C15.6639 18.2598 16.8779 19.3092 18.3389 19.8364C19.7998 20.3636 21.4042 20.3314 22.8428 19.7459C24.2814 19.1604 25.4523 18.0631 26.1298 16.6656C26.8073 15.2681 26.9435 13.6692 26.512 12.1773C26.0805 10.6853 25.112 9.40589 23.7931 8.58564C22.4742 7.76539 20.8983 7.46239 19.3693 7.73504C17.8402 8.00769 16.4662 8.8367 15.5122 10.0622C15.6717 9.51547 15.77 8.95266 15.8051 8.38418C15.8203 8.12457 15.8179 7.8662 15.8078 7.6092C17.3434 6.43726 19.2587 5.87549 21.184 6.03225C23.1094 6.18902 24.9085 7.05321 26.2343 8.45813C27.5601 9.86304 28.3186 11.7091 28.3634 13.6402C28.4083 15.5714 27.7364 17.4507 26.4774 18.9157C26.4712 18.9229 26.4622 18.9261 26.4563 18.9335L26.4502 18.9458C26.3277 19.0871 26.207 19.2291 26.0727 19.3633C24.8379 20.6 23.2246 21.3877 21.4899 21.6007C19.7553 21.8138 17.9993 21.4399 16.5019 20.5389C16.4101 20.4834 16.3082 20.4467 16.2022 20.4306C16.0961 20.4146 15.9879 20.4197 15.8838 20.4455C15.7798 20.4713 15.6818 20.5174 15.5955 20.5811C15.5092 20.6448 15.4364 20.725 15.3811 20.8169ZM15.819 13.9097C15.819 12.9928 16.0909 12.0965 16.6003 11.3341C17.1098 10.5717 17.8339 9.97747 18.681 9.62658C19.5282 9.27569 20.4604 9.18388 21.3598 9.36276C22.2591 9.54164 23.0852 9.98318 23.7336 10.6315C24.382 11.2799 24.8236 12.106 25.0025 13.0053C25.1814 13.9046 25.0896 14.8367 24.7387 15.6838C24.3878 16.531 23.7935 17.255 23.0311 17.7644C22.2686 18.2738 21.3723 18.5457 20.4553 18.5457C19.2261 18.5444 18.0476 18.0555 17.1784 17.1864C16.3092 16.3172 15.8203 15.1388 15.819 13.9097ZM26.794 27.1968C26.7128 27.2691 26.6469 27.357 26.6001 27.4551C26.5533 27.5532 26.5265 27.6597 26.5214 27.7684C26.5162 27.877 26.5328 27.9855 26.5701 28.0877C26.6074 28.1898 26.6647 28.2835 26.7386 28.3632H23.8803C22.6791 28.3845 21.5151 27.9458 20.6267 27.1371C19.7382 26.3283 19.1925 25.2106 19.1012 24.0127C19.0874 23.7364 19.0958 23.4595 19.1265 23.1846C20.5704 23.4026 22.0451 23.2828 23.4347 22.8345C24.8244 22.3861 26.091 21.6216 27.1352 20.6009C27.5555 21.0516 27.8808 21.5822 28.0918 22.1612C28.3028 22.7402 28.3951 23.3557 28.3632 23.9711C28.3314 24.5866 28.1761 25.1893 27.9065 25.7434C27.6369 26.2976 27.2586 26.7918 26.794 27.1968Z"/>
</mask>
<path d="M27.2287 7.13409C25.7087 5.63707 23.7303 4.69329 21.6103 4.45385C19.4903 4.21441 17.3512 4.69315 15.5356 5.81343C15.0315 3.98055 13.8843 2.39044 12.3038 1.33406C10.7233 0.27768 8.81526 -0.174329 6.9288 0.0607373C5.50313 0.237518 4.15264 0.799624 3.0226 1.68659C1.89256 2.57355 1.02575 3.75181 0.515392 5.09461C0.0050396 6.43741 -0.129533 7.89393 0.12615 9.3075C0.381834 10.7211 1.0181 12.0382 1.9665 13.1172L1.17922 13.7078C0.982273 13.8555 0.83677 14.0613 0.763322 14.2962C0.689874 14.5311 0.692205 14.7831 0.769984 15.0166C0.847763 15.2501 0.997048 15.4533 1.19669 15.5972C1.39633 15.7411 1.63621 15.8186 1.88233 15.8187H7.70649C8.90283 15.818 10.0847 15.5574 11.1704 15.0549C11.2971 16.0726 11.5891 17.0628 12.0349 17.9865L6.63476 21.2494C5.75644 21.7836 5.07665 22.5901 4.6988 23.5461C4.32095 24.5022 4.26572 25.5554 4.54152 26.5457C4.81731 27.536 5.40903 28.4092 6.22668 29.0323C7.04432 29.6554 8.04313 29.9945 9.07117 29.9979C9.26167 29.9979 9.45199 29.9865 9.64112 29.9638C10.3526 29.8816 11.0357 29.6373 11.638 29.2498C12.2402 28.8623 12.7456 28.3418 13.1152 27.7284L16.3772 22.3317C16.7544 22.5105 17.143 22.6641 17.5405 22.7915C17.4732 23.2242 17.4485 23.6625 17.467 24.1001C17.5811 25.7161 18.3089 27.2273 19.5013 28.3241C20.6936 29.421 22.2603 30.0203 23.8803 29.9995H28.3643C28.5933 29.9989 28.8164 29.9264 29.0019 29.7921C29.1875 29.6579 29.3261 29.4686 29.3982 29.2513C29.4703 29.0339 29.4722 28.7993 29.4037 28.5808C29.3351 28.3623 29.1996 28.1708 29.0163 28.0335L28.5699 27.7022C29.1234 27.0267 29.5308 26.2437 29.7662 25.4027C30.0017 24.5618 30.0601 23.6811 29.9378 22.8164C29.7445 21.5089 29.1352 20.2984 28.2002 19.3641C29.5129 17.5407 30.1358 15.3106 29.9579 13.0709C29.7799 10.8312 28.8128 8.7274 27.2287 7.13409ZM3.27365 14.1824L3.69979 13.8628C3.79669 13.7899 3.8762 13.6964 3.93257 13.589C3.98895 13.4816 4.02078 13.363 4.02577 13.2419C4.03076 13.1207 4.0088 12.9999 3.96145 12.8883C3.91411 12.7766 3.84257 12.6769 3.75199 12.5962C2.95714 11.8907 2.35473 10.9947 2.00135 9.99242C1.64797 8.99014 1.55523 7.91446 1.73185 6.86649C1.90847 5.81851 2.34865 4.83264 3.01101 4.00152C3.67338 3.1704 4.5362 2.52132 5.51838 2.11526C6.50056 1.70921 7.56985 1.55952 8.62579 1.68026C9.68172 1.801 10.6896 2.1882 11.5548 2.80549C12.4199 3.42277 13.1139 4.24987 13.5716 5.20905C14.0292 6.16824 14.2354 7.22802 14.1709 8.28881C14.0468 9.90968 13.3087 11.4221 12.1074 12.5173C10.906 13.6126 9.332 14.2081 7.70649 14.1824H3.27365ZM15.3811 20.8169L11.7153 26.8809C11.4729 27.2793 11.1432 27.6175 10.751 27.8699C10.3588 28.1223 9.91435 28.2824 9.45126 28.338C8.98817 28.3936 8.5185 28.3434 8.07768 28.191C7.63685 28.0387 7.23639 27.7882 6.9065 27.4585C6.57661 27.1288 6.32591 26.7285 6.17332 26.2877C6.02072 25.847 5.97021 25.3774 6.02561 24.9143C6.081 24.4512 6.24084 24.0068 6.49308 23.6145C6.74531 23.2222 7.08336 22.8923 7.4817 22.6497L13.5477 18.9841C13.7329 18.8722 13.8662 18.6916 13.9185 18.4817C13.9708 18.2717 13.9379 18.0496 13.8268 17.864C13.1518 16.7261 12.778 15.4349 12.741 14.1124C13.3635 13.6315 13.9119 13.0617 14.3686 12.4213C13.9974 13.9294 14.1976 15.5215 14.9308 16.8906C15.6639 18.2598 16.8779 19.3092 18.3389 19.8364C19.7998 20.3636 21.4042 20.3314 22.8428 19.7459C24.2814 19.1604 25.4523 18.0631 26.1298 16.6656C26.8073 15.2681 26.9435 13.6692 26.512 12.1773C26.0805 10.6853 25.112 9.40589 23.7931 8.58564C22.4742 7.76539 20.8983 7.46239 19.3693 7.73504C17.8402 8.00769 16.4662 8.8367 15.5122 10.0622C15.6717 9.51547 15.77 8.95266 15.8051 8.38418C15.8203 8.12457 15.8179 7.8662 15.8078 7.6092C17.3434 6.43726 19.2587 5.87549 21.184 6.03225C23.1094 6.18902 24.9085 7.05321 26.2343 8.45813C27.5601 9.86304 28.3186 11.7091 28.3634 13.6402C28.4083 15.5714 27.7364 17.4507 26.4774 18.9157C26.4712 18.9229 26.4622 18.9261 26.4563 18.9335L26.4502 18.9458C26.3277 19.0871 26.207 19.2291 26.0727 19.3633C24.8379 20.6 23.2246 21.3877 21.4899 21.6007C19.7553 21.8138 17.9993 21.4399 16.5019 20.5389C16.4101 20.4834 16.3082 20.4467 16.2022 20.4306C16.0961 20.4146 15.9879 20.4197 15.8838 20.4455C15.7798 20.4713 15.6818 20.5174 15.5955 20.5811C15.5092 20.6448 15.4364 20.725 15.3811 20.8169ZM15.819 13.9097C15.819 12.9928 16.0909 12.0965 16.6003 11.3341C17.1098 10.5717 17.8339 9.97747 18.681 9.62658C19.5282 9.27569 20.4604 9.18388 21.3598 9.36276C22.2591 9.54164 23.0852 9.98318 23.7336 10.6315C24.382 11.2799 24.8236 12.106 25.0025 13.0053C25.1814 13.9046 25.0896 14.8367 24.7387 15.6838C24.3878 16.531 23.7935 17.255 23.0311 17.7644C22.2686 18.2738 21.3723 18.5457 20.4553 18.5457C19.2261 18.5444 18.0476 18.0555 17.1784 17.1864C16.3092 16.3172 15.8203 15.1388 15.819 13.9097ZM26.794 27.1968C26.7128 27.2691 26.6469 27.357 26.6001 27.4551C26.5533 27.5532 26.5265 27.6597 26.5214 27.7684C26.5162 27.877 26.5328 27.9855 26.5701 28.0877C26.6074 28.1898 26.6647 28.2835 26.7386 28.3632H23.8803C22.6791 28.3845 21.5151 27.9458 20.6267 27.1371C19.7382 26.3283 19.1925 25.2106 19.1012 24.0127C19.0874 23.7364 19.0958 23.4595 19.1265 23.1846C20.5704 23.4026 22.0451 23.2828 23.4347 22.8345C24.8244 22.3861 26.091 21.6216 27.1352 20.6009C27.5555 21.0516 27.8808 21.5822 28.0918 22.1612C28.3028 22.7402 28.3951 23.3557 28.3632 23.9711C28.3314 24.5866 28.1761 25.1893 27.9065 25.7434C27.6369 26.2976 27.2586 26.7918 26.794 27.1968Z" fill="#121212" fill-opacity="0.5" stroke="#121212" stroke-opacity="0.5" stroke-width="2" mask="url(#path-3-inside-1_6057_45881)"/>
<path d="M12.2358 9.79625C12.0891 9.42955 11.8643 9.09924 11.5769 8.82833C11.2895 8.55742 10.9465 8.35243 10.5717 8.22764L10.3661 8.15946C10.67 7.63504 10.8292 7.03933 10.8274 6.43322C10.8736 5.66313 10.6141 4.90592 10.1053 4.32602C9.59643 3.74611 8.87936 3.39033 8.10976 3.33594C7.34017 3.39033 6.6231 3.74611 6.11427 4.32602C5.60545 4.90593 5.34594 5.66314 5.39211 6.43322C5.39 7.03923 5.54882 7.63494 5.85234 8.15948L5.64779 8.22766C5.27309 8.35233 4.93008 8.55722 4.64269 8.82804C4.35529 9.09886 4.13042 9.4291 3.98375 9.79573L3.75793 10.3587C3.68577 10.5405 3.65918 10.7371 3.68046 10.9315C3.70175 11.1259 3.77027 11.3121 3.88005 11.474C3.98983 11.6358 4.13754 11.7683 4.3103 11.8599C4.48305 11.9516 4.6756 11.9996 4.87116 11.9997H11.3473C11.5431 11.9998 11.7359 11.9519 11.9089 11.8601C12.0818 11.7684 12.2296 11.6357 12.3394 11.4736C12.4492 11.3115 12.5175 11.1249 12.5384 10.9303C12.5594 10.7356 12.5323 10.5388 12.4595 10.3571L12.2358 9.79625ZM5.51995 10.3635C5.58138 10.2269 5.67047 10.1044 5.78158 10.004C5.8927 9.90349 6.02344 9.82714 6.16555 9.77972L7.24046 9.42179C7.41127 9.3653 7.56377 9.26397 7.68202 9.12839C7.80027 8.99282 7.87993 8.82797 7.91268 8.65108C7.94546 8.47226 7.92963 8.28793 7.86686 8.11731C7.80408 7.9467 7.69666 7.79607 7.5558 7.68113C7.38268 7.52379 7.24584 7.33069 7.15479 7.11521C7.06373 6.89973 7.02062 6.66702 7.02846 6.43322C7.02846 5.6412 7.52383 4.97222 8.10976 4.97222C8.69569 4.97222 9.19107 5.6412 9.19107 6.43322C9.19858 6.66726 9.15511 6.90013 9.06369 7.11571C8.97227 7.33128 8.83507 7.52441 8.6616 7.68171C8.52099 7.79725 8.41391 7.94836 8.35152 8.11932C8.28913 8.29028 8.27371 8.47483 8.30686 8.65377C8.33989 8.82986 8.41945 8.9939 8.53728 9.12887C8.65511 9.26383 8.80692 9.3648 8.97695 9.42129L10.054 9.77975C10.1961 9.8271 10.3269 9.90343 10.438 10.0039C10.5492 10.1044 10.6382 10.2268 10.6996 10.3635L5.51995 10.3635Z" fill="#121212" fill-opacity="0.5"/>
</svg>
