<svg width="30" height="30" viewBox="0 0 30 30" fill="none" xmlns="http://www.w3.org/2000/svg">
<mask id="path-1-inside-1_6052_45625" fill="white">
<path fill-rule="evenodd" clip-rule="evenodd" d="M17.4492 0C16.0806 0 14.948 1.08688 14.948 2.40234V7.70508L12.6853 10.2574C12.5723 10.3856 12.4997 10.5422 12.4761 10.7087C12.4526 10.8753 12.4789 11.0448 12.5522 11.1974C12.6255 11.35 12.7426 11.4794 12.8897 11.5702C13.0368 11.661 13.2079 11.7096 13.3827 11.7101H17.4492H18.378H27.4988C28.8674 11.7101 30 10.6284 30 9.31296V2.40234C30 1.08688 28.8674 0 27.4988 0H17.4492ZM17.4492 1.76471H27.4988C27.8825 1.76471 28.1622 2.03453 28.1622 2.40234V9.31296C28.1622 9.68078 27.8825 9.94543 27.4988 9.94543H18.378H17.4492H15.3747L16.5617 8.60294C16.7049 8.44399 16.7844 8.24109 16.7858 8.03079V2.40234C16.7858 2.03453 17.0655 1.76471 17.4492 1.76471ZM19.936 3.37259C19.6935 3.3735 19.4612 3.46663 19.2899 3.63163C19.1185 3.79663 19.0221 4.0201 19.0216 4.25322C19.0212 4.36909 19.0444 4.48391 19.0901 4.59114C19.1358 4.69837 19.2031 4.79589 19.288 4.87814C19.3729 4.9604 19.4738 5.02577 19.585 5.07053C19.6962 5.11529 19.8155 5.13856 19.936 5.13902H25.1679C25.2891 5.13947 25.4091 5.11687 25.5212 5.07252C25.6332 5.02816 25.735 4.96293 25.8207 4.88059C25.9063 4.79824 25.9742 4.70041 26.0203 4.59274C26.0665 4.48506 26.09 4.36967 26.0895 4.25322C26.0893 4.1372 26.0653 4.02236 26.0188 3.91529C25.9723 3.80821 25.9043 3.71099 25.8187 3.62919C25.7331 3.54739 25.6316 3.48263 25.5199 3.4386C25.4083 3.39456 25.2886 3.37213 25.1679 3.37259H19.936ZM6.01541 3.90165C3.55841 3.96271 1.57781 5.9357 1.57781 8.32376C1.57781 9.67138 2.20962 10.8858 3.20046 11.6998C1.29466 12.7021 0 14.6494 0 16.8819V19.4548C0.000973478 19.6889 0.0986098 19.9129 0.271435 20.0777C0.444259 20.2426 0.67812 20.3346 0.921581 20.3338H11.3441C11.5876 20.3346 11.8215 20.2426 11.9943 20.0777C12.1671 19.9129 12.2647 19.6889 12.2657 19.4548V16.8819C12.2657 14.6494 10.9693 12.7021 9.06347 11.6998C10.0546 10.8858 10.6861 9.67163 10.6861 8.32376C10.6861 5.89779 8.64298 3.90165 6.13196 3.90165C6.09272 3.90165 6.05441 3.90069 6.01541 3.90165ZM6.06205 5.66636C6.08529 5.66579 6.10844 5.66636 6.13199 5.66636C7.63819 5.66636 8.85013 6.83958 8.85013 8.32376C8.85013 9.80793 7.63819 10.9812 6.13199 10.9812C4.62579 10.9812 3.41564 9.80793 3.41564 8.32376C3.41564 6.86277 4.58868 5.70225 6.06205 5.66636ZM19.9361 6.57112C19.8155 6.57157 19.6962 6.59484 19.585 6.6396C19.4738 6.68436 19.3729 6.74973 19.288 6.83199C19.2031 6.91424 19.1359 7.01177 19.0902 7.11899C19.0445 7.22622 19.0212 7.34104 19.0216 7.45692C19.0226 7.68974 19.1192 7.91276 19.2905 8.07739C19.4618 8.24202 19.6938 8.33491 19.9361 8.33582H25.168C25.2885 8.33627 25.408 8.3139 25.5195 8.26997C25.6311 8.22605 25.7325 8.16144 25.8181 8.07982C25.9037 7.99821 25.9717 7.90119 26.0183 7.79431C26.0648 7.68744 26.0891 7.57279 26.0895 7.45692C26.09 7.34046 26.0665 7.22507 26.0203 7.1174C25.9742 7.00972 25.9063 6.91189 25.8207 6.82954C25.735 6.7472 25.6332 6.68197 25.5212 6.63761C25.4091 6.59326 25.2891 6.57066 25.1679 6.57112H19.9361ZM6.13198 12.7459C8.52635 12.7459 10.4279 14.5742 10.4279 16.8819V18.569H1.836V16.8819C1.836 14.5742 3.7376 12.7459 6.13198 12.7459ZM19.9845 13.5662C17.4735 13.5662 15.4303 15.564 15.4303 17.99C15.4303 19.3359 16.059 20.5486 17.0476 21.3626C15.1437 22.3673 13.8507 24.317 13.8507 26.5481V29.1142C13.8498 29.3482 13.9456 29.573 14.1171 29.7391C14.2886 29.9052 14.5217 29.9991 14.7651 30H25.1948C25.4383 29.9991 25.6714 29.9052 25.8429 29.7391C26.0144 29.573 26.1102 29.3482 26.1093 29.1142V26.5481C26.1093 24.3178 24.8203 22.3694 22.9196 21.3643C23.9087 20.5503 24.5368 19.3363 24.5368 17.99C24.5368 15.564 22.4955 13.5662 19.9845 13.5662ZM19.9128 15.3326C19.936 15.332 19.961 15.3326 19.9845 15.3326C21.4907 15.3326 22.7008 16.5058 22.7008 17.99C22.7008 19.4218 21.5742 20.5634 20.1423 20.6422C20.0897 20.6409 20.0373 20.6405 19.9845 20.6405C19.9316 20.6405 19.8774 20.6409 19.8249 20.6422C18.3928 20.5632 17.2592 19.4217 17.2592 17.99C17.2592 16.529 18.4392 15.3685 19.9128 15.3326ZM19.8123 22.4087C19.8692 22.4107 19.9271 22.412 19.9845 22.412C20.0418 22.412 20.098 22.4106 20.1548 22.4087C22.468 22.4936 24.2804 24.2957 24.2804 26.5481V28.2353H15.6867V26.5481C15.6867 24.2957 17.4991 22.4937 19.8123 22.4087Z"/>
</mask>
<path fill-rule="evenodd" clip-rule="evenodd" d="M17.4492 0C16.0806 0 14.948 1.08688 14.948 2.40234V7.70508L12.6853 10.2574C12.5723 10.3856 12.4997 10.5422 12.4761 10.7087C12.4526 10.8753 12.4789 11.0448 12.5522 11.1974C12.6255 11.35 12.7426 11.4794 12.8897 11.5702C13.0368 11.661 13.2079 11.7096 13.3827 11.7101H17.4492H18.378H27.4988C28.8674 11.7101 30 10.6284 30 9.31296V2.40234C30 1.08688 28.8674 0 27.4988 0H17.4492ZM17.4492 1.76471H27.4988C27.8825 1.76471 28.1622 2.03453 28.1622 2.40234V9.31296C28.1622 9.68078 27.8825 9.94543 27.4988 9.94543H18.378H17.4492H15.3747L16.5617 8.60294C16.7049 8.44399 16.7844 8.24109 16.7858 8.03079V2.40234C16.7858 2.03453 17.0655 1.76471 17.4492 1.76471ZM19.936 3.37259C19.6935 3.3735 19.4612 3.46663 19.2899 3.63163C19.1185 3.79663 19.0221 4.0201 19.0216 4.25322C19.0212 4.36909 19.0444 4.48391 19.0901 4.59114C19.1358 4.69837 19.2031 4.79589 19.288 4.87814C19.3729 4.9604 19.4738 5.02577 19.585 5.07053C19.6962 5.11529 19.8155 5.13856 19.936 5.13902H25.1679C25.2891 5.13947 25.4091 5.11687 25.5212 5.07252C25.6332 5.02816 25.735 4.96293 25.8207 4.88059C25.9063 4.79824 25.9742 4.70041 26.0203 4.59274C26.0665 4.48506 26.09 4.36967 26.0895 4.25322C26.0893 4.1372 26.0653 4.02236 26.0188 3.91529C25.9723 3.80821 25.9043 3.71099 25.8187 3.62919C25.7331 3.54739 25.6316 3.48263 25.5199 3.4386C25.4083 3.39456 25.2886 3.37213 25.1679 3.37259H19.936ZM6.01541 3.90165C3.55841 3.96271 1.57781 5.9357 1.57781 8.32376C1.57781 9.67138 2.20962 10.8858 3.20046 11.6998C1.29466 12.7021 0 14.6494 0 16.8819V19.4548C0.000973478 19.6889 0.0986098 19.9129 0.271435 20.0777C0.444259 20.2426 0.67812 20.3346 0.921581 20.3338H11.3441C11.5876 20.3346 11.8215 20.2426 11.9943 20.0777C12.1671 19.9129 12.2647 19.6889 12.2657 19.4548V16.8819C12.2657 14.6494 10.9693 12.7021 9.06347 11.6998C10.0546 10.8858 10.6861 9.67163 10.6861 8.32376C10.6861 5.89779 8.64298 3.90165 6.13196 3.90165C6.09272 3.90165 6.05441 3.90069 6.01541 3.90165ZM6.06205 5.66636C6.08529 5.66579 6.10844 5.66636 6.13199 5.66636C7.63819 5.66636 8.85013 6.83958 8.85013 8.32376C8.85013 9.80793 7.63819 10.9812 6.13199 10.9812C4.62579 10.9812 3.41564 9.80793 3.41564 8.32376C3.41564 6.86277 4.58868 5.70225 6.06205 5.66636ZM19.9361 6.57112C19.8155 6.57157 19.6962 6.59484 19.585 6.6396C19.4738 6.68436 19.3729 6.74973 19.288 6.83199C19.2031 6.91424 19.1359 7.01177 19.0902 7.11899C19.0445 7.22622 19.0212 7.34104 19.0216 7.45692C19.0226 7.68974 19.1192 7.91276 19.2905 8.07739C19.4618 8.24202 19.6938 8.33491 19.9361 8.33582H25.168C25.2885 8.33627 25.408 8.3139 25.5195 8.26997C25.6311 8.22605 25.7325 8.16144 25.8181 8.07982C25.9037 7.99821 25.9717 7.90119 26.0183 7.79431C26.0648 7.68744 26.0891 7.57279 26.0895 7.45692C26.09 7.34046 26.0665 7.22507 26.0203 7.1174C25.9742 7.00972 25.9063 6.91189 25.8207 6.82954C25.735 6.7472 25.6332 6.68197 25.5212 6.63761C25.4091 6.59326 25.2891 6.57066 25.1679 6.57112H19.9361ZM6.13198 12.7459C8.52635 12.7459 10.4279 14.5742 10.4279 16.8819V18.569H1.836V16.8819C1.836 14.5742 3.7376 12.7459 6.13198 12.7459ZM19.9845 13.5662C17.4735 13.5662 15.4303 15.564 15.4303 17.99C15.4303 19.3359 16.059 20.5486 17.0476 21.3626C15.1437 22.3673 13.8507 24.317 13.8507 26.5481V29.1142C13.8498 29.3482 13.9456 29.573 14.1171 29.7391C14.2886 29.9052 14.5217 29.9991 14.7651 30H25.1948C25.4383 29.9991 25.6714 29.9052 25.8429 29.7391C26.0144 29.573 26.1102 29.3482 26.1093 29.1142V26.5481C26.1093 24.3178 24.8203 22.3694 22.9196 21.3643C23.9087 20.5503 24.5368 19.3363 24.5368 17.99C24.5368 15.564 22.4955 13.5662 19.9845 13.5662ZM19.9128 15.3326C19.936 15.332 19.961 15.3326 19.9845 15.3326C21.4907 15.3326 22.7008 16.5058 22.7008 17.99C22.7008 19.4218 21.5742 20.5634 20.1423 20.6422C20.0897 20.6409 20.0373 20.6405 19.9845 20.6405C19.9316 20.6405 19.8774 20.6409 19.8249 20.6422C18.3928 20.5632 17.2592 19.4217 17.2592 17.99C17.2592 16.529 18.4392 15.3685 19.9128 15.3326ZM19.8123 22.4087C19.8692 22.4107 19.9271 22.412 19.9845 22.412C20.0418 22.412 20.098 22.4106 20.1548 22.4087C22.468 22.4936 24.2804 24.2957 24.2804 26.5481V28.2353H15.6867V26.5481C15.6867 24.2957 17.4991 22.4937 19.8123 22.4087Z" fill="#121212" fill-opacity="0.5" stroke="#121212" stroke-opacity="0.5" stroke-width="2" mask="url(#path-1-inside-1_6052_45625)"/>
</svg>
