<svg width="30" height="30" viewBox="0 0 30 30" fill="none" xmlns="http://www.w3.org/2000/svg">
<g clip-path="url(#clip0_6052_99528)">
<path d="M15.36 0C20.0775 0 24.4455 2.0925 27.342 5.616C27.4245 5.71588 27.4861 5.83133 27.5231 5.9555C27.5601 6.07966 27.5717 6.21 27.5573 6.33875C27.5429 6.4675 27.5027 6.59204 27.4392 6.70495C27.3757 6.81786 27.2901 6.91684 27.1875 6.996C26.9787 7.15965 26.7144 7.23552 26.4506 7.20752C26.1868 7.17952 25.9443 7.04984 25.7745 6.846C24.508 5.31176 22.9167 4.07781 21.1155 3.23321C19.3142 2.38861 17.3479 1.95443 15.3585 1.962C7.986 1.962 2.0085 7.8 2.0085 15C2.0085 22.2 7.986 28.038 15.3585 28.038C17.3766 28.0459 19.3706 27.5993 21.1925 26.7312C23.0144 25.8631 24.6174 24.5958 25.8825 23.0235C26.0494 22.8176 26.29 22.6847 26.5532 22.6531C26.8164 22.6214 27.0815 22.6935 27.2925 22.854C27.396 22.9318 27.4827 23.0296 27.5476 23.1416C27.6126 23.2536 27.6543 23.3775 27.6704 23.506C27.6865 23.6344 27.6766 23.7648 27.6413 23.8893C27.606 24.0139 27.5461 24.1301 27.465 24.231C24.573 27.846 20.1465 30 15.36 30C6.8745 30 0 23.2845 0 15C0 6.7155 6.876 0 15.36 0ZM25.647 10.74L29.706 14.8005C30.099 15.192 30.1065 15.8205 29.724 16.2045L25.758 20.169C25.665 20.2605 25.5548 20.3328 25.4338 20.3816C25.3128 20.4304 25.1834 20.4549 25.0529 20.4535C24.9224 20.4521 24.7935 20.4249 24.6735 20.3735C24.5536 20.3221 24.445 20.2475 24.354 20.154C24.2602 20.0631 24.1853 19.9545 24.1336 19.8344C24.082 19.7144 24.0546 19.5853 24.053 19.4547C24.0515 19.324 24.0758 19.1944 24.1247 19.0732C24.1735 18.952 24.2458 18.8416 24.3375 18.7485L26.658 16.428H11.193C11.0625 16.43 10.9329 16.4061 10.8116 16.3578C10.6904 16.3095 10.5798 16.2377 10.4864 16.1466C10.393 16.0554 10.3186 15.9466 10.2674 15.8266C10.2161 15.7065 10.1892 15.5775 10.188 15.447C10.188 14.904 10.638 14.4645 11.193 14.4645H26.5965L24.2595 12.1275C24.1659 12.0366 24.0912 11.9281 24.0397 11.8082C23.9881 11.6883 23.9608 11.5594 23.9593 11.4289C23.9578 11.2985 23.982 11.169 24.0307 11.0479C24.0794 10.9268 24.1516 10.8166 24.243 10.7235C24.3361 10.6321 24.4463 10.5599 24.5674 10.5112C24.6885 10.4625 24.818 10.4383 24.9484 10.4398C25.0789 10.4413 25.2078 10.4686 25.3277 10.5202C25.4476 10.5717 25.5561 10.6464 25.647 10.74Z" fill="#121212" fill-opacity="0.5"/>
</g>
<defs>
<clipPath id="clip0_6052_99528">
<rect width="30" height="30" fill="white"/>
</clipPath>
</defs>
</svg>
