<svg width="24" height="24" viewBox="0 0 24 24" fill="none" xmlns="http://www.w3.org/2000/svg">
<g clip-path="url(#clip0_2468_31354)">
<path d="M21.8725 0.90625H2.13063C1.45442 0.90625 0.90625 1.45442 0.90625 2.13063V21.8725C0.90625 22.5487 1.45442 23.0969 2.13063 23.0969H21.8725C22.5487 23.0969 23.0969 22.5487 23.0969 21.8725V2.13063C23.0969 1.45442 22.5487 0.90625 21.8725 0.90625Z" fill="#3D5A98"/>
<path d="M16.2159 23.0962V14.5031H19.0997L19.5309 11.1544H16.2159V9.01687C16.2159 8.0475 16.4859 7.38562 17.8753 7.38562H19.6491V4.38562C18.7901 4.29627 17.927 4.25371 17.0634 4.25812C14.5097 4.25812 12.7509 5.81437 12.7509 8.685V11.1544H9.86719V14.5031H12.7509V23.0962H16.2159Z" fill="white"/>
</g>
<defs>
<clipPath id="clip0_2468_31354">
<rect width="24" height="24" fill="white"/>
</clipPath>
</defs>
</svg>
