<svg width="24" height="24" viewBox="0 0 24 24" fill="none" xmlns="http://www.w3.org/2000/svg">
<path d="M2 12C2 17.523 6.477 22 12 22C17.523 22 22 17.523 22 12C22 6.477 17.523 2 12 2C6.477 2 2 6.477 2 12Z" stroke="#007CCE" stroke-width="1.5" stroke-linecap="round" stroke-linejoin="round"/>
<path d="M13.0028 2.05078C13.0028 2.05078 16.0028 6.00078 16.0028 12.0008C16.0028 18.0008 13.0028 21.9508 13.0028 21.9508M11.0028 21.9508C11.0028 21.9508 8.00281 18.0008 8.00281 12.0008C8.00281 6.00078 11.0028 2.05078 11.0028 2.05078M2.63281 15.5008H21.3728M2.63281 8.50078H21.3728" stroke="#007CCE" stroke-width="1.5" stroke-linecap="round" stroke-linejoin="round"/>
</svg>
