<svg width="32" height="31" viewBox="0 0 32 31" fill="none" xmlns="http://www.w3.org/2000/svg">
<g filter="url(#filter0_d_2468_31433)">
<path fill-rule="evenodd" clip-rule="evenodd" d="M8.79531 9.90156C9.11357 9.90156 9.4188 9.77513 9.64384 9.55009C9.86888 9.32505 9.99531 9.01982 9.99531 8.70156C9.99531 8.3833 9.86888 8.07808 9.64384 7.85303C9.4188 7.62799 9.11357 7.50156 8.79531 7.50156C8.47705 7.50156 8.17183 7.62799 7.94678 7.85303C7.72174 8.07808 7.59531 8.3833 7.59531 8.70156C7.59531 9.01982 7.72174 9.32505 7.94678 9.55009C8.17183 9.77513 8.47705 9.90156 8.79531 9.90156ZM8.79531 12.3016C9.75009 12.3016 10.6658 11.9223 11.3409 11.2471C12.016 10.572 12.3953 9.65634 12.3953 8.70156C12.3953 7.74678 12.016 6.83111 11.3409 6.15598C10.6658 5.48085 9.75009 5.10156 8.79531 5.10156C7.84053 5.10156 6.92486 5.48085 6.24973 6.15598C5.5746 6.83111 5.19531 7.74678 5.19531 8.70156C5.19531 9.65634 5.5746 10.572 6.24973 11.2471C6.92486 11.9223 7.84053 12.3016 8.79531 12.3016Z" fill="#007CCE"/>
<path fill-rule="evenodd" clip-rule="evenodd" d="M8.85625 13.2016C8.37886 13.2016 7.92102 13.3912 7.58346 13.7288C7.24589 14.0663 7.05625 14.5242 7.05625 15.0016V16.8016C7.05625 17.1198 6.92982 17.425 6.70478 17.6501C6.47973 17.8751 6.17451 18.0016 5.85625 18.0016C5.53799 18.0016 5.23277 17.8751 5.00772 17.6501C4.78268 17.425 4.65625 17.1198 4.65625 16.8016V15.0016C4.65625 13.8877 5.09875 12.8194 5.8864 12.0317C6.67405 11.2441 7.74234 10.8016 8.85625 10.8016C9.97016 10.8016 11.0384 11.2441 11.8261 12.0317C12.6138 12.8194 13.0563 13.8877 13.0563 15.0016V16.8016C13.0563 17.1198 12.9298 17.425 12.7048 17.6501C12.4797 17.8751 12.1745 18.0016 11.8563 18.0016C11.538 18.0016 11.2328 17.8751 11.0077 17.6501C10.7827 17.425 10.6562 17.1198 10.6562 16.8016V15.0016C10.6562 14.5242 10.4666 14.0663 10.129 13.7288C9.79148 13.3912 9.33364 13.2016 8.85625 13.2016ZM23.1963 9.90156C22.878 9.90156 22.5728 9.77513 22.3477 9.55009C22.1227 9.32505 21.9963 9.01982 21.9963 8.70156C21.9963 8.3833 22.1227 8.07808 22.3477 7.85303C22.5728 7.62799 22.878 7.50156 23.1963 7.50156C23.5145 7.50156 23.8197 7.62799 24.0448 7.85303C24.2698 8.07808 24.3963 8.3833 24.3963 8.70156C24.3963 9.01982 24.2698 9.32505 24.0448 9.55009C23.8197 9.77513 23.5145 9.90156 23.1963 9.90156ZM23.1963 12.3016C22.2415 12.3016 21.3258 11.9223 20.6507 11.2471C19.9755 10.572 19.5963 9.65634 19.5963 8.70156C19.5963 7.74678 19.9755 6.83111 20.6507 6.15598C21.3258 5.48085 22.2415 5.10156 23.1963 5.10156C24.151 5.10156 25.0667 5.48085 25.7418 6.15598C26.417 6.83111 26.7963 7.74678 26.7963 8.70156C26.7963 9.65634 26.417 10.572 25.7418 11.2471C25.0667 11.9223 24.151 12.3016 23.1963 12.3016Z" fill="#007CCE"/>
<path fill-rule="evenodd" clip-rule="evenodd" d="M23.1375 13.2008C23.6149 13.2008 24.0727 13.3904 24.4103 13.728C24.7479 14.0656 24.9375 14.5234 24.9375 15.0008V16.8008C24.9375 17.119 25.0639 17.4243 25.289 17.6493C25.514 17.8744 25.8192 18.0008 26.1375 18.0008C26.4558 18.0008 26.761 17.8744 26.986 17.6493C27.2111 17.4243 27.3375 17.119 27.3375 16.8008V15.0008C27.3375 13.8869 26.895 12.8186 26.1073 12.0309C25.3197 11.2433 24.2514 10.8008 23.1375 10.8008C22.0236 10.8008 20.9553 11.2433 20.1677 12.0309C19.38 12.8186 18.9375 13.8869 18.9375 15.0008V16.8008C18.9375 17.119 19.0639 17.4243 19.289 17.6493C19.514 17.8744 19.8192 18.0008 20.1375 18.0008C20.4558 18.0008 20.761 17.8744 20.986 17.6493C21.2111 17.4243 21.3375 17.119 21.3375 16.8008V15.0008C21.3375 14.5234 21.5271 14.0656 21.8647 13.728C22.2023 13.3904 22.6601 13.2008 23.1375 13.2008Z" fill="#007CCE"/>
<path fill-rule="evenodd" clip-rule="evenodd" d="M16.0563 16.5016C15.2606 16.5016 14.4975 16.8176 13.9349 17.3802C13.3723 17.9429 13.0563 18.7059 13.0563 19.5016V21.3016C13.0563 21.6198 12.9298 21.925 12.7048 22.1501C12.4797 22.3751 12.1745 22.5016 11.8563 22.5016C11.538 22.5016 11.2328 22.3751 11.0077 22.1501C10.7827 21.925 10.6562 21.6198 10.6562 21.3016V19.5016C10.6562 18.0694 11.2252 16.6959 12.2379 15.6832C13.2506 14.6705 14.6241 14.1016 16.0563 14.1016C17.4884 14.1016 18.8619 14.6705 19.8746 15.6832C20.8873 16.6959 21.4563 18.0694 21.4563 19.5016V21.3016C21.4563 21.6198 21.3298 21.925 21.1048 22.1501C20.8797 22.3751 20.5745 22.5016 20.2563 22.5016C19.938 22.5016 19.6328 22.3751 19.4077 22.1501C19.1827 21.925 19.0563 21.6198 19.0563 21.3016V19.5016C19.0563 18.7059 18.7402 17.9429 18.1776 17.3802C17.615 16.8176 16.8519 16.5016 16.0563 16.5016Z" fill="#007CCE"/>
<path fill-rule="evenodd" clip-rule="evenodd" d="M15.9984 13.2023C16.3167 13.2023 16.6219 13.0759 16.847 12.8509C17.072 12.6258 17.1984 12.3206 17.1984 12.0023C17.1984 11.6841 17.072 11.3789 16.847 11.1538C16.6219 10.9288 16.3167 10.8023 15.9984 10.8023C15.6802 10.8023 15.375 10.9288 15.1499 11.1538C14.9249 11.3789 14.7984 11.6841 14.7984 12.0023C14.7984 12.3206 14.9249 12.6258 15.1499 12.8509C15.375 13.0759 15.6802 13.2023 15.9984 13.2023ZM15.9984 15.6023C16.9532 15.6023 17.8689 15.2231 18.544 14.5479C19.2192 13.8728 19.5984 12.9571 19.5984 12.0023C19.5984 11.0476 19.2192 10.1319 18.544 9.45676C17.8689 8.78163 16.9532 8.40234 15.9984 8.40234C15.0437 8.40234 14.128 8.78163 13.4529 9.45676C12.7777 10.1319 12.3984 11.0476 12.3984 12.0023C12.3984 12.9571 12.7777 13.8728 13.4529 14.5479C14.128 15.2231 15.0437 15.6023 15.9984 15.6023Z" fill="#007CCE"/>
</g>
<defs>
<filter id="filter0_d_2468_31433" x="0" y="0" width="32" height="32" filterUnits="userSpaceOnUse" color-interpolation-filters="sRGB">
<feFlood flood-opacity="0" result="BackgroundImageFix"/>
<feColorMatrix in="SourceAlpha" type="matrix" values="0 0 0 0 0 0 0 0 0 0 0 0 0 0 0 0 0 0 127 0" result="hardAlpha"/>
<feOffset dy="4"/>
<feGaussianBlur stdDeviation="2"/>
<feComposite in2="hardAlpha" operator="out"/>
<feColorMatrix type="matrix" values="0 0 0 0 0 0 0 0 0 0 0 0 0 0 0 0 0 0 0.25 0"/>
<feBlend mode="normal" in2="BackgroundImageFix" result="effect1_dropShadow_2468_31433"/>
<feBlend mode="normal" in="SourceGraphic" in2="effect1_dropShadow_2468_31433" result="shape"/>
</filter>
</defs>
</svg>
