<svg width="61" height="35" viewBox="0 0 61 35" fill="none" xmlns="http://www.w3.org/2000/svg">
<rect width="61" height="35" rx="17.5" fill="white"/>
<path d="M38.6 27L32.3 20.7C31.8 21.1 31.225 21.4167 30.575 21.65C29.925 21.8833 29.2333 22 28.5 22C26.6833 22 25.146 21.3707 23.888 20.112C22.63 18.8533 22.0007 17.316 22 15.5C21.9993 13.684 22.6287 12.1467 23.888 10.888C25.1473 9.62933 26.6847 9 28.5 9C30.3153 9 31.853 9.62933 33.113 10.888C34.373 12.1467 35.002 13.684 35 15.5C35 16.2333 34.8833 16.925 34.65 17.575C34.4167 18.225 34.1 18.8 33.7 19.3L40 25.6L38.6 27ZM28.5 20C29.75 20 30.8127 19.5627 31.688 18.688C32.5633 17.8133 33.0007 16.7507 33 15.5C32.9993 14.2493 32.562 13.187 31.688 12.313C30.814 11.439 29.7513 11.0013 28.5 11C27.2487 10.9987 26.1863 11.4363 25.313 12.313C24.4397 13.1897 24.002 14.252 24 15.5C23.998 16.748 24.4357 17.8107 25.313 18.688C26.1903 19.5653 27.2527 20.0027 28.5 20Z" fill="#007CCE"/>
</svg>
