<svg width="73" height="54" viewBox="0 0 73 54" fill="none" xmlns="http://www.w3.org/2000/svg">
<path d="M29.1636 17.26C29.1636 17.428 29.1156 17.584 29.0196 17.728C28.9236 17.872 28.7796 17.944 28.5876 17.944C28.2756 17.944 27.9636 17.932 27.6516 17.908C27.3636 17.884 27.0516 17.872 26.7156 17.872C26.4756 17.872 26.3196 17.98 26.2476 18.196C26.1756 18.412 26.1396 18.616 26.1396 18.808C26.1396 20.344 26.1276 21.88 26.1036 23.416C26.1036 24.928 26.1036 26.464 26.1036 28.024C26.1036 30.208 26.1036 32.392 26.1036 34.576C26.1276 36.736 26.1396 38.908 26.1396 41.092C26.1396 41.284 26.1756 41.488 26.2476 41.704C26.3196 41.92 26.4756 42.028 26.7156 42.028C27.0516 42.028 27.3636 42.016 27.6516 41.992C27.9636 41.968 28.2756 41.956 28.5876 41.956C28.7796 41.956 28.9116 42.04 28.9836 42.208C29.0556 42.376 29.0916 42.544 29.0916 42.712C29.0916 43.072 28.8996 43.252 28.5156 43.252C28.3236 43.252 28.1316 43.24 27.9396 43.216C27.7476 43.192 27.5556 43.18 27.3636 43.18C27.0036 43.132 26.6436 43.108 26.2836 43.108C25.9236 43.108 25.5636 43.108 25.2036 43.108C24.3636 43.108 23.5236 43.108 22.6836 43.108C21.8676 43.108 21.0396 43.132 20.1996 43.18C19.9596 43.18 19.7076 43.192 19.4436 43.216C19.2036 43.24 18.9516 43.252 18.6876 43.252C18.4476 43.252 18.2796 43.18 18.1836 43.036C18.1116 42.892 18.0756 42.724 18.0756 42.532C18.0756 42.34 18.1476 42.196 18.2916 42.1C18.4356 42.004 18.5916 41.956 18.7596 41.956C19.0236 41.956 19.2636 41.968 19.4796 41.992C19.7196 42.016 19.9596 42.028 20.1996 42.028C20.5596 42.028 20.7996 41.968 20.9196 41.848C21.0636 41.704 21.1356 41.452 21.1356 41.092V29.896H9.29159V41.164C9.29159 41.524 9.36359 41.776 9.50759 41.92C9.65159 42.04 9.89159 42.1 10.2276 42.1C10.4676 42.1 10.7076 42.088 10.9476 42.064C11.1876 42.04 11.4276 42.028 11.6676 42.028C11.8596 42.028 12.0276 42.076 12.1716 42.172C12.3156 42.244 12.3876 42.388 12.3876 42.604C12.3876 43.06 12.1716 43.288 11.7396 43.288C10.8516 43.288 9.96359 43.252 9.07559 43.18C8.21159 43.132 7.34759 43.108 6.48359 43.108C6.05159 43.108 5.60759 43.108 5.15159 43.108C4.71959 43.108 4.28759 43.12 3.85559 43.144C3.54359 43.168 3.23159 43.192 2.91959 43.216C2.63159 43.264 2.33159 43.288 2.01959 43.288C1.85159 43.288 1.71959 43.204 1.62359 43.036C1.55159 42.892 1.51559 42.76 1.51559 42.64C1.51559 42.52 1.56359 42.388 1.65959 42.244C1.75559 42.1 1.87559 42.028 2.01959 42.028C2.33159 42.028 2.63159 42.04 2.91959 42.064C3.23159 42.088 3.54359 42.1 3.85559 42.1C4.11959 42.1 4.28759 41.992 4.35959 41.776C4.43159 41.56 4.46759 41.356 4.46759 41.164C4.46759 38.788 4.46759 36.412 4.46759 34.036C4.46759 31.66 4.46759 29.284 4.46759 26.908C4.46759 25.564 4.46759 24.22 4.46759 22.876C4.46759 21.508 4.46759 20.164 4.46759 18.844C4.46759 18.652 4.43159 18.448 4.35959 18.232C4.28759 18.016 4.11959 17.908 3.85559 17.908C3.54359 17.908 3.23159 17.92 2.91959 17.944C2.63159 17.968 2.33159 17.98 2.01959 17.98C1.63559 17.98 1.44359 17.764 1.44359 17.332C1.44359 17.164 1.49159 17.008 1.58759 16.864C1.68359 16.72 1.82759 16.648 2.01959 16.648C2.64359 16.648 3.25559 16.672 3.85559 16.72C4.47959 16.768 5.10359 16.792 5.72759 16.792C6.71159 16.792 7.69559 16.768 8.67959 16.72C9.68759 16.672 10.6836 16.648 11.6676 16.648C12.1236 16.648 12.3516 16.876 12.3516 17.332C12.3516 17.644 12.2196 17.824 11.9556 17.872C11.7156 17.92 11.4876 17.944 11.2716 17.944C11.1036 17.944 10.9356 17.944 10.7676 17.944C10.5996 17.92 10.4196 17.908 10.2276 17.908C9.91559 17.908 9.67559 18.004 9.50759 18.196C9.36359 18.388 9.29159 18.64 9.29159 18.952V28.708H21.1356V18.808C21.1356 18.448 21.0636 18.208 20.9196 18.088C20.7996 17.944 20.5596 17.872 20.1996 17.872C19.9596 17.872 19.7196 17.884 19.4796 17.908C19.2636 17.932 19.0236 17.944 18.7596 17.944C18.6156 17.944 18.4596 17.884 18.2916 17.764C18.1476 17.644 18.0756 17.5 18.0756 17.332C18.0756 16.876 18.3036 16.648 18.7596 16.648C19.0476 16.648 19.3356 16.66 19.6236 16.684C19.9116 16.708 20.1996 16.732 20.4876 16.756C21.0396 16.78 21.5916 16.804 22.1436 16.828C22.6956 16.828 23.2476 16.828 23.7996 16.828C24.5916 16.828 25.3836 16.804 26.1756 16.756C26.9916 16.684 27.7956 16.648 28.5876 16.648C28.7796 16.648 28.9236 16.708 29.0196 16.828C29.1156 16.948 29.1636 17.092 29.1636 17.26ZM55.8005 36.952C55.8005 37.072 55.7405 37.24 55.6205 37.456C55.5005 37.672 55.4165 37.84 55.3685 37.96C55.0565 38.512 54.5765 39.088 53.9285 39.688C53.2805 40.288 52.6805 40.78 52.1285 41.164C51.0005 41.956 49.8125 42.472 48.5645 42.712C47.3165 42.952 46.0205 43.072 44.6765 43.072C42.0605 43.072 39.8285 42.532 37.9805 41.452C36.1325 40.348 34.7165 38.824 33.7325 36.88C32.7725 34.912 32.2925 32.644 32.2925 30.076C32.2925 27.532 32.7605 25.24 33.6965 23.2C34.6325 21.16 36.0125 19.54 37.8365 18.34C39.6845 17.116 41.9405 16.504 44.6045 16.504C45.8045 16.504 46.8245 16.648 47.6645 16.936C48.5045 17.224 49.4525 17.56 50.5085 17.944C51.0125 18.112 51.5165 18.244 52.0205 18.34C52.5245 18.412 53.0405 18.472 53.5685 18.52C53.5925 19.048 53.6285 19.588 53.6765 20.14C53.7245 20.668 53.7845 21.208 53.8565 21.76C53.9045 22.216 53.9885 22.684 54.1085 23.164C54.2285 23.644 54.2885 24.124 54.2885 24.604C54.2885 25.06 54.1205 25.396 53.7845 25.612C53.4725 25.828 53.1125 25.936 52.7045 25.936C52.0325 25.936 51.5645 25.66 51.3005 25.108C51.2285 24.916 51.1805 24.712 51.1565 24.496C51.1325 24.256 51.0965 24.052 51.0485 23.884C50.8805 23.116 50.5805 22.288 50.1485 21.4C49.7405 20.488 49.2485 19.768 48.6725 19.24C48.2165 18.832 47.5925 18.472 46.8005 18.16C46.0085 17.824 45.3005 17.656 44.6765 17.656C44.0765 17.656 43.5125 17.788 42.9845 18.052C42.4805 18.316 41.9885 18.64 41.5085 19.024C40.4765 19.888 39.6605 20.92 39.0605 22.12C38.4605 23.32 38.0405 24.604 37.8005 25.972C37.5605 27.316 37.4405 28.636 37.4405 29.932C37.4405 30.796 37.4885 31.66 37.5845 32.524C37.7045 33.364 37.8845 34.204 38.1245 35.044C38.4605 36.172 38.9405 37.24 39.5645 38.248C40.2125 39.232 41.0045 40.036 41.9405 40.66C42.9005 41.26 44.0045 41.56 45.2525 41.56C47.0285 41.56 48.6365 41.116 50.0765 40.228C51.5405 39.34 52.7525 38.176 53.7125 36.736C53.8565 36.496 54.0005 36.292 54.1445 36.124C54.3125 35.932 54.5525 35.836 54.8645 35.836C55.1765 35.836 55.4045 35.956 55.5485 36.196C55.7165 36.436 55.8005 36.688 55.8005 36.952ZM71.8064 17.296C71.8064 17.464 71.7344 17.62 71.5904 17.764C71.4704 17.908 71.3144 17.98 71.1224 17.98C70.8824 17.98 70.6304 17.98 70.3664 17.98C70.1024 17.956 69.8384 17.944 69.5744 17.944C69.1664 17.944 68.8784 18.076 68.7104 18.34C68.5424 18.604 68.4464 18.916 68.4224 19.276C68.4224 19.612 68.4224 19.936 68.4224 20.248C68.3984 23.44 68.3864 26.644 68.3864 29.86C68.4104 33.052 68.4224 36.256 68.4224 39.472C68.4224 41.344 68.1704 43.036 67.6664 44.548C67.1624 46.06 66.2984 47.26 65.0744 48.148C63.8744 49.06 62.2184 49.516 60.1064 49.516C59.6024 49.516 59.0864 49.504 58.5584 49.48C58.0304 49.48 57.5144 49.432 57.0104 49.336C56.6264 49.24 56.1944 49.072 55.7144 48.832C55.2344 48.592 54.8144 48.28 54.4544 47.896C54.0944 47.536 53.9144 47.14 53.9144 46.708C53.9144 45.988 54.2144 45.472 54.8144 45.16C55.4144 44.848 56.0144 44.692 56.6144 44.692C57.1184 44.692 57.6344 44.812 58.1624 45.052C58.7144 45.292 58.9904 45.724 58.9904 46.348C58.7984 46.444 58.5944 46.576 58.3784 46.744C58.1624 46.936 58.0544 47.164 58.0544 47.428C58.0544 47.692 58.1744 47.896 58.4144 48.04C58.6544 48.208 58.9304 48.316 59.2424 48.364C59.5784 48.412 59.8424 48.436 60.0344 48.436C60.8984 48.436 61.5584 48.22 62.0144 47.788C62.4704 47.38 62.7824 46.84 62.9504 46.168C63.1184 45.52 63.2024 44.824 63.2024 44.08C63.2264 43.36 63.2384 42.7 63.2384 42.1V20.248C63.2384 20.008 63.2264 19.72 63.2024 19.384C63.2024 19.024 63.1424 18.7 63.0224 18.412C62.9264 18.124 62.7224 17.956 62.4104 17.908C62.3384 17.884 62.2544 17.872 62.1584 17.872C62.0864 17.872 62.0024 17.872 61.9064 17.872C61.5944 17.872 61.2824 17.896 60.9704 17.944C60.6824 17.968 60.3704 17.98 60.0344 17.98C59.8664 17.98 59.7224 17.908 59.6024 17.764C59.5064 17.62 59.4584 17.464 59.4584 17.296C59.4584 17.128 59.5064 16.972 59.6024 16.828C59.6984 16.66 59.8424 16.576 60.0344 16.576C60.3224 16.576 60.6104 16.588 60.8984 16.612C61.2104 16.612 61.5104 16.624 61.7984 16.648C62.4464 16.672 63.0944 16.696 63.7424 16.72C64.3904 16.72 65.0504 16.72 65.7224 16.72C66.6344 16.72 67.5344 16.696 68.4224 16.648C69.3344 16.6 70.2344 16.576 71.1224 16.576C71.5784 16.576 71.8064 16.816 71.8064 17.296Z" fill="#121212"/>
</svg>
