<svg width="1440" height="558" viewBox="0 0 1440 558" fill="none" xmlns="http://www.w3.org/2000/svg">
<mask id="mask0_9_1442" style="mask-type:alpha" maskUnits="userSpaceOnUse" x="0" y="0" width="1440" height="558">
<rect width="1440" height="558" fill="#D9D9D9"/>
</mask>
<g mask="url(#mask0_9_1442)">
<rect x="835" y="532" width="249" height="28" rx="14" fill="url(#paint0_linear_9_1442)"/>
<rect x="1127" y="504" width="401" height="28" rx="14" fill="url(#paint1_linear_9_1442)"/>
<rect x="1168" y="394" width="252" height="28" rx="14" fill="url(#paint2_linear_9_1442)"/>
<rect x="974" y="472" width="252" height="28" rx="14" fill="url(#paint3_linear_9_1442)"/>
<rect x="-26" y="504" width="252" height="28" rx="14" fill="url(#paint4_linear_9_1442)"/>
<rect x="1338" y="290" width="117" height="28" rx="14" fill="url(#paint5_linear_9_1442)"/>
<rect x="1228" y="56" width="140" height="28" rx="14" fill="url(#paint6_linear_9_1442)"/>
<rect x="985" y="139" width="493" height="28" rx="14" fill="url(#paint7_linear_9_1442)"/>
<rect opacity="0.9" x="720" y="262" width="688" height="28" rx="14" fill="url(#paint8_linear_9_1442)"/>
<rect opacity="0.2" x="-112" y="532" width="688" height="28" rx="14" fill="url(#paint9_linear_9_1442)"/>
<rect opacity="0.2" x="-344" y="153" width="688" height="28" rx="14" fill="url(#paint10_linear_9_1442)"/>
<rect opacity="0.2" x="-351" y="380" width="688" height="28" rx="14" fill="url(#paint11_linear_9_1442)"/>
<rect x="36" y="20" width="274" height="28" rx="14" fill="url(#paint12_linear_9_1442)"/>
<rect x="11" y="380" width="109" height="28" rx="14" fill="url(#paint13_linear_9_1442)"/>
<rect x="769" y="14" width="359" height="28" rx="14" fill="url(#paint14_linear_9_1442)"/>
<rect x="52" y="61" width="493" height="28" rx="14" fill="url(#paint15_linear_9_1442)"/>
<rect x="-53" y="61" width="140" height="28" rx="14" fill="url(#paint16_linear_9_1442)"/>
<rect opacity="0.2" x="769" y="83" width="688" height="28" rx="14" fill="url(#paint17_linear_9_1442)"/>
</g>
<defs>
<linearGradient id="paint0_linear_9_1442" x1="835" y1="550.455" x2="1098.11" y2="550.455" gradientUnits="userSpaceOnUse">
<stop stop-color="#E9E9E1"/>
<stop offset="1" stop-color="white"/>
</linearGradient>
<linearGradient id="paint1_linear_9_1442" x1="1127" y1="522.455" x2="1550.72" y2="522.455" gradientUnits="userSpaceOnUse">
<stop stop-color="#E9E9E1"/>
<stop offset="1" stop-color="white"/>
</linearGradient>
<linearGradient id="paint2_linear_9_1442" x1="1168" y1="412.455" x2="1434.28" y2="412.455" gradientUnits="userSpaceOnUse">
<stop stop-color="#E9E9E1"/>
<stop offset="1" stop-color="white"/>
</linearGradient>
<linearGradient id="paint3_linear_9_1442" x1="974" y1="490.455" x2="1240.28" y2="490.455" gradientUnits="userSpaceOnUse">
<stop stop-color="#E9E9E1"/>
<stop offset="1" stop-color="white"/>
</linearGradient>
<linearGradient id="paint4_linear_9_1442" x1="-26" y1="522.455" x2="240.278" y2="522.455" gradientUnits="userSpaceOnUse">
<stop stop-color="#E9E9E1"/>
<stop offset="1" stop-color="white"/>
</linearGradient>
<linearGradient id="paint5_linear_9_1442" x1="1338" y1="308.455" x2="1461.63" y2="308.455" gradientUnits="userSpaceOnUse">
<stop stop-color="#E9E9E1"/>
<stop offset="1" stop-color="white"/>
</linearGradient>
<linearGradient id="paint6_linear_9_1442" x1="1228" y1="74.4546" x2="1375.93" y2="74.4546" gradientUnits="userSpaceOnUse">
<stop stop-color="#E9E9E1"/>
<stop offset="1" stop-color="white"/>
</linearGradient>
<linearGradient id="paint7_linear_9_1442" x1="985" y1="157.455" x2="1505.93" y2="157.455" gradientUnits="userSpaceOnUse">
<stop stop-color="#E9E9E1"/>
<stop offset="1" stop-color="white"/>
</linearGradient>
<linearGradient id="paint8_linear_9_1442" x1="720" y1="280.455" x2="1446.98" y2="280.455" gradientUnits="userSpaceOnUse">
<stop offset="0.505208" stop-color="#E9E9E1"/>
<stop offset="1" stop-color="white"/>
</linearGradient>
<linearGradient id="paint9_linear_9_1442" x1="-112" y1="550.455" x2="614.98" y2="550.455" gradientUnits="userSpaceOnUse">
<stop stop-color="#E9E9E1"/>
<stop offset="1" stop-color="white"/>
</linearGradient>
<linearGradient id="paint10_linear_9_1442" x1="-344" y1="171.455" x2="382.98" y2="171.455" gradientUnits="userSpaceOnUse">
<stop stop-color="#E9E9E1"/>
<stop offset="1" stop-color="white"/>
</linearGradient>
<linearGradient id="paint11_linear_9_1442" x1="-351" y1="398.455" x2="375.98" y2="398.455" gradientUnits="userSpaceOnUse">
<stop stop-color="#E9E9E1"/>
<stop offset="1" stop-color="white"/>
</linearGradient>
<linearGradient id="paint12_linear_9_1442" x1="36" y1="38.4546" x2="325.524" y2="38.4546" gradientUnits="userSpaceOnUse">
<stop stop-color="#E9E9E1"/>
<stop offset="1" stop-color="white"/>
</linearGradient>
<linearGradient id="paint13_linear_9_1442" x1="11" y1="398.455" x2="126.176" y2="398.455" gradientUnits="userSpaceOnUse">
<stop stop-color="#E9E9E1"/>
<stop offset="1" stop-color="white"/>
</linearGradient>
<linearGradient id="paint14_linear_9_1442" x1="769" y1="32.4546" x2="1148.34" y2="32.4546" gradientUnits="userSpaceOnUse">
<stop stop-color="#E9E9E1"/>
<stop offset="1" stop-color="white"/>
</linearGradient>
<linearGradient id="paint15_linear_9_1442" x1="52" y1="79.4546" x2="572.932" y2="79.4545" gradientUnits="userSpaceOnUse">
<stop stop-color="#E9E9E1"/>
<stop offset="1" stop-color="white"/>
</linearGradient>
<linearGradient id="paint16_linear_9_1442" x1="-53" y1="79.4546" x2="94.932" y2="79.4546" gradientUnits="userSpaceOnUse">
<stop stop-color="#E9E9E1"/>
<stop offset="1" stop-color="white"/>
</linearGradient>
<linearGradient id="paint17_linear_9_1442" x1="769" y1="101.455" x2="1495.98" y2="101.455" gradientUnits="userSpaceOnUse">
<stop stop-color="#E9E9E1"/>
<stop offset="1" stop-color="white"/>
</linearGradient>
</defs>
</svg>
