<svg width="33" height="34" viewBox="0 0 33 34" fill="none" xmlns="http://www.w3.org/2000/svg">
<path d="M29.9062 1.27356H3.09375C2.48539 1.26737 1.89943 1.50276 1.46442 1.9281C1.02942 2.35343 0.780917 2.93396 0.773438 3.54231V30.4631C0.78227 31.0705 1.03137 31.6497 1.46622 32.074C1.90108 32.4982 2.48627 32.7329 3.09375 32.7267H29.9062C30.5146 32.7315 31.1002 32.4953 31.535 32.0697C31.9698 31.6441 32.2184 31.0637 32.2266 30.4554V3.53457C32.2157 2.92801 31.9659 2.35025 31.5314 1.92687C31.0969 1.50349 30.5129 1.2687 29.9062 1.27356Z" fill="#007CCE"/>
<path d="M5.42594 13.0625H10.0949V28.0852H5.42594V13.0625ZM7.76172 5.58594C8.29723 5.58594 8.82071 5.74477 9.26593 6.04233C9.71116 6.3399 10.0581 6.76283 10.2629 7.25763C10.4677 7.75242 10.5212 8.29685 10.4165 8.82203C10.3119 9.34722 10.0538 9.82956 9.67497 10.208C9.29612 10.5865 8.81354 10.8441 8.28825 10.9483C7.76297 11.0525 7.2186 10.9985 6.724 10.7932C6.2294 10.5879 5.80679 10.2405 5.50965 9.79504C5.21251 9.34953 5.05418 8.8259 5.05469 8.29039C5.05537 7.57289 5.34088 6.88501 5.84847 6.3779C6.35606 5.87079 7.04422 5.58594 7.76172 5.58594ZM13.0237 13.0625H17.4993V15.125H17.5612C18.1851 13.9442 19.7062 12.699 21.9775 12.699C26.7058 12.6887 27.5823 15.8005 27.5823 19.8352V28.0852H22.9134V20.7763C22.9134 19.036 22.8824 16.7956 20.4873 16.7956C18.0923 16.7956 17.6849 18.6931 17.6849 20.6628V28.0852H13.0237V13.0625Z" fill="white"/>
</svg>
