<svg width="29" height="28" viewBox="0 0 29 28" fill="none" xmlns="http://www.w3.org/2000/svg">
<path d="M19.1667 19.8333V18.6667H15.6667V15.1667H19.1667V17.5H21.5V19.8333H20.3333V22.1667H18V24.5H15.6667V21H18V19.8333H19.1667ZM25 24.5H20.3333V22.1667H22.6667V19.8333H25V24.5ZM4 3.5H13.3333V12.8333H4V3.5ZM15.6667 3.5H25V12.8333H15.6667V3.5ZM4 15.1667H13.3333V24.5H4V15.1667ZM21.5 15.1667H25V17.5H21.5V15.1667ZM7.5 7V9.33333H9.83333V7H7.5ZM7.5 18.6667V21H9.83333V18.6667H7.5ZM19.1667 7V9.33333H21.5V7H19.1667Z" fill="#007CCE"/>
</svg>
