<svg width="29" height="28" viewBox="0 0 29 28" fill="none" xmlns="http://www.w3.org/2000/svg">
<path d="M26.0153 1.05664H2.98312C2.19422 1.05664 1.55469 1.69617 1.55469 2.48508V25.5173C1.55469 26.3062 2.19422 26.9457 2.98312 26.9457H26.0153C26.8042 26.9457 27.4437 26.3062 27.4437 25.5173V2.48508C27.4437 1.69617 26.8042 1.05664 26.0153 1.05664Z" fill="#3D5A98"/>
<path d="M19.4186 26.943V16.9177H22.783L23.2861 13.0108H19.4186V10.5171C19.4186 9.38614 19.7336 8.61396 21.3545 8.61396H23.4239V5.11396C22.4218 5.00971 21.4148 4.96006 20.4073 4.96521C17.428 4.96521 15.3761 6.78083 15.3761 10.1299V13.0108H12.0117V16.9177H15.3761V26.943H19.4186Z" fill="white"/>
</svg>
